<svg xmlns="http://www.w3.org/2000/svg" height="380.0" width="480.0"><g transform="translate(40.0, 340.0)"><polyline fill="none" points="0.0,-150.0 0.4,-150.94245299125146 0.8,-151.88475715825032 1.2,-152.8267637002451 1.6,-153.7683238634827 2.0,-154.70928896469852 2.4,-155.64951041459497 2.8000000000000003,-156.58883974130575 3.2,-157.5271286138411 3.5999999999999996,-158.46422886551113 4.0,-159.39999251732283 4.3999999999999995,-160.33427180134785 4.8,-161.26691918405677 5.2,-162.19778738961628 5.6000000000000005,-163.12672942314572 6.0,-164.05359859392937 6.4,-164.97824853858052 6.800000000000001,-165.90053324415408 7.199999999999999,-166.8203070712036 7.6,-167.73742477677933 8.0,-168.6517415373641 8.4,-169.56311297174227 8.799999999999999,-170.4713951637994 9.2,-171.3764446852482 9.6,-172.27811861827763 10.0,-173.17627457812105 10.4,-174.0707707355407 10.8,-174.961465839224 11.200000000000001,-175.84821923808877 11.600000000000001,-176.7308909034938 12.0,-177.60934145135084 12.399999999999999,-178.48343216413508 12.8,-179.3530250127902 13.200000000000001,-180.2179826785247 13.600000000000001,-181.07816857449632 14.000000000000002,-181.93344686738047 14.399999999999999,-182.78368249881996 14.799999999999999,-183.6287412067524 15.2,-184.46848954661158 15.6,-185.30279491239992 16.0,-186.13152555762863 16.400000000000002,-186.95455061612185 16.8,-187.77174012268205 17.2,-188.582965033613 17.599999999999998,-189.38809724709716 18.0,-190.18700962342473 18.4,-190.9795760050702 18.8,-191.76567123661408 19.2,-192.54517118450676 19.6,-193.31795275667005 20.0,-194.0838939219355 20.4,-194.8428737293139 20.8,-195.5947723270954 21.2,-196.33947098177507 21.6,-197.07685209680253 22.0,-197.80679923115173 22.400000000000002,-198.52919711770832 22.800000000000004,-199.24393168147174 23.200000000000003,-199.95089005756887 23.599999999999998,-200.64996060907683 24.0,-201.34103294465166 24.4,-202.02399793596035 24.799999999999997,-202.6987477349137 25.2,-203.3651757906964 25.6,-204.02317686659305 26.0,-204.67264705660588 26.400000000000002,-205.31348380186301 26.8,-205.94558590681368 27.200000000000003,-206.5688535552078 27.6,-207.1831883258586 28.000000000000004,-207.78849320818418 28.4,-208.38467261752675 28.799999999999997,-208.9716324102464 29.2,-209.54927989858763 29.599999999999998,-210.11752386531575 30.0,-210.67627457812105 30.4,-211.2254438037888 30.8,-211.76494482213204 31.2,-212.29469243968595 31.6,-212.81460300316064 32.0,-213.32459441265115 32.4,-213.82458613460187 32.800000000000004,-214.31449921452392 33.199999999999996,-214.79425628946262 33.6,-215.26378160021443 34.00000000000001,-215.72300100328977 34.4,-216.17184198262146 34.8,-216.61023366101583 35.199999999999996,-217.03810681134476 35.6,-217.45539386747782 36.0,-217.86202893495147 36.4,-218.25794780137468 36.8,-218.6430879465688 37.2,-219.01738855244025 37.6,-219.38079051258435 37.99999999999999,-219.73323644161886 38.4,-220.07467068424592 38.800000000000004,-220.40503932404056 39.2,-220.72429019196483 39.6,-221.03237287460584 40.0,-221.32923872213652 40.400000000000006,-221.61484085599824 40.8,-221.8891341763032 41.199999999999996,-222.15207536895645 41.6,-222.40362291249556 42.0,-222.64373708464734 42.4,-222.87237996860054 42.800000000000004,-223.0895154589933 43.2,-223.29510926761452 43.6,-223.4891289288185 44.0,-223.67154380465166 44.4,-223.8423250896904 44.800000000000004,-224.0014458155901 45.2,-224.14888085534355 45.60000000000001,-224.28460692724883 46.0,-224.40860259858584 46.400000000000006,-224.52084828900064 46.800000000000004,-224.62132627359753 47.199999999999996,-224.71002068573796 47.6,-224.78691751954602 48.0,-224.85200463212038 48.4,-224.90527174545133 48.8,-224.94671044804417 49.2,-224.9763141962475 49.599999999999994,-224.99407831528623 50.0,-225.0 50.4,-224.99407831528623 50.8,-224.9763141962475 51.2,-224.94671044804417 51.6,-224.90527174545133 52.0,-224.85200463212038 52.400000000000006,-224.78691751954602 52.800000000000004,-224.71002068573796 53.2,-224.62132627359753 53.6,-224.52084828900064 54.0,-224.40860259858582 54.400000000000006,-224.28460692724883 54.800000000000004,-224.14888085534355 55.2,-224.0014458155901 55.60000000000001,-223.8423250896904 56.00000000000001,-223.67154380465166 56.39999999999999,-223.4891289288185 56.8,-223.29510926761452 57.199999999999996,-223.0895154589933 57.599999999999994,-222.87237996860057 57.99999999999999,-222.64373708464734 58.4,-222.40362291249556 58.8,-222.15207536895645 59.199999999999996,-221.8891341763032 59.599999999999994,-221.61484085599824 60.0,-221.32923872213652 60.4,-221.03237287460584 60.8,-220.72429019196483 61.199999999999996,-220.40503932404056 61.6,-220.07467068424592 62.0,-219.73323644161886 62.4,-219.38079051258435 62.8,-219.01738855244025 63.2,-218.6430879465688 63.6,-218.25794780137468 64.0,-217.86202893495147 64.39999999999999,-217.45539386747782 64.8,-217.0381068113448 65.2,-216.61023366101585 65.60000000000001,-216.17184198262152 66.0,-215.72300100328977 66.39999999999999,-215.26378160021443 66.8,-214.79425628946268 67.2,-214.31449921452392 67.60000000000001,-213.82458613460187 68.00000000000001,-213.32459441265112 68.4,-212.81460300316064 68.8,-212.29469243968595 69.19999999999999,-211.7649448221321 69.6,-211.2254438037888 70.0,-210.67627457812105 70.39999999999999,-210.11752386531575 70.8,-209.54927989858766 71.2,-208.9716324102464 71.6,-208.38467261752677 72.0,-207.78849320818418 72.39999999999999,-207.18318832585862 72.8,-206.5688535552078 73.2,-205.94558590681368 73.6,-205.31348380186301 74.00000000000001,-204.67264705660585 74.4,-204.02317686659305 74.8,-203.3651757906964 75.2,-202.6987477349137 75.6,-202.02399793596035 75.99999999999999,-201.34103294465166 76.4,-200.64996060907683 76.8,-199.95089005756887 77.2,-199.24393168147174 77.60000000000001,-198.52919711770832 78.0,-197.80679923115173 78.4,-197.07685209680253 78.8,-196.33947098177507 79.2,-195.5947723270954 79.60000000000001,-194.8428737293139 80.0,-194.0838939219355 80.4,-193.31795275667005 80.80000000000001,-192.54517118450673 81.2,-191.76567123661408 81.6,-190.9795760050702 81.99999999999999,-190.18700962342479 82.39999999999999,-189.38809724709722 82.8,-188.582965033613 83.2,-187.77174012268205 83.60000000000001,-186.95455061612188 84.0,-186.13152555762866 84.39999999999999,-185.30279491239995 84.8,-184.4684895466116 85.2,-183.6287412067524 85.60000000000001,-182.78368249881996 86.0,-181.93344686738047 86.4,-181.07816857449632 86.8,-180.2179826785247 87.2,-179.3530250127902 87.6,-178.48343216413508 88.0,-177.60934145135087 88.4,-176.7308909034938 88.8,-175.84821923808877 89.20000000000002,-174.961465839224 89.60000000000001,-174.07077073554075 90.0,-173.17627457812105 90.4,-172.27811861827763 90.8,-171.3764446852482 91.20000000000002,-170.47139516379937 91.60000000000001,-169.5631129717423 92.0,-168.6517415373641 92.4,-167.73742477677933 92.80000000000001,-166.8203070712036 93.19999999999999,-165.9005332441541 93.60000000000001,-164.97824853858052 94.0,-164.05359859392937 94.39999999999999,-163.12672942314572 94.8,-162.19778738961628 95.2,-161.2669191840568 95.6,-160.33427180134788 96.0,-159.39999251732286 96.39999999999999,-158.46422886551113 96.8,-157.5271286138411 97.2,-156.58883974130575 97.6,-155.649510414595 98.0,-154.70928896469852 98.4,-153.76832386348275 98.8,-152.8267637002451 99.19999999999999,-151.88475715825035 99.6,-150.94245299125146 100.0,-150.0 100.4,-149.05754700874854 100.8,-148.11524284174968 101.2,-147.17323629975493 101.6,-146.2316761365173 102.0,-145.2907110353015 102.4,-144.35048958540503 102.8,-143.41116025869428 103.2,-142.4728713861589 103.60000000000001,-141.53577113448887 104.0,-140.60000748267717 104.4,-139.66572819865215 104.80000000000001,-138.73308081594323 105.2,-137.80221261038375 105.60000000000001,-136.87327057685428 106.0,-135.94640140607063 106.4,-135.02175146141946 106.80000000000001,-134.0994667558459 107.2,-133.1796929287964 107.60000000000001,-132.26257522322064 108.0,-131.34825846263587 108.4,-130.43688702825773 108.80000000000001,-129.5286048362006 109.2,-128.6235553147518 109.60000000000001,-127.72188138172237 110.00000000000001,-126.82372542187892 110.4,-125.9292292644593 110.80000000000001,-125.038534160776 111.20000000000002,-124.15178076191121 111.60000000000001,-123.26910909650617 112.00000000000001,-122.39065854864913 112.4,-121.5165678358649 112.79999999999998,-120.64697498720984 113.19999999999999,-119.78201732147535 113.6,-118.92183142550373 113.99999999999999,-118.06655313261959 114.39999999999999,-117.21631750118006 114.8,-116.37125879324763 115.19999999999999,-115.53151045338845 115.6,-114.6972050876001 115.99999999999999,-113.86847444237138 116.39999999999999,-113.04544938387815 116.8,-112.22825987731798 117.19999999999999,-111.41703496638705 117.6,-110.61190275290285 118.0,-109.81299037657526 118.39999999999999,-109.02042399492981 118.8,-108.23432876338593 119.19999999999999,-107.45482881549329 119.6,-106.68204724332993 120.0,-105.91610607806453 120.39999999999999,-105.1571262706861 120.8,-104.40522767290462 121.2,-103.66052901822493 121.6,-102.92314790319746 122.0,-102.19320076884827 122.39999999999999,-101.4708028822917 122.8,-100.75606831852829 123.2,-100.04910994243114 123.6,-99.35003939092317 124.0,-98.65896705534834 124.4,-97.97600206403965 124.8,-97.30125226508632 125.2,-96.63482420930362 125.6,-95.97682313340698 126.0,-95.32735294339415 126.4,-94.68651619813697 126.8,-94.05441409318634 127.2,-93.43114644479222 127.60000000000001,-92.8168116741414 128.0,-92.2115067918158 128.40000000000003,-91.61532738247324 128.79999999999998,-91.0283675897536 129.20000000000002,-90.45072010141236 129.6,-89.88247613468427 130.0,-89.32372542187895 130.4,-88.7745561962112 130.8,-88.23505517786795 131.20000000000002,-87.70530756031405 131.6,-87.18539699683936 132.0,-86.67540558734885 132.40000000000003,-86.17541386539808 132.79999999999998,-85.6855007854761 133.20000000000002,-85.20574371053736 133.6,-84.73621839978559 134.0,-84.27699899671023 134.4,-83.8281580173785 134.8,-83.38976633898416 135.20000000000002,-82.9618931886552 135.60000000000002,-82.54460613252218 136.00000000000003,-82.13797106504852 136.39999999999998,-81.74205219862533 136.8,-81.35691205343119 137.20000000000002,-80.98261144755972 137.6,-80.61920948741567 138.0,-80.26676355838117 138.39999999999998,-79.92532931575413 138.79999999999998,-79.59496067595946 139.2,-79.27570980803517 139.6,-78.96762712539419 140.0,-78.67076127786348 140.4,-78.38515914400178 140.79999999999998,-78.11086582369683 141.2,-77.84792463104357 141.6,-77.59637708750448 142.0,-77.35626291535267 142.4,-77.12762003139947 142.79999999999998,-76.91048454100671 143.2,-76.7048907323855 143.6,-76.51087107118148 144.0,-76.32845619534834 144.4,-76.1576749103096 144.79999999999998,-75.99855418440991 145.2,-75.85111914465645 145.6,-75.71539307275117 146.0,-75.59139740141417 146.4,-75.47915171099937 146.8,-75.37867372640248 147.2,-75.28997931426206 147.6,-75.21308248045396 148.00000000000003,-75.14799536787963 148.39999999999998,-75.09472825454868 148.8,-75.05328955195581 149.2,-75.0236858037525 149.6,-75.00592168471378 150.0,-75.0 150.4,-75.00592168471378 150.8,-75.0236858037525 151.2,-75.05328955195581 151.60000000000002,-75.09472825454868 151.99999999999997,-75.14799536787963 152.4,-75.21308248045396 152.8,-75.28997931426206 153.2,-75.37867372640248 153.6,-75.47915171099937 154.0,-75.59139740141416 154.4,-75.71539307275117 154.8,-75.85111914465645 155.20000000000002,-75.99855418440991 155.6,-76.1576749103096 156.0,-76.32845619534834 156.4,-76.51087107118148 156.8,-76.7048907323855 157.20000000000002,-76.91048454100671 157.6,-77.12762003139945 158.0,-77.35626291535267 158.4,-77.59637708750448 158.8,-77.84792463104357 159.20000000000002,-78.11086582369683 159.6,-78.38515914400178 160.0,-78.67076127786348 160.4,-78.96762712539417 160.8,-79.27570980803517 161.20000000000002,-79.59496067595944 161.60000000000002,-79.92532931575408 162.0,-80.26676355838114 162.4,-80.61920948741566 162.79999999999998,-80.9826114475597 163.2,-81.35691205343119 163.60000000000002,-81.74205219862533 163.99999999999997,-82.1379710650485 164.39999999999998,-82.54460613252213 164.79999999999998,-82.9618931886552 165.2,-83.38976633898415 165.6,-83.8281580173785 166.0,-84.2769989967102 166.4,-84.73621839978556 166.79999999999998,-85.20574371053735 167.20000000000002,-85.68550078547608 167.59999999999997,-86.17541386539808 168.0,-86.67540558734883 168.4,-87.18539699683934 168.79999999999998,-87.70530756031404 169.2,-88.23505517786792 169.6,-88.7745561962112 170.0,-89.32372542187895 170.4,-89.88247613468425 170.79999999999998,-90.45072010141236 171.20000000000002,-91.02836758975359 171.59999999999997,-91.6153273824732 172.0,-92.2115067918158 172.4,-92.81681167414139 172.8,-93.4311464447922 173.2,-94.05441409318634 173.6,-94.68651619813694 174.0,-95.32735294339413 174.4,-95.976823133407 174.8,-96.63482420930362 175.2,-97.30125226508626 175.6,-97.97600206403959 176.0,-98.65896705534833 176.4,-99.35003939092314 176.8,-100.04910994243113 177.2,-100.75606831852826 177.6,-101.47080288229166 178.0,-102.19320076884827 178.40000000000003,-102.92314790319749 178.79999999999998,-103.6605290182249 179.20000000000002,-104.40522767290457 179.6,-105.15712627068606 180.0,-105.9161060780645 180.4,-106.68204724332993 180.8,-107.45482881549326 181.20000000000002,-108.23432876338592 181.6,-109.02042399492983 182.0,-109.81299037657527 182.40000000000003,-110.61190275290285 182.79999999999998,-111.41703496638698 183.20000000000002,-112.22825987731791 183.6,-113.04544938387812 184.0,-113.86847444237137 184.4,-114.69720508760005 184.8,-115.53151045338844 185.20000000000002,-116.37125879324759 185.60000000000002,-117.21631750118007 186.00000000000003,-118.06655313261959 186.39999999999998,-118.92183142550368 186.8,-119.78201732147528 187.20000000000002,-120.64697498720982 187.6,-121.51656783586486 188.0,-122.39065854864909 188.39999999999998,-123.26910909650616 188.79999999999998,-124.15178076191118 189.2,-125.03853416077597 189.6,-125.92922926445927 190.0,-126.82372542187892 190.4,-127.72188138172237 190.79999999999998,-128.6235553147517 191.2,-129.52860483620054 191.6,-130.43688702825767 192.0,-131.34825846263584 192.4,-132.2625752232206 192.79999999999998,-133.17969292879638 193.2,-134.0994667558459 193.6,-135.02175146141946 194.0,-135.94640140607066 194.4,-136.8732705768543 194.79999999999998,-137.80221261038366 195.2,-138.73308081594317 195.6,-139.6657281986521 196.0,-140.60000748267714 196.4,-141.53577113448884 196.8,-142.4728713861589 197.2,-143.41116025869425 197.6,-144.35048958540503 198.00000000000003,-145.2907110353015 198.39999999999998,-146.23167613651722 198.8,-147.17323629975485 199.2,-148.11524284174965 199.6,-149.05754700874854 200.0,-149.99999999999997 200.4,-150.94245299125143 200.8,-151.88475715825032 201.2,-152.8267637002451 201.6,-153.76832386348275 202.0,-154.70928896469843 202.4,-155.6495104145949 202.8,-156.58883974130572 203.2,-157.52712861384109 203.6,-158.4642288655111 204.0,-159.39999251732283 204.4,-160.33427180134785 204.8,-161.2669191840568 205.20000000000002,-162.19778738961628 205.6,-163.1267294231457 206.0,-164.05359859392934 206.4,-164.97824853858052 206.8,-165.90053324415408 207.20000000000002,-166.8203070712036 207.6,-167.73742477677933 208.0,-168.65174153736413 208.4,-169.5631129717423 208.8,-170.47139516379943 209.20000000000002,-171.37644468524823 209.60000000000002,-172.2781186182776 210.0,-173.17627457812102 210.4,-174.0707707355407 210.8,-174.961465839224 211.20000000000002,-175.84821923808877 211.60000000000002,-176.73089090349384 212.0,-177.60934145135087 212.4,-178.48343216413508 212.8,-179.35302501279023 213.20000000000002,-180.21798267852466 213.60000000000002,-181.0781685744963 214.0,-181.93344686738044 214.4,-182.78368249881996 214.8,-183.6287412067524 215.20000000000002,-184.4684895466116 215.60000000000002,-185.30279491239995 216.0,-186.13152555762866 216.4,-186.9545506161219 216.8,-187.77174012268205 217.20000000000002,-188.582965033613 217.60000000000002,-189.3880972470972 218.00000000000003,-190.18700962342473 218.4,-190.9795760050702 218.8,-191.7656712366141 219.20000000000002,-192.54517118450678 219.60000000000002,-193.3179527566701 220.00000000000003,-194.0838939219355 220.4,-194.84287372931396 220.8,-195.5947723270954 221.20000000000002,-196.33947098177507 221.60000000000002,-197.07685209680253 222.00000000000003,-197.80679923115173 222.40000000000003,-198.52919711770832 222.8,-199.24393168147176 223.20000000000002,-199.9508900575689 223.60000000000002,-200.64996060907686 224.00000000000003,-201.3410329446517 224.40000000000003,-202.02399793596035 224.8,-202.6987477349137 225.2,-203.36517579069636 225.59999999999997,-204.02317686659296 225.99999999999997,-204.6726470566058 226.39999999999998,-205.31348380186296 226.79999999999998,-205.9455859068136 227.2,-206.56885355520774 227.59999999999997,-207.18318832585857 227.99999999999997,-207.78849320818415 228.39999999999998,-208.38467261752675 228.79999999999998,-208.97163241024637 229.2,-209.54927989858763 229.6,-210.1175238653157 229.99999999999997,-210.676274578121 230.39999999999998,-211.22544380378875 230.79999999999998,-211.764944822132 231.2,-212.29469243968592 231.6,-212.8146030031606 231.99999999999997,-213.32459441265112 232.39999999999998,-213.82458613460187 232.79999999999998,-214.31449921452392 233.2,-214.79425628946262 233.6,-215.26378160021437 234.0,-215.72300100328974 234.39999999999998,-216.17184198262146 234.79999999999998,-216.6102336610158 235.2,-217.03810681134476 235.6,-217.4553938674778 236.0,-217.86202893495144 236.39999999999998,-218.25794780137468 236.79999999999998,-218.6430879465688 237.2,-219.01738855244025 237.6,-219.38079051258435 238.0,-219.73323644161883 238.39999999999998,-220.0746706842459 238.79999999999998,-220.40503932404053 239.2,-220.72429019196483 239.6,-221.0323728746058 240.0,-221.32923872213652 240.39999999999998,-221.61484085599824 240.79999999999998,-221.88913417630317 241.2,-222.15207536895645 241.6,-222.40362291249554 242.0,-222.64373708464734 242.4,-222.87237996860054 242.79999999999998,-223.0895154589933 243.2,-223.29510926761452 243.6,-223.4891289288185 244.0,-223.67154380465166 244.4,-223.8423250896904 244.79999999999998,-224.0014458155901 245.2,-224.14888085534355 245.6,-224.28460692724883 246.0,-224.40860259858582 246.4,-224.52084828900064 246.8,-224.62132627359753 247.2,-224.71002068573796 247.6,-224.78691751954602 248.0,-224.85200463212038 248.4,-224.90527174545133 248.8,-224.94671044804417 249.2,-224.9763141962475 249.6,-224.99407831528623 250.0,-225.0 250.4,-224.99407831528623 250.8,-224.9763141962475 251.2,-224.94671044804417 251.6,-224.90527174545133 252.0,-224.85200463212038 252.4,-224.78691751954602 252.8,-224.71002068573796 253.2,-224.62132627359753 253.6,-224.52084828900064 254.0,-224.40860259858584 254.4,-224.28460692724883 254.8,-224.14888085534355 255.20000000000002,-224.0014458155901 255.6,-223.8423250896904 256.0,-223.67154380465166 256.4,-223.4891289288185 256.80000000000007,-223.29510926761452 257.2,-223.0895154589933 257.59999999999997,-222.87237996860057 258.0,-222.64373708464734 258.40000000000003,-222.40362291249556 258.8,-222.15207536895645 259.2,-221.8891341763032 259.6,-221.61484085599824 260.0,-221.32923872213652 260.40000000000003,-221.0323728746058 260.8,-220.72429019196483 261.2,-220.40503932404056 261.6,-220.07467068424592 262.0,-219.73323644161889 262.40000000000003,-219.38079051258435 262.8,-219.0173885524403 263.2,-218.6430879465688 263.6,-218.25794780137468 264.0,-217.86202893495144 264.40000000000003,-217.45539386747782 264.80000000000007,-217.03810681134476 265.2,-216.61023366101583 265.59999999999997,-216.17184198262154 266.0,-215.72300100328977 266.40000000000003,-215.26378160021443 266.8,-214.79425628946262 267.2,-214.31449921452392 267.6,-213.82458613460184 268.0,-213.32459441265115 268.40000000000003,-212.81460300316058 268.8,-212.29469243968595 269.2,-211.7649448221321 269.6,-211.22544380378878 270.0,-210.67627457812105 270.40000000000003,-210.11752386531572 270.8,-209.54927989858766 271.20000000000005,-208.97163241024637 271.6,-208.38467261752675 272.00000000000006,-207.78849320818415 272.40000000000003,-207.18318832585857 272.79999999999995,-206.5688535552078 273.20000000000005,-205.94558590681362 273.6,-205.31348380186307 274.0,-204.67264705660583 274.40000000000003,-204.02317686659305 274.8,-203.36517579069636 275.2,-202.69874773491375 275.59999999999997,-202.0239979359604 276.0,-201.34103294465172 276.4,-200.64996060907686 276.79999999999995,-199.95089005756896 277.20000000000005,-199.24393168147176 277.59999999999997,-198.5291971177084 277.99999999999994,-197.80679923115184 278.4,-197.07685209680255 278.79999999999995,-196.33947098177518 279.2,-195.59477232709546 279.59999999999997,-194.842873729314 280.0,-194.0838939219355 280.4,-193.31795275667014 280.8,-192.54517118450676 281.2,-191.76567123661417 281.59999999999997,-190.97957600507027 282.0,-190.1870096234248 282.4,-189.38809724709728 282.8,-188.58296503361302 283.2,-187.77174012268216 283.59999999999997,-186.95455061612188 284.0,-186.13152555762872 284.40000000000003,-185.30279491239995 284.8,-184.46848954661164 285.19999999999993,-183.62874120675252 285.59999999999997,-182.78368249881999 286.0,-181.93344686738052 286.4,-181.07816857449632 286.8,-180.21798267852478 287.2,-179.3530250127902 287.59999999999997,-178.48343216413517 288.0,-177.60934145135084 288.4,-176.73089090349387 288.8,-175.84821923808875 289.2,-174.96146583922405 289.59999999999997,-174.0707707355408 290.0,-173.17627457812108 290.4,-172.2781186182777 290.8,-171.3764446852482 291.2,-170.47139516379946 291.59999999999997,-169.56311297174227 292.0,-168.65174153736416 292.40000000000003,-167.73742477677933 292.8,-166.82030707120362 293.19999999999993,-165.9005332441542 293.6,-164.97824853858054 294.0,-164.05359859392942 294.4,-163.12672942314572 294.8,-162.19778738961634 295.2,-161.26691918405677 295.6,-160.3342718013479 296.00000000000006,-159.39999251732277 296.4,-158.46422886551116 296.79999999999995,-157.5271286138412 297.2,-156.58883974130575 297.6,-155.64951041459503 298.0,-154.70928896469852 298.4,-153.76832386348278 298.8,-152.82676370024507 299.2,-151.88475715825035 299.6,-150.94245299125143 300.0,-150.00000000000003 300.4,-149.05754700874866 300.8,-148.1152428417497 301.2,-147.173236299755 301.6,-146.23167613651728 302.0,-145.29071103530157 302.4,-144.35048958540503 302.8,-143.4111602586943 303.20000000000005,-142.47287138615883 303.6,-141.5357711344889 303.99999999999994,-140.60000748267726 304.4,-139.66572819865215 304.8,-138.73308081594328 305.2,-137.80221261038372 305.6,-136.87327057685434 306.0,-135.94640140607063 306.4,-135.0217514614195 306.80000000000007,-134.09946675584587 307.2,-133.1796929287964 307.59999999999997,-132.26257522322072 308.0,-131.3482584626359 308.40000000000003,-130.4368870282578 308.8,-129.5286048362006 309.2,-128.62355531475183 309.6,-127.72188138172235 310.0,-126.82372542187898 310.40000000000003,-125.92922926445925 310.8,-125.03853416077601 311.2,-124.15178076191128 311.6,-123.2691090965062 312.0,-122.3906585486492 312.40000000000003,-121.5165678358649 312.8,-120.64697498720986 313.2,-119.78201732147527 313.6,-118.92183142550371 314.0,-118.0665531326195 314.40000000000003,-117.21631750118003 314.80000000000007,-116.3712587932475 315.2,-115.53151045338839 315.59999999999997,-114.69720508760011 316.0,-113.86847444237132 316.40000000000003,-113.04544938387816 316.8,-112.2282598773179 317.2,-111.41703496638704 317.6,-110.61190275290278 318.0,-109.81299037657526 318.40000000000003,-109.02042399492974 318.8,-108.23432876338588 319.2,-107.4548288154933 319.6,-106.6820472433299 320.0,-105.91610607806453 320.40000000000003,-105.15712627068605 320.8,-104.4052276729046 321.20000000000005,-103.66052901822486 321.6,-102.92314790319746 322.00000000000006,-102.1932007688482 322.40000000000003,-101.47080288229166 322.79999999999995,-100.7560683185283 323.20000000000005,-100.04910994243109 323.6,-99.35003939092317 324.0,-98.65896705534831 324.40000000000003,-97.97600206403963 324.8,-97.30125226508626 325.2,-96.63482420930369 325.59999999999997,-95.97682313340702 326.0,-95.32735294339422 326.4,-94.68651619813697 326.79999999999995,-94.0544140931864 327.20000000000005,-93.43114644479223 327.59999999999997,-92.81681167414146 327.99999999999994,-92.21150679181589 328.4,-91.61532738247328 328.79999999999995,-91.02836758975366 329.2,-90.45072010141239 329.59999999999997,-89.88247613468432 330.0,-89.32372542187896 330.4,-88.77455619621126 330.8,-88.23505517786795 331.2,-87.70530756031408 331.59999999999997,-87.18539699683944 332.0,-86.6754055873489 332.4,-86.17541386539817 332.8,-85.68550078547611 333.2,-85.20574371053739 333.59999999999997,-84.73621839978559 334.0,-84.27699899671028 334.40000000000003,-83.82815801737851 334.8,-83.38976633898419 335.19999999999993,-82.96189318865527 335.59999999999997,-82.5446061325222 336.0,-82.13797106504857 336.4,-81.74205219862534 336.8,-81.35691205343122 337.2,-80.98261144755973 337.59999999999997,-80.61920948741569 338.0,-80.26676355838114 338.4,-79.92532931575413 338.8,-79.59496067595944 339.2,-79.27570980803517 339.59999999999997,-78.96762712539423 340.0,-78.67076127786349 340.4,-78.3851591440018 340.8,-78.11086582369681 341.2,-77.84792463104358 341.59999999999997,-77.59637708750446 342.0,-77.35626291535267 342.40000000000003,-77.12762003139945 342.8,-76.91048454100672 343.19999999999993,-76.70489073238552 343.6,-76.51087107118148 344.0,-76.32845619534837 344.4,-76.1576749103096 344.8,-75.99855418440991 345.2,-75.85111914465645 345.6,-75.71539307275117 346.00000000000006,-75.59139740141416 346.4,-75.47915171099937 346.79999999999995,-75.3786737264025 347.2,-75.28997931426208 347.6,-75.21308248045396 348.0,-75.14799536787963 348.4,-75.09472825454868 348.8,-75.05328955195581 349.2,-75.0236858037525 349.6,-75.00592168471378 350.0,-75.0 350.4,-75.00592168471378 350.8,-75.0236858037525 351.2,-75.0532895519558 351.6,-75.09472825454868 352.0,-75.14799536787963 352.4,-75.21308248045396 352.8,-75.28997931426206 353.20000000000005,-75.3786737264025 353.6,-75.47915171099937 353.99999999999994,-75.59139740141416 354.4,-75.71539307275117 354.8,-75.85111914465644 355.2,-75.99855418440991 355.6,-76.1576749103096 356.0,-76.32845619534835 356.4,-76.51087107118148 356.80000000000007,-76.7048907323855 357.2,-76.91048454100671 357.59999999999997,-77.12762003139943 358.0,-77.35626291535267 358.40000000000003,-77.59637708750444 358.8,-77.84792463104357 359.2,-78.1108658236968 359.6,-78.38515914400179 360.0,-78.67076127786348 360.40000000000003,-78.96762712539419 360.8,-79.27570980803516 361.2,-79.59496067595941 361.6,-79.92532931575408 362.0,-80.26676355838111 362.40000000000003,-80.61920948741566 362.8,-80.9826114475597 363.2,-81.35691205343119 363.6,-81.7420521986253 364.0,-82.13797106504856 364.40000000000003,-82.54460613252218 364.80000000000007,-82.96189318865524 365.2,-83.38976633898417 365.59999999999997,-83.82815801737848 366.0,-84.27699899671023 366.40000000000003,-84.73621839978556 366.8,-85.20574371053736 367.2,-85.68550078547608 367.6,-86.17541386539814 368.0,-86.67540558734886 368.40000000000003,-87.18539699683942 368.8,-87.70530756031405 369.2,-88.23505517786792 369.6,-88.77455619621124 370.0,-89.32372542187892 370.40000000000003,-89.88247613468428 370.8,-90.45072010141233 371.20000000000005,-91.02836758975363 371.6,-91.61532738247324 372.00000000000006,-92.21150679181585 372.40000000000003,-92.8168116741414 372.79999999999995,-93.43114644479219 373.20000000000005,-94.05441409318637 373.6,-94.68651619813694 374.0,-95.32735294339416 374.40000000000003,-95.97682313340697 374.8,-96.63482420930364 375.2,-97.30125226508622 375.59999999999997,-97.97600206403958 376.0,-98.65896705534826 376.4,-99.35003939092314 376.79999999999995,-100.04910994243106 377.20000000000005,-100.75606831852825 377.59999999999997,-101.47080288229162 377.99999999999994,-102.19320076884817 378.4,-102.92314790319742 378.79999999999995,-103.66052901822484 379.2,-104.40522767290456 379.59999999999997,-105.15712627068599 380.0,-105.9161060780645 380.4,-106.68204724332985 380.8,-107.45482881549326 381.2,-108.23432876338585 381.59999999999997,-109.02042399492971 382.0,-109.81299037657519 382.4,-110.61190275290271 382.8,-111.41703496638698 383.2,-112.22825987731785 383.59999999999997,-113.04544938387812 384.0,-113.86847444237128 384.40000000000003,-114.69720508760004 384.8,-115.53151045338835 385.19999999999993,-116.37125879324746 385.59999999999997,-117.21631750117999 386.0,-118.06655313261945 386.4,-118.92183142550364 386.8,-119.78201732147521 387.2,-120.64697498720979 387.59999999999997,-121.51656783586485 388.0,-122.39065854864914 388.4,-123.26910909650614 388.8,-124.15178076191123 389.2,-125.03853416077595 389.59999999999997,-125.92922926445918 390.0,-126.8237254218789 390.4,-127.72188138172228 390.8,-128.62355531475177 391.2,-129.52860483620054 391.59999999999997,-130.43688702825773 392.0,-131.34825846263584 392.40000000000003,-132.26257522322067 392.8,-133.17969292879638 393.19999999999993,-134.0994667558458 393.6,-135.02175146141946 394.0,-135.94640140607058 394.4,-136.87327057685428 394.8,-137.80221261038366 395.2,-138.73308081594323 395.6,-139.6657281986521 396.00000000000006,-140.6000074826772 396.4,-141.53577113448884 396.79999999999995,-142.4728713861588 397.2,-143.41116025869422 397.6,-144.35048958540494 398.0,-145.29071103530148 398.4,-146.23167613651722 398.8,-147.1732362997549 399.2,-148.11524284174962 399.6,-149.05754700874857 400.0,-149.99999999999997" stroke="red" stroke-width="2.0"/><g><g><line fill="none" stroke="black" x1="-8.0" x2="408.0" y1="0.0" y2="0.0"/><polyline fill="black" points="408.0,-5.0 408.0,5.0 424.0,0.0" stroke="none"/><line fill="none" stroke="black" x1="31.83098861837907" x2="31.83098861837907" y1="-3.0" y2="3.0"/><line fill="none" stroke="black" x1="63.66197723675814" x2="63.66197723675814" y1="-3.0" y2="3.0"/><line fill="none" stroke="black" x1="95.4929658551372" x2="95.4929658551372" y1="-3.0" y2="3.0"/><line fill="none" stroke="black" x1="127.32395447351628" x2="127.32395447351628" y1="-3.0" y2="3.0"/><line fill="none" stroke="black" x1="159.15494309189535" x2="159.15494309189535" y1="-3.0" y2="3.0"/><line fill="none" stroke="black" x1="190.9859317102744" x2="190.9859317102744" y1="-3.0" y2="3.0"/><line fill="none" stroke="black" x1="222.8169203286535" x2="222.8169203286535" y1="-3.0" y2="3.0"/><line fill="none" stroke="black" x1="254.64790894703256" x2="254.64790894703256" y1="-3.0" y2="3.0"/><line fill="none" stroke="black" x1="286.4788975654116" x2="286.4788975654116" y1="-3.0" y2="3.0"/><line fill="none" stroke="black" x1="318.3098861837907" x2="318.3098861837907" y1="-3.0" y2="3.0"/><line fill="none" stroke="black" x1="350.1408748021698" x2="350.1408748021698" y1="-3.0" y2="3.0"/><line fill="none" stroke="black" x1="381.9718634205488" x2="381.9718634205488" y1="-3.0" y2="3.0"/><text dominant-baseline="middle" fill="black" stroke="none" text-anchor="middle" x="31.83098861837907" y="14.0">1</text><text dominant-baseline="middle" fill="black" stroke="none" text-anchor="middle" x="63.66197723675814" y="14.0">2</text><text dominant-baseline="middle" fill="black" stroke="none" text-anchor="middle" x="95.4929658551372" y="14.0">3</text><text dominant-baseline="middle" fill="black" stroke="none" text-anchor="middle" x="127.32395447351628" y="14.0">4</text><text dominant-baseline="middle" fill="black" stroke="none" text-anchor="middle" x="159.15494309189535" y="14.0">5</text><text dominant-baseline="middle" fill="black" stroke="none" text-anchor="middle" x="190.9859317102744" y="14.0">6</text><text dominant-baseline="middle" fill="black" stroke="none" text-anchor="middle" x="222.8169203286535" y="14.0">7</text><text dominant-baseline="middle" fill="black" stroke="none" text-anchor="middle" x="254.64790894703256" y="14.0">8</text><text dominant-baseline="middle" fill="black" stroke="none" text-anchor="middle" x="286.4788975654116" y="14.0">9</text><text dominant-baseline="middle" fill="black" stroke="none" text-anchor="middle" x="318.3098861837907" y="14.0">10</text><text dominant-baseline="middle" fill="black" stroke="none" text-anchor="middle" x="350.1408748021698" y="14.0">11</text><text dominant-baseline="middle" fill="black" stroke="none" text-anchor="middle" x="381.9718634205488" y="14.0">12</text></g><g><line fill="none" stroke="black" x1="0.0" x2="0.0" y1="8.0" y2="-308.0"/><polyline fill="black" points="-5.0,-308.0 5.0,-308.0 0.0,-324.0" stroke="none"/><line fill="none" stroke="black" x1="-3.0" x2="3.0" y1="-75.0" y2="-75.0"/><line fill="none" stroke="black" x1="-3.0" x2="3.0" y1="-150.0" y2="-150.0"/><line fill="none" stroke="black" x1="-3.0" x2="3.0" y1="-225.0" y2="-225.0"/><line fill="none" stroke="black" x1="-3.0" x2="3.0" y1="-300.0" y2="-300.0"/><text dominant-baseline="middle" fill="black" stroke="none" text-anchor="middle" x="-10.0" y="-75.0">1</text><text dominant-baseline="middle" fill="black" stroke="none" text-anchor="middle" x="-10.0" y="-150.0">2</text><text dominant-baseline="middle" fill="black" stroke="none" text-anchor="middle" x="-10.0" y="-225.0">3</text><text dominant-baseline="middle" fill="black" stroke="none" text-anchor="middle" x="-10.0" y="-300.0">4</text></g><text dominant-baseline="middle" fill="black" stroke="none" text-anchor="middle" x="-10.0" y="14.0">0</text></g></g></svg>