<svg xmlns="http://www.w3.org/2000/svg" height="380.0" width="480.0"><g transform="translate(40.0, 340.0)"><polyline fill="none" points="0.0,-50.0 0.4,-50.314150997083814 0.8,-50.62825238608344 1.2,-50.942254566748375 1.6,-51.25610795449423 2.0,-51.56976298823284 2.4,-51.883170138198324 2.8000000000000003,-52.196279913768585 3.2,-52.50904287128037 3.5999999999999996,-52.82140962183704 4.0,-53.13333083910761 4.3999999999999995,-53.444757267115946 4.8,-53.75563972801893 5.2,-54.06592912987209 5.6000000000000005,-54.3755764743819 6.0,-54.68453286464312 6.4,-54.99274951286017 6.800000000000001,-55.300177748051354 7.199999999999999,-55.60676902373453 7.6,-55.91247492559311 8.0,-56.217247179121365 8.4,-56.52103765724742 8.799999999999999,-56.82379838793313 9.2,-57.1254815617494 9.6,-57.42603953942588 10.0,-57.72542485937369 10.4,-58.02359024518023 10.8,-58.320488613074666 11.200000000000001,-58.616073079362934 11.600000000000001,-58.910296967831265 12.0,-59.20311381711695 12.399999999999999,-59.49447738804503 12.8,-59.78434167093006 13.200000000000001,-60.07266089284157 13.600000000000001,-60.3593895248321 14.000000000000002,-60.64448228912682 14.399999999999999,-60.92789416627332 14.799999999999999,-61.20958040225081 15.2,-61.48949651553719 15.6,-61.76759830413331 16.0,-62.04384185254288 16.400000000000002,-62.31818353870728 16.8,-62.59058004089402 17.2,-62.86098834453766 17.599999999999998,-63.12936574903239 18.0,-63.39566987447491 18.4,-63.659858668356726 18.8,-63.9218904122047 19.2,-64.18172372816892 19.6,-64.43931758555668 20.0,-64.69463130731184 20.4,-64.94762457643796 20.8,-65.19825744236513 21.2,-65.44649032725836 21.6,-65.69228403226751 22.0,-65.93559974371725 22.400000000000002,-66.1763990392361 22.800000000000004,-66.41464389382391 23.200000000000003,-66.65029668585629 23.599999999999998,-66.8833202030256 24.0,-67.11367764821722 24.4,-67.34133264532011 24.799999999999997,-67.56624924497123 25.2,-67.78839193023214 25.6,-68.00772562219768 26.0,-68.2242156855353 26.400000000000002,-68.43782793395434 26.8,-68.64852863560455 27.200000000000003,-68.8562845184026 27.6,-69.0610627752862 28.000000000000004,-69.26283106939472 28.4,-69.46155753917557 28.799999999999997,-69.65721080341547 29.2,-69.84975996619588 29.599999999999998,-70.03917462177192 30.0,-70.22542485937369 30.4,-70.4084812679296 30.8,-70.58831494071069 31.2,-70.76489747989532 31.6,-70.93820100105354 32.0,-71.10819813755039 32.4,-71.27486204486729 32.800000000000004,-71.43816640484131 33.199999999999996,-71.59808542982088 33.6,-71.75459386673815 34.00000000000001,-71.90766700109658 34.4,-72.05728066087381 34.8,-72.20341122033861 35.199999999999996,-72.34603560378159 35.6,-72.48513128915928 36.0,-72.62067631165048 36.4,-72.7526492671249 36.8,-72.88102931552294 37.2,-73.00579618414676 37.6,-73.12693017086144 37.99999999999999,-73.24441214720629 38.4,-73.3582235614153 38.800000000000004,-73.46834644134685 39.2,-73.5747633973216 39.6,-73.67745762486862 40.0,-73.77641290737884 40.400000000000006,-73.87161361866607 40.8,-73.9630447254344 41.199999999999996,-74.05069178965215 41.6,-74.13454097083185 42.0,-74.21457902821578 42.4,-74.29079332286685 42.800000000000004,-74.36317181966443 43.2,-74.43170308920483 43.6,-74.49637630960618 44.0,-74.55718126821722 44.4,-74.61410836323013 44.800000000000004,-74.6671486051967 45.2,-74.71629361844785 45.60000000000001,-74.76153564241628 46.0,-74.80286753286195 46.400000000000006,-74.8402827630002 46.800000000000004,-74.87377542453251 47.199999999999996,-74.90334022857931 47.6,-74.92897250651535 48.0,-74.9506682107068 48.4,-74.96842391515044 48.8,-74.98223681601472 49.2,-74.9921047320825 49.599999999999994,-74.9980261050954 50.0,-75.0 50.4,-74.9980261050954 50.8,-74.9921047320825 51.2,-74.98223681601472 51.6,-74.96842391515044 52.0,-74.9506682107068 52.400000000000006,-74.92897250651535 52.800000000000004,-74.90334022857931 53.2,-74.87377542453251 53.6,-74.8402827630002 54.0,-74.80286753286194 54.400000000000006,-74.76153564241628 54.800000000000004,-74.71629361844785 55.2,-74.6671486051967 55.60000000000001,-74.61410836323013 56.00000000000001,-74.55718126821722 56.39999999999999,-74.49637630960618 56.8,-74.43170308920483 57.199999999999996,-74.36317181966443 57.599999999999994,-74.29079332286685 57.99999999999999,-74.21457902821578 58.4,-74.13454097083185 58.8,-74.05069178965215 59.199999999999996,-73.9630447254344 59.599999999999994,-73.87161361866607 60.0,-73.77641290737884 60.4,-73.67745762486862 60.8,-73.5747633973216 61.199999999999996,-73.46834644134685 61.6,-73.3582235614153 62.0,-73.24441214720629 62.4,-73.12693017086144 62.8,-73.00579618414676 63.2,-72.88102931552294 63.6,-72.7526492671249 64.0,-72.62067631165048 64.39999999999999,-72.48513128915928 64.8,-72.3460356037816 65.2,-72.20341122033862 65.60000000000001,-72.05728066087384 66.0,-71.90766700109658 66.39999999999999,-71.75459386673815 66.8,-71.59808542982088 67.2,-71.43816640484131 67.60000000000001,-71.27486204486729 68.00000000000001,-71.10819813755037 68.4,-70.93820100105354 68.8,-70.76489747989532 69.19999999999999,-70.58831494071069 69.6,-70.4084812679296 70.0,-70.22542485937369 70.39999999999999,-70.03917462177192 70.8,-69.84975996619589 71.2,-69.65721080341547 71.6,-69.46155753917559 72.0,-69.26283106939472 72.39999999999999,-69.0610627752862 72.8,-68.8562845184026 73.2,-68.64852863560455 73.6,-68.43782793395434 74.00000000000001,-68.22421568553528 74.4,-68.00772562219768 74.8,-67.78839193023214 75.2,-67.56624924497123 75.6,-67.34133264532011 75.99999999999999,-67.11367764821722 76.4,-66.8833202030256 76.8,-66.65029668585629 77.2,-66.41464389382391 77.60000000000001,-66.1763990392361 78.0,-65.93559974371725 78.4,-65.69228403226751 78.8,-65.44649032725836 79.2,-65.19825744236513 79.60000000000001,-64.94762457643796 80.0,-64.69463130731184 80.4,-64.43931758555668 80.80000000000001,-64.1817237281689 81.2,-63.9218904122047 81.6,-63.659858668356726 81.99999999999999,-63.395669874474926 82.39999999999999,-63.1293657490324 82.8,-62.86098834453766 83.2,-62.59058004089402 83.60000000000001,-62.318183538707295 84.0,-62.04384185254289 84.39999999999999,-61.767598304133315 84.8,-61.4894965155372 85.2,-61.20958040225081 85.60000000000001,-60.92789416627332 86.0,-60.64448228912682 86.4,-60.3593895248321 86.8,-60.07266089284157 87.2,-59.78434167093006 87.6,-59.49447738804503 88.0,-59.20311381711696 88.4,-58.910296967831265 88.8,-58.616073079362934 89.20000000000002,-58.320488613074666 89.60000000000001,-58.02359024518025 90.0,-57.72542485937369 90.4,-57.42603953942588 90.8,-57.1254815617494 91.20000000000002,-56.823798387933124 91.60000000000001,-56.52103765724743 92.0,-56.217247179121365 92.4,-55.91247492559311 92.80000000000001,-55.60676902373453 93.19999999999999,-55.300177748051375 93.60000000000001,-54.99274951286017 94.0,-54.68453286464312 94.39999999999999,-54.3755764743819 94.8,-54.06592912987209 95.2,-53.755639728018934 95.6,-53.44475726711596 96.0,-53.133330839107614 96.39999999999999,-52.82140962183704 96.8,-52.50904287128037 97.2,-52.196279913768585 97.6,-51.88317013819833 98.0,-51.56976298823284 98.4,-51.25610795449424 98.8,-50.942254566748375 99.19999999999999,-50.628252386083446 99.6,-50.314150997083814 100.0,-50.0 100.4,-49.685849002916186 100.8,-49.37174761391656 101.2,-49.05774543325164 101.6,-48.74389204550577 102.0,-48.43023701176717 102.4,-48.116829861801676 102.8,-47.80372008623143 103.2,-47.49095712871963 103.60000000000001,-47.17859037816296 104.0,-46.8666691608924 104.4,-46.55524273288405 104.80000000000001,-46.24436027198108 105.2,-45.93407087012791 105.60000000000001,-45.6244235256181 106.0,-45.315467135356876 106.4,-45.007250487139814 106.80000000000001,-44.69982225194864 107.2,-44.393230976265464 107.60000000000001,-44.087525074406884 108.0,-43.78275282087862 108.4,-43.47896234275258 108.80000000000001,-43.17620161206686 109.2,-42.8745184382506 109.60000000000001,-42.57396046057413 110.00000000000001,-42.27457514062631 110.4,-41.97640975481976 110.80000000000001,-41.67951138692533 111.20000000000002,-41.38392692063707 111.60000000000001,-41.08970303216872 112.00000000000001,-40.79688618288304 112.4,-40.50552261195497 112.79999999999998,-40.21565832906995 113.19999999999999,-39.92733910715845 113.6,-39.640610475167904 113.99999999999999,-39.355517710873194 114.39999999999999,-39.07210583372668 114.8,-38.790419597749214 115.19999999999999,-38.51050348446282 115.6,-38.23240169586669 115.99999999999999,-37.95615814745713 116.39999999999999,-37.68181646129272 116.8,-37.409419959105996 117.19999999999999,-37.13901165546235 117.6,-36.87063425096761 118.0,-36.60433012552509 118.39999999999999,-36.340141331643274 118.8,-36.07810958779531 119.19999999999999,-35.818276271831095 119.6,-35.56068241444331 120.0,-35.30536869268818 120.39999999999999,-35.05237542356204 120.8,-34.801742557634874 121.2,-34.55350967274164 121.6,-34.307715967732484 122.0,-34.06440025628276 122.39999999999999,-33.8236009607639 122.8,-33.58535610617609 123.2,-33.34970331414371 123.6,-33.11667979697439 124.0,-32.88632235178278 124.4,-32.658667354679885 124.8,-32.433750755028775 125.2,-32.21160806976786 125.6,-31.992274377802328 126.0,-31.77578431446472 126.4,-31.562172066045658 126.8,-31.351471364395447 127.2,-31.143715481597408 127.60000000000001,-30.9389372247138 128.0,-30.737168930605264 128.40000000000003,-30.538442460824413 128.79999999999998,-30.342789196584537 129.20000000000002,-30.150240033804124 129.6,-29.96082537822809 130.0,-29.774575140626315 130.4,-29.591518732070398 130.8,-29.411685059289315 131.20000000000002,-29.235102520104682 131.6,-29.061798998946454 132.0,-28.891801862449615 132.40000000000003,-28.7251379551327 132.79999999999998,-28.561833595158696 133.20000000000002,-28.40191457017912 133.6,-28.245406133261863 134.0,-28.092332998903416 134.4,-27.942719339126164 134.8,-27.796588779661384 135.20000000000002,-27.653964396218402 135.60000000000002,-27.514868710840723 136.00000000000003,-27.379323688349505 136.39999999999998,-27.247350732875105 136.8,-27.118970684477063 137.20000000000002,-26.994203815853243 137.6,-26.873069829138558 138.0,-26.755587852793724 138.39999999999998,-26.64177643858471 138.79999999999998,-26.53165355865315 139.2,-26.425236602678392 139.6,-26.3225423751314 140.0,-26.22358709262116 140.4,-26.12838638133392 140.79999999999998,-26.036955274565607 141.2,-25.949308210347855 141.6,-25.865459029168157 142.0,-25.785420971784223 142.4,-25.709206677133153 142.79999999999998,-25.63682818033557 143.2,-25.568296910795166 143.6,-25.503623690393827 144.0,-25.44281873178278 144.4,-25.385891636769866 144.79999999999998,-25.3328513948033 145.2,-25.28370638155215 145.6,-25.238464357583723 146.0,-25.197132467138058 146.4,-25.159717236999793 146.8,-25.126224575467493 147.2,-25.096659771420686 147.6,-25.071027493484653 148.00000000000003,-25.04933178929321 148.39999999999998,-25.031576084849558 148.8,-25.01776318398527 149.2,-25.007895267917505 149.6,-25.001973894904594 150.0,-25.0 150.4,-25.001973894904594 150.8,-25.007895267917505 151.2,-25.01776318398527 151.60000000000002,-25.031576084849558 151.99999999999997,-25.04933178929321 152.4,-25.071027493484653 152.8,-25.096659771420686 153.2,-25.126224575467493 153.6,-25.159717236999793 154.0,-25.197132467138047 154.4,-25.238464357583723 154.8,-25.28370638155215 155.20000000000002,-25.3328513948033 155.6,-25.385891636769866 156.0,-25.44281873178278 156.4,-25.503623690393827 156.8,-25.568296910795166 157.20000000000002,-25.63682818033557 157.6,-25.70920667713315 158.0,-25.785420971784223 158.4,-25.865459029168157 158.8,-25.949308210347855 159.20000000000002,-26.036955274565607 159.6,-26.12838638133392 160.0,-26.22358709262116 160.4,-26.32254237513139 160.8,-26.425236602678392 161.20000000000002,-26.531653558653147 161.60000000000002,-26.6417764385847 162.0,-26.755587852793713 162.4,-26.87306982913855 162.79999999999998,-26.994203815853233 163.2,-27.118970684477063 163.60000000000002,-27.247350732875105 163.99999999999997,-27.3793236883495 164.39999999999998,-27.51486871084071 164.79999999999998,-27.653964396218402 165.2,-27.79658877966138 165.6,-27.942719339126164 166.0,-28.0923329989034 166.4,-28.245406133261852 166.79999999999998,-28.401914570179116 167.20000000000002,-28.561833595158692 167.59999999999997,-28.7251379551327 168.0,-28.89180186244961 168.4,-29.061798998946447 168.79999999999998,-29.23510252010468 169.2,-29.411685059289308 169.6,-29.591518732070398 170.0,-29.774575140626315 170.4,-29.960825378228083 170.79999999999998,-30.150240033804113 171.20000000000002,-30.34278919658453 171.59999999999997,-30.538442460824403 172.0,-30.737168930605264 172.4,-30.938937224713797 172.8,-31.1437154815974 173.2,-31.351471364395447 173.6,-31.562172066045648 174.0,-31.77578431446471 174.4,-31.99227437780233 174.8,-32.21160806976788 175.2,-32.433750755028754 175.6,-32.658667354679864 176.0,-32.88632235178278 176.4,-33.11667979697438 176.8,-33.34970331414371 177.2,-33.58535610617609 177.6,-33.82360096076389 178.0,-34.06440025628276 178.40000000000003,-34.3077159677325 178.79999999999998,-34.55350967274163 179.20000000000002,-34.80174255763485 179.6,-35.05237542356202 180.0,-35.30536869268817 180.4,-35.560682414443306 180.8,-35.81827627183108 181.20000000000002,-36.0781095877953 181.6,-36.34014133164328 182.0,-36.604330125525095 182.40000000000003,-36.87063425096761 182.79999999999998,-37.139011655462326 183.20000000000002,-37.409419959105975 183.6,-37.681816461292705 184.0,-37.95615814745712 184.4,-38.232401695866685 184.8,-38.51050348446281 185.20000000000002,-38.79041959774919 185.60000000000002,-39.07210583372669 186.00000000000003,-39.355517710873194 186.39999999999998,-39.64061047516789 186.8,-39.927339107158424 187.20000000000002,-40.21565832906993 187.6,-40.50552261195496 188.0,-40.79688618288303 188.39999999999998,-41.08970303216872 188.79999999999998,-41.383926920637066 189.2,-41.67951138692532 189.6,-41.976409754819755 190.0,-42.27457514062631 190.4,-42.57396046057413 190.79999999999998,-42.874518438250576 191.2,-43.17620161206685 191.6,-43.47896234275255 192.0,-43.78275282087861 192.4,-44.08752507440687 192.79999999999998,-44.393230976265464 193.2,-44.69982225194863 193.6,-45.00725048713982 194.0,-45.31546713535688 194.4,-45.6244235256181 194.79999999999998,-45.93407087012789 195.2,-46.24436027198105 195.6,-46.55524273288404 196.0,-46.86666916089238 196.4,-47.17859037816295 196.8,-47.49095712871962 197.2,-47.80372008623142 197.6,-48.116829861801676 198.00000000000003,-48.43023701176717 198.39999999999998,-48.743892045505746 198.8,-49.057745433251625 199.2,-49.37174761391655 199.6,-49.68584900291618 200.0,-50.0 200.4,-50.31415099708381 200.8,-50.62825238608344 201.2,-50.942254566748375 201.6,-51.25610795449424 202.0,-51.56976298823281 202.4,-51.88317013819831 202.8,-52.19627991376858 203.2,-52.509042871280364 203.6,-52.821409621837034 204.0,-53.13333083910761 204.4,-53.444757267115946 204.8,-53.755639728018934 205.20000000000002,-54.06592912987209 205.6,-54.375576474381894 206.0,-54.68453286464311 206.4,-54.99274951286017 206.8,-55.300177748051354 207.20000000000002,-55.60676902373453 207.6,-55.91247492559311 208.0,-56.21724717912138 208.4,-56.52103765724743 208.8,-56.823798387933145 209.20000000000002,-57.12548156174941 209.60000000000002,-57.42603953942587 210.0,-57.725424859373675 210.4,-58.02359024518023 210.8,-58.320488613074666 211.20000000000002,-58.616073079362934 211.60000000000002,-58.91029696783127 212.0,-59.20311381711696 212.4,-59.49447738804503 212.8,-59.784341670930075 213.20000000000002,-60.072660892841554 213.60000000000002,-60.359389524832096 214.0,-60.64448228912681 214.4,-60.92789416627332 214.8,-61.20958040225081 215.20000000000002,-61.4894965155372 215.60000000000002,-61.767598304133315 216.0,-62.04384185254289 216.4,-62.31818353870731 216.8,-62.59058004089402 217.20000000000002,-62.86098834453766 217.60000000000002,-63.129365749032395 218.00000000000003,-63.39566987447491 218.4,-63.659858668356726 218.8,-63.921890412204704 219.20000000000002,-64.18172372816893 219.60000000000002,-64.43931758555671 220.00000000000003,-64.69463130731184 220.4,-64.94762457643799 220.8,-65.19825744236513 221.20000000000002,-65.44649032725836 221.60000000000002,-65.69228403226751 222.00000000000003,-65.93559974371726 222.40000000000003,-66.1763990392361 222.8,-66.41464389382392 223.20000000000002,-66.6502966858563 223.60000000000002,-66.88332020302562 224.00000000000003,-67.11367764821723 224.40000000000003,-67.34133264532011 224.8,-67.56624924497123 225.2,-67.78839193023212 225.59999999999997,-68.00772562219765 225.99999999999997,-68.22421568553527 226.39999999999998,-68.43782793395432 226.79999999999998,-68.64852863560453 227.2,-68.85628451840257 227.59999999999997,-69.06106277528619 227.99999999999997,-69.26283106939472 228.39999999999998,-69.46155753917557 228.79999999999998,-69.65721080341545 229.2,-69.84975996619588 229.6,-70.03917462177189 229.99999999999997,-70.22542485937366 230.39999999999998,-70.40848126792957 230.79999999999998,-70.58831494071067 231.2,-70.7648974798953 231.6,-70.93820100105354 231.99999999999997,-71.10819813755037 232.39999999999998,-71.27486204486729 232.79999999999998,-71.43816640484131 233.2,-71.59808542982088 233.6,-71.75459386673813 234.0,-71.90766700109657 234.39999999999998,-72.05728066087381 234.79999999999998,-72.2034112203386 235.2,-72.34603560378159 235.6,-72.48513128915927 236.0,-72.62067631165048 236.39999999999998,-72.7526492671249 236.79999999999998,-72.88102931552294 237.2,-73.00579618414676 237.6,-73.12693017086144 238.0,-73.24441214720628 238.39999999999998,-73.35822356141529 238.79999999999998,-73.46834644134684 239.2,-73.5747633973216 239.6,-73.6774576248686 240.0,-73.77641290737884 240.39999999999998,-73.87161361866607 240.79999999999998,-73.96304472543439 241.2,-74.05069178965213 241.6,-74.13454097083185 242.0,-74.21457902821578 242.4,-74.29079332286685 242.79999999999998,-74.36317181966443 243.2,-74.43170308920483 243.6,-74.49637630960618 244.0,-74.55718126821722 244.4,-74.61410836323013 244.79999999999998,-74.6671486051967 245.2,-74.71629361844785 245.6,-74.76153564241628 246.0,-74.80286753286194 246.4,-74.8402827630002 246.8,-74.87377542453251 247.2,-74.90334022857931 247.6,-74.92897250651535 248.0,-74.9506682107068 248.4,-74.96842391515044 248.8,-74.98223681601472 249.2,-74.9921047320825 249.6,-74.9980261050954 250.0,-75.0 250.4,-74.9980261050954 250.8,-74.9921047320825 251.2,-74.98223681601472 251.6,-74.96842391515044 252.0,-74.9506682107068 252.4,-74.92897250651535 252.8,-74.90334022857931 253.2,-74.87377542453251 253.6,-74.8402827630002 254.0,-74.80286753286195 254.4,-74.76153564241628 254.8,-74.71629361844785 255.20000000000002,-74.6671486051967 255.6,-74.61410836323013 256.0,-74.55718126821722 256.4,-74.49637630960618 256.80000000000007,-74.43170308920483 257.2,-74.36317181966443 257.59999999999997,-74.29079332286685 258.0,-74.21457902821578 258.40000000000003,-74.13454097083185 258.8,-74.05069178965215 259.2,-73.9630447254344 259.6,-73.87161361866607 260.0,-73.77641290737884 260.40000000000003,-73.6774576248686 260.8,-73.5747633973216 261.2,-73.46834644134685 261.6,-73.3582235614153 262.0,-73.24441214720629 262.40000000000003,-73.12693017086144 262.8,-73.00579618414676 263.2,-72.88102931552294 263.6,-72.7526492671249 264.0,-72.62067631165048 264.40000000000003,-72.48513128915928 264.80000000000007,-72.34603560378159 265.2,-72.20341122033861 265.59999999999997,-72.05728066087384 266.0,-71.90766700109658 266.40000000000003,-71.75459386673815 266.8,-71.59808542982088 267.2,-71.43816640484131 267.6,-71.27486204486729 268.0,-71.10819813755039 268.40000000000003,-70.93820100105353 268.8,-70.76489747989532 269.2,-70.58831494071069 269.6,-70.40848126792959 270.0,-70.22542485937369 270.40000000000003,-70.0391746217719 270.8,-69.84975996619589 271.20000000000005,-69.65721080341545 271.6,-69.46155753917557 272.00000000000006,-69.26283106939472 272.40000000000003,-69.06106277528619 272.79999999999995,-68.8562845184026 273.20000000000005,-68.64852863560455 273.6,-68.43782793395435 274.0,-68.22421568553527 274.40000000000003,-68.00772562219768 274.8,-67.78839193023212 275.2,-67.56624924497126 275.59999999999997,-67.34133264532014 276.0,-67.11367764821723 276.4,-66.88332020302562 276.79999999999995,-66.6502966858563 277.20000000000005,-66.41464389382392 277.59999999999997,-66.17639903923613 277.99999999999994,-65.93559974371728 278.4,-65.69228403226752 278.79999999999995,-65.44649032725839 279.2,-65.19825744236515 279.59999999999997,-64.947624576438 280.0,-64.69463130731184 280.4,-64.43931758555671 280.8,-64.18172372816892 281.2,-63.92189041220472 281.59999999999997,-63.65985866835676 282.0,-63.39566987447493 282.4,-63.12936574903243 282.8,-62.860988344537674 283.2,-62.590580040894054 283.59999999999997,-62.318183538707295 284.0,-62.0438418525429 284.40000000000003,-61.767598304133315 284.8,-61.48949651553721 285.19999999999993,-61.20958040225084 285.59999999999997,-60.92789416627333 286.0,-60.64448228912684 286.4,-60.3593895248321 286.8,-60.07266089284159 287.2,-59.78434167093006 287.59999999999997,-59.494477388045055 288.0,-59.20311381711695 288.4,-58.91029696783129 288.8,-58.61607307936291 289.2,-58.32048861307468 289.59999999999997,-58.023590245180266 290.0,-57.725424859373696 290.4,-57.4260395394259 290.8,-57.1254815617494 291.2,-56.82379838793315 291.59999999999997,-56.52103765724742 292.0,-56.21724717912139 292.40000000000003,-55.91247492559311 292.8,-55.606769023734536 293.19999999999993,-55.30017774805139 293.6,-54.992749512860186 294.0,-54.684532864643145 294.4,-54.3755764743819 294.8,-54.06592912987212 295.2,-53.75563972801893 295.6,-53.444757267115975 296.00000000000006,-53.1333308391076 296.4,-52.82140962183706 296.79999999999995,-52.5090428712804 297.2,-52.196279913768585 297.6,-51.88317013819834 298.0,-51.56976298823284 298.4,-51.25610795449426 298.8,-50.94225456674835 299.2,-50.628252386083446 299.6,-50.31415099708381 300.0,-50.000000000000014 300.4,-49.68584900291622 300.8,-49.37174761391656 301.2,-49.057745433251654 301.6,-48.74389204550576 302.0,-48.43023701176718 302.4,-48.11682986180167 302.8,-47.803720086231436 303.20000000000005,-47.490957128719614 303.6,-47.178590378162966 303.99999999999994,-46.86666916089242 304.4,-46.555242732884054 304.8,-46.244360271981094 305.2,-45.934070870127904 305.6,-45.62442352561811 306.0,-45.315467135356876 306.4,-45.00725048713984 306.80000000000007,-44.69982225194862 307.2,-44.39323097626547 307.59999999999997,-44.087525074406905 308.0,-43.782752820878635 308.40000000000003,-43.478962342752595 308.8,-43.17620161206686 309.2,-42.874518438250604 309.6,-42.57396046057412 310.0,-42.274575140626325 310.40000000000003,-41.97640975481975 310.8,-41.67951138692534 311.2,-41.383926920637094 311.6,-41.089703032168735 312.0,-40.79688618288307 312.40000000000003,-40.50552261195497 312.8,-40.21565832906995 313.2,-39.927339107158424 313.6,-39.640610475167904 314.0,-39.355517710873166 314.40000000000003,-39.07210583372668 314.80000000000007,-38.79041959774917 315.2,-38.5105034844628 315.59999999999997,-38.2324016958667 316.0,-37.95615814745711 316.40000000000003,-37.68181646129272 316.8,-37.40941995910597 317.2,-37.13901165546235 317.6,-36.8706342509676 318.0,-36.60433012552509 318.40000000000003,-36.34014133164325 318.8,-36.078109587795296 319.2,-35.8182762718311 319.6,-35.5606824144433 320.0,-35.30536869268818 320.40000000000003,-35.05237542356202 320.8,-34.80174255763487 321.20000000000005,-34.553509672741626 321.6,-34.307715967732484 322.00000000000006,-34.06440025628274 322.40000000000003,-33.82360096076389 322.79999999999995,-33.5853561061761 323.20000000000005,-33.349703314143696 323.6,-33.116679796974395 324.0,-32.886322351782766 324.40000000000003,-32.65866735467988 324.8,-32.433750755028754 325.2,-32.21160806976789 325.59999999999997,-31.992274377802335 326.0,-31.77578431446474 326.4,-31.562172066045658 326.79999999999995,-31.351471364395465 327.20000000000005,-31.14371548159741 327.59999999999997,-30.93893722471382 327.99999999999994,-30.737168930605296 328.4,-30.538442460824427 328.79999999999995,-30.34278919658455 329.2,-30.150240033804128 329.59999999999997,-29.960825378228108 330.0,-29.774575140626318 330.4,-29.591518732070423 330.8,-29.411685059289315 331.2,-29.235102520104697 331.59999999999997,-29.06179899894648 332.0,-28.891801862449633 332.4,-28.725137955132723 332.8,-28.561833595158706 333.2,-28.40191457017913 333.59999999999997,-28.245406133261863 334.0,-28.092332998903423 334.40000000000003,-27.94271933912617 334.8,-27.7965887796614 335.19999999999993,-27.653964396218424 335.59999999999997,-27.514868710840737 336.0,-27.37932368834953 336.4,-27.247350732875116 336.8,-27.118970684477073 337.2,-26.994203815853247 337.59999999999997,-26.87306982913856 338.0,-26.755587852793713 338.4,-26.64177643858471 338.8,-26.531653558653147 339.2,-26.425236602678392 339.59999999999997,-26.322542375131405 340.0,-26.223587092621166 340.4,-26.128386381333936 340.8,-26.036955274565603 341.2,-25.94930821034786 341.59999999999997,-25.865459029168154 342.0,-25.785420971784223 342.40000000000003,-25.70920667713315 342.8,-25.636828180335574 343.19999999999993,-25.568296910795173 343.6,-25.503623690393827 344.0,-25.442818731782793 344.4,-25.385891636769866 344.8,-25.3328513948033 345.2,-25.28370638155215 345.6,-25.238464357583723 346.00000000000006,-25.197132467138047 346.4,-25.159717236999793 346.79999999999995,-25.126224575467496 347.2,-25.09665977142069 347.6,-25.071027493484653 348.0,-25.04933178929321 348.4,-25.031576084849558 348.8,-25.01776318398527 349.2,-25.007895267917505 349.6,-25.001973894904594 350.0,-25.0 350.4,-25.001973894904594 350.8,-25.007895267917505 351.2,-25.017763183985263 351.6,-25.031576084849558 352.0,-25.04933178929321 352.4,-25.071027493484653 352.8,-25.096659771420686 353.20000000000005,-25.126224575467496 353.6,-25.159717236999793 353.99999999999994,-25.197132467138047 354.4,-25.238464357583723 354.8,-25.283706381552147 355.2,-25.3328513948033 355.6,-25.385891636769866 356.0,-25.442818731782783 356.4,-25.503623690393827 356.80000000000007,-25.568296910795166 357.2,-25.63682818033557 357.59999999999997,-25.709206677133146 358.0,-25.785420971784223 358.40000000000003,-25.865459029168147 358.8,-25.949308210347855 359.2,-26.0369552745656 359.6,-26.12838638133393 360.0,-26.22358709262116 360.40000000000003,-26.3225423751314 360.8,-26.425236602678385 361.2,-26.53165355865314 361.6,-26.641776438584696 362.0,-26.755587852793706 362.40000000000003,-26.87306982913855 362.8,-26.994203815853233 363.2,-27.118970684477063 363.6,-27.247350732875102 364.0,-27.37932368834952 364.40000000000003,-27.514868710840723 364.80000000000007,-27.65396439621841 365.2,-27.796588779661388 365.59999999999997,-27.94271933912616 366.0,-28.092332998903416 366.40000000000003,-28.245406133261852 366.8,-28.40191457017912 367.2,-28.561833595158692 367.6,-28.725137955132713 368.0,-28.891801862449615 368.40000000000003,-29.061798998946472 368.8,-29.235102520104682 369.2,-29.411685059289308 369.6,-29.59151873207041 370.0,-29.774575140626308 370.40000000000003,-29.960825378228094 370.8,-30.15024003380411 371.20000000000005,-30.34278919658454 371.6,-30.538442460824413 372.00000000000006,-30.737168930605282 372.40000000000003,-30.9389372247138 372.79999999999995,-31.143715481597393 373.20000000000005,-31.351471364395454 373.6,-31.562172066045648 374.0,-31.775784314464723 374.40000000000003,-31.99227437780232 374.8,-32.211608069767884 375.2,-32.43375075502874 375.59999999999997,-32.65866735467986 376.0,-32.88632235178275 376.4,-33.11667979697438 376.79999999999995,-33.34970331414369 377.20000000000005,-33.585356106176086 377.59999999999997,-33.823600960763876 377.99999999999994,-34.064400256282724 378.4,-34.30771596773247 378.79999999999995,-34.55350967274161 379.2,-34.80174255763485 379.59999999999997,-35.052375423562 380.0,-35.30536869268817 380.4,-35.560682414443285 380.8,-35.81827627183108 381.2,-36.07810958779528 381.59999999999997,-36.34014133164324 382.0,-36.60433012552506 382.4,-36.87063425096757 382.8,-37.139011655462326 383.2,-37.409419959105946 383.59999999999997,-37.681816461292705 384.0,-37.956158147457096 384.40000000000003,-38.23240169586668 384.8,-38.51050348446279 385.19999999999993,-38.79041959774916 385.59999999999997,-39.07210583372667 386.0,-39.35551771087315 386.4,-39.64061047516788 386.8,-39.92733910715841 387.2,-40.21565832906993 387.59999999999997,-40.505522611954945 388.0,-40.79688618288304 388.4,-41.089703032168714 388.8,-41.38392692063708 389.2,-41.67951138692531 389.59999999999997,-41.97640975481973 390.0,-42.2745751406263 390.4,-42.57396046057409 390.8,-42.87451843825059 391.2,-43.17620161206685 391.59999999999997,-43.478962342752574 392.0,-43.78275282087861 392.40000000000003,-44.087525074406884 392.8,-44.39323097626546 393.19999999999993,-44.6998222519486 393.6,-45.007250487139814 394.0,-45.31546713535686 394.4,-45.6244235256181 394.8,-45.93407087012789 395.2,-46.24436027198107 395.6,-46.555242732884025 396.00000000000006,-46.8666691608924 396.4,-47.178590378162944 396.79999999999995,-47.49095712871959 397.2,-47.80372008623141 397.6,-48.116829861801655 398.0,-48.43023701176717 398.4,-48.74389204550574 398.8,-49.05774543325164 399.2,-49.37174761391655 399.6,-49.68584900291619 400.0,-49.999999999999986" stroke="red" stroke-width="2.0"/><g><g><line fill="none" stroke="black" x1="-8.0" x2="408.0" y1="0.0" y2="0.0"/><polyline fill="black" points="408.0,-5.0 408.0,5.0 424.0,0.0" stroke="none"/><line fill="none" stroke="black" x1="31.83098861837907" x2="31.83098861837907" y1="-3.0" y2="3.0"/><line fill="none" stroke="black" x1="63.66197723675814" x2="63.66197723675814" y1="-3.0" y2="3.0"/><line fill="none" stroke="black" x1="95.4929658551372" x2="95.4929658551372" y1="-3.0" y2="3.0"/><line fill="none" stroke="black" x1="127.32395447351628" x2="127.32395447351628" y1="-3.0" y2="3.0"/><line fill="none" stroke="black" x1="159.15494309189535" x2="159.15494309189535" y1="-3.0" y2="3.0"/><line fill="none" stroke="black" x1="190.9859317102744" x2="190.9859317102744" y1="-3.0" y2="3.0"/><line fill="none" stroke="black" x1="222.8169203286535" x2="222.8169203286535" y1="-3.0" y2="3.0"/><line fill="none" stroke="black" x1="254.64790894703256" x2="254.64790894703256" y1="-3.0" y2="3.0"/><line fill="none" stroke="black" x1="286.4788975654116" x2="286.4788975654116" y1="-3.0" y2="3.0"/><line fill="none" stroke="black" x1="318.3098861837907" x2="318.3098861837907" y1="-3.0" y2="3.0"/><line fill="none" stroke="black" x1="350.1408748021698" x2="350.1408748021698" y1="-3.0" y2="3.0"/><line fill="none" stroke="black" x1="381.9718634205488" x2="381.9718634205488" y1="-3.0" y2="3.0"/><text dominant-baseline="middle" fill="black" stroke="none" text-anchor="middle" x="31.83098861837907" y="14.0">1</text><text dominant-baseline="middle" fill="black" stroke="none" text-anchor="middle" x="63.66197723675814" y="14.0">2</text><text dominant-baseline="middle" fill="black" stroke="none" text-anchor="middle" x="95.4929658551372" y="14.0">3</text><text dominant-baseline="middle" fill="black" stroke="none" text-anchor="middle" x="127.32395447351628" y="14.0">4</text><text dominant-baseline="middle" fill="black" stroke="none" text-anchor="middle" x="159.15494309189535" y="14.0">5</text><text dominant-baseline="middle" fill="black" stroke="none" text-anchor="middle" x="190.9859317102744" y="14.0">6</text><text dominant-baseline="middle" fill="black" stroke="none" text-anchor="middle" x="222.8169203286535" y="14.0">7</text><text dominant-baseline="middle" fill="black" stroke="none" text-anchor="middle" x="254.64790894703256" y="14.0">8</text><text dominant-baseline="middle" fill="black" stroke="none" text-anchor="middle" x="286.4788975654116" y="14.0">9</text><text dominant-baseline="middle" fill="black" stroke="none" text-anchor="middle" x="318.3098861837907" y="14.0">10</text><text dominant-baseline="middle" fill="black" stroke="none" text-anchor="middle" x="350.1408748021698" y="14.0">11</text><text dominant-baseline="middle" fill="black" stroke="none" text-anchor="middle" x="381.9718634205488" y="14.0">12</text></g><g><line fill="none" stroke="black" x1="0.0" x2="0.0" y1="8.0" y2="-308.0"/><polyline fill="black" points="-5.0,-308.0 5.0,-308.0 0.0,-324.0" stroke="none"/><line fill="none" stroke="black" x1="-3.0" x2="3.0" y1="-50.0" y2="-50.0"/><line fill="none" stroke="black" x1="-3.0" x2="3.0" y1="-100.0" y2="-100.0"/><line fill="none" stroke="black" x1="-3.0" x2="3.0" y1="-150.0" y2="-150.0"/><line fill="none" stroke="black" x1="-3.0" x2="3.0" y1="-200.0" y2="-200.0"/><line fill="none" stroke="black" x1="-3.0" x2="3.0" y1="-250.0" y2="-250.0"/><line fill="none" stroke="black" x1="-3.0" x2="3.0" y1="-300.0" y2="-300.0"/><text dominant-baseline="middle" fill="black" stroke="none" text-anchor="middle" x="-10.0" y="-50.0">1</text><text dominant-baseline="middle" fill="black" stroke="none" text-anchor="middle" x="-10.0" y="-100.0">2</text><text dominant-baseline="middle" fill="black" stroke="none" text-anchor="middle" x="-10.0" y="-150.0">3</text><text dominant-baseline="middle" fill="black" stroke="none" text-anchor="middle" x="-10.0" y="-200.0">4</text><text dominant-baseline="middle" fill="black" stroke="none" text-anchor="middle" x="-10.0" y="-250.0">5</text><text dominant-baseline="middle" fill="black" stroke="none" text-anchor="middle" x="-10.0" y="-300.0">6</text></g><text dominant-baseline="middle" fill="black" stroke="none" text-anchor="middle" x="-10.0" y="14.0">0</text></g></g></svg>