<svg xmlns="http://www.w3.org/2000/svg" height="380.0" width="480.0"><g transform="translate(40.0, 340.0)"><polyline fill="none" points="0.0,-75.0 0.4,-75.47122649562573 0.8,-75.94237857912516 1.2,-76.41338185012255 1.6,-76.88416193174135 2.0,-77.35464448234926 2.4,-77.82475520729749 2.8000000000000003,-78.29441987065287 3.2,-78.76356430692056 3.5999999999999996,-79.23211443275557 4.0,-79.69999625866141 4.3999999999999995,-80.16713590067393 4.8,-80.63345959202839 5.2,-81.09889369480814 5.6000000000000005,-81.56336471157286 6.0,-82.02679929696468 6.4,-82.48912426929026 6.800000000000001,-82.95026662207704 7.199999999999999,-83.4101535356018 7.6,-83.86871238838967 8.0,-84.32587076868205 8.4,-84.78155648587114 8.799999999999999,-85.2356975818997 9.2,-85.6882223426241 9.6,-86.13905930913882 10.0,-86.58813728906053 10.4,-87.03538536777035 10.8,-87.480732919612 11.200000000000001,-87.92410961904439 11.600000000000001,-88.3654454517469 12.0,-88.80467072567542 12.399999999999999,-89.24171608206754 12.8,-89.6765125063951 13.200000000000001,-90.10899133926235 13.600000000000001,-90.53908428724816 14.000000000000002,-90.96672343369023 14.399999999999999,-91.39184124940998 14.799999999999999,-91.8143706033762 15.2,-92.23424477330579 15.6,-92.65139745619996 16.0,-93.06576277881432 16.400000000000002,-93.47727530806092 16.8,-93.88587006134102 17.2,-94.2914825168065 17.599999999999998,-94.69404862354858 18.0,-95.09350481171236 18.4,-95.4897880025351 18.8,-95.88283561830704 19.2,-96.27258559225338 19.6,-96.65897637833503 20.0,-97.04194696096775 20.4,-97.42143686465695 20.8,-97.7973861635477 21.2,-98.16973549088753 21.6,-98.53842604840126 22.0,-98.90339961557586 22.400000000000002,-99.26459855885416 22.800000000000004,-99.62196584073587 23.200000000000003,-99.97544502878443 23.599999999999998,-100.32498030453841 24.0,-100.67051647232583 24.4,-101.01199896798018 24.799999999999997,-101.34937386745685 25.2,-101.6825878953482 25.6,-102.01158843329652 26.0,-102.33632352830294 26.400000000000002,-102.65674190093151 26.8,-102.97279295340684 27.200000000000003,-103.2844267776039 27.6,-103.5915941629293 28.000000000000004,-103.89424660409209 28.4,-104.19233630876337 28.799999999999997,-104.4858162051232 29.2,-104.77463994929381 29.599999999999998,-105.05876193265787 30.0,-105.33813728906053 30.4,-105.6127219018944 30.8,-105.88247241106602 31.2,-106.14734621984297 31.6,-106.40730150158032 32.0,-106.66229720632558 32.4,-106.91229306730094 32.800000000000004,-107.15724960726196 33.199999999999996,-107.39712814473131 33.6,-107.63189080010721 34.00000000000001,-107.86150050164488 34.4,-108.08592099131073 34.8,-108.30511683050791 35.199999999999996,-108.51905340567238 35.6,-108.72769693373891 36.0,-108.93101446747573 36.4,-109.12897390068734 36.8,-109.3215439732844 37.2,-109.50869427622013 37.6,-109.69039525629218 37.99999999999999,-109.86661822080943 38.4,-110.03733534212296 38.800000000000004,-110.20251966202028 39.2,-110.36214509598241 39.6,-110.51618643730292 40.0,-110.66461936106826 40.400000000000006,-110.80742042799912 40.8,-110.9445670881516 41.199999999999996,-111.07603768447822 41.6,-111.20181145624778 42.0,-111.32186854232367 42.4,-111.43618998430027 42.800000000000004,-111.54475772949665 43.2,-111.64755463380726 43.6,-111.74456446440925 44.0,-111.83577190232583 44.4,-111.9211625448452 44.800000000000004,-112.00072290779505 45.2,-112.07444042767177 45.60000000000001,-112.14230346362442 46.0,-112.20430129929292 46.400000000000006,-112.26042414450032 46.800000000000004,-112.31066313679877 47.199999999999996,-112.35501034286898 47.6,-112.39345875977301 48.0,-112.42600231606019 48.4,-112.45263587272566 48.8,-112.47335522402209 49.2,-112.48815709812375 49.599999999999994,-112.49703915764312 50.0,-112.5 50.4,-112.49703915764312 50.8,-112.48815709812375 51.2,-112.47335522402209 51.6,-112.45263587272566 52.0,-112.42600231606019 52.400000000000006,-112.39345875977301 52.800000000000004,-112.35501034286898 53.2,-112.31066313679877 53.6,-112.26042414450032 54.0,-112.20430129929291 54.400000000000006,-112.14230346362442 54.800000000000004,-112.07444042767177 55.2,-112.00072290779505 55.60000000000001,-111.9211625448452 56.00000000000001,-111.83577190232583 56.39999999999999,-111.74456446440925 56.8,-111.64755463380726 57.199999999999996,-111.54475772949665 57.599999999999994,-111.43618998430028 57.99999999999999,-111.32186854232367 58.4,-111.20181145624778 58.8,-111.07603768447822 59.199999999999996,-110.9445670881516 59.599999999999994,-110.80742042799912 60.0,-110.66461936106826 60.4,-110.51618643730292 60.8,-110.36214509598241 61.199999999999996,-110.20251966202028 61.6,-110.03733534212296 62.0,-109.86661822080943 62.4,-109.69039525629218 62.8,-109.50869427622013 63.2,-109.3215439732844 63.6,-109.12897390068734 64.0,-108.93101446747573 64.39999999999999,-108.72769693373891 64.8,-108.5190534056724 65.2,-108.30511683050793 65.60000000000001,-108.08592099131076 66.0,-107.86150050164488 66.39999999999999,-107.63189080010721 66.8,-107.39712814473134 67.2,-107.15724960726196 67.60000000000001,-106.91229306730094 68.00000000000001,-106.66229720632556 68.4,-106.40730150158032 68.8,-106.14734621984297 69.19999999999999,-105.88247241106605 69.6,-105.6127219018944 70.0,-105.33813728906053 70.39999999999999,-105.05876193265787 70.8,-104.77463994929383 71.2,-104.4858162051232 71.6,-104.19233630876339 72.0,-103.89424660409209 72.39999999999999,-103.59159416292931 72.8,-103.2844267776039 73.2,-102.97279295340684 73.6,-102.65674190093151 74.00000000000001,-102.33632352830293 74.4,-102.01158843329652 74.8,-101.6825878953482 75.2,-101.34937386745685 75.6,-101.01199896798018 75.99999999999999,-100.67051647232583 76.4,-100.32498030453841 76.8,-99.97544502878443 77.2,-99.62196584073587 77.60000000000001,-99.26459855885416 78.0,-98.90339961557586 78.4,-98.53842604840126 78.8,-98.16973549088753 79.2,-97.7973861635477 79.60000000000001,-97.42143686465695 80.0,-97.04194696096775 80.4,-96.65897637833503 80.80000000000001,-96.27258559225336 81.2,-95.88283561830704 81.6,-95.4897880025351 81.99999999999999,-95.09350481171239 82.39999999999999,-94.69404862354861 82.8,-94.2914825168065 83.2,-93.88587006134102 83.60000000000001,-93.47727530806094 84.0,-93.06576277881433 84.39999999999999,-92.65139745619997 84.8,-92.2342447733058 85.2,-91.8143706033762 85.60000000000001,-91.39184124940998 86.0,-90.96672343369023 86.4,-90.53908428724816 86.8,-90.10899133926235 87.2,-89.6765125063951 87.6,-89.24171608206754 88.0,-88.80467072567544 88.4,-88.3654454517469 88.8,-87.92410961904439 89.20000000000002,-87.480732919612 89.60000000000001,-87.03538536777037 90.0,-86.58813728906053 90.4,-86.13905930913882 90.8,-85.6882223426241 91.20000000000002,-85.23569758189969 91.60000000000001,-84.78155648587115 92.0,-84.32587076868205 92.4,-83.86871238838967 92.80000000000001,-83.4101535356018 93.19999999999999,-82.95026662207705 93.60000000000001,-82.48912426929026 94.0,-82.02679929696468 94.39999999999999,-81.56336471157286 94.8,-81.09889369480814 95.2,-80.6334595920284 95.6,-80.16713590067394 96.0,-79.69999625866143 96.39999999999999,-79.23211443275557 96.8,-78.76356430692056 97.2,-78.29441987065287 97.6,-77.8247552072975 98.0,-77.35464448234926 98.4,-76.88416193174137 98.8,-76.41338185012255 99.19999999999999,-75.94237857912518 99.6,-75.47122649562573 100.0,-75.0 100.4,-74.52877350437427 100.8,-74.05762142087484 101.2,-73.58661814987747 101.6,-73.11583806825865 102.0,-72.64535551765076 102.4,-72.17524479270251 102.8,-71.70558012934714 103.2,-71.23643569307944 103.60000000000001,-70.76788556724443 104.0,-70.30000374133859 104.4,-69.83286409932607 104.80000000000001,-69.36654040797161 105.2,-68.90110630519187 105.60000000000001,-68.43663528842714 106.0,-67.97320070303532 106.4,-67.51087573070973 106.80000000000001,-67.04973337792295 107.2,-66.5898464643982 107.60000000000001,-66.13128761161032 108.0,-65.67412923131793 108.4,-65.21844351412886 108.80000000000001,-64.7643024181003 109.2,-64.3117776573759 109.60000000000001,-63.860940690861185 110.00000000000001,-63.41186271093946 110.4,-62.96461463222965 110.80000000000001,-62.519267080388 111.20000000000002,-62.075890380955606 111.60000000000001,-61.634554548253085 112.00000000000001,-61.195329274324564 112.4,-60.75828391793245 112.79999999999998,-60.32348749360492 113.19999999999999,-59.891008660737675 113.6,-59.46091571275186 113.99999999999999,-59.033276566309794 114.39999999999999,-58.60815875059003 114.8,-58.18562939662382 115.19999999999999,-57.765755226694225 115.6,-57.34860254380005 115.99999999999999,-56.93423722118569 116.39999999999999,-56.522724691939075 116.8,-56.11412993865899 117.19999999999999,-55.708517483193525 117.6,-55.305951376451425 118.0,-54.90649518828763 118.39999999999999,-54.51021199746491 118.8,-54.117164381692966 119.19999999999999,-53.72741440774664 119.6,-53.34102362166497 120.0,-52.958053039032265 120.39999999999999,-52.57856313534305 120.8,-52.20261383645231 121.2,-51.83026450911247 121.6,-51.46157395159873 122.0,-51.096600384424136 122.39999999999999,-50.73540144114585 122.8,-50.378034159264146 123.2,-50.02455497121557 123.6,-49.675019695461586 124.0,-49.32948352767417 124.4,-48.988001032019824 124.8,-48.65062613254316 125.2,-48.31741210465181 125.6,-47.98841156670349 126.0,-47.66367647169707 126.4,-47.343258099068485 126.8,-47.02720704659317 127.2,-46.71557322239611 127.60000000000001,-46.4084058370707 128.0,-46.1057533959079 128.40000000000003,-45.80766369123662 128.79999999999998,-45.5141837948768 129.20000000000002,-45.22536005070618 129.6,-44.941238067342134 130.0,-44.661862710939474 130.4,-44.3872780981056 130.8,-44.117527588933974 131.20000000000002,-43.85265378015703 131.6,-43.59269849841968 132.0,-43.337702793674424 132.40000000000003,-43.08770693269904 132.79999999999998,-42.84275039273805 133.20000000000002,-42.60287185526868 133.6,-42.36810919989279 134.0,-42.13849949835512 134.4,-41.91407900868925 134.8,-41.69488316949208 135.20000000000002,-41.4809465943276 135.60000000000002,-41.27230306626109 136.00000000000003,-41.06898553252426 136.39999999999998,-40.871026099312665 136.8,-40.678456026715594 137.20000000000002,-40.49130572377986 137.6,-40.30960474370784 138.0,-40.133381779190586 138.39999999999998,-39.96266465787706 138.79999999999998,-39.79748033797973 139.2,-39.63785490401759 139.6,-39.483813562697094 140.0,-39.33538063893174 140.4,-39.19257957200089 140.79999999999998,-39.05543291184841 141.2,-38.923962315521784 141.6,-38.79818854375224 142.0,-38.678131457676336 142.4,-38.56381001569974 142.79999999999998,-38.455242270503355 143.2,-38.35244536619275 143.6,-38.25543553559074 144.0,-38.16422809767417 144.4,-38.0788374551548 144.79999999999998,-37.999277092204956 145.2,-37.925559572328225 145.6,-37.857696536375585 146.0,-37.795698700707085 146.4,-37.73957585549969 146.8,-37.68933686320124 147.2,-37.64498965713103 147.6,-37.60654124022698 148.00000000000003,-37.573997683939815 148.39999999999998,-37.54736412727434 148.8,-37.52664477597791 149.2,-37.51184290187625 149.6,-37.50296084235689 150.0,-37.5 150.4,-37.50296084235689 150.8,-37.51184290187625 151.2,-37.52664477597791 151.60000000000002,-37.54736412727434 151.99999999999997,-37.573997683939815 152.4,-37.60654124022698 152.8,-37.64498965713103 153.2,-37.68933686320124 153.6,-37.73957585549969 154.0,-37.79569870070708 154.4,-37.857696536375585 154.8,-37.925559572328225 155.20000000000002,-37.999277092204956 155.6,-38.0788374551548 156.0,-38.16422809767417 156.4,-38.25543553559074 156.8,-38.35244536619275 157.20000000000002,-38.455242270503355 157.6,-38.56381001569972 158.0,-38.678131457676336 158.4,-38.79818854375224 158.8,-38.923962315521784 159.20000000000002,-39.05543291184841 159.6,-39.19257957200089 160.0,-39.33538063893174 160.4,-39.48381356269709 160.8,-39.63785490401759 161.20000000000002,-39.79748033797972 161.60000000000002,-39.96266465787704 162.0,-40.13338177919057 162.4,-40.30960474370783 162.79999999999998,-40.49130572377985 163.2,-40.678456026715594 163.60000000000002,-40.871026099312665 163.99999999999997,-41.06898553252425 164.39999999999998,-41.27230306626107 164.79999999999998,-41.4809465943276 165.2,-41.69488316949207 165.6,-41.91407900868925 166.0,-42.1384994983551 166.4,-42.36810919989278 166.79999999999998,-42.602871855268674 167.20000000000002,-42.84275039273804 167.59999999999997,-43.08770693269904 168.0,-43.33770279367442 168.4,-43.59269849841967 168.79999999999998,-43.85265378015702 169.2,-44.11752758893396 169.6,-44.3872780981056 170.0,-44.661862710939474 170.4,-44.94123806734213 170.79999999999998,-45.22536005070618 171.20000000000002,-45.51418379487679 171.59999999999997,-45.8076636912366 172.0,-46.1057533959079 172.4,-46.408405837070696 172.8,-46.7155732223961 173.2,-47.02720704659317 173.6,-47.34325809906847 174.0,-47.663676471697066 174.4,-47.9884115667035 174.8,-48.31741210465181 175.2,-48.65062613254313 175.6,-48.988001032019795 176.0,-49.329483527674164 176.4,-49.67501969546157 176.8,-50.024554971215565 177.2,-50.37803415926413 177.6,-50.73540144114583 178.0,-51.096600384424136 178.40000000000003,-51.461573951598744 178.79999999999998,-51.83026450911245 179.20000000000002,-52.20261383645229 179.6,-52.57856313534303 180.0,-52.95805303903225 180.4,-53.34102362166497 180.8,-53.72741440774663 181.20000000000002,-54.11716438169296 181.6,-54.510211997464914 182.0,-54.906495188287636 182.40000000000003,-55.305951376451425 182.79999999999998,-55.70851748319349 183.20000000000002,-56.114129938658955 183.6,-56.52272469193906 184.0,-56.93423722118568 184.4,-57.34860254380003 184.8,-57.76575522669422 185.20000000000002,-58.185629396623796 185.60000000000002,-58.608158750590036 186.00000000000003,-59.033276566309794 186.39999999999998,-59.46091571275184 186.8,-59.89100866073764 187.20000000000002,-60.32348749360491 187.6,-60.75828391793243 188.0,-61.19532927432454 188.39999999999998,-61.63455454825308 188.79999999999998,-62.07589038095559 189.2,-62.51926708038798 189.6,-62.96461463222963 190.0,-63.41186271093946 190.4,-63.860940690861185 190.79999999999998,-64.31177765737586 191.2,-64.76430241810027 191.6,-65.21844351412884 192.0,-65.67412923131792 192.4,-66.1312876116103 192.79999999999998,-66.58984646439819 193.2,-67.04973337792295 193.6,-67.51087573070973 194.0,-67.97320070303533 194.4,-68.43663528842715 194.79999999999998,-68.90110630519183 195.2,-69.36654040797158 195.6,-69.83286409932604 196.0,-70.30000374133857 196.4,-70.76788556724442 196.8,-71.23643569307944 197.2,-71.70558012934713 197.6,-72.17524479270251 198.00000000000003,-72.64535551765076 198.39999999999998,-73.11583806825861 198.8,-73.58661814987742 199.2,-74.05762142087482 199.6,-74.52877350437427 200.0,-74.99999999999999 200.4,-75.47122649562571 200.8,-75.94237857912516 201.2,-76.41338185012255 201.6,-76.88416193174137 202.0,-77.35464448234922 202.4,-77.82475520729746 202.8,-78.29441987065286 203.2,-78.76356430692054 203.6,-79.23211443275555 204.0,-79.69999625866141 204.4,-80.16713590067393 204.8,-80.6334595920284 205.20000000000002,-81.09889369480814 205.6,-81.56336471157285 206.0,-82.02679929696467 206.4,-82.48912426929026 206.8,-82.95026662207704 207.20000000000002,-83.4101535356018 207.6,-83.86871238838967 208.0,-84.32587076868207 208.4,-84.78155648587115 208.8,-85.23569758189971 209.20000000000002,-85.68822234262412 209.60000000000002,-86.1390593091388 210.0,-86.58813728906051 210.4,-87.03538536777035 210.8,-87.480732919612 211.20000000000002,-87.92410961904439 211.60000000000002,-88.36544545174692 212.0,-88.80467072567544 212.4,-89.24171608206754 212.8,-89.67651250639511 213.20000000000002,-90.10899133926233 213.60000000000002,-90.53908428724814 214.0,-90.96672343369022 214.4,-91.39184124940998 214.8,-91.8143706033762 215.20000000000002,-92.2342447733058 215.60000000000002,-92.65139745619997 216.0,-93.06576277881433 216.4,-93.47727530806095 216.8,-93.88587006134102 217.20000000000002,-94.2914825168065 217.60000000000002,-94.6940486235486 218.00000000000003,-95.09350481171236 218.4,-95.4897880025351 218.8,-95.88283561830706 219.20000000000002,-96.27258559225339 219.60000000000002,-96.65897637833505 220.00000000000003,-97.04194696096775 220.4,-97.42143686465698 220.8,-97.7973861635477 221.20000000000002,-98.16973549088753 221.60000000000002,-98.53842604840126 222.00000000000003,-98.90339961557586 222.40000000000003,-99.26459855885416 222.8,-99.62196584073588 223.20000000000002,-99.97544502878445 223.60000000000002,-100.32498030453843 224.00000000000003,-100.67051647232584 224.40000000000003,-101.01199896798018 224.8,-101.34937386745685 225.2,-101.68258789534818 225.59999999999997,-102.01158843329648 225.99999999999997,-102.3363235283029 226.39999999999998,-102.65674190093148 226.79999999999998,-102.9727929534068 227.2,-103.28442677760387 227.59999999999997,-103.59159416292928 227.99999999999997,-103.89424660409207 228.39999999999998,-104.19233630876337 228.79999999999998,-104.48581620512319 229.2,-104.77463994929381 229.6,-105.05876193265784 229.99999999999997,-105.3381372890605 230.39999999999998,-105.61272190189437 230.79999999999998,-105.882472411066 231.2,-106.14734621984296 231.6,-106.4073015015803 231.99999999999997,-106.66229720632556 232.39999999999998,-106.91229306730094 232.79999999999998,-107.15724960726196 233.2,-107.39712814473131 233.6,-107.63189080010719 234.0,-107.86150050164487 234.39999999999998,-108.08592099131073 234.79999999999998,-108.3051168305079 235.2,-108.51905340567238 235.6,-108.7276969337389 236.0,-108.93101446747572 236.39999999999998,-109.12897390068734 236.79999999999998,-109.3215439732844 237.2,-109.50869427622013 237.6,-109.69039525629218 238.0,-109.86661822080941 238.39999999999998,-110.03733534212294 238.79999999999998,-110.20251966202026 239.2,-110.36214509598241 239.6,-110.5161864373029 240.0,-110.66461936106826 240.39999999999998,-110.80742042799912 240.79999999999998,-110.94456708815159 241.2,-111.07603768447822 241.6,-111.20181145624777 242.0,-111.32186854232367 242.4,-111.43618998430027 242.79999999999998,-111.54475772949665 243.2,-111.64755463380726 243.6,-111.74456446440925 244.0,-111.83577190232583 244.4,-111.9211625448452 244.79999999999998,-112.00072290779505 245.2,-112.07444042767177 245.6,-112.14230346362442 246.0,-112.20430129929291 246.4,-112.26042414450032 246.8,-112.31066313679877 247.2,-112.35501034286898 247.6,-112.39345875977301 248.0,-112.42600231606019 248.4,-112.45263587272566 248.8,-112.47335522402209 249.2,-112.48815709812375 249.6,-112.49703915764312 250.0,-112.5 250.4,-112.49703915764312 250.8,-112.48815709812375 251.2,-112.47335522402209 251.6,-112.45263587272566 252.0,-112.42600231606019 252.4,-112.39345875977301 252.8,-112.35501034286898 253.2,-112.31066313679877 253.6,-112.26042414450032 254.0,-112.20430129929292 254.4,-112.14230346362442 254.8,-112.07444042767177 255.20000000000002,-112.00072290779505 255.6,-111.9211625448452 256.0,-111.83577190232583 256.4,-111.74456446440925 256.80000000000007,-111.64755463380726 257.2,-111.54475772949665 257.59999999999997,-111.43618998430028 258.0,-111.32186854232367 258.40000000000003,-111.20181145624778 258.8,-111.07603768447822 259.2,-110.9445670881516 259.6,-110.80742042799912 260.0,-110.66461936106826 260.40000000000003,-110.5161864373029 260.8,-110.36214509598241 261.2,-110.20251966202028 261.6,-110.03733534212296 262.0,-109.86661822080944 262.40000000000003,-109.69039525629218 262.8,-109.50869427622015 263.2,-109.3215439732844 263.6,-109.12897390068734 264.0,-108.93101446747572 264.40000000000003,-108.72769693373891 264.80000000000007,-108.51905340567238 265.2,-108.30511683050791 265.59999999999997,-108.08592099131077 266.0,-107.86150050164488 266.40000000000003,-107.63189080010721 266.8,-107.39712814473131 267.2,-107.15724960726196 267.6,-106.91229306730092 268.0,-106.66229720632558 268.40000000000003,-106.40730150158029 268.8,-106.14734621984297 269.2,-105.88247241106605 269.6,-105.61272190189439 270.0,-105.33813728906053 270.40000000000003,-105.05876193265786 270.8,-104.77463994929383 271.20000000000005,-104.48581620512319 271.6,-104.19233630876337 272.00000000000006,-103.89424660409207 272.40000000000003,-103.59159416292928 272.79999999999995,-103.2844267776039 273.20000000000005,-102.97279295340681 273.6,-102.65674190093154 274.0,-102.33632352830291 274.40000000000003,-102.01158843329652 274.8,-101.68258789534818 275.2,-101.34937386745688 275.59999999999997,-101.0119989679802 276.0,-100.67051647232586 276.4,-100.32498030453843 276.79999999999995,-99.97544502878448 277.20000000000005,-99.62196584073588 277.59999999999997,-99.2645985588542 277.99999999999994,-98.90339961557592 278.4,-98.53842604840128 278.79999999999995,-98.16973549088759 279.2,-97.79738616354773 279.59999999999997,-97.421436864657 280.0,-97.04194696096775 280.4,-96.65897637833507 280.8,-96.27258559225338 281.2,-95.88283561830708 281.59999999999997,-95.48978800253514 282.0,-95.0935048117124 282.4,-94.69404862354864 282.8,-94.29148251680651 283.2,-93.88587006134108 283.59999999999997,-93.47727530806094 284.0,-93.06576277881436 284.40000000000003,-92.65139745619997 284.8,-92.23424477330582 285.19999999999993,-91.81437060337626 285.59999999999997,-91.39184124940999 286.0,-90.96672343369026 286.4,-90.53908428724816 286.8,-90.10899133926239 287.2,-89.6765125063951 287.59999999999997,-89.24171608206758 288.0,-88.80467072567542 288.4,-88.36544545174694 288.8,-87.92410961904437 289.2,-87.48073291961202 289.59999999999997,-87.0353853677704 290.0,-86.58813728906054 290.4,-86.13905930913884 290.8,-85.6882223426241 291.2,-85.23569758189973 291.59999999999997,-84.78155648587114 292.0,-84.32587076868208 292.40000000000003,-83.86871238838967 292.8,-83.41015353560181 293.19999999999993,-82.9502666220771 293.6,-82.48912426929027 294.0,-82.02679929696471 294.4,-81.56336471157286 294.8,-81.09889369480817 295.2,-80.63345959202839 295.6,-80.16713590067396 296.00000000000006,-79.69999625866139 296.4,-79.23211443275558 296.79999999999995,-78.7635643069206 297.2,-78.29441987065287 297.6,-77.82475520729751 298.0,-77.35464448234926 298.4,-76.88416193174139 298.8,-76.41338185012253 299.2,-75.94237857912518 299.6,-75.47122649562571 300.0,-75.00000000000001 300.4,-74.52877350437433 300.8,-74.05762142087485 301.2,-73.5866181498775 301.6,-73.11583806825864 302.0,-72.64535551765078 302.4,-72.17524479270251 302.8,-71.70558012934715 303.20000000000005,-71.23643569307941 303.6,-70.76788556724445 303.99999999999994,-70.30000374133863 304.4,-69.83286409932607 304.8,-69.36654040797164 305.2,-68.90110630519186 305.6,-68.43663528842717 306.0,-67.97320070303532 306.4,-67.51087573070976 306.80000000000007,-67.04973337792293 307.2,-66.5898464643982 307.59999999999997,-66.13128761161036 308.0,-65.67412923131795 308.40000000000003,-65.2184435141289 308.8,-64.7643024181003 309.2,-64.31177765737591 309.6,-63.86094069086118 310.0,-63.41186271093949 310.40000000000003,-62.964614632229626 310.8,-62.519267080388005 311.2,-62.07589038095564 311.6,-61.6345545482531 312.0,-61.1953292743246 312.40000000000003,-60.75828391793245 312.8,-60.32348749360493 313.2,-59.89100866073763 313.6,-59.460915712751856 314.0,-59.03327656630975 314.40000000000003,-58.608158750590015 314.80000000000007,-58.18562939662375 315.2,-57.765755226694196 315.59999999999997,-57.348602543800055 316.0,-56.93423722118566 316.40000000000003,-56.52272469193908 316.8,-56.11412993865895 317.2,-55.70851748319352 317.6,-55.30595137645139 318.0,-54.90649518828763 318.40000000000003,-54.51021199746487 318.8,-54.11716438169294 319.2,-53.72741440774665 319.6,-53.34102362166495 320.0,-52.958053039032265 320.40000000000003,-52.578563135343025 320.8,-52.2026138364523 321.20000000000005,-51.83026450911243 321.6,-51.46157395159873 322.00000000000006,-51.0966003844241 322.40000000000003,-50.73540144114583 322.79999999999995,-50.37803415926415 323.20000000000005,-50.024554971215544 323.6,-49.675019695461586 324.0,-49.32948352767416 324.40000000000003,-48.98800103201982 324.8,-48.65062613254313 325.2,-48.317412104651844 325.59999999999997,-47.98841156670351 326.0,-47.66367647169711 326.4,-47.343258099068485 326.79999999999995,-47.0272070465932 327.20000000000005,-46.71557322239612 327.59999999999997,-46.40840583707073 327.99999999999994,-46.105753395907946 328.4,-45.80766369123664 328.79999999999995,-45.51418379487683 329.2,-45.22536005070619 329.59999999999997,-44.94123806734216 330.0,-44.66186271093948 330.4,-44.38727809810563 330.8,-44.117527588933974 331.2,-43.85265378015704 331.59999999999997,-43.59269849841972 332.0,-43.33770279367445 332.4,-43.087706932699085 332.8,-42.842750392738054 333.2,-42.602871855268695 333.59999999999997,-42.36810919989279 334.0,-42.13849949835514 334.40000000000003,-41.91407900868926 334.8,-41.694883169492094 335.19999999999993,-41.480946594327634 335.59999999999997,-41.2723030662611 336.0,-41.06898553252429 336.4,-40.87102609931267 336.8,-40.67845602671561 337.2,-40.49130572377987 337.59999999999997,-40.309604743707844 338.0,-40.13338177919057 338.4,-39.96266465787706 338.8,-39.79748033797972 339.2,-39.63785490401759 339.59999999999997,-39.483813562697115 340.0,-39.335380638931746 340.4,-39.1925795720009 340.8,-39.055432911848406 341.2,-38.92396231552179 341.59999999999997,-38.79818854375223 342.0,-38.678131457676336 342.40000000000003,-38.56381001569972 342.8,-38.45524227050336 343.19999999999993,-38.35244536619276 343.6,-38.25543553559074 344.0,-38.16422809767418 344.4,-38.0788374551548 344.8,-37.999277092204956 345.2,-37.925559572328225 345.6,-37.857696536375585 346.00000000000006,-37.79569870070708 346.4,-37.73957585549969 346.79999999999995,-37.68933686320125 347.2,-37.64498965713104 347.6,-37.60654124022698 348.0,-37.573997683939815 348.4,-37.54736412727434 348.8,-37.52664477597791 349.2,-37.51184290187625 349.6,-37.50296084235689 350.0,-37.5 350.4,-37.50296084235689 350.8,-37.51184290187625 351.2,-37.5266447759779 351.6,-37.54736412727434 352.0,-37.573997683939815 352.4,-37.60654124022698 352.8,-37.64498965713103 353.20000000000005,-37.68933686320125 353.6,-37.73957585549969 353.99999999999994,-37.79569870070708 354.4,-37.857696536375585 354.8,-37.92555957232822 355.2,-37.999277092204956 355.6,-38.0788374551548 356.0,-38.164228097674176 356.4,-38.25543553559074 356.80000000000007,-38.35244536619275 357.2,-38.455242270503355 357.59999999999997,-38.563810015699715 358.0,-38.678131457676336 358.40000000000003,-38.79818854375222 358.8,-38.923962315521784 359.2,-39.0554329118484 359.6,-39.192579572000895 360.0,-39.33538063893174 360.40000000000003,-39.483813562697094 360.8,-39.63785490401758 361.2,-39.79748033797971 361.6,-39.96266465787704 362.0,-40.13338177919056 362.40000000000003,-40.30960474370783 362.8,-40.49130572377985 363.2,-40.678456026715594 363.6,-40.87102609931265 364.0,-41.06898553252428 364.40000000000003,-41.27230306626109 364.80000000000007,-41.48094659432762 365.2,-41.69488316949209 365.59999999999997,-41.91407900868924 366.0,-42.13849949835512 366.40000000000003,-42.36810919989278 366.8,-42.60287185526868 367.2,-42.84275039273804 367.6,-43.08770693269907 368.0,-43.33770279367443 368.40000000000003,-43.59269849841971 368.8,-43.85265378015703 369.2,-44.11752758893396 369.6,-44.38727809810562 370.0,-44.66186271093946 370.40000000000003,-44.94123806734214 370.8,-45.225360050706165 371.20000000000005,-45.514183794876814 371.6,-45.80766369123662 372.00000000000006,-46.105753395907925 372.40000000000003,-46.4084058370707 372.79999999999995,-46.715573222396095 373.20000000000005,-47.02720704659318 373.6,-47.34325809906847 374.0,-47.66367647169708 374.40000000000003,-47.98841156670348 374.8,-48.31741210465182 375.2,-48.65062613254311 375.59999999999997,-48.98800103201979 376.0,-49.32948352767413 376.4,-49.67501969546157 376.79999999999995,-50.02455497121553 377.20000000000005,-50.378034159264125 377.59999999999997,-50.73540144114581 377.99999999999994,-51.096600384424086 378.4,-51.46157395159871 378.79999999999995,-51.83026450911242 379.2,-52.20261383645228 379.59999999999997,-52.578563135342996 380.0,-52.95805303903225 380.4,-53.341023621664924 380.8,-53.72741440774663 381.2,-54.11716438169292 381.59999999999997,-54.51021199746486 382.0,-54.90649518828759 382.4,-55.305951376451354 382.8,-55.70851748319349 383.2,-56.11412993865893 383.59999999999997,-56.52272469193906 384.0,-56.93423722118564 384.40000000000003,-57.34860254380002 384.8,-57.765755226694175 385.19999999999993,-58.18562939662373 385.59999999999997,-58.60815875058999 386.0,-59.03327656630972 386.4,-59.46091571275182 386.8,-59.891008660737604 387.2,-60.323487493604894 387.59999999999997,-60.758283917932424 388.0,-61.19532927432457 388.4,-61.63455454825307 388.8,-62.07589038095561 389.2,-62.519267080387976 389.59999999999997,-62.96461463222959 390.0,-63.41186271093945 390.4,-63.86094069086114 390.8,-64.31177765737588 391.2,-64.76430241810027 391.59999999999997,-65.21844351412886 392.0,-65.67412923131792 392.40000000000003,-66.13128761161033 392.8,-66.58984646439819 393.19999999999993,-67.0497333779229 393.6,-67.51087573070973 394.0,-67.97320070303529 394.4,-68.43663528842714 394.8,-68.90110630519183 395.2,-69.36654040797161 395.6,-69.83286409932604 396.00000000000006,-70.3000037413386 396.4,-70.76788556724442 396.79999999999995,-71.2364356930794 397.2,-71.70558012934711 397.6,-72.17524479270247 398.0,-72.64535551765074 398.4,-73.11583806825861 398.8,-73.58661814987745 399.2,-74.05762142087481 399.6,-74.52877350437429 400.0,-74.99999999999999" stroke="red" stroke-width="2.0"/><g><g><line fill="none" stroke="black" x1="-8.0" x2="408.0" y1="0.0" y2="0.0"/><polyline fill="black" points="408.0,-5.0 408.0,5.0 424.0,0.0" stroke="none"/><line fill="none" stroke="black" x1="31.83098861837907" x2="31.83098861837907" y1="-3.0" y2="3.0"/><line fill="none" stroke="black" x1="63.66197723675814" x2="63.66197723675814" y1="-3.0" y2="3.0"/><line fill="none" stroke="black" x1="95.4929658551372" x2="95.4929658551372" y1="-3.0" y2="3.0"/><line fill="none" stroke="black" x1="127.32395447351628" x2="127.32395447351628" y1="-3.0" y2="3.0"/><line fill="none" stroke="black" x1="159.15494309189535" x2="159.15494309189535" y1="-3.0" y2="3.0"/><line fill="none" stroke="black" x1="190.9859317102744" x2="190.9859317102744" y1="-3.0" y2="3.0"/><line fill="none" stroke="black" x1="222.8169203286535" x2="222.8169203286535" y1="-3.0" y2="3.0"/><line fill="none" stroke="black" x1="254.64790894703256" x2="254.64790894703256" y1="-3.0" y2="3.0"/><line fill="none" stroke="black" x1="286.4788975654116" x2="286.4788975654116" y1="-3.0" y2="3.0"/><line fill="none" stroke="black" x1="318.3098861837907" x2="318.3098861837907" y1="-3.0" y2="3.0"/><line fill="none" stroke="black" x1="350.1408748021698" x2="350.1408748021698" y1="-3.0" y2="3.0"/><line fill="none" stroke="black" x1="381.9718634205488" x2="381.9718634205488" y1="-3.0" y2="3.0"/><text dominant-baseline="middle" fill="black" stroke="none" text-anchor="middle" x="31.83098861837907" y="14.0">1</text><text dominant-baseline="middle" fill="black" stroke="none" text-anchor="middle" x="63.66197723675814" y="14.0">2</text><text dominant-baseline="middle" fill="black" stroke="none" text-anchor="middle" x="95.4929658551372" y="14.0">3</text><text dominant-baseline="middle" fill="black" stroke="none" text-anchor="middle" x="127.32395447351628" y="14.0">4</text><text dominant-baseline="middle" fill="black" stroke="none" text-anchor="middle" x="159.15494309189535" y="14.0">5</text><text dominant-baseline="middle" fill="black" stroke="none" text-anchor="middle" x="190.9859317102744" y="14.0">6</text><text dominant-baseline="middle" fill="black" stroke="none" text-anchor="middle" x="222.8169203286535" y="14.0">7</text><text dominant-baseline="middle" fill="black" stroke="none" text-anchor="middle" x="254.64790894703256" y="14.0">8</text><text dominant-baseline="middle" fill="black" stroke="none" text-anchor="middle" x="286.4788975654116" y="14.0">9</text><text dominant-baseline="middle" fill="black" stroke="none" text-anchor="middle" x="318.3098861837907" y="14.0">10</text><text dominant-baseline="middle" fill="black" stroke="none" text-anchor="middle" x="350.1408748021698" y="14.0">11</text><text dominant-baseline="middle" fill="black" stroke="none" text-anchor="middle" x="381.9718634205488" y="14.0">12</text></g><g><line fill="none" stroke="black" x1="0.0" x2="0.0" y1="8.0" y2="-308.0"/><polyline fill="black" points="-5.0,-308.0 5.0,-308.0 0.0,-324.0" stroke="none"/><line fill="none" stroke="black" x1="-3.0" x2="3.0" y1="-75.0" y2="-75.0"/><line fill="none" stroke="black" x1="-3.0" x2="3.0" y1="-150.0" y2="-150.0"/><line fill="none" stroke="black" x1="-3.0" x2="3.0" y1="-225.0" y2="-225.0"/><line fill="none" stroke="black" x1="-3.0" x2="3.0" y1="-300.0" y2="-300.0"/><text dominant-baseline="middle" fill="black" stroke="none" text-anchor="middle" x="-10.0" y="-75.0">1</text><text dominant-baseline="middle" fill="black" stroke="none" text-anchor="middle" x="-10.0" y="-150.0">2</text><text dominant-baseline="middle" fill="black" stroke="none" text-anchor="middle" x="-10.0" y="-225.0">3</text><text dominant-baseline="middle" fill="black" stroke="none" text-anchor="middle" x="-10.0" y="-300.0">4</text></g><text dominant-baseline="middle" fill="black" stroke="none" text-anchor="middle" x="-10.0" y="14.0">0</text></g></g></svg>