<svg xmlns="http://www.w3.org/2000/svg" height="380.0" width="480.0"><g transform="translate(40.0, 340.0)"><circle cx="100.0" cy="-42.857142857142854" fill="blue" r="4.0" stroke="lightblue" stroke-width="1.0"/><circle cx="200.0" cy="-85.71428571428571" fill="blue" r="4.0" stroke="lightblue" stroke-width="1.0"/><circle cx="300.0" cy="-128.57142857142856" fill="blue" r="4.0" stroke="lightblue" stroke-width="1.0"/><g><g><line fill="none" stroke="black" x1="-8.0" x2="408.0" y1="0.0" y2="0.0"/><polyline fill="black" points="408.0,-5.0 408.0,5.0 424.0,0.0" stroke="none"/><line fill="none" stroke="black" x1="100.0" x2="100.0" y1="-3.0" y2="3.0"/><line fill="none" stroke="black" x1="200.0" x2="200.0" y1="-3.0" y2="3.0"/><line fill="none" stroke="black" x1="300.0" x2="300.0" y1="-3.0" y2="3.0"/><line fill="none" stroke="black" x1="400.0" x2="400.0" y1="-3.0" y2="3.0"/><text dominant-baseline="middle" fill="black" stroke="none" text-anchor="middle" x="100.0" y="14.0">1</text><text dominant-baseline="middle" fill="black" stroke="none" text-anchor="middle" x="200.0" y="14.0">2</text><text dominant-baseline="middle" fill="black" stroke="none" text-anchor="middle" x="300.0" y="14.0">3</text><text dominant-baseline="middle" fill="black" stroke="none" text-anchor="middle" x="400.0" y="14.0">4</text></g><g><line fill="none" stroke="black" x1="0.0" x2="0.0" y1="8.0" y2="-308.0"/><polyline fill="black" points="-5.0,-308.0 5.0,-308.0 0.0,-324.0" stroke="none"/><line fill="none" stroke="black" x1="-3.0" x2="3.0" y1="-42.857142857142854" y2="-42.857142857142854"/><line fill="none" stroke="black" x1="-3.0" x2="3.0" y1="-85.71428571428571" y2="-85.71428571428571"/><line fill="none" stroke="black" x1="-3.0" x2="3.0" y1="-128.57142857142856" y2="-128.57142857142856"/><line fill="none" stroke="black" x1="-3.0" x2="3.0" y1="-171.42857142857142" y2="-171.42857142857142"/><line fill="none" stroke="black" x1="-3.0" x2="3.0" y1="-214.28571428571428" y2="-214.28571428571428"/><line fill="none" stroke="black" x1="-3.0" x2="3.0" y1="-257.1428571428571" y2="-257.1428571428571"/><line fill="none" stroke="black" x1="-3.0" x2="3.0" y1="-300.0" y2="-300.0"/><text dominant-baseline="middle" fill="black" stroke="none" text-anchor="middle" x="-10.0" y="-42.857142857142854">1</text><text dominant-baseline="middle" fill="black" stroke="none" text-anchor="middle" x="-10.0" y="-85.71428571428571">2</text><text dominant-baseline="middle" fill="black" stroke="none" text-anchor="middle" x="-10.0" y="-128.57142857142856">3</text><text dominant-baseline="middle" fill="black" stroke="none" text-anchor="middle" x="-10.0" y="-171.42857142857142">4</text><text dominant-baseline="middle" fill="black" stroke="none" text-anchor="middle" x="-10.0" y="-214.28571428571428">5</text><text dominant-baseline="middle" fill="black" stroke="none" text-anchor="middle" x="-10.0" y="-257.1428571428571">6</text><text dominant-baseline="middle" fill="black" stroke="none" text-anchor="middle" x="-10.0" y="-300.0">7</text></g><text dominant-baseline="middle" fill="black" stroke="none" text-anchor="middle" x="-10.0" y="14.0">0</text></g></g></svg>