<svg xmlns="http://www.w3.org/2000/svg" height="380.0" width="480.0"><g transform="translate(40.0, 340.0)"><polyline fill="none" points="0.0,-150.0 0.4,-150.62831439655588 0.8,-151.25660398833529 1.2,-151.88484397154085 1.6,-152.51300954433376 2.0,-153.14107590781282 2.4,-153.76901826699347 2.8000000000000003,-154.3968118317865 3.2,-155.02443181797696 3.5999999999999996,-155.65185344820247 4.0,-156.27905195293135 4.3999999999999995,-156.90600257144058 4.8,-157.53268055279327 5.2,-158.15906115681574 5.6000000000000005,-158.7851196550743 6.0,-159.41083133185143 6.4,-160.03617148512146 6.800000000000001,-160.661115427526 7.199999999999999,-161.28563848734814 7.6,-161.90971600948697 8.0,-162.53332335643043 8.4,-163.15643590922826 8.799999999999999,-163.7790290684638 9.2,-164.40107825522523 9.6,-165.0225589120757 10.0,-165.64344650402307 10.4,-166.26371651948836 10.8,-166.8833444712734 11.200000000000001,-167.50230589752763 11.600000000000001,-168.12057636271373 12.0,-168.73813145857244 12.399999999999999,-169.35494680508603 12.8,-169.9709980514407 13.200000000000001,-170.58626087698815 13.600000000000001,-171.20071099220547 14.000000000000002,-171.81432413965425 14.399999999999999,-172.4270760949381 14.799999999999999,-173.0389426676591 15.2,-173.64989970237247 15.6,-174.25992307954075 16.0,-174.8689887164855 16.400000000000002,-175.4770725683382 16.8,-176.0841506289897 17.2,-176.69019893203753 17.599999999999998,-177.2951935517325 18.0,-177.89911060392294 18.4,-178.5019262469976 18.8,-179.10361668282718 19.2,-179.7041581577035 19.6,-180.3035269632774 20.0,-180.90169943749476 20.4,-181.49865196553048 20.8,-182.09436098072095 21.2,-182.68880296549423 21.6,-183.28195445229866 22.0,-183.87379202452914 22.400000000000002,-184.4642923174517 22.800000000000004,-185.0534320191259 23.200000000000003,-185.6411878713251 23.599999999999998,-186.22753667045455 24.0,-186.81245526846777 24.4,-187.39592057378002 24.799999999999997,-187.9779095521801 25.2,-188.55839922773964 25.6,-189.13736668372024 26.0,-189.71478906347804 26.400000000000002,-190.29064357136625 26.8,-190.86490747363493 27.200000000000003,-191.43755809932838 27.6,-192.0085728411806 28.000000000000004,-192.57792915650725 28.4,-193.1456045680959 28.799999999999997,-193.7115766650933 29.2,-194.27582310389013 29.599999999999998,-194.83832160900323 30.0,-195.39904997395467 30.4,-195.9579860621488 30.8,-196.51510780774584 31.2,-197.07039321653323 31.6,-197.6238203667939 32.0,-198.1753674101715 32.4,-198.72501257253325 32.800000000000004,-199.27273415482915 33.199999999999996,-199.81851053394908 33.6,-200.36232016357607 34.00000000000001,-200.90414157503713 34.4,-201.44395337815064 34.8,-201.98173426207092 35.199999999999996,-202.51746299612952 35.6,-203.0511184306734 36.0,-203.58267949789965 36.4,-204.11212521268757 36.8,-204.63943467342693 37.2,-205.16458706284305 37.6,-205.6875616488188 37.99999999999999,-206.20833778521302 38.4,-206.72689491267565 38.800000000000004,-207.24321255945907 39.2,-207.75727034222675 39.6,-208.2690479668576 40.0,-208.77852522924735 40.400000000000006,-209.2856820161059 40.8,-209.79049830575187 41.199999999999996,-210.2929541689025 41.6,-210.79302976946056 42.0,-211.2907053652976 42.4,-211.78596130903344 42.800000000000004,-212.27877804881126 43.2,-212.76913612907006 43.6,-213.25701619131246 44.0,-213.74239897486896 44.4,-214.22526531765843 44.800000000000004,-214.70559615694444 45.2,-215.18337253008787 45.60000000000001,-215.65857557529563 46.0,-216.13118653236518 46.400000000000006,-216.60118674342516 46.800000000000004,-217.068557653672 47.199999999999996,-217.53328081210245 47.6,-217.9953378722419 48.0,-218.45471059286885 48.4,-218.91138083873486 48.8,-219.36533058128046 49.2,-219.81654189934727 49.599999999999994,-220.26499697988493 50.0,-220.71067811865473 50.4,-221.15356772092855 50.8,-221.5936483021831 51.2,-222.03090248879073 51.6,-222.46531301870465 52.0,-222.89686274214117 52.400000000000006,-223.325534622256 52.800000000000004,-223.75131173581738 53.2,-224.1741772738739 53.6,-224.59411454241823 54.0,-225.01110696304596 54.400000000000006,-225.4251380736104 54.800000000000004,-225.8361915288722 55.2,-226.2442511011448 55.60000000000001,-226.649300680935 56.00000000000001,-227.0513242775789 56.39999999999999,-227.45030601987338 56.8,-227.84623015670232 57.199999999999996,-228.23908105765878 57.599999999999994,-228.62884321366187 57.99999999999999,-229.015501237569 58.4,-229.3990398647835 58.8,-229.7794439538571 59.199999999999996,-230.15669848708768 59.599999999999994,-230.53078857111217 60.0,-230.90169943749476 60.4,-231.26941644330938 60.8,-231.6339250717184 61.199999999999996,-231.99521093254526 61.6,-232.35325976284275 62.0,-232.70805742745617 62.4,-233.05958991958124 62.8,-233.4078433613171 63.2,-233.7528040042142 63.6,-234.09445822981692 64.0,-234.43279255020155 64.39999999999999,-234.7677936085083 64.8,-235.0994481794692 65.2,-235.42774316992953 65.60000000000001,-235.75266561936522 66.0,-236.07420270039438 66.39999999999999,-236.39234171928354 66.8,-236.70707011644902 67.2,-237.0183754669526 67.60000000000001,-237.326245480992 68.00000000000001,-237.63066800438634 68.4,-237.93163101905563 68.8,-238.2291226434953 69.19999999999999,-238.5231311332455 69.6,-238.81364488135443 70.0,-239.10065241883677 70.39999999999999,-239.38414241512638 70.8,-239.66410367852362 71.2,-239.9405251566371 71.6,-240.21339593682026 72.0,-240.48270524660197 72.39999999999999,-240.7484424541117 72.8,-241.01059706849958 73.2,-241.2691587403503 73.6,-241.52411726209175 74.00000000000001,-241.7754625683981 74.4,-242.023184736587 74.8,-242.2672739870115 75.2,-242.5077206834458 75.6,-242.74451533346613 75.99999999999999,-242.97764858882513 76.4,-243.2071112458211 76.8,-243.4328942456612 77.2,-243.65498867481926 77.60000000000001,-243.8733857653874 78.0,-244.08807689542255 78.4,-244.29905358928644 78.8,-244.50630751798047 79.2,-244.70983049947444 79.60000000000001,-244.90961449902943 80.0,-245.10565162951536 80.4,-245.29793415172188 80.80000000000001,-245.48645447466433 81.2,-245.67120515588303 81.6,-245.8521789017376 81.99999999999999,-246.02936856769426 82.39999999999999,-246.2027671586086 82.8,-246.37236782900098 83.2,-246.53816388332743 83.60000000000001,-246.7001487762435 84.0,-246.8583161128631 84.39999999999999,-247.01265964901057 84.8,-247.16317329146742 85.2,-247.30985109821268 85.60000000000001,-247.45268727865772 86.0,-247.59167619387475 86.4,-247.72681235681935 86.8,-247.85809043254721 87.2,-247.9855052384247 87.6,-248.10905174433339 88.0,-248.22872507286888 88.4,-248.34452049953296 88.8,-248.45643345292055 89.20000000000002,-248.56445951489982 89.60000000000001,-248.6685944207868 90.0,-248.76883405951378 90.4,-248.86517447379137 90.8,-248.9576118602651 91.20000000000002,-249.0461425696651 91.60000000000001,-249.13076310695067 92.0,-249.2114701314478 92.4,-249.28826045698136 92.80000000000001,-249.36113105200084 93.19999999999999,-249.4300790396999 93.60000000000001,-249.49510169813001 94.0,-249.556196460308 94.39999999999999,-249.61336091431727 94.8,-249.66659280340298 95.2,-249.7158900260614 95.6,-249.7612506361225 96.0,-249.80267284282718 96.39999999999999,-249.84015501089752 96.8,-249.87369566060178 97.2,-249.9032934678125 97.6,-249.9289472640589 98.0,-249.95065603657318 98.4,-249.96841892832998 98.8,-249.9822352380809 99.19999999999999,-249.99210442038162 99.6,-249.9980260856137 100.0,-250.0 100.4,-249.9980260856137 100.8,-249.99210442038162 101.2,-249.9822352380809 101.6,-249.96841892832998 102.0,-249.95065603657318 102.4,-249.9289472640589 102.8,-249.9032934678125 103.2,-249.87369566060178 103.60000000000001,-249.84015501089752 104.0,-249.80267284282718 104.4,-249.7612506361225 104.80000000000001,-249.7158900260614 105.2,-249.66659280340298 105.60000000000001,-249.61336091431727 106.0,-249.556196460308 106.4,-249.49510169813001 106.80000000000001,-249.4300790396999 107.2,-249.36113105200084 107.60000000000001,-249.28826045698136 108.0,-249.21147013144775 108.4,-249.13076310695067 108.80000000000001,-249.0461425696651 109.2,-248.9576118602651 109.60000000000001,-248.86517447379137 110.00000000000001,-248.76883405951378 110.4,-248.6685944207868 110.80000000000001,-248.56445951489982 111.20000000000002,-248.45643345292055 111.60000000000001,-248.34452049953296 112.00000000000001,-248.22872507286888 112.4,-248.10905174433339 112.79999999999998,-247.9855052384247 113.19999999999999,-247.85809043254721 113.6,-247.72681235681935 113.99999999999999,-247.59167619387475 114.39999999999999,-247.45268727865772 114.8,-247.30985109821268 115.19999999999999,-247.16317329146742 115.6,-247.01265964901057 115.99999999999999,-246.8583161128631 116.39999999999999,-246.7001487762435 116.8,-246.53816388332743 117.19999999999999,-246.37236782900098 117.6,-246.2027671586086 118.0,-246.02936856769426 118.39999999999999,-245.8521789017376 118.8,-245.67120515588303 119.19999999999999,-245.48645447466433 119.6,-245.29793415172188 120.0,-245.10565162951536 120.39999999999999,-244.9096144990295 120.8,-244.70983049947444 121.2,-244.50630751798047 121.6,-244.29905358928644 122.0,-244.08807689542255 122.39999999999999,-243.8733857653874 122.8,-243.65498867481926 123.2,-243.4328942456612 123.6,-243.2071112458211 124.0,-242.97764858882513 124.4,-242.74451533346613 124.8,-242.5077206834458 125.2,-242.2672739870115 125.6,-242.023184736587 126.0,-241.77546256839813 126.4,-241.52411726209175 126.8,-241.2691587403503 127.2,-241.01059706849958 127.60000000000001,-240.7484424541117 128.0,-240.48270524660197 128.40000000000003,-240.21339593682026 128.79999999999998,-239.9405251566371 129.20000000000002,-239.66410367852362 129.6,-239.3841424151264 130.0,-239.10065241883677 130.4,-238.8136448813545 130.8,-238.5231311332455 131.20000000000002,-238.22912264349532 131.6,-237.93163101905563 132.0,-237.63066800438634 132.40000000000003,-237.326245480992 132.79999999999998,-237.0183754669526 133.20000000000002,-236.70707011644902 133.6,-236.39234171928356 134.0,-236.07420270039438 134.4,-235.75266561936522 134.8,-235.42774316992953 135.20000000000002,-235.0994481794692 135.60000000000002,-234.7677936085083 136.00000000000003,-234.43279255020147 136.39999999999998,-234.09445822981692 136.8,-233.7528040042142 137.20000000000002,-233.4078433613171 137.6,-233.05958991958124 138.0,-232.70805742745623 138.39999999999998,-232.35325976284278 138.79999999999998,-231.99521093254526 139.2,-231.6339250717184 139.6,-231.26941644330944 140.0,-230.90169943749476 140.4,-230.53078857111223 140.79999999999998,-230.15669848708768 141.2,-229.77944395385714 141.6,-229.39903986478356 142.0,-229.01550123756908 142.4,-228.62884321366187 142.79999999999998,-228.23908105765886 143.2,-227.84623015670235 143.6,-227.45030601987338 144.0,-227.0513242775789 144.4,-226.649300680935 144.79999999999998,-226.24425110114484 145.2,-225.8361915288722 145.6,-225.4251380736104 146.0,-225.01110696304596 146.4,-224.59411454241823 146.8,-224.17417727387394 147.2,-223.75131173581738 147.6,-223.325534622256 148.00000000000003,-222.89686274214114 148.39999999999998,-222.4653130187047 148.8,-222.03090248879073 149.2,-221.59364830218317 149.6,-221.15356772092855 150.0,-220.71067811865473 150.4,-220.26499697988493 150.8,-219.81654189934727 151.2,-219.36533058128046 151.60000000000002,-218.91138083873486 151.99999999999997,-218.45471059286885 152.4,-217.99533787224195 152.8,-217.53328081210245 153.2,-217.06855765367203 153.6,-216.60118674342516 154.0,-216.13118653236518 154.4,-215.65857557529563 154.8,-215.18337253008787 155.20000000000002,-214.70559615694444 155.6,-214.22526531765843 156.0,-213.74239897486896 156.4,-213.25701619131246 156.8,-212.76913612907006 157.20000000000002,-212.27877804881126 157.6,-211.78596130903344 158.0,-211.2907053652976 158.4,-210.79302976946056 158.8,-210.2929541689025 159.20000000000002,-209.79049830575187 159.6,-209.2856820161059 160.0,-208.77852522924735 160.4,-208.2690479668576 160.8,-207.75727034222675 161.20000000000002,-207.24321255945907 161.60000000000002,-206.72689491267562 162.0,-206.20833778521302 162.4,-205.6875616488188 162.79999999999998,-205.16458706284305 163.2,-204.63943467342693 163.60000000000002,-204.11212521268757 163.99999999999997,-203.58267949789968 164.39999999999998,-203.05111843067345 164.79999999999998,-202.51746299612964 165.2,-201.981734262071 165.6,-201.44395337815064 166.0,-200.90414157503713 166.4,-200.36232016357607 166.79999999999998,-199.81851053394908 167.20000000000002,-199.27273415482915 167.59999999999997,-198.72501257253327 168.0,-198.1753674101716 168.4,-197.62382036679392 168.79999999999998,-197.0703932165333 169.2,-196.51510780774586 169.6,-195.95798606214882 170.0,-195.39904997395467 170.4,-194.83832160900323 170.79999999999998,-194.27582310389016 171.20000000000002,-193.7115766650933 171.59999999999997,-193.14560456809593 172.0,-192.57792915650728 172.4,-192.00857284118064 172.8,-191.43755809932844 173.2,-190.86490747363493 173.6,-190.29064357136625 174.0,-189.71478906347804 174.4,-189.13736668372022 174.8,-188.55839922773964 175.2,-187.97790955218014 175.6,-187.39592057378007 176.0,-186.8124552684678 176.4,-186.22753667045455 176.8,-185.6411878713251 177.2,-185.0534320191259 177.6,-184.4642923174517 178.0,-183.87379202452914 178.40000000000003,-183.28195445229863 178.79999999999998,-182.6888029654943 179.20000000000002,-182.09436098072098 179.6,-181.4986519655305 180.0,-180.90169943749476 180.4,-180.3035269632774 180.8,-179.7041581577035 181.20000000000002,-179.10361668282718 181.6,-178.5019262469976 182.0,-177.8991106039229 182.40000000000003,-177.2951935517325 182.79999999999998,-176.69019893203756 183.20000000000002,-176.0841506289897 183.6,-175.4770725683382 184.0,-174.8689887164855 184.4,-174.25992307954075 184.8,-173.64989970237247 185.20000000000002,-173.03894266765906 185.60000000000002,-172.4270760949381 186.00000000000003,-171.81432413965425 186.39999999999998,-171.20071099220547 186.8,-170.58626087698815 187.20000000000002,-169.97099805144072 187.6,-169.35494680508606 188.0,-168.73813145857252 188.39999999999998,-168.12057636271376 188.79999999999998,-167.50230589752763 189.2,-166.8833444712734 189.6,-166.26371651948836 190.0,-165.64344650402307 190.4,-165.0225589120757 190.79999999999998,-164.40107825522526 191.2,-163.77902906846384 191.6,-163.15643590922826 192.0,-162.53332335643043 192.4,-161.90971600948703 192.79999999999998,-161.2856384873482 193.2,-160.661115427526 193.6,-160.0361714851215 194.0,-159.41083133185143 194.4,-158.7851196550743 194.79999999999998,-158.1590611568158 195.2,-157.5326805527933 195.6,-156.9060025714406 196.0,-156.27905195293135 196.4,-155.65185344820247 196.8,-155.02443181797696 197.2,-154.3968118317865 197.6,-153.76901826699347 198.00000000000003,-153.14107590781282 198.39999999999998,-152.51300954433376 198.8,-151.88484397154085 199.2,-151.25660398833529 199.6,-150.6283143965559 200.0,-150.00000000000003 200.4,-149.37168560344412 200.8,-148.74339601166474 201.2,-148.11515602845918 201.6,-147.48699045566624 202.0,-146.85892409218718 202.4,-146.23098173300656 202.8,-145.60318816821353 203.2,-144.97556818202307 203.6,-144.34814655179756 204.0,-143.72094804706867 204.4,-143.09399742855942 204.8,-142.4673194472067 205.20000000000002,-141.84093884318423 205.6,-141.2148803449257 206.0,-140.5891686681486 206.4,-139.96382851487851 206.8,-139.33888457247403 207.20000000000002,-138.71436151265183 207.6,-138.09028399051303 208.0,-137.46667664356957 208.4,-136.84356409077174 208.8,-136.2209709315362 209.20000000000002,-135.59892174477477 209.60000000000002,-134.9774410879243 210.0,-134.35655349597693 210.4,-133.73628348051164 210.8,-133.11665552872662 211.20000000000002,-132.4976941024724 211.60000000000002,-131.87942363728627 212.0,-131.26186854142753 212.4,-130.64505319491397 212.8,-130.02900194855926 213.20000000000002,-129.41373912301188 213.60000000000002,-128.79928900779456 214.0,-128.18567586034575 214.4,-127.57292390506187 214.8,-126.96105733234094 215.20000000000002,-126.35010029762752 215.60000000000002,-125.74007692045923 216.0,-125.13101128351448 216.4,-124.52292743166176 216.8,-123.91584937101031 217.20000000000002,-123.30980106796245 217.60000000000002,-122.70480644826746 218.00000000000003,-122.10088939607706 218.4,-121.49807375300239 218.8,-120.8963833171728 219.20000000000002,-120.2958418422965 219.60000000000002,-119.69647303672258 220.00000000000003,-119.09830056250523 220.4,-118.50134803446947 220.8,-117.90563901927906 221.20000000000002,-117.31119703450574 221.60000000000002,-116.71804554770134 222.00000000000003,-116.12620797547083 222.40000000000003,-115.53570768254828 222.8,-114.9465679808741 223.20000000000002,-114.35881212867488 223.60000000000002,-113.7724633295454 224.00000000000003,-113.18754473153217 224.40000000000003,-112.60407942621995 224.8,-112.02209044781988 225.2,-111.44160077226039 225.59999999999997,-110.8626333162798 225.99999999999997,-110.28521093652199 226.39999999999998,-109.7093564286338 226.79999999999998,-109.13509252636516 227.2,-108.56244190067163 227.59999999999997,-107.99142715881942 227.99999999999997,-107.42207084349278 228.39999999999998,-106.85439543190414 228.79999999999998,-106.28842333490674 229.2,-105.72417689610987 229.6,-105.16167839099684 229.99999999999997,-104.60095002604537 230.39999999999998,-104.04201393785127 230.79999999999998,-103.48489219225421 231.2,-102.92960678346678 231.6,-102.37617963320612 231.99999999999997,-101.82463258982851 232.39999999999998,-101.27498742746678 232.79999999999998,-100.72726584517088 233.2,-100.18148946605092 233.6,-99.63767983642397 234.0,-99.09585842496291 234.39999999999998,-98.55604662184939 234.79999999999998,-98.0182657379291 235.2,-97.48253700387046 235.6,-96.94888156932662 236.0,-96.41732050210037 236.39999999999998,-95.88787478731243 236.79999999999998,-95.3605653265731 237.2,-94.83541293715702 237.6,-94.31243835118124 238.0,-93.79166221478698 238.39999999999998,-93.27310508732438 238.79999999999998,-92.75678744054093 239.2,-92.24272965777327 239.6,-91.73095203314242 240.0,-91.22147477075269 240.39999999999998,-90.71431798389409 240.79999999999998,-90.20950169424815 241.2,-89.70704583109756 241.6,-89.2069702305395 242.0,-88.70929463470237 242.4,-88.21403869096659 242.79999999999998,-87.72122195118877 243.2,-87.23086387092997 243.6,-86.74298380868757 244.0,-86.25760102513104 244.4,-85.77473468234155 244.79999999999998,-85.2944038430556 245.2,-84.81662746991215 245.6,-84.34142442470437 246.0,-83.86881346763482 246.4,-83.39881325657485 246.8,-82.93144234632801 247.2,-82.46671918789757 247.6,-82.00466212775808 248.0,-81.54528940713112 248.4,-81.08861916126517 248.8,-80.63466941871953 249.2,-80.18345810065274 249.6,-79.73500302011509 250.0,-79.28932188134524 250.4,-78.84643227907146 250.8,-78.40635169781689 251.2,-77.96909751120931 251.6,-77.53468698129534 252.0,-77.10313725785886 252.4,-76.67446537774401 252.8,-76.24868826418263 253.2,-75.82582272612609 253.6,-75.40588545758179 254.0,-74.98889303695405 254.4,-74.57486192638963 254.8,-74.16380847112785 255.20000000000002,-73.7557488988552 255.6,-73.35069931906504 256.0,-72.94867572242106 256.4,-72.54969398012663 256.80000000000007,-72.15376984329764 257.2,-71.76091894234119 257.59999999999997,-71.37115678633815 258.0,-70.98449876243096 258.40000000000003,-70.60096013521648 258.8,-70.22055604614289 259.2,-69.84330151291236 259.6,-69.46921142888779 260.0,-69.09830056250526 260.40000000000003,-68.73058355669059 260.8,-68.3660749282816 261.2,-68.0047890674548 261.6,-67.64674023715726 262.0,-67.29194257254385 262.40000000000003,-66.94041008041873 262.8,-66.5921566386829 263.2,-66.24719599578582 263.6,-65.90554177018309 264.0,-65.56720744979847 264.40000000000003,-65.23220639149167 264.80000000000007,-64.9005518205308 265.2,-64.57225683007049 265.59999999999997,-64.24733438063478 266.0,-63.92579729960563 266.40000000000003,-63.60765828071648 266.8,-63.29292988355097 267.2,-62.981624533047444 267.6,-62.67375451900796 268.0,-62.36933199561364 268.40000000000003,-62.06836898094435 268.8,-61.77087735650466 269.2,-61.47686886675449 269.6,-61.186355118645544 270.0,-60.89934758116323 270.40000000000003,-60.61585758487361 270.8,-60.33589632147641 271.20000000000005,-60.05947484336288 271.6,-59.786604063179716 272.00000000000006,-59.51729475339802 272.40000000000003,-59.2515575458883 272.79999999999995,-58.98940293150045 273.20000000000005,-58.73084125964971 273.6,-58.47588273790825 274.0,-58.224537431601874 274.40000000000003,-57.97681526341296 274.8,-57.7327260129885 275.2,-57.49227931655423 275.59999999999997,-57.25548466653389 276.0,-57.02235141117489 276.4,-56.79288875417891 276.79999999999995,-56.567105754338826 277.20000000000005,-56.34501132518078 277.59999999999997,-56.1266142346126 277.99999999999994,-55.91192310457749 278.4,-55.70094641071357 278.79999999999995,-55.49369248201954 279.2,-55.29016950052558 279.59999999999997,-55.09038550097056 280.0,-54.89434837048464 280.4,-54.70206584827814 280.8,-54.51354552533571 281.2,-54.32879484411696 281.59999999999997,-54.14782109826243 282.0,-53.9706314323057 282.4,-53.79723284139143 282.8,-53.62763217099904 283.2,-53.461836116672636 283.59999999999997,-53.2998512237565 284.0,-53.14168388713691 284.40000000000003,-52.98734035098942 284.8,-52.83682670853261 285.19999999999993,-52.69014890178736 285.59999999999997,-52.54731272134229 286.0,-52.40832380612528 286.4,-52.27318764318066 286.8,-52.14190956745281 287.2,-52.014494761575314 287.59999999999997,-51.8909482556666 288.0,-51.77127492713113 288.4,-51.65547950046704 288.8,-51.54356654707946 289.2,-51.435540485100205 289.59999999999997,-51.331405579213204 290.0,-51.231165940486235 290.4,-51.13482552620861 290.8,-51.0423881397349 291.2,-50.95385743033488 291.59999999999997,-50.86923689304934 292.0,-50.788529868552224 292.40000000000003,-50.71173954301863 292.8,-50.63886894799916 293.19999999999993,-50.56992096030012 293.6,-50.504898301869986 294.0,-50.443803539692006 294.4,-50.38663908568275 294.8,-50.333407196597015 295.2,-50.284109973938605 295.6,-50.238749363877474 296.00000000000006,-50.19732715717284 296.4,-50.159844989102496 296.79999999999995,-50.12630433939825 297.2,-50.09670653218753 297.6,-50.07105273594107 298.0,-50.04934396342684 298.4,-50.031581071670004 298.8,-50.0177647619191 299.2,-50.00789557961839 299.6,-50.00197391438629 300.0,-50.0 300.4,-50.00197391438629 300.8,-50.00789557961839 301.2,-50.0177647619191 301.6,-50.031581071670004 302.0,-50.04934396342684 302.4,-50.07105273594107 302.8,-50.09670653218753 303.20000000000005,-50.12630433939825 303.6,-50.159844989102496 303.99999999999994,-50.19732715717284 304.4,-50.238749363877474 304.8,-50.284109973938605 305.2,-50.333407196597015 305.6,-50.38663908568275 306.0,-50.443803539692006 306.4,-50.504898301869986 306.80000000000007,-50.56992096030012 307.2,-50.63886894799916 307.59999999999997,-50.71173954301863 308.0,-50.78852986855222 308.40000000000003,-50.86923689304934 308.8,-50.95385743033488 309.2,-51.042388139734896 309.6,-51.13482552620861 310.0,-51.23116594048622 310.40000000000003,-51.3314055792132 310.8,-51.4355404851002 311.2,-51.54356654707946 311.6,-51.65547950046703 312.0,-51.77127492713113 312.40000000000003,-51.89094825566659 312.8,-52.014494761575314 313.2,-52.14190956745279 313.6,-52.27318764318065 314.0,-52.40832380612527 314.40000000000003,-52.54731272134229 314.80000000000007,-52.69014890178736 315.2,-52.836826708532605 315.59999999999997,-52.987340350989406 316.0,-53.14168388713689 316.40000000000003,-53.29985122375649 316.8,-53.46183611667262 317.2,-53.62763217099903 317.6,-53.79723284139142 318.0,-53.970631432305694 318.40000000000003,-54.147821098262426 318.8,-54.328794844116956 319.2,-54.513545525335694 319.6,-54.702065848278124 320.0,-54.894348370484636 320.40000000000003,-55.09038550097055 320.8,-55.290169500525565 321.20000000000005,-55.49369248201953 321.6,-55.700946410713556 322.00000000000006,-55.91192310457746 322.40000000000003,-56.126614234612596 322.79999999999995,-56.34501132518076 323.20000000000005,-56.567105754338805 323.6,-56.7928887541789 324.0,-57.02235141117488 324.40000000000003,-57.25548466653386 324.8,-57.4922793165542 325.2,-57.732726012988486 325.59999999999997,-57.97681526341295 326.0,-58.22453743160185 326.4,-58.475882737908236 326.79999999999995,-58.730841259649694 327.20000000000005,-58.98940293150042 327.59999999999997,-59.25155754588829 327.99999999999994,-59.51729475339801 328.4,-59.786604063179695 328.79999999999995,-60.059474843362864 329.2,-60.3358963214764 329.59999999999997,-60.615857584873595 330.0,-60.8993475811632 330.4,-61.18635511864552 330.8,-61.47686886675447 331.2,-61.77087735650465 331.59999999999997,-62.068368980944335 332.0,-62.36933199561362 332.4,-62.67375451900795 332.8,-62.981624533047416 333.2,-63.29292988355096 333.59999999999997,-63.607658280716464 334.0,-63.92579729960562 334.40000000000003,-64.24733438063477 334.8,-64.57225683007047 335.19999999999993,-64.90055182053078 335.59999999999997,-65.23220639149166 336.0,-65.56720744979845 336.4,-65.90554177018308 336.8,-66.24719599578579 337.2,-66.59215663868287 337.59999999999997,-66.94041008041872 338.0,-67.29194257254382 338.4,-67.64674023715723 338.8,-68.00478906745478 339.2,-68.36607492828158 339.59999999999997,-68.73058355669056 340.0,-69.09830056250524 340.4,-69.46921142888776 340.8,-69.84330151291233 341.2,-70.22055604614286 341.59999999999997,-70.60096013521645 342.0,-70.98449876243093 342.40000000000003,-71.37115678633812 342.8,-71.76091894234116 343.19999999999993,-72.15376984329762 343.6,-72.5496939801266 344.0,-72.94867572242104 344.4,-73.35069931906501 344.8,-73.75574889885519 345.2,-74.16380847112782 345.6,-74.5748619263896 346.00000000000006,-74.98889303695405 346.4,-75.40588545758176 346.79999999999995,-75.82582272612603 347.2,-76.24868826418259 347.6,-76.67446537774397 348.0,-77.10313725785885 348.4,-77.53468698129531 348.8,-77.96909751120933 349.2,-78.40635169781687 349.6,-78.84643227907146 350.0,-79.28932188134523 350.4,-79.73500302011503 350.8,-80.18345810065273 351.2,-80.63466941871947 351.6,-81.08861916126516 352.0,-81.54528940713111 352.4,-82.0046621277581 352.8,-82.46671918789754 353.20000000000005,-82.93144234632801 353.6,-83.39881325657483 353.99999999999994,-83.86881346763478 354.4,-84.34142442470434 354.8,-84.81662746991209 355.2,-85.29440384305558 355.6,-85.77473468234153 356.0,-86.25760102513104 356.4,-86.74298380868754 356.80000000000007,-87.23086387092998 357.2,-87.72122195118875 357.59999999999997,-88.21403869096652 358.0,-88.70929463470235 358.40000000000003,-89.20697023053944 358.8,-89.70704583109753 359.2,-90.20950169424808 359.6,-90.71431798389409 360.0,-91.22147477075266 360.40000000000003,-91.73095203314243 360.8,-92.24272965777322 361.2,-92.75678744054088 361.6,-93.27310508732435 362.0,-93.79166221478691 362.40000000000003,-94.3124383511812 362.8,-94.83541293715695 363.2,-95.36056532657311 363.6,-95.8878747873124 364.0,-96.41732050210037 364.40000000000003,-96.94888156932659 364.80000000000007,-97.48253700387046 365.2,-98.01826573792906 365.59999999999997,-98.55604662184932 366.0,-99.09585842496287 366.40000000000003,-99.6376798364239 366.8,-100.18148946605093 367.2,-100.72726584517082 367.6,-101.27498742746681 368.0,-101.82463258982847 368.40000000000003,-102.37617963320614 368.8,-102.92960678346674 369.2,-103.48489219225415 369.6,-104.04201393785124 370.0,-104.6009500260453 370.40000000000003,-105.1616783909968 370.8,-105.72417689610981 371.20000000000005,-106.28842333490675 371.6,-106.85439543190412 372.00000000000006,-107.42207084349278 372.40000000000003,-107.99142715881936 372.79999999999995,-108.56244190067157 373.20000000000005,-109.13509252636511 373.6,-109.70935642863371 374.0,-110.28521093652198 374.40000000000003,-110.86263331627974 374.8,-111.44160077226039 375.2,-112.02209044781982 375.59999999999997,-112.60407942621994 376.0,-113.18754473153211 376.4,-113.7724633295454 376.79999999999995,-114.35881212867487 377.20000000000005,-114.9465679808741 377.59999999999997,-115.53570768254825 377.99999999999994,-116.12620797547076 378.4,-116.71804554770128 378.79999999999995,-117.31119703450567 379.2,-117.90563901927901 379.59999999999997,-118.50134803446946 380.0,-119.09830056250523 380.4,-119.69647303672255 380.8,-120.2958418422965 381.2,-120.89638331717276 381.59999999999997,-121.4980737530023 382.0,-122.10088939607705 382.4,-122.7048064482674 382.8,-123.30980106796241 383.2,-123.91584937101024 383.59999999999997,-124.52292743166176 384.0,-125.13101128351447 384.40000000000003,-125.74007692045926 384.8,-126.35010029762748 385.19999999999993,-126.96105733234087 385.59999999999997,-127.57292390506186 386.0,-128.18567586034567 386.4,-128.7992890077945 386.8,-129.4137391230118 387.2,-130.02900194855928 387.59999999999997,-130.6450531949139 388.0,-131.26186854142753 388.4,-131.87942363728624 388.8,-132.4976941024724 389.2,-133.1166555287266 389.59999999999997,-133.73628348051156 390.0,-134.35655349597687 390.4,-134.97744108792423 390.8,-135.59892174477477 391.2,-136.22097093153613 391.59999999999997,-136.84356409077174 392.0,-137.46667664356954 392.40000000000003,-138.09028399051303 392.8,-138.7143615126518 393.19999999999993,-139.33888457247394 393.6,-139.9638285148785 394.0,-140.5891686681485 394.4,-141.21488034492566 394.8,-141.8409388431842 395.2,-142.4673194472067 395.6,-143.0939974285594 396.00000000000006,-143.72094804706867 396.4,-144.34814655179753 396.79999999999995,-144.97556818202295 397.2,-145.6031881682135 397.6,-146.2309817330065 398.0,-146.85892409218718 398.4,-147.4869904556662 398.8,-148.11515602845918 399.2,-148.74339601166471 399.6,-149.37168560344412 400.0,-149.99999999999997" stroke="red" stroke-width="2.0"/><g><g><line fill="none" stroke="black" x1="-8.0" x2="408.0" y1="0.0" y2="0.0"/><polyline fill="black" points="408.0,-5.0 408.0,5.0 424.0,0.0" stroke="none"/><line fill="none" stroke="black" x1="63.66197723675814" x2="63.66197723675814" y1="-3.0" y2="3.0"/><line fill="none" stroke="black" x1="127.32395447351628" x2="127.32395447351628" y1="-3.0" y2="3.0"/><line fill="none" stroke="black" x1="190.9859317102744" x2="190.9859317102744" y1="-3.0" y2="3.0"/><line fill="none" stroke="black" x1="254.64790894703256" x2="254.64790894703256" y1="-3.0" y2="3.0"/><line fill="none" stroke="black" x1="318.3098861837907" x2="318.3098861837907" y1="-3.0" y2="3.0"/><line fill="none" stroke="black" x1="381.9718634205488" x2="381.9718634205488" y1="-3.0" y2="3.0"/><text dominant-baseline="middle" fill="black" stroke="none" text-anchor="middle" x="63.66197723675814" y="14.0">1</text><text dominant-baseline="middle" fill="black" stroke="none" text-anchor="middle" x="127.32395447351628" y="14.0">2</text><text dominant-baseline="middle" fill="black" stroke="none" text-anchor="middle" x="190.9859317102744" y="14.0">3</text><text dominant-baseline="middle" fill="black" stroke="none" text-anchor="middle" x="254.64790894703256" y="14.0">4</text><text dominant-baseline="middle" fill="black" stroke="none" text-anchor="middle" x="318.3098861837907" y="14.0">5</text><text dominant-baseline="middle" fill="black" stroke="none" text-anchor="middle" x="381.9718634205488" y="14.0">6</text></g><g><line fill="none" stroke="black" x1="0.0" x2="0.0" y1="8.0" y2="-308.0"/><polyline fill="black" points="-5.0,-308.0 5.0,-308.0 0.0,-324.0" stroke="none"/><line fill="none" stroke="black" x1="-3.0" x2="3.0" y1="-100.0" y2="-100.0"/><line fill="none" stroke="black" x1="-3.0" x2="3.0" y1="-200.0" y2="-200.0"/><line fill="none" stroke="black" x1="-3.0" x2="3.0" y1="-300.0" y2="-300.0"/><text dominant-baseline="middle" fill="black" stroke="none" text-anchor="middle" x="-10.0" y="-100.0">1</text><text dominant-baseline="middle" fill="black" stroke="none" text-anchor="middle" x="-10.0" y="-200.0">2</text><text dominant-baseline="middle" fill="black" stroke="none" text-anchor="middle" x="-10.0" y="-300.0">3</text></g><text dominant-baseline="middle" fill="black" stroke="none" text-anchor="middle" x="-10.0" y="14.0">0</text></g></g></svg>