<svg xmlns="http://www.w3.org/2000/svg" viewBox="0 0 216 216" width="216" height="216"><g transform="translate(108, 108)"><g><circle fill="white" stroke="black" stroke-width="8" cy="0" r="100" cx="0"></circle><line fill="none" stroke="black" stroke-width="4" transform="matrix(1 0 0 1 0 0)" y1="92" x2="0" y2="100" x1="0"></line><line fill="none" stroke="black" stroke-width="1" transform="matrix(0.994522 0.104528 -0.104528 0.994522 0 0)" y1="92" x2="0" y2="100" x1="0"></line><line fill="none" stroke="black" stroke-width="1" transform="matrix(0.978148 0.207912 -0.207912 0.978148 0 0)" y1="92" x2="0" y2="100" x1="0"></line><line fill="none" stroke="black" stroke-width="1" transform="matrix(0.951057 0.309017 -0.309017 0.951057 0 0)" y1="92" x2="0" y2="100" x1="0"></line><line fill="none" stroke="black" stroke-width="1" transform="matrix(0.913545 0.406737 -0.406737 0.913545 0 0)" y1="92" x2="0" y2="100" x1="0"></line><line fill="none" stroke="black" stroke-width="4" transform="matrix(0.866025 0.5 -0.5 0.866025 0 0)" y1="92" x2="0" y2="100" x1="0"></line><line fill="none" stroke="black" stroke-width="1" transform="matrix(0.809017 0.587785 -0.587785 0.809017 0 0)" y1="92" x2="0" y2="100" x1="0"></line><line fill="none" stroke="black" stroke-width="1" transform="matrix(0.743145 0.669131 -0.669131 0.743145 0 0)" y1="92" x2="0" y2="100" x1="0"></line><line fill="none" stroke="black" stroke-width="1" transform="matrix(0.669131 0.743145 -0.743145 0.669131 0 0)" y1="92" x2="0" y2="100" x1="0"></line><line fill="none" stroke="black" stroke-width="1" transform="matrix(0.587785 0.809017 -0.809017 0.587785 0 0)" y1="92" x2="0" y2="100" x1="0"></line><line fill="none" stroke="black" stroke-width="4" transform="matrix(0.5 0.866025 -0.866025 0.5 0 0)" y1="92" x2="0" y2="100" x1="0"></line><line fill="none" stroke="black" stroke-width="1" transform="matrix(0.406737 0.913545 -0.913545 0.406737 0 0)" y1="92" x2="0" y2="100" x1="0"></line><line fill="none" stroke="black" stroke-width="1" transform="matrix(0.309017 0.951057 -0.951057 0.309017 0 0)" y1="92" x2="0" y2="100" x1="0"></line><line fill="none" stroke="black" stroke-width="1" transform="matrix(0.207912 0.978148 -0.978148 0.207912 0 0)" y1="92" x2="0" y2="100" x1="0"></line><line fill="none" stroke="black" stroke-width="1" transform="matrix(0.104528 0.994522 -0.994522 0.104528 0 0)" y1="92" x2="0" y2="100" x1="0"></line><line fill="none" stroke="black" stroke-width="4" transform="matrix(6.12323e-17 1 -1 6.12323e-17 0 0)" y1="92" x2="0" y2="100" x1="0"></line><line fill="none" stroke="black" stroke-width="1" transform="matrix(-0.104528 0.994522 -0.994522 -0.104528 0 0)" y1="92" x2="0" y2="100" x1="0"></line><line fill="none" stroke="black" stroke-width="1" transform="matrix(-0.207912 0.978148 -0.978148 -0.207912 0 0)" y1="92" x2="0" y2="100" x1="0"></line><line fill="none" stroke="black" stroke-width="1" transform="matrix(-0.309017 0.951057 -0.951057 -0.309017 0 0)" y1="92" x2="0" y2="100" x1="0"></line><line fill="none" stroke="black" stroke-width="1" transform="matrix(-0.406737 0.913545 -0.913545 -0.406737 0 0)" y1="92" x2="0" y2="100" x1="0"></line><line fill="none" stroke="black" stroke-width="4" transform="matrix(-0.5 0.866025 -0.866025 -0.5 0 0)" y1="92" x2="0" y2="100" x1="0"></line><line fill="none" stroke="black" stroke-width="1" transform="matrix(-0.587785 0.809017 -0.809017 -0.587785 0 0)" y1="92" x2="0" y2="100" x1="0"></line><line fill="none" stroke="black" stroke-width="1" transform="matrix(-0.669131 0.743145 -0.743145 -0.669131 0 0)" y1="92" x2="0" y2="100" x1="0"></line><line fill="none" stroke="black" stroke-width="1" transform="matrix(-0.743145 0.669131 -0.669131 -0.743145 0 0)" y1="92" x2="0" y2="100" x1="0"></line><line fill="none" stroke="black" stroke-width="1" transform="matrix(-0.809017 0.587785 -0.587785 -0.809017 0 0)" y1="92" x2="0" y2="100" x1="0"></line><line fill="none" stroke="black" stroke-width="4" transform="matrix(-0.866025 0.5 -0.5 -0.866025 0 0)" y1="92" x2="0" y2="100" x1="0"></line><line fill="none" stroke="black" stroke-width="1" transform="matrix(-0.913545 0.406737 -0.406737 -0.913545 0 0)" y1="92" x2="0" y2="100" x1="0"></line><line fill="none" stroke="black" stroke-width="1" transform="matrix(-0.951057 0.309017 -0.309017 -0.951057 0 0)" y1="92" x2="0" y2="100" x1="0"></line><line fill="none" stroke="black" stroke-width="1" transform="matrix(-0.978148 0.207912 -0.207912 -0.978148 0 0)" y1="92" x2="0" y2="100" x1="0"></line><line fill="none" stroke="black" stroke-width="1" transform="matrix(-0.994522 0.104528 -0.104528 -0.994522 0 0)" y1="92" x2="0" y2="100" x1="0"></line><line fill="none" stroke="black" stroke-width="4" transform="matrix(-1 1.22465e-16 -1.22465e-16 -1 0 0)" y1="92" x2="0" y2="100" x1="0"></line><line fill="none" stroke="black" stroke-width="1" transform="matrix(-0.994522 -0.104528 0.104528 -0.994522 0 0)" y1="92" x2="0" y2="100" x1="0"></line><line fill="none" stroke="black" stroke-width="1" transform="matrix(-0.978148 -0.207912 0.207912 -0.978148 0 0)" y1="92" x2="0" y2="100" x1="0"></line><line fill="none" stroke="black" stroke-width="1" transform="matrix(-0.951057 -0.309017 0.309017 -0.951057 0 0)" y1="92" x2="0" y2="100" x1="0"></line><line fill="none" stroke="black" stroke-width="1" transform="matrix(-0.913545 -0.406737 0.406737 -0.913545 0 0)" y1="92" x2="0" y2="100" x1="0"></line><line fill="none" stroke="black" stroke-width="4" transform="matrix(-0.866025 -0.5 0.5 -0.866025 0 0)" y1="92" x2="0" y2="100" x1="0"></line><line fill="none" stroke="black" stroke-width="1" transform="matrix(-0.809017 -0.587785 0.587785 -0.809017 0 0)" y1="92" x2="0" y2="100" x1="0"></line><line fill="none" stroke="black" stroke-width="1" transform="matrix(-0.743145 -0.669131 0.669131 -0.743145 0 0)" y1="92" x2="0" y2="100" x1="0"></line><line fill="none" stroke="black" stroke-width="1" transform="matrix(-0.669131 -0.743145 0.743145 -0.669131 0 0)" y1="92" x2="0" y2="100" x1="0"></line><line fill="none" stroke="black" stroke-width="1" transform="matrix(-0.587785 -0.809017 0.809017 -0.587785 0 0)" y1="92" x2="0" y2="100" x1="0"></line><line fill="none" stroke="black" stroke-width="4" transform="matrix(-0.5 -0.866025 0.866025 -0.5 0 0)" y1="92" x2="0" y2="100" x1="0"></line><line fill="none" stroke="black" stroke-width="1" transform="matrix(-0.406737 -0.913545 0.913545 -0.406737 0 0)" y1="92" x2="0" y2="100" x1="0"></line><line fill="none" stroke="black" stroke-width="1" transform="matrix(-0.309017 -0.951057 0.951057 -0.309017 0 0)" y1="92" x2="0" y2="100" x1="0"></line><line fill="none" stroke="black" stroke-width="1" transform="matrix(-0.207912 -0.978148 0.978148 -0.207912 0 0)" y1="92" x2="0" y2="100" x1="0"></line><line fill="none" stroke="black" stroke-width="1" transform="matrix(-0.104528 -0.994522 0.994522 -0.104528 0 0)" y1="92" x2="0" y2="100" x1="0"></line><line fill="none" stroke="black" stroke-width="4" transform="matrix(-1.83697e-16 -1 1 -1.83697e-16 0 0)" y1="92" x2="0" y2="100" x1="0"></line><line fill="none" stroke="black" stroke-width="1" transform="matrix(0.104528 -0.994522 0.994522 0.104528 0 0)" y1="92" x2="0" y2="100" x1="0"></line><line fill="none" stroke="black" stroke-width="1" transform="matrix(0.207912 -0.978148 0.978148 0.207912 0 0)" y1="92" x2="0" y2="100" x1="0"></line><line fill="none" stroke="black" stroke-width="1" transform="matrix(0.309017 -0.951057 0.951057 0.309017 0 0)" y1="92" x2="0" y2="100" x1="0"></line><line fill="none" stroke="black" stroke-width="1" transform="matrix(0.406737 -0.913545 0.913545 0.406737 0 0)" y1="92" x2="0" y2="100" x1="0"></line><line fill="none" stroke="black" stroke-width="4" transform="matrix(0.5 -0.866025 0.866025 0.5 0 0)" y1="92" x2="0" y2="100" x1="0"></line><line fill="none" stroke="black" stroke-width="1" transform="matrix(0.587785 -0.809017 0.809017 0.587785 0 0)" y1="92" x2="0" y2="100" x1="0"></line><line fill="none" stroke="black" stroke-width="1" transform="matrix(0.669131 -0.743145 0.743145 0.669131 0 0)" y1="92" x2="0" y2="100" x1="0"></line><line fill="none" stroke="black" stroke-width="1" transform="matrix(0.743145 -0.669131 0.669131 0.743145 0 0)" y1="92" x2="0" y2="100" x1="0"></line><line fill="none" stroke="black" stroke-width="1" transform="matrix(0.809017 -0.587785 0.587785 0.809017 0 0)" y1="92" x2="0" y2="100" x1="0"></line><line fill="none" stroke="black" stroke-width="4" transform="matrix(0.866025 -0.5 0.5 0.866025 0 0)" y1="92" x2="0" y2="100" x1="0"></line><line fill="none" stroke="black" stroke-width="1" transform="matrix(0.913545 -0.406737 0.406737 0.913545 0 0)" y1="92" x2="0" y2="100" x1="0"></line><line fill="none" stroke="black" stroke-width="1" transform="matrix(0.951057 -0.309017 0.309017 0.951057 0 0)" y1="92" x2="0" y2="100" x1="0"></line><line fill="none" stroke="black" stroke-width="1" transform="matrix(0.978148 -0.207912 0.207912 0.978148 0 0)" y1="92" x2="0" y2="100" x1="0"></line><line fill="none" stroke="black" stroke-width="1" transform="matrix(0.994522 -0.104528 0.104528 0.994522 0 0)" y1="92" x2="0" y2="100" x1="0"></line></g><line fill="none" stroke="black" stroke-width="4" transform="matrix(-0.377985 0.925812 -0.925812 -0.377985 0 0)" y1="0" x2="0" y2="-40" x1="0"></line><line fill="none" stroke="black" stroke-width="4" transform="matrix(-0.0609214 -0.998143 0.998143 -0.0609214 0 0)" y1="0" x2="0" y2="-75" x1="0"></line><line fill="none" stroke="black" stroke-width="2" transform="matrix(-0.869822 0.493365 -0.493365 -0.869822 0 0)" y1="15" x2="0" y2="-80" x1="0"></line></g></svg>