<svg xmlns="http://www.w3.org/2000/svg" height="380.0" width="480.0"><g transform="translate(40.0, 340.0)"><polyline fill="none" points="0.0,-150.0 0.4,-151.3159092729998 0.8,-152.63159067101932 1.2,-153.9468163585393 1.6,-155.2613585789554 2.0,-156.5749896940188 2.4,-157.88748222325614 2.8000000000000003,-159.1986088833619 3.2,-160.50814262755725 3.5999999999999996,-161.81585668490723 4.0,-163.12152459959077 4.3999999999999995,-164.42492027011548 4.8,-165.725817988472 5.2,-167.02399247921917 5.6000000000000005,-168.31921893849517 6.0,-169.6112730729464 6.4,-170.89993113856838 6.800000000000001,-172.18496997945104 7.199999999999999,-173.46616706642274 7.6,-174.7433005355854 8.0,-176.01614922673446 8.4,-177.2844927216568 8.799999999999999,-178.54811138230093 9.2,-179.806786388811 9.6,-181.06029977741997 10.0,-182.30843447819407 10.4,-183.55097435262283 10.8,-184.78770423104731 11.200000000000001,-186.0184099499212 11.600000000000001,-187.24287838889708 12.0,-188.46089750773245 12.399999999999999,-189.67225638300857 12.8,-190.8767452446558 13.200000000000001,-192.07415551227948 13.600000000000001,-193.26427983127945 14.000000000000002,-194.44691210875763 14.399999999999999,-195.62184754920693 14.799999999999999,-196.78888268997548 15.2,-197.94781543650015 15.6,-199.09844509730308 16.0,-200.24057241874527 16.400000000000002,-201.37399961953116 16.8,-202.4985304249584 17.2,-203.6139701009062 17.599999999999998,-204.7201254875579 18.0,-205.81680503284977 18.4,-206.9038188256421 18.8,-207.98097862860607 19.2,-209.0480979108205 19.6,-210.10499188007344 20.0,-211.15147751486222 20.4,-212.18737359608764 20.8,-213.21250073843476 21.2,-214.22668142143772 21.6,-215.22974002022036 22.0,-216.22150283590918 22.400000000000002,-217.2017981257125 22.800000000000004,-218.17045613266126 23.200000000000003,-219.12730911500552 23.599999999999998,-220.07219137526224 24.0,-221.00493928890887 24.4,-221.92539133271845 24.799999999999997,-222.83338811272984 25.2,-223.72877239185044 25.6,-224.61138911708443 26.0,-225.4810854463835 26.400000000000002,-226.33771077511398 26.8,-227.18111676213724 27.200000000000003,-228.0111573554978 27.6,-228.8276888177149 28.000000000000004,-229.6305697506734 28.4,-230.41966112010968 28.799999999999997,-231.19482627968821 29.2,-231.95593099466402 29.599999999999998,-232.70284346512864 30.0,-233.4354343488333 30.4,-234.15357678358734 30.8,-234.8571464092266 31.2,-235.54602138914896 31.6,-236.2200824314126 32.0,-236.8792128093937 32.4,-237.52329838199984 32.800000000000004,-238.15222761343594 33.199999999999996,-238.76589159251856 33.6,-239.36418405153603 34.00000000000001,-239.94700138465092 34.4,-240.51424266584124 34.8,-241.06580966637756 35.199999999999996,-241.60160687183367 35.6,-242.12154149862621 36.0,-242.62552351008233 36.4,-243.113465632031 36.8,-243.58528336791628 37.2,-244.04089501342966 37.6,-244.48022167065872 37.99999999999999,-244.90318726174942 38.4,-245.30971854208116 38.800000000000004,-245.69974511294976 39.2,-246.07319943375884 39.6,-246.43001683371548 40.0,-246.77013552302955 40.400000000000006,-247.09349660361346 40.8,-247.4000440792815 41.199999999999996,-247.68972486544706 41.6,-247.96248879831478 42.0,-248.21828864356758 42.4,-248.45708010454624 42.800000000000004,-248.67882182992003 43.2,-248.8834754208478 43.6,-249.07100543762706 44.0,-249.24137940583142 44.4,-249.39456782193403 44.800000000000004,-249.5305441584166 45.2,-249.64928486836314 45.60000000000001,-249.7507693895378 46.0,-249.83498014794532 46.400000000000006,-249.9019025608745 46.800000000000004,-249.95152503942342 47.199999999999996,-249.9838389905063 47.6,-249.9988388183414 48.0,-249.99652192542032 48.4,-249.97688871295753 48.8,-249.93994258082117 49.2,-249.88568992694402 49.599999999999994,-249.81414014621572 50.0,-249.72530562885592 50.4,-249.61920175826856 50.8,-249.49584690837793 51.2,-249.35526244044704 51.6,-249.19747269937818 52.0,-249.02250500949768 52.400000000000006,-248.8303896698234 52.800000000000004,-248.62115994881876 53.2,-248.3948520786309 53.6,-248.15150524881685 54.0,-247.89116159955685 54.400000000000006,-247.61386621435722 54.800000000000004,-247.31966711224308 55.2,-247.00861523944292 55.60000000000001,-246.68076446056648 56.00000000000001,-246.3361715492769 56.39999999999999,-245.97489617845926 56.8,-245.5970009098871 57.199999999999996,-245.20255118338875 57.599999999999994,-244.79161530551505 57.99999999999999,-244.36426443771072 58.4,-243.92057258399157 58.8,-243.46061657812905 59.199999999999996,-242.98447607034518 59.599999999999994,-242.4922335135196 60.0,-241.98397414891102 60.4,-241.45978599139644 60.8,-240.91975981422934 61.199999999999996,-240.36398913332064 61.6,-239.79257019104486 62.0,-239.20560193957354 62.4,-238.60318602374002 62.8,-237.98542676343754 63.2,-237.3524311355544 63.6,-236.70430875544872 64.0,-236.0411718579664 64.39999999999999,-235.3631352780057 64.8,-234.6703164306312 65.2,-233.96283529074117 65.60000000000001,-233.2408143722916 66.0,-232.50437870708052 66.39999999999999,-231.75365582309664 66.8,-230.98877572243487 67.2,-230.20987085878434 67.60000000000001,-229.41707611449158 68.00000000000001,-228.61052877720277 68.4,-227.7903685160898 68.8,-226.9567373576642 69.19999999999999,-226.10977966118182 69.6,-225.2496420936452 70.0,-224.3764736044045 70.39999999999999,-223.4904253993645 70.8,-222.5916509148003 71.2,-221.68030579078692 71.6,-220.75654784424717 72.0,-219.82053704162254 72.39999999999999,-218.87243547117225 72.8,-217.912407314904 73.2,-216.94061882014336 73.6,-215.95723827074434 74.00000000000001,-214.96243595794803 74.4,-213.9563841508934 74.8,-212.93925706678547 75.2,-211.9112308407265 75.6,-210.87248349521434 75.99999999999999,-209.82319490931508 76.4,-208.76354678751295 76.8,-207.6937226282448 77.2,-206.61390769212426 77.60000000000001,-205.52428896985964 78.0,-204.4250551498736 78.4,-203.3163965856274 78.8,-202.19850526265807 79.2,-201.07157476533231 79.60000000000001,-199.9358002433234 80.0,-198.79137837781767 80.4,-197.63850734745495 80.80000000000001,-196.4773867940105 81.2,-195.30821778782297 81.6,-194.13120279297544 81.99999999999999,-192.9465456322344 82.39999999999999,-191.7544514517545 82.8,-190.55512668555312 83.2,-189.34877901976267 83.60000000000001,-188.1356173566655 84.0,-186.91585177851866 84.39999999999999,-185.68969351117377 84.8,-184.4573548874996 85.2,-183.21904931061243 85.60000000000001,-181.97499121692118 86.0,-180.72539603899344 86.4,-179.47048016824942 86.8,-178.2104609174897 87.2,-176.945556483263 87.6,-175.67598590808151 88.0,-174.40196904248944 88.4,-173.12372650699152 88.8,-171.8414796538485 89.20000000000002,-170.55545052874578 89.60000000000001,-169.2658618323418 90.0,-167.97293688170302 90.4,-166.67689957163262 90.8,-165.37797433589847 91.20000000000002,-164.07638610836852 91.60000000000001,-162.77236028405872 92.0,-161.46612268010168 92.4,-160.15789949664247 92.80000000000001,-158.84791727766705 93.19999999999999,-157.53640287177248 93.60000000000001,-156.2235833928833 94.0,-154.9096861809225 94.39999999999999,-153.59493876244323 94.8,-152.2795688112285 95.2,-150.96380410886437 95.6,-149.64787250529614 96.0,-148.33200187937095 96.39999999999999,-147.01642009937646 96.8,-145.70135498358135 97.2,-144.38703426078376 97.6,-143.07368553087605 98.0,-141.76153622543112 98.4,-140.45081356831858 98.8,-139.14174453635644 99.19999999999999,-137.83455582000602 99.6,-136.5294737841152 100.0,-135.22672442872027 100.4,-133.92653334990888 100.8,-132.6291257007537 101.2,-131.3347261523234 101.6,-130.04355885477602 102.0,-128.75584739854315 102.4,-127.47181477561126 102.8,-126.19168334090602 103.2,-124.91567477378739 103.60000000000001,-123.64401003966152 104.0,-122.37690935171648 104.4,-121.11459213278796 104.80000000000001,-119.85727697736226 105.2,-118.60518161372187 105.60000000000001,-117.35852286624235 106.0,-116.11751661784461 106.4,-114.88237777261061 106.80000000000001,-113.65332021856877 107.2,-112.43055679065512 107.60000000000001,-111.2142992338566 108.0,-110.00475816654377 108.4,-108.80214304399787 108.80000000000001,-107.6066621221395 109.2,-106.41852242146561 109.60000000000001,-105.23792969119947 110.00000000000001,-104.06508837366135 110.4,-102.90020156886564 110.80000000000001,-101.74347099934958 111.20000000000002,-100.5950969752419 111.60000000000001,-99.45527835957475 112.00000000000001,-98.32421253384683 112.4,-97.20209536384316 112.79999999999998,-96.08912116571703 113.19999999999999,-94.98548267234025 113.6,-93.89137099992824 113.99999999999999,-92.80697561494397 114.39999999999999,-91.73248430128878 114.8,-90.66808312778363 115.19999999999999,-89.61395641594761 115.6,-88.57028670807962 115.99999999999999,-87.53725473564715 116.39999999999999,-86.51503938798939 116.8,-85.50381768133926 117.19999999999999,-84.50376472816906 117.6,-83.51505370686718 118.0,-82.53785583174837 118.39999999999999,-81.5723403234048 118.8,-80.61867437940238 119.19999999999999,-79.67702314532728 119.6,-78.74754968618758 120.0,-77.8304149581758 120.39999999999999,-76.92577778079594 120.8,-76.03379480936077 121.2,-75.15462050786438 121.6,-74.28840712223337 122.0,-73.43530465396259 122.39999999999999,-72.59546083413977 122.8,-71.7690210978627 123.2,-70.95612855905445 123.6,-70.15692398568068 124.0,-69.37154577537271 124.4,-68.60012993146131 124.8,-67.84281003942513 125.2,-67.09971724375802 125.6,-66.37098022525862 126.0,-65.65672517874673 126.4,-64.95707579121049 126.8,-64.27215322038751 127.2,-63.60207607378403 127.60000000000001,-62.946960388135686 128.0,-62.30691960931378 128.40000000000003,-61.68206457267974 128.79999999999998,-61.0725034838918 129.20000000000002,-60.478341900167266 129.6,-59.89968271200315 130.0,-59.33662612535882 130.4,-58.789269644303225 130.8,-58.2577080541304 131.20000000000002,-57.74203340494546 131.6,-57.2423349957243 132.0,-56.75869935884984 132.40000000000003,-56.29121024512734 132.79999999999998,-55.83994860928126 133.20000000000002,-55.40499259593623 133.6,-54.98641752608522 134.0,-54.58429588404587 134.4,-54.19869730490859 134.8,-53.82968856247797 135.20000000000002,-53.47733355770954 135.60000000000002,-53.14169330764398 136.00000000000003,-52.82282593484114 136.39999999999998,-52.52078665731467 136.8,-52.23562777897022 137.20000000000002,-51.9673986805478 137.6,-51.71614581107082 138.0,-51.48191267980219 138.39999999999998,-51.26473984871025 138.79999999999998,-51.0646649254444 139.2,-50.881722556822695 139.6,-50.715944422832116 140.0,-50.567359231142575 140.4,-50.43599271213557 140.79999999999998,-50.321867614448514 141.2,-50.22500370103535 141.6,-50.145417745744275 142.0,-50.083123530412976 142.4,-50.038131842481995 142.79999999999998,-50.01045047312678 143.2,-50.00008421590843 143.6,-50.007034865943595 144.0,-50.03130121959364 144.4,-50.07287907467308 144.79999999999998,-50.13176123117725 145.2,-50.207937492529126 145.6,-50.30139466734508 146.0,-50.412116571719196 146.4,-50.540084032025824 146.8,-50.68527488823991 147.2,-50.84766399777433 147.6,-51.02722323983395 148.00000000000003,-51.22392152028515 148.39999999999998,-51.43772477704046 148.8,-51.66859598595701 149.2,-51.916495167248044 149.6,-52.18137939240607 150.0,-52.46320279163685 150.4,-52.761916561802636 150.8,-53.077468974873355 151.2,-53.40980538688426 151.60000000000002,-53.75886824739862 151.99999999999997,-54.124597109473726 152.4,-54.50692864012842 152.8,-54.905796631310366 153.2,-55.32113201136134 153.6,-55.75286285697817 154.0,-56.20091440566777 154.4,-56.665209068693684 154.8,-57.145666444512 155.20000000000002,-57.642203332694535 155.6,-58.15473374833636 156.0,-58.68316893694616 156.4,-59.22741738981529 156.8,-59.78738485986451 157.20000000000002,-60.36297437796478 157.6,-60.954086269729196 158.0,-61.56061817277342 158.4,-62.18246505444185 158.8,-62.819519229996146 159.20000000000002,-63.47167038126257 159.6,-64.13880557573603 160.0,-64.82080928613637 160.4,-65.51756341041416 160.8,-66.22894729220222 161.20000000000002,-66.95483774170988 161.60000000000002,-67.69510905705526 162.0,-68.44963304603341 162.4,-69.21827904831488 162.79999999999998,-70.00091395807213 163.2,-70.79740224702972 163.60000000000002,-71.60760598793328 163.99999999999997,-72.43138487843397 164.39999999999998,-73.26859626538548 164.79999999999998,-74.11909516954623 165.2,-74.98273431068583 165.6,-75.8593641330892 166.0,-76.74883283145518 166.4,-77.65098637718447 166.79999999999998,-78.56566854505274 167.20000000000002,-79.49272094026401 167.59999999999997,-80.43198302587946 168.0,-81.38329215061796 168.4,-82.34648357702203 168.79999999999998,-83.32139050998504 169.2,-84.30784412563553 169.6,-85.30567360057195 170.0,-86.31470614144396 170.4,-87.33476701487533 170.79999999999998,-88.36567957772168 171.20000000000002,-89.40726530766035 171.59999999999997,-90.45934383410463 172.0,-91.5217329694386 172.4,-92.59424874056594 172.8,-93.67670542076891 173.2,-94.76891556187017 173.6,-95.8706900266934 174.0,-96.98183802181575 174.4,-98.10216713060726 174.8,-99.23148334655193 175.2,-100.3695911068434 175.6,-101.51629332625028 176.0,-102.6713914312456 176.4,-103.83468539439342 176.8,-105.0059737689873 177.2,-106.18505372393514 177.6,-107.37172107888243 178.0,-108.56577033957099 178.40000000000003,-109.76699473342373 178.79999999999998,-110.97518624535105 179.20000000000002,-112.19013565377351 179.6,-113.41163256685154 180.0,-114.63946545891936 180.4,-115.87342170711486 180.8,-117.11328762819909 181.20000000000002,-118.35884851555947 181.6,-119.60988867639094 182.0,-120.86619146904636 182.40000000000003,-122.12753934055326 182.79999999999998,-123.39371386428657 183.20000000000002,-124.6644957777939 183.6,-125.93966502076445 184.0,-127.21900077313713 184.4,-128.50228149333952 184.8,-129.7892849566525 185.20000000000002,-131.07978829369233 185.60000000000002,-132.37356802900467 186.00000000000003,-133.6704001197641 186.39999999999998,-134.97005999457122 186.8,-136.27232259234114 187.20000000000002,-137.5769624012778 187.6,-138.8837534979251 188.0,-140.19246958629068 188.39999999999998,-141.502884037032 188.79999999999998,-142.81476992670312 189.2,-144.12790007704976 189.6,-145.44204709435024 190.0,-146.75698340879285 190.4,-148.07248131388377 190.79999999999998,-149.38831300587873 191.2,-150.70425062323255 191.6,-152.02006628605628 192.0,-153.33553213558022 192.4,-154.65042037361158 192.79999999999998,-155.96450330198155 193.2,-157.27755336197686 193.6,-158.58934317374474 194.0,-159.89964557566887 194.4,-161.2082336637066 194.79999999999998,-162.51488083068136 195.2,-163.8193608055247 195.6,-165.12144769245901 196.0,-166.42091601011572 196.4,-167.71754073058202 196.8,-169.01109731836857 197.2,-170.30136176929219 197.6,-171.58811064926633 198.00000000000003,-172.87112113299312 198.39999999999998,-174.15017104254997 198.8,-175.42503888586393 199.2,-176.69550389506713 199.6,-177.96134606472663 200.0,-179.22234618994358 200.4,-180.47828590431175 200.8,-181.72894771773258 201.2,-182.9741150540775 201.6,-184.21357228869198 202.0,-185.4471047857354 202.4,-186.67449893534973 202.8,-187.89554219064914 203.2,-189.11002310452764 203.6,-190.31773136627484 204.0,-191.5184578379947 204.4,-192.71199459082283 204.8,-193.89813494093252 205.20000000000002,-195.07667348532652 205.6,-196.24740613740636 206.0,-197.41013016231364 206.4,-198.56464421203782 206.8,-199.7107483602834 207.20000000000002,-200.8482441370907 207.6,-201.97693456320525 208.0,-203.0966241841882 208.4,-204.20711910426306 208.8,-205.30822701989246 209.20000000000002,-206.39975725307923 209.60000000000002,-207.4815207843861 210.0,-208.55333028566804 210.4,-209.6150001525115 210.8,-210.66634653637522 211.20000000000002,-211.7071873764279 211.60000000000002,-212.73734243107455 212.0,-213.75663330916979 212.4,-214.76488350090895 212.8,-215.76191840839434 213.20000000000002,-216.74756537587027 213.60000000000002,-217.721653719622 214.0,-218.68401475753222 214.4,-219.63448183829232 214.8,-220.57289037026078 215.20000000000002,-221.4990778499657 215.60000000000002,-222.41288389024498 216.0,-223.314150248021 216.4,-224.202720851703 216.8,-225.07844182821404 217.20000000000002,-225.9411615296373 217.60000000000002,-226.79073055947623 218.00000000000003,-227.62700179852598 218.4,-228.44983043034978 218.8,-229.25907396635657 219.20000000000002,-230.05459227047584 219.60000000000002,-230.83624758342458 220.00000000000003,-231.6039045465633 220.4,-232.35743022533555 220.8,-233.0966941322886 221.20000000000002,-233.82156824966955 221.60000000000002,-234.53192705159415 222.00000000000003,-235.22764752578374 222.40000000000003,-235.9086091948677 222.8,-236.57469413724596 223.20000000000002,-237.2257870075098 223.60000000000002,-237.86177505641572 224.00000000000003,-238.48254815041042 224.40000000000003,-239.0879987907024 224.8,-239.67802213187753 225.2,-240.25251600005498 225.59999999999997,-240.8113809105807 225.99999999999997,-241.35452008525488 226.39999999999998,-241.88183946909132 226.79999999999998,-242.39324774660435 227.2,-242.88865635762224 227.59999999999997,-243.3679795126232 227.99999999999997,-243.83113420759108 228.39999999999998,-244.2780402383893 228.79999999999998,-244.70862021464993 229.2,-245.1227995731749 229.6,-245.52050659084847 229.99999999999997,-245.90167239705738 230.39999999999998,-246.26623098561674 230.79999999999998,-246.61411922620076 231.2,-246.94527687527483 231.6,-247.25964658652757 231.99999999999997,-247.55717392080183 232.39999999999998,-247.83780735552176 232.79999999999998,-248.10149829361475 233.2,-248.34820107192724 233.6,-248.57787296913182 234.0,-248.79047421312563 234.39999999999998,-248.98596798791752 234.79999999999998,-249.1643204400032 235.2,-249.32550068422793 235.6,-249.46948080913484 236.0,-249.59623588179826 236.39999999999998,-249.7057439521413 236.79999999999998,-249.79798605673702 237.2,-249.87294622209228 237.6,-249.93061146741385 238.0,-249.9709718068562 238.39999999999998,-249.994020251251 238.79999999999998,-249.99975280931704 239.2,-249.9881684883518 239.6,-249.9592692944031 240.0,-249.9130602319217 240.39999999999998,-249.84954930289487 240.79999999999998,-249.76874750546048 241.2,-249.67066883200272 241.6,-249.55533026672882 242.0,-249.42275178272791 242.4,-249.27295633851247 242.79999999999998,-249.10596987404256 243.2,-248.92182130623357 243.6,-248.72054252394906 244.0,-248.50216838247857 244.4,-248.26673669750141 244.79999999999998,-248.01428823853846 245.2,-247.744866721892 245.6,-247.45851880307558 246.0,-247.15529406873426 246.4,-246.83524502805858 246.8,-246.49842710369055 247.2,-246.1448986221269 247.6,-245.7747208036185 248.0,-245.38795775156882 248.4,-244.98467644143327 248.8,-244.56494670912113 249.2,-244.12884123890197 249.6,-243.67643555081935 250.0,-243.20780798761263 250.4,-242.72303970115047 250.8,-242.22221463837838 251.2,-241.70541952678084 251.6,-241.17274385936344 252.0,-240.6242798791552 252.4,-240.0601225632348 252.8,-239.48036960628372 253.2,-238.8851214036684 253.6,-238.27448103405465 254.0,-237.64855424155814 254.4,-237.00744941743235 254.8,-236.35127758129838 255.20000000000002,-235.6801523619203 255.6,-234.99418997752787 256.0,-234.2935092156908 256.4,-233.57823141274918 256.80000000000007,-232.84848043280087 257.2,-232.10438264625282 257.59999999999997,-231.3460669079371 258.0,-230.57366453479733 258.40000000000003,-229.78730928314886 258.8,-228.98713732551573 259.2,-228.1732872270506 259.6,-227.34589992153883 260.0,-226.50511868699354 260.40000000000003,-225.6510891208436 260.8,-224.7839591147219 261.2,-223.9038788288536 261.6,-223.01100066605366 262.0,-222.10547924533614 262.40000000000003,-221.18747137513728 262.8,-220.2571360261627 263.2,-219.31463430385736 263.6,-218.360129420508 264.0,-217.3937866669789 264.40000000000003,-216.41577338408996 264.80000000000007,-215.4262589336362 265.2,-214.42541466906226 265.59999999999997,-213.41341390578677 266.0,-212.3904318911909 266.40000000000003,-211.35664577427056 266.8,-210.31223457495958 267.2,-209.25737915312928 267.6,-208.1922621772681 268.0,-207.1170680928505 268.40000000000003,-206.0319830903954 268.8,-204.93719507322498 269.2,-203.83289362492434 269.6,-202.71926997651158 270.0,-201.59651697332427 270.40000000000003,-200.4648290416218 270.8,-199.324402154919 271.20000000000005,-198.17543380004838 271.6,-197.0181229429621 272.00000000000006,-195.85266999427628 272.40000000000003,-194.67927677456754 272.79999999999995,-193.49814647942216 273.20000000000005,-192.30948364425035 273.6,-191.11349410886635 274.0,-189.91038498184267 274.40000000000003,-188.70036460464712 274.8,-187.48364251556214 275.2,-186.26042941340134 275.59999999999997,-185.03093712102074 276.0,-183.79537854864043 276.4,-182.5539676569721 276.79999999999995,-181.30691942016975 277.20000000000005,-180.05444978860177 277.59999999999997,-178.7967756514555 277.99999999999994,-177.53411479917804 278.4,-176.26668588576217 278.79999999999995,-174.99470839088218 279.2,-173.71840258188678 279.59999999999997,-172.43798947565534 280.0,-171.15369080032434 280.4,-169.86572895689207 280.8,-168.5743269807038 281.2,-167.2797085028305 281.59999999999997,-165.98209771134225 282.0,-164.68171931248526 282.4,-163.3787984917707 282.8,-162.07356087497845 283.2,-160.76623248908646 283.59999999999997,-159.45703972312958 284.0,-158.14620928899592 284.40000000000003,-156.83396818216664 284.8,-155.52054364240922 285.19999999999993,-154.20616311442427 285.59999999999997,-152.89105420846028 286.0,-151.57544466089874 286.4,-150.25956229481665 286.8,-148.94363498053508 287.2,-147.627890596158 287.59999999999997,-146.31255698811253 288.0,-144.9978619316908 288.4,-143.68403309160894 288.8,-142.3712979825795 289.2,-141.05988392991597 289.59999999999997,-139.7500180301644 290.0,-138.4419271117787 290.4,-137.13583769584096 290.8,-135.83197595683444 291.2,-134.53056768347747 291.59999999999997,-133.23183823962324 292.0,-131.93601252523476 292.40000000000003,-130.64331493743762 292.8,-129.35396933166334 293.19999999999993,-128.0681989828824 293.6,-126.78622654694068 294.0,-125.50827402200365 294.4,-124.2345627101106 294.8,-122.96531317885405 295.2,-121.70074522318322 295.6,-120.44107782734275 296.00000000000006,-119.18652912695065 296.4,-117.93731637122508 296.79999999999995,-116.69365588536226 297.2,-115.45576303307656 297.6,-114.22385217930582 298.0,-112.99813665308919 298.4,-111.77882871062697 298.8,-110.56613949852198 299.2,-109.3602790172174 299.6,-108.16145608463023 300.0,-106.96987829999082 300.4,-105.78575200789265 300.8,-104.60928226255997 301.2,-103.44067279233919 301.6,-102.28012596441884 302.0,-101.1278427497862 302.4,-99.98402268842435 302.8,-98.84886385475993 303.20000000000005,-97.72256282336045 303.6,-96.60531463489544 303.99999999999994,-95.49731276236011 304.4,-94.39874907757289 304.8,-93.3098138179485 305.2,-92.23069555355444 305.6,-91.16158115445734 306.0,-90.10265575836165 306.4,-89.0541027385511 306.80000000000007,-88.01610367213193 307.2,-86.98883830859175 307.59999999999997,-85.97248453867036 308.0,-84.9672183635555 308.40000000000003,-83.97321386440515 308.8,-82.99064317220144 309.2,-82.01967643794332 309.6,-81.0604818031809 310.0,-80.11322537089967 310.40000000000003,-79.17807117675518 310.8,-78.25518116066881 311.2,-77.34471513878303 311.6,-76.44683077578696 312.0,-75.5616835576144 312.40000000000003,-74.68942676451695 312.8,-73.83021144452178 313.2,-72.98418638727424 313.6,-72.15149809827237 314.0,-71.33229077349607 314.40000000000003,-70.52670627443769 314.80000000000007,-69.73488410353495 315.2,-68.95696138001468 315.59999999999997,-68.19307281614665 316.0,-67.44335069391622 316.40000000000003,-66.70792484211766 316.8,-65.9869226138706 317.2,-65.28046886456748 317.6,-64.58868593025186 318.0,-63.91169360643384 318.40000000000003,-63.24960912734481 318.8,-62.60254714563668 319.2,-61.97061971252689 319.6,-61.35393625839518 320.0,-60.75260357383339 320.40000000000003,-60.16672579115221 320.8,-59.596404366349674 321.20000000000005,-59.04173806154088 321.6,-58.50282292785646 322.00000000000006,-57.97975228880872 322.40000000000003,-57.47261672413144 322.79999999999995,-56.98150405409406 323.20000000000005,-56.506499324293635 323.6,-56.047684790928066 324.0,-55.60513990655131 324.40000000000003,-55.1789413063153 324.8,-54.76916279469831 325.2,-54.37587533272515 325.59999999999997,-53.99914702567796 326.0,-53.63904311130335 326.4,-53.29562594851461 326.79999999999995,-52.968955006593454 327.20000000000005,-52.6590868548915 327.59999999999997,-52.36607515303456 327.99999999999994,-52.08997064162979 328.4,-51.83082113347976 328.79999999999995,-51.58867150530216 329.2,-51.36356368995881 329.59999999999997,-51.155536669194305 330.0,-50.964626466885015 330.4,-50.790866142801626 330.8,-50.63428578688353 331.2,-50.494912514028655 331.59999999999997,-50.372770459397685 332.0,-50.267880774234726 332.4,-50.18026162220464 332.8,-50.10992817624741 333.2,-50.05689261595097 333.59999999999997,-50.02116412544182 334.0,-50.002748891794724 334.40000000000003,-50.00165010396132 334.8,-50.017867952217806 335.19999999999993,-50.05139962813212 335.59999999999997,-50.10223932505011 336.0,-50.17037823910122 336.4,-50.25580457072297 336.8,-50.358503526704276 337.2,-50.47845732274719 337.59999999999997,-50.61564518654664 338.0,-50.77004336138745 338.4,-50.94162511025837 338.8,-51.13036072048212 339.2,-51.33621750886049 339.59999999999997,-51.55915982733441 340.0,-51.79914906915686 340.4,-52.056143675578404 340.8,-52.33009914304394 341.2,-52.620968030899164 341.59999999999997,-52.928699969606335 342.0,-53.25324166946592 342.40000000000003,-53.5945369298457 342.8,-53.952526648912006 343.19999999999993,-54.327148833864946 343.6,-54.71833861167383 344.0,-55.12602824031035 344.4,-55.55014712048037 344.8,-55.99062180784868 345.2,-56.44737602575818 345.6,-56.92033067843786 346.00000000000006,-57.409403864700145 346.4,-57.914510892123786 346.79999999999995,-58.43556429171955 347.2,-58.972473833077466 347.6,-59.52514653999204 348.0,-60.093486706562544 348.4,-60.67739591376646 348.8,-61.27677304650297 349.2,-61.891514311102384 349.6,-62.521513253300334 350.0,-63.166660776672586 350.4,-63.82684516152671 350.8,-64.50195208424871 351.2,-65.19186463710064 351.6,-65.89646334846488 352.0,-66.61562620353322 352.4,-67.34922866543647 352.8,-68.09714369680931 353.20000000000005,-68.85924178179076 353.6,-69.63539094845058 353.99999999999994,-70.42545679164478 354.4,-71.22930249628872 354.8,-72.04678886104962 355.2,-72.8777743224533 355.6,-73.72211497939627 356.0,-74.57966461806762 356.4,-75.45027473726624 356.80000000000007,-76.33379457411841 357.2,-77.23007113018441 357.59999999999997,-78.13894919795375 358.0,-79.06027138772205 358.40000000000003,-79.99387815484536 358.8,-80.93960782736991 359.2,-81.89729663402741 359.6,-82.86677873259565 360.0,-83.84788623861762 360.40000000000003,-84.84044925447326 360.8,-85.8442958988008 361.2,-86.85925233626172 361.6,-87.88514280764296 362.0,-88.92178966029327 362.40000000000003,-89.96901337888781 362.8,-91.02663261651355 363.2,-92.09446422607395 363.6,-93.17232329200328 364.0,-94.26002316229041 364.40000000000003,-95.35737548079811 364.80000000000007,-96.46419021988399 365.2,-97.58027571330423 365.59999999999997,-98.70543868940614 366.0,-99.83948430459733 366.40000000000003,-100.9822161770843 366.8,-102.13343642088248 367.2,-103.29294568008147 367.6,-104.46054316336962 368.0,-105.63602667880322 368.40000000000003,-106.81919266882052 368.8,-108.00983624549215 369.2,-109.20775122600043 369.6,-110.41273016834438 370.0,-111.62456440726267 370.40000000000003,-112.8430440903672 370.8,-114.06795821448351 371.20000000000005,-115.29909466219048 371.6,-116.53624023855153 372.00000000000006,-117.7791807080341 372.40000000000003,-119.0277008316089 372.79999999999995,-120.28158440402184 373.20000000000005,-121.54061429123462 373.6,-122.80457246802605 374.0,-124.07324005574648 374.40000000000003,-125.34639736022116 374.8,-126.62382390979539 375.2,-127.90529849351095 375.59999999999997,-129.19059919941725 376.0,-130.47950345299478 376.4,-131.77178805570156 376.79999999999995,-133.06722922362286 377.20000000000005,-134.36560262622456 377.59999999999997,-135.66668342519918 377.99999999999994,-136.97024631340153 378.4,-138.27606555386555 378.79999999999995,-139.58391501889383 379.2,-140.89356822921664 379.59999999999997,-142.2047983932115 380.0,-143.51737844617563 380.4,-144.83108108964706 380.8,-146.1456788307664 381.2,-147.4609440216696 381.59999999999997,-148.776648898912 382.0,-150.09256562290847 382.4,-151.40846631738845 382.8,-152.72412310885727 383.2,-154.03930816605606 383.59999999999997,-155.3537937394175 384.0,-156.66735220050128 384.40000000000003,-157.97975608141638 384.8,-159.29077811420794 385.19999999999993,-160.600191270215 385.59999999999997,-161.90776879938576 386.0,-163.21328426954065 386.4,-164.51651160558677 386.8,-165.81722512866435 387.2,-167.11519959522977 387.59999999999997,-168.410210236059 388.0,-169.70203279517145 388.4,-170.99044356866463 388.8,-172.27521944345173 389.2,-173.5561379358986 389.59999999999997,-174.83297723035142 390.0,-176.10551621754743 390.4,-177.3735345329047 390.8,-178.63681259468302 391.2,-179.89513164200767 391.59999999999997,-181.14827377275262 392.0,-182.3960219812749 392.40000000000003,-183.6381601959925 392.8,-184.87447331680102 393.19999999999993,-186.10474725232447 393.6,-187.32876895698675 394.0,-188.54632646790583 394.4,-189.7572089415997 394.8,-190.96120669049625 395.2,-192.15811121924696 395.6,-193.34771526082935 396.00000000000006,-194.52981281244226 396.4,-195.70419917117613 396.79999999999995,-196.87067096946294 397.2,-198.02902621029386 397.6,-199.17906430219637 398.0,-200.3205860939739 398.4,-201.4533939091894 398.8,-202.57729158039908 399.2,-203.6920844831216 399.6,-204.79757956954154 400.0,-205.89358540193885" stroke="red" stroke-width="2.0"/><g><g><line fill="none" stroke="black" x1="-8.0" x2="408.0" y1="0.0" y2="0.0"/><polyline fill="black" points="408.0,-5.0 408.0,5.0 424.0,0.0" stroke="none"/><line fill="none" stroke="black" x1="31.83098861837907" x2="31.83098861837907" y1="-3.0" y2="3.0"/><line fill="none" stroke="black" x1="63.66197723675814" x2="63.66197723675814" y1="-3.0" y2="3.0"/><line fill="none" stroke="black" x1="95.4929658551372" x2="95.4929658551372" y1="-3.0" y2="3.0"/><line fill="none" stroke="black" x1="127.32395447351628" x2="127.32395447351628" y1="-3.0" y2="3.0"/><line fill="none" stroke="black" x1="159.15494309189535" x2="159.15494309189535" y1="-3.0" y2="3.0"/><line fill="none" stroke="black" x1="190.9859317102744" x2="190.9859317102744" y1="-3.0" y2="3.0"/><line fill="none" stroke="black" x1="222.8169203286535" x2="222.8169203286535" y1="-3.0" y2="3.0"/><line fill="none" stroke="black" x1="254.64790894703256" x2="254.64790894703256" y1="-3.0" y2="3.0"/><line fill="none" stroke="black" x1="286.4788975654116" x2="286.4788975654116" y1="-3.0" y2="3.0"/><line fill="none" stroke="black" x1="318.3098861837907" x2="318.3098861837907" y1="-3.0" y2="3.0"/><line fill="none" stroke="black" x1="350.1408748021698" x2="350.1408748021698" y1="-3.0" y2="3.0"/><line fill="none" stroke="black" x1="381.9718634205488" x2="381.9718634205488" y1="-3.0" y2="3.0"/><text dominant-baseline="middle" fill="black" stroke="none" text-anchor="middle" x="31.83098861837907" y="14.0">1</text><text dominant-baseline="middle" fill="black" stroke="none" text-anchor="middle" x="63.66197723675814" y="14.0">2</text><text dominant-baseline="middle" fill="black" stroke="none" text-anchor="middle" x="95.4929658551372" y="14.0">3</text><text dominant-baseline="middle" fill="black" stroke="none" text-anchor="middle" x="127.32395447351628" y="14.0">4</text><text dominant-baseline="middle" fill="black" stroke="none" text-anchor="middle" x="159.15494309189535" y="14.0">5</text><text dominant-baseline="middle" fill="black" stroke="none" text-anchor="middle" x="190.9859317102744" y="14.0">6</text><text dominant-baseline="middle" fill="black" stroke="none" text-anchor="middle" x="222.8169203286535" y="14.0">7</text><text dominant-baseline="middle" fill="black" stroke="none" text-anchor="middle" x="254.64790894703256" y="14.0">8</text><text dominant-baseline="middle" fill="black" stroke="none" text-anchor="middle" x="286.4788975654116" y="14.0">9</text><text dominant-baseline="middle" fill="black" stroke="none" text-anchor="middle" x="318.3098861837907" y="14.0">10</text><text dominant-baseline="middle" fill="black" stroke="none" text-anchor="middle" x="350.1408748021698" y="14.0">11</text><text dominant-baseline="middle" fill="black" stroke="none" text-anchor="middle" x="381.9718634205488" y="14.0">12</text></g><g><line fill="none" stroke="black" x1="0.0" x2="0.0" y1="8.0" y2="-308.0"/><polyline fill="black" points="-5.0,-308.0 5.0,-308.0 0.0,-324.0" stroke="none"/><line fill="none" stroke="black" x1="-3.0" x2="3.0" y1="-100.0" y2="-100.0"/><line fill="none" stroke="black" x1="-3.0" x2="3.0" y1="-200.0" y2="-200.0"/><line fill="none" stroke="black" x1="-3.0" x2="3.0" y1="-300.0" y2="-300.0"/><text dominant-baseline="middle" fill="black" stroke="none" text-anchor="middle" x="-10.0" y="-100.0">1</text><text dominant-baseline="middle" fill="black" stroke="none" text-anchor="middle" x="-10.0" y="-200.0">2</text><text dominant-baseline="middle" fill="black" stroke="none" text-anchor="middle" x="-10.0" y="-300.0">3</text></g><text dominant-baseline="middle" fill="black" stroke="none" text-anchor="middle" x="-10.0" y="14.0">0</text></g></g></svg>