<svg xmlns="http://www.w3.org/2000/svg" height="380.0" width="480.0"><g transform="translate(40.0, 340.0)"><polyline fill="none" points="0.0,-75.0 0.4,-76.97340817926965 0.8,-78.94374111162807 1.2,-80.90792834245362 1.6,-82.862908994236 2.0,-84.8056365364732 2.4,-86.73308353321138 2.8000000000000003,-88.6422463608284 3.2,-90.53014988870999 3.5999999999999996,-92.39385211552366 4.0,-94.23044875386623 4.3999999999999995,-96.03707775613972 4.8,-97.81092377460347 5.2,-99.54922254865154 5.6000000000000005,-101.2492652124792 6.0,-102.90840251642489 6.4,-104.52404895541025 6.800000000000001,-106.09368679804382 7.199999999999999,-107.61487001011018 7.6,-109.08522806633063 8.0,-110.50246964445444 8.4,-111.86438619592522 8.799999999999999,-113.16885538755696 9.2,-114.41384440885744 9.6,-115.59741313984411 10.0,-116.71771717441665 10.4,-117.77301069457448 10.8,-118.76164919099992 11.200000000000001,-119.68209202576801 11.600000000000001,-120.53290483318878 12.0,-121.31276175504117 12.399999999999999,-122.02044750671483 12.8,-122.65485927104058 13.200000000000001,-123.21500841685774 13.600000000000001,-123.70002203964076 14.000000000000002,-124.10914432178379 14.399999999999999,-124.4417377104239 14.799999999999999,-124.69728391096702 15.2,-124.8753846947689 15.6,-124.97576251971171 16.0,-124.99826096271016 16.400000000000002,-124.94284496347201 16.8,-124.80960087913428 17.2,-124.59873634968913 17.599999999999998,-124.31057997440938 18.0,-123.94558079977843 18.4,-123.50430761972146 18.8,-122.98744808922963 19.2,-122.39580765275753 19.6,-121.73030828906452 20.0,-120.99198707445551 20.4,-120.18199456666032 20.8,-119.30159301187001 21.2,-118.35215437772436 21.6,-117.3351582153156 22.0,-116.2521893535403 22.400000000000002,-115.10493542939217 22.800000000000004,-113.8951842580449 23.200000000000003,-112.62482104682259 23.599999999999998,-111.29582545740016 24.0,-109.91026852081129 24.4,-108.47030941007168 24.799999999999997,-106.9781920754467 25.2,-105.43624174760717 25.6,-103.8468613141224 26.0,-102.2125275749368 26.400000000000002,-100.53578738266616 26.8,-98.81925367372747 27.200000000000003,-97.0656013964877 27.6,-95.27756334277656 28.000000000000004,-93.45792588925931 28.4,-91.60952465530625 28.799999999999997,-89.73524008412474 29.2,-87.83799295404077 29.599999999999998,-85.92073982692428 30.0,-83.98646844085151 30.4,-82.03819305418428 30.8,-80.07894974832124 31.2,-78.11179169644166 31.6,-76.13978440561421 32.0,-74.16600093968543 32.4,-72.19351713039188 32.800000000000004,-70.22540678415928 33.199999999999996,-68.26473689205761 33.6,-66.31456285037684 34.00000000000001,-64.37792369927155 34.4,-62.45783738689372 34.8,-60.55729606639403 35.199999999999996,-58.67926143312122 35.6,-56.82666010928441 36.0,-55.0023790832719 36.4,-53.20926121073283 36.8,-51.45010078443282 37.2,-49.72763917978739 37.6,-48.04456058285849 37.99999999999999,-46.40348780747198 38.4,-44.80697820797379 38.800000000000004,-43.257519693994695 39.2,-41.75752685343359 39.6,-40.309337189701175 40.0,-38.9152074790879 40.400000000000006,-37.577310253932175 40.8,-36.297730417069886 41.199999999999996,-35.07846199284037 41.6,-33.921405019712566 42.0,-32.82836258937336 42.4,-31.801038036892017 42.800000000000004,-30.84103228633987 43.2,-29.949841356001574 43.6,-29.128854027065213 44.0,-28.379349679424934 44.4,-27.702496297968114 44.800000000000004,-27.099348652454296 45.2,-26.570846653822006 45.60000000000001,-26.117813889485095 46.0,-25.740956339901086 46.400000000000006,-25.44086127841134 46.800000000000004,-25.217996356067786 47.199999999999996,-25.072708872872138 47.6,-25.00522523656339 48.0,-25.01565060979682 48.4,-25.103968746264563 48.8,-25.270042016012912 49.2,-25.513611619916972 49.599999999999994,-25.834297992978506 50.0,-26.231601395818426 50.4,-26.70490269344213 50.8,-27.25346432006421 51.2,-27.876431428489084 51.6,-28.572833222256 52.0,-29.34158446847308 52.400000000000006,-30.18148718898239 52.800000000000004,-31.091232527220924 53.2,-32.069402787868015 53.6,-33.11447364610111 54.0,-34.224816523016706 54.400000000000006,-35.39870112351488 54.800000000000004,-36.63429813269277 55.2,-37.9296820665446 55.60000000000001,-39.2828342725264 56.00000000000001,-40.691646075309016 56.39999999999999,-42.15392206281776 56.8,-43.6673835074376 57.199999999999996,-45.22967191705235 57.599999999999994,-46.83835271038442 57.99999999999999,-48.49091901090784 58.4,-50.18479555342166 58.8,-51.91734269719671 59.199999999999996,-53.685860539441165 59.599999999999994,-55.48759312267553 60.0,-57.31973272945968 60.4,-59.179424257779736 60.8,-61.06376967027658 61.199999999999996,-62.96983251038218 61.6,-64.89464247832625 62.0,-66.83520005988206 62.4,-68.7884812006389 62.8,-70.75144201851606 63.2,-72.72102354717516 63.6,-74.6941565029394 64.0,-76.66776606779021 64.39999999999999,-78.63877668098839 64.8,-80.6041168318533 65.2,-82.56072384622951 65.60000000000001,-84.50554865918434 66.0,-86.43556056649656 66.39999999999999,-88.34775194753354 66.8,-90.23914295215587 67.2,-92.10678614434599 67.60000000000001,-93.9477710953246 68.00000000000001,-95.75922891899738 68.4,-97.53833674266326 68.8,-99.28232210601887 69.19999999999999,-100.98846728160262 69.6,-102.65411350994614 70.0,-104.27666514283403 70.39999999999999,-105.85359368821386 70.8,-107.38244175045446 71.2,-108.86082685981097 71.6,-110.28644518513039 72.0,-111.65707512401048 72.39999999999999,-112.9705807648186 72.8,-114.22491521517486 73.2,-115.41812379171228 73.6,-116.5483470661443 74.00000000000001,-117.61382376289187 74.4,-118.61289350375488 74.8,-119.5439993953512 75.2,-120.40569045529037 75.6,-121.19662387330219 75.99999999999999,-121.91556710379554 76.4,-122.56139978658744 76.8,-123.13311549280837 77.2,-123.62982329326378 77.60000000000001,-124.05074914680738 78.0,-124.39523710656285 78.4,-124.66275034211397 78.8,-124.85287197607065 79.2,-124.96530573370693 79.60000000000001,-124.99987640465852 80.0,-124.95653011596085 80.4,-124.83533441600136 80.80000000000001,-124.63647816925624 81.2,-124.36027126197453 81.6,-124.00714411926923 81.99999999999999,-123.57764703436716 82.39999999999999,-123.07244931106347 82.8,-122.49233822071663 83.2,-121.83821777540967 83.60000000000001,-121.11110731918919 84.0,-120.3121399395776 84.39999999999999,-119.4425607018342 84.8,-118.50372470871618 85.2,-117.49709498876388 85.60000000000001,-116.42424021640043 86.0,-115.28683226739871 86.4,-114.0866436135253 86.8,-112.82554456042187 87.2,-111.50550033302689 87.6,-110.12856801308135 88.0,-108.69689333348953 88.4,-107.21270733453119 88.8,-105.67832288713528 89.20000000000002,-104.09613108863405 89.60000000000001,-102.46859753661249 90.0,-100.79825848666214 90.4,-99.08771690002428 90.8,-97.33963838728369 91.20000000000002,-95.55674705443309 91.60000000000001,-93.74182125778114 92.0,-91.89768927432011 92.4,-90.02722489430089 92.80000000000001,-88.13334294288099 93.19999999999999,-86.21899473782759 93.60000000000001,-84.2871634903519 94.0,-82.34085965624263 94.39999999999999,-80.38311624454323 94.8,-78.4169840910834 95.2,-76.44552710423005 95.6,-74.47181749026754 96.0,-72.4989309658455 96.39999999999999,-70.52994196495798 96.8,-68.56791884792048 97.2,-66.61591911981162 97.6,-64.67698466583167 98.0,-62.75413701100182 98.4,-60.8503726115917 98.8,-58.96865818561247 99.19999999999999,-57.11192608965291 99.6,-55.28306974926099 100.0,-53.48493914999541 100.4,-51.72033639616959 100.8,-49.99201134421217 101.2,-48.30265731744772 101.6,-46.65490690897425 102.0,-45.051327879180825 102.4,-43.494419154295876 102.8,-41.98660693220258 103.2,-40.53024090159045 103.60000000000001,-39.127590580334406 104.0,-37.7808417788072 104.4,-36.49209319363712 104.80000000000001,-35.26335313721884 105.2,-34.09653640807328 105.60000000000001,-32.9934613069353 106.0,-31.95584680321692 106.4,-30.985309856263445 106.80000000000001,-30.083362895576144 107.2,-29.25141146392823 107.60000000000001,-28.490752027046994 108.0,-27.802569953275654 108.4,-27.187937666362576 108.80000000000001,-26.647812974257285 109.2,-26.18303757651726 109.60000000000001,-25.79433575265106 110.00000000000001,-25.4823132334425 110.4,-25.247456257014328 110.80000000000001,-25.090130811102306 111.20000000000002,-25.01058206272091 111.60000000000001,-25.00893397610891 112.00000000000001,-25.085189119550616 112.4,-25.239228661373602 112.79999999999998,-25.470812555129186 113.19999999999999,-25.779579913667206 113.6,-26.165049571521934 113.99999999999999,-26.62662083473299 114.39999999999999,-27.163574416932498 114.8,-27.77507356024012 115.19999999999999,-28.4601653392189 115.6,-29.217782145859744 115.99999999999999,-30.04674335328123 116.39999999999999,-30.945757155551192 116.8,-31.913422580763314 117.19999999999999,-32.94823167423244 117.6,-34.048571848404656 118.0,-35.21272839582239 118.39999999999999,-36.43888716122659 118.8,-37.725137368633064 119.19999999999999,-39.069474598976875 119.6,-40.469803913684956 120.0,-41.92394311930881 120.39999999999999,-43.429626168130795 120.8,-44.984506689443904 121.2,-46.58616164600164 121.6,-48.23209510994193 122.0,-49.91974215229867 122.39999999999999,-51.64647284004066 122.8,-53.40959633441018 123.2,-55.20636508417219 123.6,-57.033979107241755 124.0,-58.88959035401705 124.4,-60.77030714561731 124.8,-62.67319868011058 125.2,-64.59529959970871 125.6,-66.53361461181153 126.0,-68.48512315670077 126.4,-70.4467841146084 126.8,-72.41554054482361 127.2,-74.38832444945608 127.60000000000001,-76.36206155442864 128.0,-78.33367610025083 128.40000000000003,-80.30009563510767 128.79999999999998,-82.25825580279329 129.20000000000002,-84.20510511802942 129.6,-86.13760972172587 130.0,-88.05275810877372 130.4,-89.94756582100383 130.8,-91.81908009799625 131.20000000000002,-93.66438447849346 131.6,-95.4806033452482 132.0,-97.26490640622113 132.40000000000003,-99.01451310514702 132.79999999999998,-100.72669695459463 133.20000000000002,-102.39878978477077 133.6,-104.02818590144255 134.0,-105.61234614650398 134.4,-107.14880185485498 134.8,-108.6351587014282 135.20000000000002,-110.0691004323694 135.60000000000002,-111.44839247455518 136.00000000000003,-112.77088541782437 136.39999999999998,-114.03451836449673 136.8,-115.23732214095838 137.20000000000002,-116.37742236630963 137.6,-117.45304237329357 138.0,-118.46250597695331 138.39999999999998,-119.4042400867028 138.79999999999998,-120.27677715774176 139.2,-121.07875747799399 139.6,-121.8089312870052 140.0,-122.46616072349833 140.4,-123.04942159855209 140.79999999999998,-123.55780499163832 141.2,-123.99051866703226 141.6,-124.34688830838732 142.0,-124.62635856955137 142.4,-124.82849393998667 142.79999999999998,-124.95297942344457 143.2,-124.99962102883764 143.6,-124.96834607254456 144.0,-124.85920329167593 144.4,-124.67236276812523 144.79999999999998,-124.40811566352292 145.2,-124.06687376550659 145.6,-123.64916884601467 146.0,-123.1556518326034 146.4,-122.5870917940782 146.8,-121.94437474202087 147.2,-121.2285022500794 147.6,-120.4405898931727 148.00000000000003,-119.58186550904237 148.39999999999998,-118.65366728486005 148.8,-117.65744167187276 149.2,-116.59474113133581 149.6,-115.46722171524557 150.0,-114.2766404856423 150.4,-113.02485277650472 150.8,-111.71380930250326 151.2,-110.34555311911737 151.60000000000002,-108.92221643885436 151.99999999999997,-107.44601730853074 152.4,-105.91925615279428 152.8,-104.34431218927351 153.2,-102.7236397209403 153.6,-101.05976431146418 154.0,-99.35527884951725 154.4,-97.61283950816446 154.8,-95.83516160563505 155.20000000000002,-94.02501537392469 155.6,-92.1852216418242 156.0,-90.31864743910022 156.4,-88.4282015286796 156.8,-86.51682987379914 157.20000000000002,-84.58751104718363 157.6,-82.64325158940817 158.0,-80.68708132367678 158.4,-78.72204863431793 158.8,-76.75121571635627 159.20000000000002,-74.77765380356273 159.6,-72.8044383824181 160.0,-70.83464439945014 160.4,-68.87134146941253 160.8,-66.91758909177163 161.20000000000002,-64.97643188295683 161.60000000000002,-63.050894831804065 162.0,-61.14397858558489 162.4,-59.258654773969056 162.79999999999998,-57.39786137820642 163.2,-55.56449815274317 163.60000000000002,-53.76142210641077 163.99999999999997,-51.99144305022622 164.39999999999998,-50.25731921874119 164.79999999999998,-48.56175297176788 165.2,-46.90738658317474 165.6,-45.296798123317245 166.0,-43.732497441520586 166.4,-42.216922254872486 166.79999999999998,-40.75243434942431 167.20000000000002,-39.34131589971813 167.59999999999997,-37.985765912375776 168.0,-36.68789679929228 168.4,-35.44973108577341 168.79999999999998,-34.27319825874748 169.2,-33.160131759962745 169.6,-32.11226612885631 170.0,-31.131234299546573 170.4,-30.218565056161633 170.79999999999998,-29.375680650469533 171.20000000000002,-28.60389458552159 171.59999999999997,-27.904409568764454 172.0,-27.27831563780899 172.4,-26.726588461778082 172.8,-26.250087820879372 173.2,-25.84955626657251 173.6,-25.52561796441949 174.0,-25.278777721420497 174.4,-25.10942019935145 174.8,-25.017809315329004 175.2,-25.004087830537113 175.6,-25.06827712775618 176.0,-25.210277178041313 176.4,-25.42986669660175 176.8,-25.726703487638478 177.2,-26.100324977602696 177.6,-26.55014893604397 178.0,-27.07547438292519 178.40000000000003,-27.675482680989806 178.79999999999998,-28.349238811479495 179.20000000000002,-29.09569283121442 179.6,-29.913681508764277 180.0,-30.801930137162532 180.4,-31.759054520336825 180.8,-32.78356313016139 181.20000000000002,-33.873859430769485 181.6,-35.0282443665041 182.0,-36.24491900962911 182.40000000000003,-37.52198736367638 182.79999999999998,-38.857459318058204 183.20000000000002,-40.24925374934282 183.6,-41.69520176435809 184.0,-43.19305008007104 184.4,-44.74046453497643 184.8,-46.335033726520635 185.20000000000002,-47.97427276889414 185.60000000000002,-49.65562716533605 186.00000000000003,-51.37647678891639 186.39999999999998,-53.13413996559266 186.8,-54.92587765317791 187.20000000000002,-56.7488977097081 187.6,-58.60035924455698 188.0,-60.477377045518985 188.39999999999998,-62.37702607495804 188.79999999999998,-64.29634602802123 189.2,-66.23234594580842 189.6,-68.18200887631251 190.0,-70.1422965758655 190.4,-72.11015424376465 190.79999999999998,-74.08251528269899 191.2,-76.05630607756169 191.6,-78.02845078519495 192.0,-79.99587612760976 192.4,-81.9555161812073 192.79999999999998,-83.90431715453883 193.2,-85.83924214716154 193.6,-87.75727588217045 194.0,-89.6554294050344 194.4,-91.53074474141256 194.79999999999998,-93.38029950669323 195.2,-95.20121146007142 195.6,-96.99064299606891 196.0,-98.74580556649701 196.4,-100.46396402597107 196.8,-102.14244089420548 197.2,-103.77862052844645 197.6,-105.36995319954023 198.00000000000003,-106.91395906528656 198.39999999999998,-108.40823203488287 198.8,-109.85044351843985 199.2,-111.23834605572259 199.6,-112.56977681846459 200.0,-113.8426609807969 200.4,-115.05501495253796 200.8,-116.20494947030778 201.2,-117.29067254164829 201.6,-118.31049223756249 202.0,-119.26281932911981 202.4,-120.14616976402068 202.8,-120.95916697925848 203.2,-121.7005440462772 203.6,-122.3691456452807 204.0,-122.96392986561716 204.4,-123.48396982943352 204.8,-123.92845513606909 205.20000000000002,-124.29669312493759 205.6,-124.58810995493013 206.0,-124.8022514986565 206.4,-124.93878405013139 206.8,-124.99749484480273 207.20000000000002,-124.97829239111202 207.6,-124.88120661306942 208.0,-124.70638880362188 208.4,-124.4541113888869 208.8,-124.12476750361922 209.20000000000002,-123.71887037857184 209.60000000000002,-123.23705254070664 210.0,-122.68006482750017 210.4,-122.04877521688147 210.8,-121.34416747462475 211.20000000000002,-120.56733962130464 211.60000000000002,-119.71950222120357 212.0,-118.80197649583732 212.4,-117.8161922650387 212.8,-116.7636857188077 213.20000000000002,-115.64609702340049 213.60000000000002,-114.46516776538785 214.0,-113.22273823766568 214.4,-111.92074457164755 214.8,-110.56121572010754 215.20000000000002,-109.14627029537596 215.60000000000002,-107.67811326781478 216.0,-106.15903252971687 216.4,-104.59139532998529 216.8,-102.97764458514764 217.20000000000002,-101.32029507245312 217.60000000000002,-99.62192951098855 218.00000000000003,-97.88519453691445 218.4,-96.1127965790988 218.8,-94.30749764157224 219.20000000000002,-92.47211099937833 219.60000000000002,-90.60949681452574 220.00000000000003,-88.72255767887546 220.4,-86.81423409090581 220.8,-84.887499873408 221.20000000000002,-82.94535753924922 221.60000000000002,-80.9908336124284 222.00000000000003,-79.02697391171371 222.40000000000003,-77.05683880421103 222.8,-75.08349843626299 223.20000000000002,-73.11002794910753 223.60000000000002,-71.13950268675293 224.00000000000003,-69.17499340353694 224.40000000000003,-67.219561478838 224.8,-65.27625414639607 225.2,-63.34809974567723 225.59999999999997,-61.43810300268136 225.99999999999997,-59.54924034754912 226.39999999999998,-57.68445527626227 226.79999999999998,-55.846653763667156 227.2,-54.03869973496916 227.59999999999997,-52.26341060275467 227.99999999999997,-50.52355287649573 228.39999999999998,-48.82183785137976 228.79999999999998,-47.16091738318067 229.2,-45.54337975575848 229.6,-43.97174564762516 229.99999999999997,-42.4484642038621 230.39999999999998,-40.97590921951326 230.79999999999998,-39.55637544039686 231.2,-38.19207498710479 231.6,-36.885133907759844 231.99999999999997,-35.637588864903314 232.39999999999998,-34.451383961676044 232.79999999999998,-33.328367712239206 233.2,-32.2702901611545 233.6,-31.278800156214892 234.0,-30.35544277897364 234.39999999999998,-29.5016569369777 234.79999999999998,-28.718773121456074 235.2,-28.0080113339577 235.6,-27.370479185170815 236.0,-26.80717016888549 236.39999999999998,-26.31896211378948 236.79999999999998,-25.906615815509987 237.2,-25.570773851033085 237.6,-25.311959577348365 238.0,-25.130576315879182 238.39999999999998,-25.026906723969542 238.79999999999998,-25.001112354406985 239.2,-25.05323340366792 239.6,-25.18318864927773 240.0,-25.39077557638325 240.39999999999998,-25.675670693340365 240.79999999999998,-26.037430035824965 241.2,-26.47548985868181 241.6,-26.989167514432527 242.0,-27.577662517074895 242.4,-28.240057789514506 242.79999999999998,-28.97532109268546 243.2,-29.782306634132965 243.6,-30.65975685355113 244.0,-31.606304382492965 244.4,-32.62047417520001 244.79999999999998,-33.70068580722918 245.2,-34.84525593829669 245.6,-36.05240093549912 246.0,-37.3202396528258 246.4,-38.646796362629104 246.8,-40.03000383448652 247.2,-41.46770655665443 247.6,-42.957664095094835 248.0,-44.49755458484029 248.4,-46.084978348255916 248.8,-47.71746163456044 249.2,-49.39246047477847 249.6,-51.10736464611685 250.0,-52.859501739587216 250.4,-54.64614132453613 250.8,-56.46449920359204 251.2,-58.31174175140082 251.6,-60.184990330385546 252.0,-62.08132577665131 252.4,-63.99779294904484 252.8,-65.93140533427642 253.2,-67.87914970093382 253.6,-69.83799079512974 254.0,-71.80487607046862 254.4,-73.77674044496122 254.8,-75.7505110774737 255.20000000000002,-77.72311215626856 255.6,-79.6914696921734 256.0,-81.65251630891265 256.4,-83.6031960231294 256.80000000000007,-85.5404690066585 257.2,-87.4613163236192 257.59999999999997,-89.36274463495444 258.0,-91.24179086308013 258.40000000000003,-93.09552680937458 258.8,-94.92106371731919 259.2,-96.71555677416946 259.6,-98.47620954415113 260.0,-100.20027832626491 260.40000000000003,-101.88507642991553 260.8,-103.52797836169528 261.2,-105.12642391680546 261.6,-106.67792216873235 262.0,-108.18005535096522 262.40000000000003,-109.6304826247073 262.8,-111.02694372670366 263.2,-112.36726249150885 263.6,-113.64935024269704 264.0,-114.87120904773846 264.40000000000003,-116.03093483146192 264.80000000000007,-117.12672034325833 265.2,-118.15685797339626 265.59999999999997,-119.11974241406449 266.0,-120.01387316099189 266.40000000000003,-120.83785685174733 266.8,-121.59040943707726 267.2,-122.27035818189405 267.6,-122.87664349280047 268.0,-123.40832056929875 268.40000000000003,-123.86456087611468 268.8,-124.24465343433911 269.2,-124.54800592937751 269.6,-124.77414563397906 270.0,-124.92272014490781 270.40000000000003,-124.99349793210807 270.8,-124.98636869950737 271.20000000000005,-124.90134355689571 271.6,-124.73855500261277 272.00000000000006,-124.49825671706994 272.40000000000003,-124.18082316742925 272.79999999999995,-123.786749024055 273.20000000000005,-123.31664838964777 273.6,-122.77125384226177 274.0,-122.15141529369656 274.40000000000003,-121.45809866504355 274.8,-120.69238438144883 275.2,-119.85546568844103 275.59999999999997,-118.9486467924443 276.0,-117.97334082837874 276.4,-116.93106765750984 276.79999999999995,-115.82345149898485 277.20000000000005,-114.65221839874076 277.59999999999997,-113.41919353973381 277.99999999999994,-112.12629839767723 278.4,-110.7755477467234 278.79999999999995,-109.36904651975519 279.2,-107.90898652817725 279.59999999999997,-106.3976430463233 280.0,-104.83737126579638 280.4,-103.23060262527468 280.8,-101.57984102149359 281.2,-99.8876589073179 281.59999999999997,-98.15669328297618 282.0,-96.38964158670993 282.4,-94.58925749124091 282.8,-92.75834661260211 283.2,-90.89976213802788 283.59999999999997,-89.01640037970766 284.0,-87.1111962613389 284.40000000000003,-85.18711874450867 284.8,-83.24716620203404 285.19999999999993,-81.2943617454668 285.59999999999997,-79.33174851405039 286.0,-77.36238493246414 286.4,-75.38933994474846 286.8,-73.41568823183803 287.2,-71.44450542015241 287.59999999999997,-69.4788632887174 288.0,-67.52182498227691 288.4,-65.57644023786526 288.8,-63.6457406322685 289.2,-61.73273485778965 289.59999999999997,-59.8404040336722 290.0,-57.971697060494535 290.4,-56.129526024772055 290.8,-54.316761660925806 291.2,-52.53622887769499 291.59999999999997,-50.79070235595824 292.0,-49.08290222483128 292.40000000000003,-47.415489822770226 292.8,-45.791063550295526 293.19999999999993,-44.21215482079111 293.6,-42.681224115693965 294.0,-41.2006571502214 294.4,-39.7727611556063 294.8,-38.399761283641325 295.2,-37.08379713912759 295.6,-35.8269194456376 296.00000000000006,-34.631086849783024 296.4,-33.49816286897314 296.79999999999995,-32.4299129874137 297.2,-31.42800190487804 297.6,-30.493990942533667 298.0,-29.62933560986743 298.4,-28.835383336503675 298.8,-28.113371372445428 299.2,-27.464424860015534 299.6,-26.889555080498145 300.0,-26.389657878216138 300.4,-25.96551226449782 300.8,-25.617779203710374 301.2,-25.347000583250715 301.6,-25.153598369098752 302.0,-25.03787394824981 302.4,-25.000007659050276 302.8,-25.04005851016855 303.20000000000005,-25.157964088639368 303.6,-25.353540657124498 303.99999999999994,-25.626483440238708 304.4,-25.976367099494247 304.8,-26.402646396124034 305.2,-26.904657040751065 305.6,-27.48161672857855 306.0,-28.13262635848989 306.4,-28.85667143415588 306.80000000000007,-29.652623644968667 307.2,-30.519242624336105 307.59999999999997,-31.45517788259912 308.0,-32.45897091155754 308.40000000000003,-33.529057457325756 308.8,-34.66376995797773 309.2,-35.86134014217962 309.6,-37.11990178476432 310.0,-38.437493614948885 310.40000000000003,-39.81206237266896 310.8,-41.24146600826065 311.2,-42.72347702050981 311.6,-44.25578592786322 312.0,-45.83600486739164 312.40000000000003,-47.461671315901555 312.8,-49.13025192738889 313.2,-50.83914648086293 313.6,-52.58569193238103 314.0,-54.367166564986555 314.40000000000003,-56.18079423007521 314.80000000000007,-58.02374867358938 315.2,-59.89315794028917 315.59999999999997,-61.786108849245444 316.0,-63.699651533575086 316.40000000000003,-65.63080403734384 316.8,-67.5765569624792 317.2,-69.53387815844233 317.6,-71.49971744736092 318.0,-73.47101137725082 318.40000000000003,-75.44468799592731 318.8,-77.41767163815777 319.2,-79.38688771860583 319.6,-81.34926752308832 320.0,-83.30175299068458 320.40000000000003,-85.24130147924629 320.8,-87.1648905068751 321.20000000000005,-89.06952246198887 321.6,-90.95222927462626 322.00000000000006,-92.8100770417206 322.40000000000003,-94.64017059912474 322.79999999999995,-96.4396580332717 323.20000000000005,-98.20573512543424 323.6,-99.93564972165814 324.0,-101.62670602156444 324.40000000000003,-103.27626877932873 324.8,-104.88176741030082 325.2,-106.44069999685424 325.59999999999997,-107.95063718723587 326.0,-109.40922598132633 326.4,-110.81419339742274 326.79999999999995,-112.16335001432365 327.20000000000005,-113.45459338319864 327.59999999999997,-114.6859113039237 327.99999999999994,-115.85538496078145 328.4,-116.9611919126321 328.79999999999995,-118.00160893290308 329.2,-118.97501469496704 329.59999999999997,-119.87989229872416 330.0,-120.71483163445457 330.4,-121.47853158025086 330.8,-122.16980202961452 331.2,-122.78756574604807 331.59999999999997,-123.33086004176062 332.0,-123.79883827786526 332.4,-124.1907711837322 332.8,-124.50604799344372 333.2,-124.74417739757595 333.59999999999997,-124.90478830882819 334.0,-124.98763044030392 334.40000000000003,-124.99257469554378 334.8,-124.9196133697019 335.19999999999993,-124.76886016155304 335.59999999999997,-124.54054999631062 336.0,-124.23503865953276 336.4,-123.85280224268631 336.8,-123.39443640123304 337.2,-122.86065542639409 337.59999999999997,-122.25229113203916 338.0,-121.57029155843526 338.4,-120.8157194948746 338.8,-119.98975082348434 339.2,-119.09367268679938 339.59999999999997,-118.12888148195145 340.0,-117.09688068460466 340.4,-115.99927850602411 340.8,-114.83778538693082 341.2,-113.61421133204944 341.59999999999997,-112.33046308949764 342.0,-110.98854117942176 342.40000000000003,-109.59053677649639 342.8,-108.13862845116056 343.19999999999993,-106.63507877465514 343.6,-105.08223079316062 344.0,-103.4825043765301 344.4,-101.83839244729782 344.8,-100.15245709585483 345.2,-98.42732558783024 345.6,-96.6656862699114 346.00000000000006,-94.87028438047727 346.4,-93.04391777157538 346.79999999999995,-91.18943254890841 347.2,-89.30971863662532 347.6,-87.407705273828 348.0,-85.486356449812 348.4,-83.54866628515438 348.8,-81.59765436584668 349.2,-79.63636103774425 349.6,-77.66784266866422 350.0,-75.69516688551614 350.4,-73.72140779388688 350.8,-71.74964118752948 351.2,-69.78293975522146 351.6,-67.82436829246159 352.0,-65.87697892546709 352.4,-63.94380635491372 352.8,-62.027863126832756 353.20000000000005,-60.13213493802704 353.6,-58.2595759833363 353.99999999999994,-56.413104351983016 354.4,-54.595597480191834 354.8,-52.80988766715675 355.2,-51.05875766134413 355.6,-49.3449363240208 356.0,-47.67109437674699 356.4,-46.03984023948074 356.80000000000007,-44.453715965761255 357.2,-42.91519328131909 357.59999999999997,-41.42666973227951 358.0,-39.990464948961765 358.40000000000003,-38.60881703110202 358.8,-37.28387906012354 359.2,-36.01771574389855 359.6,-34.81230019922479 360.0,-33.66951087703272 360.40000000000003,-32.59112863511456 360.8,-31.578833962936915 361.2,-30.634204362861734 361.6,-29.758711891856453 362.0,-28.95372086752427 362.40000000000003,-28.220485742029304 362.8,-27.560149147229758 363.2,-26.973740114065436 363.6,-26.462172468975037 364.0,-26.026243409840003 364.40000000000003,-25.66663226367808 364.80000000000007,-25.383899428017568 365.2,-25.178485497606694 365.59999999999997,-25.050710577815245 366.0,-25.000773785800757 366.40000000000003,-25.028752940215792 366.8,-25.134604439939686 367.2,-25.31816333202399 367.6,-25.579143568745888 368.0,-25.917138453368576 368.40000000000003,-26.33162127391434 368.8,-26.82194612396248 369.2,-27.387348909193104 369.6,-28.02694853810819 370.0,-28.73974829507438 370.40000000000003,-29.524637393547895 370.8,-30.380392707060974 371.20000000000005,-31.305680675272534 371.6,-32.299059382112624 372.00000000000006,-33.35898080278232 372.40000000000003,-34.483793216107415 372.79999999999995,-35.67174377848661 373.20000000000005,-36.920981255423115 373.6,-38.229558906383126 374.0,-39.59543751848534 374.40000000000003,-41.0164885842942 374.8,-42.49049761876487 375.2,-44.01516761016904 375.59999999999997,-45.58812259963122 376.0,-47.206911383682296 376.4,-48.869011334079474 376.79999999999995,-50.571832328924856 377.20000000000005,-52.31272078896416 377.59999999999997,-54.08896381277339 377.99999999999994,-55.897793404390114 378.4,-57.736390786800484 378.79999999999995,-59.60189079456096 379.2,-61.491386338708885 379.59999999999997,-63.40193293700436 380.0,-65.33055330244363 380.4,-67.27424198289367 380.8,-69.22997004461789 381.2,-71.19468979239218 381.59999999999997,-73.16533951886316 382.0,-75.13884827573497 382.4,-77.11214065936197 382.8,-79.08214160328261 383.2,-81.0457811702261 383.59999999999997,-82.99999933613171 384.0,-84.9417507587106 384.40000000000003,-86.8680095231396 384.8,-88.7757738574691 385.19999999999993,-90.66207081041708 385.59999999999997,-92.523960884247 386.0,-94.35854261551033 386.4,-96.16295709652682 386.8,-97.93439243053864 387.2,-99.6700881136135 387.59999999999997,-101.36733933645539 388.0,-103.02350119942544 388.4,-104.63599283420302 388.8,-106.2023014256638 389.2,-107.71998612770793 389.59999999999997,-109.18668186693527 390.0,-110.60010302824146 390.4,-111.95804701658999 390.8,-113.25839768941104 391.2,-114.49912865427746 391.59999999999997,-115.67830642671937 392.0,-116.79409344325617 392.40000000000003,-117.84475092495107 392.8,-118.8286415870242 393.19999999999993,-119.74423219030572 393.6,-120.5900959305467 394.0,-121.3649146618705 394.4,-122.06748095089604 394.8,-122.6966999583328 395.2,-123.25159114511715 395.6,-123.73128980042702 396.00000000000006,-124.13504838919951 396.4,-124.46223771704568 396.79999999999995,-124.71234791075213 397.2,-124.88498921283805 397.6,-124.97989258893101 398.0,-124.9969101470149 398.4,-124.93601536789647 398.8,-124.79730314653123 399.2,-124.58098964414458 399.6,-124.28741195137857 400.0,-123.91702756298888" stroke="red" stroke-width="2.0"/><g><g><line fill="none" stroke="black" x1="-8.0" x2="408.0" y1="0.0" y2="0.0"/><polyline fill="black" points="408.0,-5.0 408.0,5.0 424.0,0.0" stroke="none"/><line fill="none" stroke="black" x1="31.83098861837907" x2="31.83098861837907" y1="-3.0" y2="3.0"/><line fill="none" stroke="black" x1="63.66197723675814" x2="63.66197723675814" y1="-3.0" y2="3.0"/><line fill="none" stroke="black" x1="95.4929658551372" x2="95.4929658551372" y1="-3.0" y2="3.0"/><line fill="none" stroke="black" x1="127.32395447351628" x2="127.32395447351628" y1="-3.0" y2="3.0"/><line fill="none" stroke="black" x1="159.15494309189535" x2="159.15494309189535" y1="-3.0" y2="3.0"/><line fill="none" stroke="black" x1="190.9859317102744" x2="190.9859317102744" y1="-3.0" y2="3.0"/><line fill="none" stroke="black" x1="222.8169203286535" x2="222.8169203286535" y1="-3.0" y2="3.0"/><line fill="none" stroke="black" x1="254.64790894703256" x2="254.64790894703256" y1="-3.0" y2="3.0"/><line fill="none" stroke="black" x1="286.4788975654116" x2="286.4788975654116" y1="-3.0" y2="3.0"/><line fill="none" stroke="black" x1="318.3098861837907" x2="318.3098861837907" y1="-3.0" y2="3.0"/><line fill="none" stroke="black" x1="350.1408748021698" x2="350.1408748021698" y1="-3.0" y2="3.0"/><line fill="none" stroke="black" x1="381.9718634205488" x2="381.9718634205488" y1="-3.0" y2="3.0"/><text dominant-baseline="middle" fill="black" stroke="none" text-anchor="middle" x="31.83098861837907" y="14.0">1</text><text dominant-baseline="middle" fill="black" stroke="none" text-anchor="middle" x="63.66197723675814" y="14.0">2</text><text dominant-baseline="middle" fill="black" stroke="none" text-anchor="middle" x="95.4929658551372" y="14.0">3</text><text dominant-baseline="middle" fill="black" stroke="none" text-anchor="middle" x="127.32395447351628" y="14.0">4</text><text dominant-baseline="middle" fill="black" stroke="none" text-anchor="middle" x="159.15494309189535" y="14.0">5</text><text dominant-baseline="middle" fill="black" stroke="none" text-anchor="middle" x="190.9859317102744" y="14.0">6</text><text dominant-baseline="middle" fill="black" stroke="none" text-anchor="middle" x="222.8169203286535" y="14.0">7</text><text dominant-baseline="middle" fill="black" stroke="none" text-anchor="middle" x="254.64790894703256" y="14.0">8</text><text dominant-baseline="middle" fill="black" stroke="none" text-anchor="middle" x="286.4788975654116" y="14.0">9</text><text dominant-baseline="middle" fill="black" stroke="none" text-anchor="middle" x="318.3098861837907" y="14.0">10</text><text dominant-baseline="middle" fill="black" stroke="none" text-anchor="middle" x="350.1408748021698" y="14.0">11</text><text dominant-baseline="middle" fill="black" stroke="none" text-anchor="middle" x="381.9718634205488" y="14.0">12</text></g><g><line fill="none" stroke="black" x1="0.0" x2="0.0" y1="8.0" y2="-308.0"/><polyline fill="black" points="-5.0,-308.0 5.0,-308.0 0.0,-324.0" stroke="none"/><line fill="none" stroke="black" x1="-3.0" x2="3.0" y1="-50.0" y2="-50.0"/><line fill="none" stroke="black" x1="-3.0" x2="3.0" y1="-100.0" y2="-100.0"/><line fill="none" stroke="black" x1="-3.0" x2="3.0" y1="-150.0" y2="-150.0"/><line fill="none" stroke="black" x1="-3.0" x2="3.0" y1="-200.0" y2="-200.0"/><line fill="none" stroke="black" x1="-3.0" x2="3.0" y1="-250.0" y2="-250.0"/><line fill="none" stroke="black" x1="-3.0" x2="3.0" y1="-300.0" y2="-300.0"/><text dominant-baseline="middle" fill="black" stroke="none" text-anchor="middle" x="-10.0" y="-50.0">1</text><text dominant-baseline="middle" fill="black" stroke="none" text-anchor="middle" x="-10.0" y="-100.0">2</text><text dominant-baseline="middle" fill="black" stroke="none" text-anchor="middle" x="-10.0" y="-150.0">3</text><text dominant-baseline="middle" fill="black" stroke="none" text-anchor="middle" x="-10.0" y="-200.0">4</text><text dominant-baseline="middle" fill="black" stroke="none" text-anchor="middle" x="-10.0" y="-250.0">5</text><text dominant-baseline="middle" fill="black" stroke="none" text-anchor="middle" x="-10.0" y="-300.0">6</text></g><text dominant-baseline="middle" fill="black" stroke="none" text-anchor="middle" x="-10.0" y="14.0">0</text></g></g></svg>