<svg xmlns="http://www.w3.org/2000/svg" height="380.0" width="480.0"><g transform="translate(40.0, 340.0)"><polyline fill="none" points="0.0,-150.0 0.4,-153.9468163585393 0.8,-157.88748222325614 1.2,-161.81585668490723 1.6,-165.725817988472 2.0,-169.6112730729464 2.4,-173.46616706642277 2.8000000000000003,-177.2844927216568 3.2,-181.06029977741997 3.5999999999999996,-184.78770423104731 4.0,-188.46089750773245 4.3999999999999995,-192.07415551227945 4.8,-195.62184754920693 5.2,-199.09844509730308 5.6000000000000005,-202.4985304249584 6.0,-205.81680503284977 6.4,-209.0480979108205 6.800000000000001,-212.18737359608764 7.199999999999999,-215.22974002022036 7.6,-218.17045613266126 8.0,-221.00493928890887 8.4,-223.72877239185044 8.799999999999999,-226.33771077511392 9.2,-228.8276888177149 9.6,-231.19482627968821 10.0,-233.4354343488333 10.4,-235.54602138914896 10.8,-237.52329838199984 11.200000000000001,-239.36418405153603 11.600000000000001,-241.06580966637756 12.0,-242.62552351008233 12.399999999999999,-244.04089501342966 12.8,-245.30971854208116 13.200000000000001,-246.43001683371548 13.600000000000001,-247.4000440792815 14.000000000000002,-248.21828864356758 14.399999999999999,-248.8834754208478 14.799999999999999,-249.39456782193403 15.2,-249.7507693895378 15.6,-249.95152503942342 16.0,-249.99652192542032 16.400000000000002,-249.88568992694402 16.8,-249.61920175826856 17.2,-249.19747269937827 17.599999999999998,-248.62115994881876 18.0,-247.89116159955685 18.4,-247.00861523944292 18.8,-245.97489617845926 19.2,-244.79161530551505 19.6,-243.46061657812905 20.0,-241.98397414891102 20.4,-240.36398913332064 20.8,-238.60318602374002 21.2,-236.70430875544872 21.6,-234.6703164306312 22.0,-232.5043787070806 22.400000000000002,-230.20987085878434 22.800000000000004,-227.7903685160898 23.200000000000003,-225.24964209364518 23.599999999999998,-222.5916509148003 24.0,-219.82053704162257 24.4,-216.94061882014336 24.799999999999997,-213.9563841508934 25.2,-210.87248349521434 25.6,-207.6937226282448 26.0,-204.4250551498736 26.400000000000002,-201.07157476533231 26.8,-197.63850734745495 27.200000000000003,-194.1312027929754 27.6,-190.55512668555312 28.000000000000004,-186.91585177851863 28.4,-183.2190493106125 28.799999999999997,-179.47048016824948 29.2,-175.67598590808154 29.599999999999998,-171.84147965384855 30.0,-167.97293688170302 30.4,-164.07638610836855 30.8,-160.15789949664247 31.2,-156.2235833928833 31.6,-152.27956881122842 32.0,-148.33200187937086 32.4,-144.38703426078376 32.800000000000004,-140.45081356831855 33.199999999999996,-136.52947378411523 33.6,-132.6291257007537 34.00000000000001,-128.7558473985431 34.4,-124.91567477378744 34.8,-121.11459213278806 35.199999999999996,-117.35852286624244 35.6,-113.65332021856882 36.0,-110.00475816654378 36.4,-106.41852242146567 36.8,-102.90020156886564 37.2,-99.45527835957478 37.6,-96.08912116571697 37.99999999999999,-92.80697561494397 38.4,-89.61395641594758 38.800000000000004,-86.51503938798939 39.2,-83.51505370686718 39.6,-80.61867437940235 40.0,-77.8304149581758 40.400000000000006,-75.15462050786435 40.8,-72.59546083413977 41.199999999999996,-70.15692398568073 41.6,-67.84281003942513 42.0,-65.65672517874675 42.4,-63.60207607378403 42.800000000000004,-61.68206457267974 43.2,-59.89968271200315 43.6,-58.257708054130426 44.0,-56.75869935884987 44.4,-55.40499259593623 44.800000000000004,-54.19869730490859 45.2,-53.14169330764401 45.60000000000001,-52.23562777897019 46.0,-51.48191267980217 46.400000000000006,-50.88172255682268 46.800000000000004,-50.43599271213557 47.199999999999996,-50.145417745744275 47.6,-50.01045047312678 48.0,-50.03130121959364 48.4,-50.207937492529126 48.8,-50.540084032025824 49.2,-51.027223239833944 49.599999999999994,-51.66859598595701 50.0,-52.46320279163685 50.4,-53.40980538688426 50.8,-54.50692864012842 51.2,-55.75286285697817 51.6,-57.145666444512 52.0,-58.68316893694616 52.400000000000006,-60.36297437796478 52.800000000000004,-62.182465054441856 53.2,-64.13880557573603 53.6,-66.22894729220222 54.0,-68.44963304603341 54.400000000000006,-70.79740224702977 54.800000000000004,-73.26859626538554 55.2,-75.8593641330892 55.60000000000001,-78.5656685450528 56.00000000000001,-81.38329215061803 56.39999999999999,-84.30784412563553 56.8,-87.3347670148752 57.199999999999996,-90.4593438341047 57.599999999999994,-93.67670542076883 57.99999999999999,-96.98183802181568 58.4,-100.36959110684332 58.8,-103.83468539439342 59.199999999999996,-107.37172107888233 59.599999999999994,-110.97518624535105 60.0,-114.63946545891936 60.4,-118.35884851555947 60.8,-122.12753934055316 61.199999999999996,-125.93966502076437 61.6,-129.7892849566525 62.0,-133.6704001197641 62.4,-137.5769624012778 62.8,-141.50288403703212 63.2,-145.44204709435033 63.6,-149.3883130058788 64.0,-153.33553213558042 64.39999999999999,-157.27755336197677 64.8,-161.2082336637066 65.2,-165.12144769245901 65.60000000000001,-169.01109731836868 66.0,-172.87112113299312 66.39999999999999,-176.69550389506708 66.8,-180.47828590431175 67.2,-184.21357228869198 67.60000000000001,-187.8955421906492 68.00000000000001,-191.51845783799476 68.4,-195.07667348532652 68.8,-198.56464421203773 69.19999999999999,-201.97693456320525 69.6,-205.30822701989229 70.0,-208.55333028566807 70.39999999999999,-211.70718737642773 70.8,-214.76488350090892 71.2,-217.72165371962194 71.6,-220.57289037026078 72.0,-223.31415024802095 72.39999999999999,-225.9411615296372 72.8,-228.44983043034972 73.2,-230.83624758342455 73.6,-233.0966941322886 74.00000000000001,-235.22764752578374 74.4,-237.22578700750975 74.8,-239.0879987907024 75.2,-240.81138091058074 75.6,-242.39324774660437 75.99999999999999,-243.83113420759108 76.4,-245.1227995731749 76.8,-246.26623098561674 77.2,-247.25964658652757 77.60000000000001,-248.10149829361475 78.0,-248.7904742131257 78.4,-249.32550068422793 78.8,-249.7057439521413 79.2,-249.93061146741385 79.60000000000001,-249.99975280931704 80.0,-249.9130602319217 80.4,-249.67066883200272 80.80000000000001,-249.27295633851247 81.2,-248.72054252394906 81.6,-248.01428823853846 81.99999999999999,-247.15529406873432 82.39999999999999,-246.14489862212693 82.8,-244.98467644143327 83.2,-243.67643555081935 83.60000000000001,-242.22221463837838 84.0,-240.6242798791552 84.39999999999999,-238.8851214036684 84.8,-237.00744941743235 85.2,-234.99418997752775 85.60000000000001,-232.84848043280087 86.0,-230.57366453479742 86.4,-228.1732872270506 86.8,-225.65108912084375 87.2,-223.01100066605377 87.6,-220.2571360261627 88.0,-217.39378666697905 88.4,-214.42541466906238 88.8,-211.35664577427056 89.20000000000002,-208.1922621772681 89.60000000000001,-204.93719507322498 90.0,-201.59651697332427 90.4,-198.17543380004855 90.8,-194.67927677456737 91.20000000000002,-191.11349410886618 91.60000000000001,-187.48364251556228 92.0,-183.79537854864023 92.4,-180.05444978860177 92.80000000000001,-176.26668588576197 93.19999999999999,-172.43798947565517 93.60000000000001,-168.5743269807038 94.0,-164.68171931248526 94.39999999999999,-160.76623248908646 94.8,-156.8339681821668 95.2,-152.8910542084601 95.6,-148.94363498053508 96.0,-144.997861931691 96.39999999999999,-141.05988392991597 96.8,-137.13583769584096 97.2,-133.23183823962324 97.6,-129.35396933166334 98.0,-125.50827402200365 98.4,-121.7007452231834 98.8,-117.93731637122494 99.19999999999999,-114.22385217930582 99.6,-110.56613949852198 100.0,-106.96987829999082 100.4,-103.44067279233919 100.8,-99.98402268842435 101.2,-96.60531463489544 101.6,-93.3098138179485 102.0,-90.10265575836165 102.4,-86.98883830859175 102.8,-83.97321386440515 103.2,-81.0604818031809 103.60000000000001,-78.25518116066881 104.0,-75.56168355761443 104.4,-72.98418638727424 104.80000000000001,-70.5267062744377 105.2,-68.19307281614655 105.60000000000001,-65.9869226138706 106.0,-63.91169360643384 106.4,-61.97061971252689 106.80000000000001,-60.16672579115229 107.2,-58.50282292785646 107.60000000000001,-56.981504054093996 108.0,-55.60513990655131 108.4,-54.37587533272515 108.80000000000001,-53.29562594851457 109.2,-52.36607515303452 109.60000000000001,-51.58867150530212 110.00000000000001,-50.964626466885 110.4,-50.494912514028655 110.80000000000001,-50.18026162220461 111.20000000000002,-50.02116412544182 111.60000000000001,-50.01786795221782 112.00000000000001,-50.17037823910123 112.4,-50.478457322747204 112.79999999999998,-50.94162511025837 113.19999999999999,-51.55915982733441 113.6,-52.33009914304387 113.99999999999999,-53.25324166946598 114.39999999999999,-54.327148833864996 114.8,-55.55014712048024 115.19999999999999,-56.9203306784378 115.6,-58.43556429171949 115.99999999999999,-60.09348670656246 116.39999999999999,-61.891514311102384 116.8,-63.82684516152663 117.19999999999999,-65.89646334846488 117.6,-68.09714369680931 118.0,-70.42545679164478 118.39999999999999,-72.87777432245318 118.8,-75.45027473726613 119.19999999999999,-78.13894919795375 119.6,-80.93960782736991 120.0,-83.84788623861762 120.39999999999999,-86.85925233626159 120.8,-89.96901337888781 121.2,-93.17232329200328 121.6,-96.46419021988386 122.0,-99.83948430459733 122.39999999999999,-103.29294568008132 122.8,-106.81919266882036 123.2,-110.41273016834438 123.6,-114.06795821448351 124.0,-117.7791807080341 124.4,-121.54061429123462 124.8,-125.34639736022116 125.2,-129.19059919941742 125.6,-133.06722922362306 126.0,-136.97024631340153 126.4,-140.8935682292168 126.8,-144.83108108964723 127.2,-148.77664889891216 127.60000000000001,-152.72412310885727 128.0,-156.66735220050165 128.40000000000003,-160.60019127021533 128.79999999999998,-164.51651160558657 129.20000000000002,-168.41021023605884 129.6,-172.27521944345173 130.0,-176.10551621754743 130.4,-179.89513164200767 130.8,-183.6381601959925 131.20000000000002,-187.32876895698692 131.6,-190.9612066904964 132.0,-194.52981281244232 132.40000000000003,-198.02902621029403 132.79999999999998,-201.45339390918926 133.20000000000002,-204.79757956954154 133.6,-208.0563718028851 134.0,-211.22469229300796 134.4,-214.29760370970996 134.8,-217.2703174028564 135.20000000000002,-220.1382008647388 135.60000000000002,-222.89678494911036 136.00000000000003,-225.54177083564875 136.39999999999998,-228.06903672899347 136.8,-230.47464428191677 137.20000000000002,-232.75484473261926 137.6,-234.90608474658714 138.0,-236.92501195390662 138.39999999999998,-238.8084801734056 138.79999999999998,-240.55355431548352 139.2,-242.15751495598798 139.6,-243.6178625740104 140.0,-244.93232144699667 140.4,-246.09884319710417 140.79999999999998,-247.11560998327664 141.2,-247.98103733406452 141.6,-248.69377661677464 142.0,-249.25271713910274 142.4,-249.65698787997334 142.79999999999998,-249.90595884688915 143.2,-249.99924205767527 143.6,-249.93669214508913 144.0,-249.71840658335185 144.4,-249.34472553625045 144.79999999999998,-248.81623132704584 145.2,-248.13374753101317 145.6,-247.29833769202935 146.0,-246.3113036652068 146.4,-245.1741835881564 146.8,-243.88874948404174 147.2,-242.4570045001588 147.6,-240.8811797863454 148.00000000000003,-239.16373101808475 148.39999999999998,-237.3073345697201 148.8,-235.31488334374552 149.2,-233.18948226267162 149.6,-230.93444343049114 150.0,-228.5532809712846 150.4,-226.04970555300943 150.8,-223.4276186050065 151.2,-220.69110623823474 151.60000000000002,-217.84443287770873 151.99999999999997,-214.89203461706148 152.4,-211.83851230558855 152.8,-208.68862437854702 153.2,-205.4472794418806 153.6,-202.11952862292836 154.0,-198.7105576990345 154.4,-195.2256790163289 154.8,-191.6703232112701 155.20000000000002,-188.05003074784938 155.6,-184.3704432836484 156.0,-180.63729487820044 156.4,-176.8564030573592 156.8,-173.03365974759828 157.20000000000002,-169.17502209436725 157.6,-165.28650317881633 158.0,-161.37416264735356 158.4,-157.44409726863586 158.8,-153.50243143271254 159.20000000000002,-149.55530760712546 159.6,-145.6088767648362 160.0,-141.66928879890028 160.4,-137.74268293882506 160.8,-133.83517818354326 161.20000000000002,-129.95286376591366 161.60000000000002,-126.10178966360813 162.0,-122.28795717116978 162.4,-118.51730954793811 162.79999999999998,-114.79572275641284 163.2,-111.12899630548634 163.60000000000002,-107.52284421282154 163.99999999999997,-103.98288610045245 164.39999999999998,-100.51463843748238 164.79999999999998,-97.12350594353576 165.2,-93.81477316634948 165.6,-90.59359624663449 166.0,-87.46499488304117 166.4,-84.43384450974497 166.79999999999998,-81.50486869884863 167.20000000000002,-78.68263179943627 167.59999999999997,-75.97153182475155 168.0,-73.37579359858456 168.4,-70.89946217154682 168.79999999999998,-68.54639651749495 169.2,-66.32026351992549 169.6,-64.22453225771262 170.0,-62.26246859909315 170.4,-60.43713011232327 170.79999999999998,-58.75136130093907 171.20000000000002,-57.20778917104318 171.59999999999997,-55.80881913752891 172.0,-54.55663127561798 172.4,-53.453176923556164 172.8,-52.500175641758744 173.2,-51.69911253314502 173.6,-51.05123592883898 174.0,-50.55755544284099 174.4,-50.2188403987029 174.8,-50.03561863065801 175.2,-50.008175661074226 175.6,-50.13655425551236 176.0,-50.420554356082626 176.4,-50.8597333932035 176.8,-51.453406975276955 177.2,-52.20064995520539 177.6,-53.10029787208794 178.0,-54.15094876585038 178.40000000000003,-55.35096536197961 178.79999999999998,-56.69847762295899 179.20000000000002,-58.19138566242884 179.6,-59.827363017528555 180.0,-61.603860274325065 180.4,-63.51810904067365 180.8,-65.56712626032278 181.20000000000002,-67.74771886153897 181.6,-70.0564887330082 182.0,-72.48983801925822 182.40000000000003,-75.04397472735276 182.79999999999998,-77.71491863611641 183.20000000000002,-80.49850749868564 183.6,-83.39040352871618 184.0,-86.38610016014208 184.4,-89.48092906995286 184.8,-92.67006745304127 185.20000000000002,-95.94854553778828 185.60000000000002,-99.3112543306721 186.00000000000003,-102.75295357783278 186.39999999999998,-106.26827993118532 186.8,-109.85175530635583 187.20000000000002,-113.4977954194162 187.6,-117.20071848911395 188.0,-120.95475409103797 188.39999999999998,-124.75405214991608 188.79999999999998,-128.59269205604247 189.2,-132.46469189161684 189.6,-136.36401775262502 190.0,-140.284593151731 190.4,-144.2203084875293 190.79999999999998,-148.16503056539798 191.2,-152.11261215512337 191.6,-156.0569015703899 192.0,-159.99175225521952 192.4,-163.9110323624146 192.79999999999998,-167.80863430907766 193.2,-171.67848429432308 193.6,-175.5145517643409 194.0,-179.3108588100688 194.4,-183.06148948282512 194.79999999999998,-186.76059901338647 195.2,-190.40242292014284 195.6,-193.98128599213783 196.0,-197.49161113299402 196.4,-200.92792805194213 196.8,-204.28488178841096 197.2,-207.5572410568929 197.6,-210.73990639908047 198.00000000000003,-213.82791813057312 198.39999999999998,-216.81646406976574 198.8,-219.7008870368797 199.2,-222.47669211144512 199.6,-225.13955363692918 200.0,-227.6853219615938 200.4,-230.11002990507592 200.8,-232.40989894061556 201.2,-234.58134508329658 201.6,-236.62098447512497 202.0,-238.52563865823961 202.4,-240.29233952804137 202.8,-241.91833395851697 203.2,-243.4010880925544 203.6,-244.7382912905614 204.0,-245.92785973123432 204.4,-246.96793965886704 204.8,-247.85691027213818 205.20000000000002,-248.59338624987518 205.6,-249.17621990986027 206.0,-249.604502997313 206.4,-249.87756810026278 206.8,-249.99498968960546 207.20000000000002,-249.95658478222404 207.6,-249.76241322613885 208.0,-249.41277760724375 208.4,-248.9082227777738 208.8,-248.24953500723845 209.20000000000002,-247.43774075714367 209.60000000000002,-246.47410508141328 210.0,-245.36012965500035 210.4,-244.09755043376293 210.8,-242.6883349492495 211.20000000000002,-241.13467924260928 211.60000000000002,-239.43900444240714 212.0,-237.60395299167465 212.4,-235.6323845300774 212.8,-233.5273714376154 213.20000000000002,-231.29219404680097 213.60000000000002,-228.9303355307757 214.0,-226.44547647533136 214.4,-223.8414891432951 214.8,-221.12243144021508 215.20000000000002,-218.2925405907519 215.60000000000002,-215.35622653562956 216.0,-212.31806505943374 216.4,-209.18279065997058 216.8,-205.9552891702953 217.20000000000002,-202.64059014490624 217.60000000000002,-199.2438590219771 218.00000000000003,-195.7703890738289 218.4,-192.2255931581976 218.8,-188.61499528314448 219.20000000000002,-184.94422199875666 219.60000000000002,-181.21899362905148 220.00000000000003,-177.44511535775092 220.4,-173.62846818181163 220.8,-169.774999746816 221.20000000000002,-165.89071507849843 221.60000000000002,-161.9816672248568 222.00000000000003,-158.05394782342742 222.40000000000003,-154.11367760842205 222.8,-150.16699687252597 223.20000000000002,-146.22005589821507 223.60000000000002,-142.27900537350587 224.00000000000003,-138.3499868070739 224.40000000000003,-134.439122957676 224.8,-130.55250829279214 225.2,-126.69619949135446 225.59999999999997,-122.87620600536272 225.99999999999997,-119.09848069509825 226.39999999999998,-115.36891055252454 226.79999999999998,-111.69330752733431 227.2,-108.07739946993831 227.59999999999997,-104.52682120550934 227.99999999999997,-101.04710575299146 228.39999999999998,-97.64367570275952 228.79999999999998,-94.32183476636133 229.2,-91.08675951151696 229.6,-87.94349129525033 229.99999999999997,-84.8969284077242 230.39999999999998,-81.95181843902652 230.79999999999998,-79.1127508807937 231.2,-76.38414997420958 231.6,-73.77026781551969 231.99999999999997,-71.27517772980663 232.39999999999998,-68.90276792335209 232.79999999999998,-66.65673542447841 233.2,-64.54058032230901 233.6,-62.557600312429784 234.0,-60.71088555794728 234.39999999999998,-59.0033138739554 234.79999999999998,-57.43754624291215 235.2,-56.0160226679154 235.6,-54.74095837034163 236.0,-53.61434033777098 236.39999999999998,-52.63792422757896 236.79999999999998,-51.813231631019974 237.2,-51.14154770206617 237.6,-50.62391915469673 238.0,-50.261152631758364 238.39999999999998,-50.053813447939085 238.79999999999998,-50.00222470881397 239.2,-50.10646680733584 239.6,-50.36637729855546 240.0,-50.7815511527665 240.39999999999998,-51.35134138668073 240.79999999999998,-52.07486007164993 241.2,-52.95097971736362 241.6,-53.978335028865054 242.0,-55.15532503414979 242.4,-56.48011557902901 242.79999999999998,-57.95064218537092 243.2,-59.56461326826593 243.6,-61.31951370710226 244.0,-63.21260876498593 244.4,-65.24094835040002 244.79999999999998,-67.40137161445836 245.2,-69.69051187659338 245.6,-72.10480187099824 246.0,-74.64047930565161 246.4,-77.29359272525821 246.8,-80.06000766897304 247.2,-82.93541311330884 247.6,-85.91532819018967 248.0,-88.99510916968057 248.4,-92.16995669651183 248.8,-95.43492326912089 249.2,-98.78492094955693 249.6,-102.2147292922337 250.0,-105.71900347917443 250.4,-109.29228264907226 250.8,-112.92899840718408 251.2,-116.62348350280163 251.6,-120.36998066077109 252.0,-124.16265155330262 252.4,-127.99558589808969 252.8,-131.86281066855284 253.2,-135.75829940186765 253.6,-139.67598159025948 254.0,-143.60975214093725 254.4,-147.55348088992244 254.8,-151.5010221549474 255.20000000000002,-155.4462243125371 255.6,-159.3829393843468 256.0,-163.3050326178253 256.4,-167.2063920462588 256.80000000000007,-171.080938013317 257.2,-174.9226326472384 257.59999999999997,-178.72548926990888 258.0,-182.48358172616025 258.40000000000003,-186.19105361874915 258.8,-189.84212743463837 259.2,-193.4311135483389 259.6,-196.95241908830226 260.0,-200.40055665252981 260.40000000000003,-203.77015285983106 260.8,-207.05595672339055 261.2,-210.25284783361093 261.6,-213.3558443374647 262.0,-216.36011070193044 262.40000000000003,-219.2609652494146 262.8,-222.05388745340733 263.2,-224.7345249830177 263.6,-227.29870048539408 264.0,-229.74241809547692 264.40000000000003,-232.06186966292384 264.80000000000007,-234.25344068651665 265.2,-236.3137159467925 265.59999999999997,-238.23948482812898 266.0,-240.02774632198378 266.40000000000003,-241.67571370349467 266.8,-243.1808188741545 267.2,-244.5407163637881 267.6,-245.75328698560094 268.0,-246.8166411385975 268.40000000000003,-247.72912175222936 268.8,-248.48930686867823 269.2,-249.09601185875502 269.6,-249.54829126795812 270.0,-249.84544028981563 270.40000000000003,-249.98699586421614 270.8,-249.97273739901473 271.20000000000005,-249.80268711379142 271.6,-249.47711000522554 272.00000000000006,-248.99651343413987 272.40000000000003,-248.3616463348585 272.79999999999995,-247.57349804811 273.20000000000005,-246.63329677929553 273.6,-245.54250768452354 274.0,-244.30283058739312 274.40000000000003,-242.9161973300871 274.8,-241.38476876289766 275.2,-239.71093137688206 275.59999999999997,-237.8972935848886 276.0,-235.94668165675748 276.4,-233.86213531501969 276.79999999999995,-231.6469029979697 277.20000000000005,-229.30443679748151 277.59999999999997,-226.83838707946762 277.99999999999994,-224.25259679535446 278.4,-221.5510954934468 278.79999999999995,-218.73809303951037 279.2,-215.8179730563545 279.59999999999997,-212.7952860926466 280.0,-209.67474253159276 280.4,-206.46120525054937 280.8,-203.15968204298719 281.2,-199.7753178146358 281.59999999999997,-196.31338656595236 282.0,-192.77928317341986 282.4,-189.17851498248183 282.8,-185.51669322520422 283.2,-181.79952427605576 283.59999999999997,-178.03280075941532 284.0,-174.2223925226778 284.40000000000003,-170.37423748901733 284.8,-166.49433240406807 285.19999999999993,-162.5887234909336 285.59999999999997,-158.66349702810078 286.0,-154.72476986492828 286.4,-150.7786798894969 286.8,-146.83137646367607 287.2,-142.88901084030482 287.59999999999997,-138.9577265774348 288.0,-135.04364996455382 288.4,-131.1528804757305 288.8,-127.291481264537 289.2,-123.4654697155793 289.59999999999997,-119.6808080673444 290.0,-115.94339412098907 290.4,-112.25905204954411 290.8,-108.63352332185161 291.2,-105.07245775538998 291.59999999999997,-101.58140471191648 292.0,-98.16580444966256 292.40000000000003,-94.83097964554045 292.8,-91.58212710059105 293.19999999999993,-88.42430964158223 293.6,-85.36244823138793 294.0,-82.4013143004428 294.4,-79.5455223112126 294.8,-76.79952256728265 295.2,-74.16759427825518 295.6,-71.65383889127517 296.00000000000006,-69.26217369956605 296.4,-66.99632573794628 296.79999999999995,-64.8598259748274 297.2,-62.85600380975608 297.6,-60.987981885067335 298.0,-59.25867121973486 298.4,-57.67076667300735 298.8,-56.226742744890856 299.2,-54.92884972003107 299.6,-53.77911016099629 300.0,-52.779315756432275 300.4,-51.93102452899564 300.8,-51.23555840742075 301.2,-50.69400116650143 301.6,-50.307196738197504 302.0,-50.07574789649962 302.4,-50.00001531810055 302.8,-50.0801170203371 303.20000000000005,-50.315928177278735 303.6,-50.707081314248995 303.99999999999994,-51.252966880477416 304.4,-51.952734198988495 304.8,-52.80529279224807 305.2,-53.80931408150213 305.6,-54.9632334571571 306.0,-56.26525271697978 306.4,-57.71334286831176 306.80000000000007,-59.305247289937334 307.2,-61.03848524867221 307.59999999999997,-62.91035576519824 308.0,-64.91794182311509 308.40000000000003,-67.05811491465151 308.8,-69.32753991595546 309.2,-71.72268028435924 309.6,-74.23980356952865 310.0,-76.87498722989777 310.40000000000003,-79.62412474533792 310.8,-82.4829320165213 311.2,-85.44695404101962 311.6,-88.51157185572644 312.0,-91.67200973478327 312.40000000000003,-94.92334263180311 312.8,-98.26050385477778 313.2,-101.67829296172586 313.6,-105.17138386476206 314.0,-108.73433312997311 314.40000000000003,-112.36158846015041 314.80000000000007,-116.04749734717876 315.2,-119.78631588057834 315.59999999999997,-123.57221769849089 316.0,-127.39930306715017 316.40000000000003,-131.26160807468767 316.8,-135.1531139249584 317.2,-139.06775631688467 317.6,-142.99943489472184 318.0,-146.94202275450164 318.40000000000003,-150.88937599185462 318.8,-154.83534327631554 319.2,-158.77377543721167 319.6,-162.69853504617663 320.0,-166.60350598136915 320.40000000000003,-170.48260295849258 320.8,-174.3297810137502 321.20000000000005,-178.13904492397774 321.6,-181.90445854925252 322.00000000000006,-185.6201540834412 322.40000000000003,-189.2803411982495 322.79999999999995,-192.8793160665434 323.20000000000005,-196.4114702508685 323.6,-199.87129944331627 324.0,-203.2534120431289 324.40000000000003,-206.55253755865746 324.8,-209.76353482060165 325.2,-212.88139999370847 325.59999999999997,-215.90127437447174 326.0,-218.81845196265266 326.4,-221.62838679484548 326.79999999999995,-224.3267000286473 327.20000000000005,-226.90918676639728 327.59999999999997,-229.3718226078474 327.99999999999994,-231.71076992156287 328.4,-233.9223838252642 328.79999999999995,-236.00321786580616 329.2,-237.9500293899341 329.59999999999997,-239.75978459744832 330.0,-241.42966326890914 330.4,-242.95706316050172 330.8,-244.33960405922903 331.2,-245.57513149209615 331.59999999999997,-246.66172008352123 332.0,-247.59767655573052 332.4,-248.3815423674644 332.8,-249.01209598688743 333.2,-249.4883547951519 333.59999999999997,-249.80957661765638 334.0,-249.97526088060783 334.40000000000003,-249.98514939108756 334.8,-249.8392267394038 335.19999999999993,-249.53772032310607 335.59999999999997,-249.08109999262123 336.0,-248.47007731906552 336.4,-247.70560448537262 336.8,-246.78887280246607 337.2,-245.72131085278818 337.59999999999997,-244.50458226407832 338.0,-243.14058311687052 338.4,-241.6314389897492 338.8,-239.97950164696869 339.2,-238.18734537359876 339.59999999999997,-236.2577629639029 340.0,-234.1937613692093 340.4,-231.99855701204822 340.8,-229.67557077386164 341.2,-227.22842266409887 341.59999999999997,-224.66092617899528 342.0,-221.97708235884352 342.40000000000003,-219.18107355299279 342.8,-216.2772569023211 343.19999999999993,-213.27015754931028 343.6,-210.16446158632124 344.0,-206.9650087530602 344.4,-203.67678489459564 344.8,-200.30491419170966 345.2,-196.85465117566048 345.6,-193.3313725398228 346.00000000000006,-189.74056876095455 346.4,-186.08783554315076 346.79999999999995,-182.37886509781683 347.2,-178.61943727325064 347.6,-174.815410547656 348.0,-170.972712899624 348.4,-167.09733257030877 348.8,-163.19530873169336 349.2,-159.2727220754885 349.6,-155.33568533732844 350.0,-151.3903337710323 350.4,-147.44281558777377 350.8,-143.49928237505895 351.2,-139.56587951044293 351.6,-135.64873658492317 352.0,-131.75395785093417 352.4,-127.88761270982744 352.8,-124.05572625366551 353.20000000000005,-120.26426987605409 353.6,-116.5191519666726 353.99999999999994,-112.82620870396603 354.4,-109.19119496038367 354.8,-105.6197753343135 355.2,-102.11751532268826 355.6,-98.6898726480416 356.0,-95.34218875349399 356.4,-92.07968047896148 356.80000000000007,-88.90743193152251 357.2,-85.83038656263818 357.59999999999997,-82.85333946455901 358.0,-79.98092989792353 358.40000000000003,-77.21763406220404 358.8,-74.56775812024708 359.2,-72.0354314877971 359.6,-69.62460039844957 360.0,-67.33902175406544 360.40000000000003,-65.18225727022912 360.8,-63.15766792587383 361.2,-61.26840872572347 361.6,-59.51742378371291 362.0,-57.90744173504854 362.40000000000003,-56.44097148405861 362.8,-55.120298294459516 363.2,-53.94748022813087 363.6,-52.924344937950075 364.0,-52.052486819680006 364.40000000000003,-51.33326452735616 364.80000000000007,-50.767798856035135 365.2,-50.35697099521339 365.59999999999997,-50.10142115563049 366.0,-50.00154757160151 366.40000000000003,-50.057505880431584 366.8,-50.26920887987937 367.2,-50.63632666404798 367.6,-51.158287137491776 368.0,-51.83427690673715 368.40000000000003,-52.66324254782868 368.8,-53.64389224792496 369.2,-54.77469781838621 369.6,-56.05389707621638 370.0,-57.47949659014876 370.40000000000003,-59.04927478709579 370.8,-60.76078541412195 371.20000000000005,-62.61136135054507 371.6,-64.59811876422525 372.00000000000006,-66.71796160556464 372.40000000000003,-68.96758643221483 372.79999999999995,-71.34348755697322 373.20000000000005,-73.84196251084623 373.6,-76.45911781276625 374.0,-79.19087503697071 374.40000000000003,-82.0329771685884 374.8,-84.98099523752974 375.2,-88.03033522033807 375.59999999999997,-91.17624519926244 376.0,-94.41382276736459 376.4,-97.73802266815895 376.79999999999995,-101.14366465784971 377.20000000000005,-104.62544157792831 377.59999999999997,-108.17792762554679 377.99999999999994,-111.79558680878023 378.4,-115.47278157360097 378.79999999999995,-119.20378158912192 379.2,-122.98277267741777 379.59999999999997,-126.80386587400872 380.0,-130.66110660488727 380.4,-134.54848396578734 380.8,-138.45994008923577 381.2,-142.38937958478436 381.59999999999997,-146.33067903772633 382.0,-150.27769655146994 382.4,-154.22428131872394 382.8,-158.16428320656522 383.2,-162.0915623404522 383.59999999999997,-165.99999867226342 384.0,-169.8835015174212 384.40000000000003,-173.7360190462792 384.8,-177.5515477149382 385.19999999999993,-181.32414162083415 385.59999999999997,-185.04792176849406 386.0,-188.71708523102066 386.4,-192.32591419305365 386.8,-195.86878486107727 387.2,-199.340176227227 387.59999999999997,-202.73467867291077 388.0,-206.04700239885088 388.4,-209.27198566840605 388.8,-212.4046028513276 389.2,-215.43997225541585 389.59999999999997,-218.37336373387055 390.0,-221.20020605648293 390.4,-223.91609403317997 390.8,-226.51679537882208 391.2,-228.9982573085549 391.59999999999997,-231.35661285343875 392.0,-233.58818688651235 392.40000000000003,-235.68950184990214 392.8,-237.6572831740484 393.19999999999993,-239.48846438061145 393.6,-241.1801918610934 394.0,-242.729829323741 394.4,-244.13496190179208 394.8,-245.3933999166656 395.2,-246.5031822902343 395.6,-247.46257960085404 396.00000000000006,-248.27009677839902 396.4,-248.92447543409136 396.79999999999995,-249.42469582150426 397.2,-249.7699784256761 397.6,-249.95978517786202 398.0,-249.9938202940298 398.4,-249.87203073579295 398.8,-249.59460629306247 399.2,-249.16197928828916 399.6,-248.57482390275715 400.0,-247.83405512597776" stroke="red" stroke-width="2.0"/><g><g><line fill="none" stroke="black" x1="-8.0" x2="408.0" y1="0.0" y2="0.0"/><polyline fill="black" points="408.0,-5.0 408.0,5.0 424.0,0.0" stroke="none"/><line fill="none" stroke="black" x1="31.83098861837907" x2="31.83098861837907" y1="-3.0" y2="3.0"/><line fill="none" stroke="black" x1="63.66197723675814" x2="63.66197723675814" y1="-3.0" y2="3.0"/><line fill="none" stroke="black" x1="95.4929658551372" x2="95.4929658551372" y1="-3.0" y2="3.0"/><line fill="none" stroke="black" x1="127.32395447351628" x2="127.32395447351628" y1="-3.0" y2="3.0"/><line fill="none" stroke="black" x1="159.15494309189535" x2="159.15494309189535" y1="-3.0" y2="3.0"/><line fill="none" stroke="black" x1="190.9859317102744" x2="190.9859317102744" y1="-3.0" y2="3.0"/><line fill="none" stroke="black" x1="222.8169203286535" x2="222.8169203286535" y1="-3.0" y2="3.0"/><line fill="none" stroke="black" x1="254.64790894703256" x2="254.64790894703256" y1="-3.0" y2="3.0"/><line fill="none" stroke="black" x1="286.4788975654116" x2="286.4788975654116" y1="-3.0" y2="3.0"/><line fill="none" stroke="black" x1="318.3098861837907" x2="318.3098861837907" y1="-3.0" y2="3.0"/><line fill="none" stroke="black" x1="350.1408748021698" x2="350.1408748021698" y1="-3.0" y2="3.0"/><line fill="none" stroke="black" x1="381.9718634205488" x2="381.9718634205488" y1="-3.0" y2="3.0"/><text dominant-baseline="middle" fill="black" stroke="none" text-anchor="middle" x="31.83098861837907" y="14.0">1</text><text dominant-baseline="middle" fill="black" stroke="none" text-anchor="middle" x="63.66197723675814" y="14.0">2</text><text dominant-baseline="middle" fill="black" stroke="none" text-anchor="middle" x="95.4929658551372" y="14.0">3</text><text dominant-baseline="middle" fill="black" stroke="none" text-anchor="middle" x="127.32395447351628" y="14.0">4</text><text dominant-baseline="middle" fill="black" stroke="none" text-anchor="middle" x="159.15494309189535" y="14.0">5</text><text dominant-baseline="middle" fill="black" stroke="none" text-anchor="middle" x="190.9859317102744" y="14.0">6</text><text dominant-baseline="middle" fill="black" stroke="none" text-anchor="middle" x="222.8169203286535" y="14.0">7</text><text dominant-baseline="middle" fill="black" stroke="none" text-anchor="middle" x="254.64790894703256" y="14.0">8</text><text dominant-baseline="middle" fill="black" stroke="none" text-anchor="middle" x="286.4788975654116" y="14.0">9</text><text dominant-baseline="middle" fill="black" stroke="none" text-anchor="middle" x="318.3098861837907" y="14.0">10</text><text dominant-baseline="middle" fill="black" stroke="none" text-anchor="middle" x="350.1408748021698" y="14.0">11</text><text dominant-baseline="middle" fill="black" stroke="none" text-anchor="middle" x="381.9718634205488" y="14.0">12</text></g><g><line fill="none" stroke="black" x1="0.0" x2="0.0" y1="8.0" y2="-308.0"/><polyline fill="black" points="-5.0,-308.0 5.0,-308.0 0.0,-324.0" stroke="none"/><line fill="none" stroke="black" x1="-3.0" x2="3.0" y1="-100.0" y2="-100.0"/><line fill="none" stroke="black" x1="-3.0" x2="3.0" y1="-200.0" y2="-200.0"/><line fill="none" stroke="black" x1="-3.0" x2="3.0" y1="-300.0" y2="-300.0"/><text dominant-baseline="middle" fill="black" stroke="none" text-anchor="middle" x="-10.0" y="-100.0">1</text><text dominant-baseline="middle" fill="black" stroke="none" text-anchor="middle" x="-10.0" y="-200.0">2</text><text dominant-baseline="middle" fill="black" stroke="none" text-anchor="middle" x="-10.0" y="-300.0">3</text></g><text dominant-baseline="middle" fill="black" stroke="none" text-anchor="middle" x="-10.0" y="14.0">0</text></g></g></svg>