<svg xmlns="http://www.w3.org/2000/svg" height="380.0" width="480.0"><g transform="translate(40.0, 340.0)"><polyline fill="none" points="0.0,-75.0 0.4,-76.97340817926965 0.8,-78.94374111162807 1.2,-80.90792834245362 1.6,-82.862908994236 2.0,-84.8056365364732 2.4,-86.73308353321138 2.8000000000000003,-88.6422463608284 3.2,-90.53014988870999 3.5999999999999996,-92.39385211552366 4.0,-94.23044875386623 4.3999999999999995,-96.03707775613972 4.8,-97.81092377460347 5.2,-99.54922254865154 5.6000000000000005,-101.2492652124792 6.0,-102.90840251642489 6.4,-104.52404895541025 6.800000000000001,-106.09368679804382 7.199999999999999,-107.61487001011018 7.6,-109.08522806633063 8.0,-110.50246964445444 8.4,-111.86438619592522 8.799999999999999,-113.16885538755696 9.2,-114.41384440885744 9.6,-115.59741313984411 10.0,-116.71771717441665 10.4,-117.77301069457448 10.8,-118.76164919099992 11.200000000000001,-119.68209202576801 11.600000000000001,-120.53290483318878 12.0,-121.31276175504117 12.399999999999999,-122.02044750671483 12.8,-122.65485927104058 13.200000000000001,-123.21500841685774 13.600000000000001,-123.70002203964076 14.000000000000002,-124.10914432178379 14.399999999999999,-124.4417377104239 14.799999999999999,-124.69728391096702 15.2,-124.8753846947689 15.6,-124.97576251971171 16.0,-124.99826096271016 16.400000000000002,-124.94284496347201 16.8,-124.80960087913428 17.2,-124.59873634968913 17.599999999999998,-124.31057997440938 18.0,-123.94558079977843 18.4,-123.50430761972146 18.8,-122.98744808922963 19.2,-122.39580765275753 19.6,-121.73030828906452 20.0,-120.99198707445551 20.4,-120.18199456666032 20.8,-119.30159301187001 21.2,-118.35215437772436 21.6,-117.3351582153156 22.0,-116.2521893535403 22.400000000000002,-115.10493542939217 22.800000000000004,-113.8951842580449 23.200000000000003,-112.62482104682259 23.599999999999998,-111.29582545740016 24.0,-109.91026852081129 24.4,-108.47030941007168 24.799999999999997,-106.9781920754467 25.2,-105.43624174760717 25.6,-103.8468613141224 26.0,-102.2125275749368 26.400000000000002,-100.53578738266616 26.8,-98.81925367372747 27.200000000000003,-97.0656013964877 27.6,-95.27756334277656 28.000000000000004,-93.45792588925931 28.4,-91.60952465530625 28.799999999999997,-89.73524008412474 29.2,-87.83799295404077 29.599999999999998,-85.92073982692428 30.0,-83.98646844085151 30.4,-82.03819305418428 30.8,-80.07894974832124 31.2,-78.11179169644166 31.6,-76.13978440561421 32.0,-74.16600093968543 32.4,-72.19351713039188 32.800000000000004,-70.22540678415928 33.199999999999996,-68.26473689205761 33.6,-66.31456285037684 34.00000000000001,-64.37792369927155 34.4,-62.45783738689372 34.8,-60.55729606639403 35.199999999999996,-58.67926143312122 35.6,-56.82666010928441 36.0,-55.0023790832719 36.4,-53.20926121073283 36.8,-51.45010078443282 37.2,-49.72763917978739 37.6,-48.04456058285849 37.99999999999999,-46.40348780747198 38.4,-44.80697820797379 38.800000000000004,-43.257519693994695 39.2,-41.75752685343359 39.6,-40.309337189701175 40.0,-38.9152074790879 40.400000000000006,-37.577310253932175 40.8,-36.297730417069886 41.199999999999996,-35.07846199284037 41.6,-33.921405019712566 42.0,-32.82836258937336 42.4,-31.801038036892017 42.800000000000004,-30.84103228633987 43.2,-29.949841356001574 43.6,-29.128854027065213 44.0,-28.379349679424934 44.4,-27.702496297968114 44.800000000000004,-27.099348652454296 45.2,-26.570846653822006 45.60000000000001,-26.117813889485095 46.0,-25.740956339901086 46.400000000000006,-25.44086127841134 46.800000000000004,-25.217996356067786 47.199999999999996,-25.072708872872138 47.6,-25.00522523656339 48.0,-25.01565060979682 48.4,-25.103968746264563 48.8,-25.270042016012912 49.2,-25.513611619916972 49.599999999999994,-25.834297992978506 50.0,-26.231601395818426 50.4,-26.70490269344213 50.8,-27.25346432006421 51.2,-27.876431428489084 51.6,-28.572833222256 52.0,-29.34158446847308 52.400000000000006,-30.18148718898239 52.800000000000004,-31.091232527220924 53.2,-32.069402787868015 53.6,-33.11447364610111 54.0,-34.224816523016706 54.400000000000006,-35.39870112351488 54.800000000000004,-36.63429813269277 55.2,-37.9296820665446 55.60000000000001,-39.2828342725264 56.00000000000001,-40.691646075309016 56.39999999999999,-42.15392206281776 56.8,-43.6673835074376 57.199999999999996,-45.22967191705235 57.599999999999994,-46.83835271038442 57.99999999999999,-48.49091901090784 58.4,-50.18479555342166 58.8,-51.91734269719671 59.199999999999996,-53.685860539441165 59.599999999999994,-55.48759312267553 60.0,-57.31973272945968 60.4,-59.179424257779736 60.8,-61.06376967027658 61.199999999999996,-62.96983251038218 61.6,-64.89464247832625 62.0,-66.83520005988206 62.4,-68.7884812006389 62.8,-70.75144201851606 63.2,-72.72102354717516 63.6,-74.6941565029394 64.0,-76.66776606779021 64.39999999999999,-78.63877668098839 64.8,-80.6041168318533 65.2,-82.56072384622951 65.60000000000001,-84.50554865918434 66.0,-86.43556056649656 66.39999999999999,-88.34775194753354 66.8,-90.23914295215587 67.2,-92.10678614434599 67.60000000000001,-93.9477710953246 68.00000000000001,-95.75922891899738 68.4,-97.53833674266326 68.8,-99.28232210601887 69.19999999999999,-100.98846728160262 69.6,-102.65411350994614 70.0,-104.27666514283403 70.39999999999999,-105.85359368821386 70.8,-107.38244175045446 71.2,-108.86082685981097 71.6,-110.28644518513039 72.0,-111.65707512401048 72.39999999999999,-112.9705807648186 72.8,-114.22491521517486 73.2,-115.41812379171228 73.6,-116.5483470661443 74.00000000000001,-117.61382376289187 74.4,-118.61289350375488 74.8,-119.5439993953512 75.2,-120.40569045529037 75.6,-121.19662387330219 75.99999999999999,-121.91556710379554 76.4,-122.56139978658744 76.8,-123.13311549280837 77.2,-123.62982329326378 77.60000000000001,-124.05074914680738 78.0,-124.39523710656285 78.4,-124.66275034211397 78.8,-124.85287197607065 79.2,-124.96530573370693 79.60000000000001,-124.99987640465852 80.0,-124.95653011596085 80.4,-124.83533441600136 80.80000000000001,-124.63647816925624 81.2,-124.36027126197453 81.6,-124.00714411926923 81.99999999999999,-123.57764703436716 82.39999999999999,-123.07244931106347 82.8,-122.49233822071663 83.2,-121.83821777540967 83.60000000000001,-121.11110731918919 84.0,-120.3121399395776 84.39999999999999,-119.4425607018342 84.8,-118.50372470871618 85.2,-117.49709498876388 85.60000000000001,-116.42424021640043 86.0,-115.28683226739871 86.4,-114.0866436135253 86.8,-112.82554456042187 87.2,-111.50550033302689 87.6,-110.12856801308135 88.0,-108.69689333348953 88.4,-107.21270733453119 88.8,-105.67832288713528 89.20000000000002,-104.09613108863405 89.60000000000001,-102.46859753661249 90.0,-100.79825848666214 90.4,-99.08771690002428 90.8,-97.33963838728369 91.20000000000002,-95.55674705443309 91.60000000000001,-93.74182125778114 92.0,-91.89768927432011 92.4,-90.02722489430089 92.80000000000001,-88.13334294288099 93.19999999999999,-86.21899473782759 93.60000000000001,-84.2871634903519 94.0,-82.34085965624263 94.39999999999999,-80.38311624454323 94.8,-78.4169840910834 95.2,-76.44552710423005 95.6,-74.47181749026754 96.0,-72.4989309658455 96.39999999999999,-70.52994196495798 96.8,-68.56791884792048 97.2,-66.61591911981162 97.6,-64.67698466583167 98.0,-62.75413701100182 98.4,-60.8503726115917 98.8,-58.96865818561247 99.19999999999999,-57.11192608965291 99.6,-55.28306974926099 100.0,-53.48493914999541 100.4,-51.72033639616959 100.8,-49.99201134421217 101.2,-48.30265731744772 101.6,-46.65490690897425 102.0,-45.051327879180825 102.4,-43.494419154295876 102.8,-41.98660693220258 103.2,-40.53024090159045 103.60000000000001,-39.127590580334406 104.0,-37.7808417788072 104.4,-36.49209319363712 104.80000000000001,-35.26335313721884 105.2,-34.09653640807328 105.60000000000001,-32.9934613069353 106.0,-31.95584680321692 106.4,-30.985309856263445 106.80000000000001,-30.083362895576144 107.2,-29.25141146392823 107.60000000000001,-28.490752027046994 108.0,-27.802569953275654 108.4,-27.187937666362576 108.80000000000001,-26.647812974257285 109.2,-26.18303757651726 109.60000000000001,-25.79433575265106 110.00000000000001,-25.4823132334425 110.4,-25.247456257014328 110.80000000000001,-25.090130811102306 111.20000000000002,-25.01058206272091 111.60000000000001,-25.00893397610891 112.00000000000001,-25.085189119550616 112.4,-25.239228661373602 112.79999999999998,-25.470812555129186 113.19999999999999,-25.779579913667206 113.6,-26.165049571521934 113.99999999999999,-26.62662083473299 114.39999999999999,-27.163574416932498 114.8,-27.77507356024012 115.19999999999999,-28.4601653392189 115.6,-29.217782145859744 115.99999999999999,-30.04674335328123 116.39999999999999,-30.945757155551192 116.8,-31.913422580763314 117.19999999999999,-32.94823167423244 117.6,-34.048571848404656 118.0,-35.21272839582239 118.39999999999999,-36.43888716122659 118.8,-37.725137368633064 119.19999999999999,-39.069474598976875 119.6,-40.469803913684956 120.0,-41.92394311930881 120.39999999999999,-43.429626168130795 120.8,-44.984506689443904 121.2,-46.58616164600164 121.6,-48.23209510994193 122.0,-49.91974215229867 122.39999999999999,-51.64647284004066 122.8,-53.40959633441018 123.2,-55.20636508417219 123.6,-57.033979107241755 124.0,-58.88959035401705 124.4,-60.77030714561731 124.8,-62.67319868011058 125.2,-64.59529959970871 125.6,-66.53361461181153 126.0,-68.48512315670077 126.4,-70.4467841146084 126.8,-72.41554054482361 127.2,-74.38832444945608 127.60000000000001,-76.36206155442864 128.0,-78.33367610025083 128.40000000000003,-80.30009563510767 128.79999999999998,-82.25825580279329 129.20000000000002,-84.20510511802942 129.6,-86.13760972172587 130.0,-88.05275810877372 130.4,-89.94756582100383 130.8,-91.81908009799625 131.20000000000002,-93.66438447849346 131.6,-95.4806033452482 132.0,-97.26490640622113 132.40000000000003,-99.01451310514702 132.79999999999998,-100.72669695459463 133.20000000000002,-102.39878978477077 133.6,-104.02818590144255 134.0,-105.61234614650398 134.4,-107.14880185485498 134.8,-108.6351587014282 135.20000000000002,-110.0691004323694 135.60000000000002,-111.44839247455518 136.00000000000003,-112.77088541782437 136.39999999999998,-114.03451836449673 136.8,-115.23732214095838 137.20000000000002,-116.37742236630963 137.6,-117.45304237329357 138.0,-118.46250597695331 138.39999999999998,-119.4042400867028 138.79999999999998,-120.27677715774176 139.2,-121.07875747799399 139.6,-121.8089312870052 140.0,-122.46616072349833 140.4,-123.04942159855209 140.79999999999998,-123.55780499163832 141.2,-123.99051866703226 141.6,-124.34688830838732 142.0,-124.62635856955137 142.4,-124.82849393998667 142.79999999999998,-124.95297942344457 143.2,-124.99962102883764 143.6,-124.96834607254456 144.0,-124.85920329167593 144.4,-124.67236276812523 144.79999999999998,-124.40811566352292 145.2,-124.06687376550659 145.6,-123.64916884601467 146.0,-123.1556518326034 146.4,-122.5870917940782 146.8,-121.94437474202087 147.2,-121.2285022500794 147.6,-120.4405898931727 148.00000000000003,-119.58186550904237 148.39999999999998,-118.65366728486005 148.8,-117.65744167187276 149.2,-116.59474113133581 149.6,-115.46722171524557 150.0,-114.2766404856423 150.4,-113.02485277650472 150.8,-111.71380930250326 151.2,-110.34555311911737 151.60000000000002,-108.92221643885436 151.99999999999997,-107.44601730853074 152.4,-105.91925615279428 152.8,-104.34431218927351 153.2,-102.7236397209403 153.6,-101.05976431146418 154.0,-99.35527884951725 154.4,-97.61283950816446 154.8,-95.83516160563505 155.20000000000002,-94.02501537392469 155.6,-92.1852216418242 156.0,-90.31864743910022 156.4,-88.4282015286796 156.8,-86.51682987379914 157.20000000000002,-84.58751104718363 157.6,-82.64325158940817 158.0,-80.68708132367678 158.4,-78.72204863431793 158.8,-76.75121571635627 159.20000000000002,-74.77765380356273 159.6,-72.8044383824181 160.0,-70.83464439945014 160.4,-68.87134146941253 160.8,-66.91758909177163 161.20000000000002,-64.97643188295683 161.60000000000002,-63.050894831804065 162.0,-61.14397858558489 162.4,-59.258654773969056 162.79999999999998,-57.39786137820642 163.2,-55.56449815274317 163.60000000000002,-53.76142210641077 163.99999999999997,-51.99144305022622 164.39999999999998,-50.25731921874119 164.79999999999998,-48.56175297176788 165.2,-46.90738658317474 165.6,-45.296798123317245 166.0,-43.732497441520586 166.4,-42.216922254872486 166.79999999999998,-40.75243434942431 167.20000000000002,-39.34131589971813 167.59999999999997,-37.985765912375776 168.0,-36.68789679929228 168.4,-35.44973108577341 168.79999999999998,-34.27319825874748 169.2,-33.160131759962745 169.6,-32.11226612885631 170.0,-31.131234299546573 170.4,-30.218565056161633 170.79999999999998,-29.375680650469533 171.20000000000002,-28.60389458552159 171.59999999999997,-27.904409568764454 172.0,-27.27831563780899 172.4,-26.726588461778082 172.8,-26.250087820879372 173.2,-25.84955626657251 173.6,-25.52561796441949 174.0,-25.278777721420497 174.4,-25.10942019935145 174.8,-25.017809315329004 175.2,-25.004087830537113 175.6,-25.06827712775618 176.0,-25.210277178041313 176.4,-25.42986669660175 176.8,-25.726703487638478 177.2,-26.100324977602696 177.6,-26.55014893604397 178.0,-27.07547438292519 178.40000000000003,-27.675482680989806 178.79999999999998,-28.349238811479495 179.20000000000002,-29.09569283121442 179.6,-29.913681508764277 180.0,-30.801930137162532 180.4,-31.759054520336825 180.8,-32.78356313016139 181.20000000000002,-33.873859430769485 181.6,-35.0282443665041 182.0,-36.24491900962911 182.40000000000003,-37.52198736367638 182.79999999999998,-38.857459318058204 183.20000000000002,-40.24925374934282 183.6,-41.69520176435809 184.0,-43.19305008007104 184.4,-44.74046453497643 184.8,-46.335033726520635 185.20000000000002,-47.97427276889414 185.60000000000002,-49.65562716533605 186.00000000000003,-51.37647678891639 186.39999999999998,-53.13413996559266 186.8,-54.92587765317791 187.20000000000002,-56.7488977097081 187.6,-58.60035924455698 188.0,-60.477377045518985 188.39999999999998,-62.37702607495804 188.79999999999998,-64.29634602802123 189.2,-66.23234594580842 189.6,-68.18200887631251 190.0,-70.1422965758655 190.4,-72.11015424376465 190.79999999999998,-74.08251528269899 191.2,-75.35212531161628 191.6,-76.01003314302814 192.0,-76.66776606779011 192.4,-77.32521018680579 192.79999999999998,-77.98225165099078 193.2,-78.63877668098843 193.6,-79.29467158687237 194.0,-79.94982278783444 194.4,-80.6041168318533 194.79999999999998,-81.25744041534068 195.2,-81.90968040276235 195.6,-82.56072384622951 196.0,-83.21045800505786 196.4,-83.85877036529101 196.8,-84.50554865918429 197.2,-85.15068088464609 197.6,-85.79405532463316 198.00000000000003,-86.43556056649656 198.39999999999998,-87.07508552127499 198.8,-87.71251944293196 199.2,-88.34775194753357 199.6,-88.98067303236331 200.0,-89.61117309497179 200.4,-90.23914295215587 200.8,-90.86447385886629 201.2,-91.48705752703874 201.6,-92.10678614434599 202.0,-92.7235523928677 202.4,-93.33724946767487 202.8,-93.94777109532457 203.2,-94.55501155226382 203.6,-95.15886568313742 204.0,-95.75922891899735 204.4,-96.35599729541141 204.8,-96.94906747046626 205.20000000000002,-97.53833674266326 205.6,-98.12370306870318 206.0,-98.70506508115682 206.4,-99.28232210601891 206.8,-99.8553741801417 207.20000000000002,-100.42412206854534 207.6,-100.98846728160262 208.0,-101.5483120920941 208.4,-102.10355955213153 208.8,-102.65411350994623 209.20000000000002,-103.19987862653961 209.60000000000002,-103.74076039219305 210.0,-104.27666514283402 210.4,-104.80750007625575 210.8,-105.33317326818761 211.20000000000002,-105.85359368821395 211.60000000000002,-106.36867121553728 212.0,-106.87831665458489 212.4,-107.38244175045448 212.8,-107.88095920419717 213.20000000000002,-108.37378268793513 213.60000000000002,-108.860826859811 214.0,-109.34200737876611 214.4,-109.81724091914616 214.8,-110.28644518513039 215.20000000000002,-110.74953892498284 215.60000000000002,-111.20644194512249 216.0,-111.6570751240105 216.4,-112.1013604258515 216.8,-112.53922091410702 217.20000000000002,-112.97058076481865 217.60000000000002,-113.39536527973812 218.00000000000003,-113.81350089926299 218.4,-114.22491521517489 218.8,-114.62953698317828 219.20000000000002,-115.02729613523792 219.60000000000002,-115.41812379171229 220.00000000000003,-115.80195227328166 220.4,-116.17871511266777 220.8,-116.5483470661443 221.20000000000002,-116.91078412483478 221.60000000000002,-117.26596352579708 222.00000000000003,-117.61382376289187 222.40000000000003,-117.95430459743385 222.8,-118.28734706862298 223.20000000000002,-118.6128935037549 223.60000000000002,-118.93088752820786 224.00000000000003,-119.24127407520521 224.40000000000003,-119.5439993953512 224.8,-119.83901106593876 225.2,-120.12625800002749 225.59999999999997,-120.40569045529035 225.99999999999997,-120.67726004262744 226.39999999999998,-120.94091973454566 226.79999999999998,-121.19662387330217 227.2,-121.44432817881112 227.59999999999997,-121.6839897563116 227.99999999999997,-121.91556710379554 228.39999999999998,-122.13902011919465 228.79999999999998,-122.35431010732496 229.2,-122.56139978658744 229.6,-122.76025329542423 229.99999999999997,-122.95083619852869 230.39999999999998,-123.13311549280837 230.79999999999998,-123.30705961310038 231.2,-123.47263843763741 231.6,-123.62982329326378 231.99999999999997,-123.77858696040092 232.39999999999998,-123.91890367776088 232.79999999999998,-124.05074914680738 233.2,-124.17410053596362 233.6,-124.28893648456591 234.0,-124.39523710656282 234.39999999999998,-124.49298399395876 234.79999999999998,-124.5821602200016 235.2,-124.66275034211397 235.6,-124.73474040456742 236.0,-124.79811794089913 236.39999999999998,-124.85287197607065 236.79999999999998,-124.89899302836851 237.2,-124.93647311104614 237.6,-124.96530573370693 238.0,-124.9854859034281 238.39999999999998,-124.9970101256255 238.79999999999998,-124.99987640465852 239.2,-124.9940842441759 239.6,-124.97963464720155 240.0,-124.95653011596085 240.39999999999998,-124.92477465144744 240.79999999999998,-124.88437375273024 241.2,-124.83533441600136 241.6,-124.77766513336441 242.0,-124.71137589136396 242.4,-124.63647816925624 242.79999999999998,-124.55298493702128 243.2,-124.46091065311678 243.6,-124.36027126197453 244.0,-124.25108419123929 244.4,-124.13336834875071 244.79999999999998,-124.00714411926923 245.2,-123.872433360946 245.6,-123.72925940153779 246.0,-123.57764703436713 246.4,-123.41762251402929 246.8,-123.24921355184527 247.2,-123.07244931106345 247.6,-122.88736040180925 248.0,-122.69397887578441 248.4,-122.49233822071663 248.8,-122.28247335456057 249.2,-122.06442061945098 249.6,-121.83821777540967 250.0,-121.60390399380631 250.4,-121.36151985057523 250.8,-121.11110731918919 251.2,-120.85270976339042 251.6,-120.58637192968172 252.0,-120.3121399395776 252.4,-120.0300612816174 252.8,-119.74018480314186 253.2,-119.4425607018342 253.6,-119.13724051702732 254.0,-118.82427712077907 254.4,-118.50372470871618 254.8,-118.17563879064919 255.20000000000002,-117.84007618096015 255.6,-117.49709498876393 256.0,-117.1467546078454 256.4,-116.78911570637459 256.80000000000007,-116.42424021640043 257.2,-116.05219132312641 257.59999999999997,-115.67303345396854 258.0,-115.28683226739867 258.40000000000003,-114.89365464157443 258.8,-114.49356866275787 259.2,-114.0866436135253 259.6,-113.67294996076942 260.0,-113.25255934349677 260.40000000000003,-112.8255445604218 260.8,-112.39197955736095 261.2,-111.9519394144268 261.6,-111.50550033302683 262.0,-111.05273962266807 262.40000000000003,-110.59373568756864 262.8,-110.12856801308135 263.2,-109.65731715192868 263.6,-109.180064710254 264.0,-108.69689333348946 264.40000000000003,-108.20788669204498 264.80000000000007,-107.7131294668181 265.2,-107.21270733453113 265.59999999999997,-106.70670695289338 266.0,-106.19521594559545 266.40000000000003,-105.67832288713528 266.8,-105.15611728747979 267.2,-104.62868957656464 267.6,-104.09613108863405 268.0,-103.55853404642525 268.40000000000003,-103.0159915451977 268.8,-102.46859753661249 269.2,-101.91644681246217 269.6,-101.35963498825579 270.0,-100.79825848666214 270.40000000000003,-100.2324145208109 270.8,-99.6622010774595 271.20000000000005,-99.08771690002419 271.6,-98.50906147148105 272.00000000000006,-97.92633499713814 272.40000000000003,-97.33963838728377 272.79999999999995,-96.74907323971108 273.20000000000005,-96.15474182212517 273.6,-95.55674705443317 274.0,-94.95519249092133 274.40000000000003,-94.35018230232356 274.8,-93.74182125778107 275.2,-93.13021470670067 275.59999999999997,-92.51546856051037 276.0,-91.89768927432021 276.4,-91.27698382848605 276.79999999999995,-90.65345971008487 277.20000000000005,-90.02722489430089 277.59999999999997,-89.39838782572775 277.99999999999994,-88.76705739958902 278.4,-88.13334294288109 278.79999999999995,-87.49735419544109 279.2,-86.85920129094339 279.59999999999997,-86.21899473782767 280.0,-85.57684540016217 280.4,-84.93286447844604 280.8,-84.2871634903519 281.2,-83.63985425141524 281.59999999999997,-82.99104885567112 282.0,-82.34085965624263 282.4,-81.68939924588535 282.8,-81.03678043748923 283.2,-80.38311624454323 283.59999999999997,-79.72851986156479 284.0,-79.07310464449796 284.40000000000003,-78.41698409108332 284.8,-77.76027182120461 285.19999999999993,-77.10308155721214 285.59999999999997,-76.44552710423014 286.0,-75.78772233044937 286.4,-75.12978114740832 286.8,-74.47181749026754 287.2,-73.813945298079 287.59999999999997,-73.15627849405627 288.0,-72.4989309658454 288.4,-71.84201654580447 288.8,-71.18564899128975 289.2,-70.52994196495798 289.59999999999997,-69.8750090150822 290.0,-69.22096355588936 290.4,-68.56791884792048 290.8,-67.91598797841722 291.2,-67.26528384173874 291.59999999999997,-66.61591911981162 292.0,-65.96800626261738 292.40000000000003,-65.32165746871881 292.8,-64.67698466583167 293.19999999999993,-64.0340994914412 293.6,-63.39311327347034 294.0,-62.75413701100182 294.4,-62.1172813550553 294.8,-61.48265658942702 295.2,-60.85037261159161 295.6,-60.220538913671376 296.00000000000006,-59.59326456347532 296.4,-58.96865818561254 296.79999999999995,-58.34682794268113 297.2,-57.72788151653828 297.6,-57.11192608965291 298.0,-56.499068326544595 298.4,-55.889414355313484 298.8,-55.28306974926099 299.2,-54.6801395086087 299.6,-54.080728042315116 300.0,-53.48493914999541 300.4,-52.89287600394633 300.8,-52.304641131279986 301.2,-51.72033639616959 301.6,-51.14006298220942 302.0,-50.5639213748931 302.4,-49.99201134421217 302.8,-49.42443192737996 303.20000000000005,-48.861281411680224 303.6,-48.30265731744772 303.99999999999994,-47.748656381180055 304.4,-47.199374538786444 304.8,-46.65490690897425 305.2,-46.11534777677722 305.6,-45.58079057722867 306.0,-45.051327879180825 306.4,-44.52705136927555 306.80000000000007,-44.00805183606597 307.2,-43.494419154295876 307.59999999999997,-42.98624226933518 308.0,-42.48360918177775 308.40000000000003,-41.98660693220258 308.8,-41.49532158610072 309.2,-41.00983821897166 309.6,-40.53024090159045 310.0,-40.056612685449835 310.40000000000003,-39.58903558837759 310.8,-39.127590580334406 311.2,-38.672357569391515 311.6,-38.22341538789348 312.0,-37.7808417788072 312.40000000000003,-37.344713382258476 312.8,-36.91510572226089 313.2,-36.49209319363712 313.6,-36.075749049136185 314.0,-35.666145386748035 314.40000000000003,-35.26335313721884 314.80000000000007,-34.867442051767476 315.2,-34.47848069000734 315.59999999999997,-34.09653640807333 316.0,-33.72167534695811 316.40000000000003,-33.35396242105883 316.8,-32.9934613069353 317.2,-32.64023443228374 317.6,-32.29434296512593 318.0,-31.95584680321692 318.40000000000003,-31.624804563672406 318.8,-31.30127357281834 319.2,-30.985309856263445 319.6,-30.67696812919759 320.0,-30.376301786916695 320.40000000000003,-30.083362895576105 320.8,-29.798202183174837 321.20000000000005,-29.52086903077044 321.6,-29.25141146392823 322.00000000000006,-28.98987614440436 322.40000000000003,-28.73630836206572 322.79999999999995,-28.49075202704703 323.20000000000005,-28.253249662146818 323.6,-28.023842395464033 324.0,-27.802569953275654 324.40000000000003,-27.58947065315765 324.8,-27.384581397349155 325.2,-27.187937666362576 325.59999999999997,-26.99957351283898 326.0,-26.819521555651676 326.4,-26.647812974257306 326.79999999999995,-26.484477503296727 327.20000000000005,-26.32954342744575 327.59999999999997,-26.18303757651728 327.99999999999994,-26.044985320814895 328.4,-25.91541056673988 328.79999999999995,-25.79433575265108 329.2,-25.681781844979405 329.59999999999997,-25.577768334597152 330.0,-25.482313233442508 330.4,-25.395433071400813 330.8,-25.317142893441765 331.2,-25.247456257014328 331.59999999999997,-25.186385229698843 332.0,-25.133940387117363 332.4,-25.09013081110232 332.8,-25.054964088123704 333.2,-25.028446307975486 333.59999999999997,-25.01058206272091 334.0,-25.001374445897362 334.40000000000003,-25.00082505198066 334.8,-25.008933976108903 335.19999999999993,-25.02569981406606 335.59999999999997,-25.051119662525053 336.0,-25.08518911955061 336.4,-25.127902285361486 336.8,-25.179251763352138 337.2,-25.239228661373595 337.59999999999997,-25.30782259327332 338.0,-25.385021680693725 338.4,-25.470812555129186 338.8,-25.56518036024106 339.2,-25.668108754430246 339.59999999999997,-25.779579913667206 340.0,-25.89957453457843 340.4,-26.028071837789202 340.8,-26.16504957152197 341.2,-26.310484015449582 341.59999999999997,-26.464349984803167 342.0,-26.62662083473296 342.40000000000003,-26.79726846492285 342.8,-26.976263324456003 343.19999999999993,-27.163574416932473 343.6,-27.359169305836915 344.0,-27.563014120155174 344.4,-27.775073560240184 344.8,-27.99531090392434 345.2,-28.22368801287909 345.6,-28.46016533921893 346.00000000000006,-28.704701932350073 346.4,-28.957255446061893 346.79999999999995,-29.217782145859776 347.2,-29.486236916538733 347.6,-29.76257326999602 348.0,-30.046743353281272 348.4,-30.33869795688323 348.8,-30.638386523251484 349.2,-30.945757155551192 349.6,-31.260756626650167 350.0,-31.583330388336293 350.4,-31.913422580763356 350.8,-32.25097604212436 351.2,-32.59593231855032 351.6,-32.94823167423244 352.0,-33.30781310176661 352.4,-33.674614332718235 352.8,-34.048571848404656 353.20000000000005,-34.42962089089538 353.6,-34.81769547422529 353.99999999999994,-35.21272839582239 354.4,-35.61465124814436 354.8,-36.02339443052481 355.2,-36.43888716122665 355.6,-36.86105748969813 356.0,-37.28983230903381 356.4,-37.72513736863312 356.80000000000007,-38.16689728705921 357.2,-38.61503556509221 357.59999999999997,-39.069474598976875 358.0,-39.53013569386103 358.40000000000003,-39.99693907742268 358.8,-40.469803913684956 359.2,-40.948648317013706 359.6,-41.433389366297824 360.0,-41.92394311930881 360.40000000000003,-42.42022462723663 360.8,-42.9221479494004 361.2,-43.42962616813086 361.6,-43.94257140382148 362.0,-44.460894830146636 362.40000000000003,-44.984506689443904 362.8,-45.513316308256776 363.2,-46.047232113036976 363.6,-46.58616164600164 364.0,-47.130011581145205 364.40000000000003,-47.678687740399056 364.80000000000007,-48.232095109941994 365.2,-48.790137856652116 365.59999999999997,-49.35271934470307 366.0,-49.91974215229867 366.40000000000003,-50.49110808854215 366.8,-51.06671821044124 367.2,-51.64647284004074 367.6,-52.23027158168481 368.0,-52.81801333940161 368.40000000000003,-53.40959633441026 368.8,-54.004918122746076 369.2,-54.60387561300021 369.6,-55.20636508417219 370.0,-55.812282203631334 370.40000000000003,-56.4215220451836 370.8,-57.033979107241755 371.20000000000005,-57.64954733109524 371.6,-58.268120119275764 372.00000000000006,-58.88959035401705 372.40000000000003,-59.51385041580445 372.79999999999995,-60.14079220201092 373.20000000000005,-60.77030714561731 373.6,-61.402286234013026 374.0,-62.03662002787324 374.40000000000003,-62.67319868011058 374.8,-63.311911954897695 375.2,-63.95264924675548 375.59999999999997,-64.59529959970862 376.0,-65.23975172649739 376.4,-65.88589402785078 376.79999999999995,-66.53361461181143 377.20000000000005,-67.18280131311228 377.59999999999997,-67.83334171259959 377.99999999999994,-68.48512315670077 378.4,-69.13803277693277 378.79999999999995,-69.79195750944692 379.2,-70.44678411460832 379.59999999999997,-71.10239919660575 380.0,-71.75868922308781 380.4,-72.41554054482353 380.8,-73.0728394153832 381.2,-73.7304720108348 381.59999999999997,-74.388324449456 382.0,-75.13884827573497 382.4,-77.11214065936197 382.8,-79.08214160328261 383.2,-81.0457811702261 383.59999999999997,-82.99999933613171 384.0,-84.9417507587106 384.40000000000003,-86.8680095231396 384.8,-88.7757738574691 385.19999999999993,-90.66207081041708 385.59999999999997,-92.523960884247 386.0,-94.35854261551033 386.4,-96.16295709652682 386.8,-97.93439243053864 387.2,-99.6700881136135 387.59999999999997,-101.36733933645539 388.0,-103.02350119942544 388.4,-104.63599283420302 388.8,-106.2023014256638 389.2,-107.71998612770793 389.59999999999997,-109.18668186693527 390.0,-110.60010302824146 390.4,-111.95804701658999 390.8,-113.25839768941104 391.2,-114.49912865427746 391.59999999999997,-115.67830642671937 392.0,-116.79409344325617 392.40000000000003,-117.84475092495107 392.8,-118.8286415870242 393.19999999999993,-119.74423219030572 393.6,-120.5900959305467 394.0,-121.3649146618705 394.4,-122.06748095089604 394.8,-122.6966999583328 395.2,-123.25159114511715 395.6,-123.73128980042702 396.00000000000006,-124.13504838919951 396.4,-124.46223771704568 396.79999999999995,-124.71234791075213 397.2,-124.88498921283805 397.6,-124.97989258893101 398.0,-124.9969101470149 398.4,-124.93601536789647 398.8,-124.79730314653123 399.2,-124.58098964414458 399.6,-124.28741195137857 400.0,-123.91702756298888" stroke="red" stroke-width="2.0"/><g><g><line fill="none" stroke="black" x1="-8.0" x2="408.0" y1="0.0" y2="0.0"/><polyline fill="black" points="408.0,-5.0 408.0,5.0 424.0,0.0" stroke="none"/><line fill="none" stroke="black" x1="31.83098861837907" x2="31.83098861837907" y1="-3.0" y2="3.0"/><line fill="none" stroke="black" x1="63.66197723675814" x2="63.66197723675814" y1="-3.0" y2="3.0"/><line fill="none" stroke="black" x1="95.4929658551372" x2="95.4929658551372" y1="-3.0" y2="3.0"/><line fill="none" stroke="black" x1="127.32395447351628" x2="127.32395447351628" y1="-3.0" y2="3.0"/><line fill="none" stroke="black" x1="159.15494309189535" x2="159.15494309189535" y1="-3.0" y2="3.0"/><line fill="none" stroke="black" x1="190.9859317102744" x2="190.9859317102744" y1="-3.0" y2="3.0"/><line fill="none" stroke="black" x1="222.8169203286535" x2="222.8169203286535" y1="-3.0" y2="3.0"/><line fill="none" stroke="black" x1="254.64790894703256" x2="254.64790894703256" y1="-3.0" y2="3.0"/><line fill="none" stroke="black" x1="286.4788975654116" x2="286.4788975654116" y1="-3.0" y2="3.0"/><line fill="none" stroke="black" x1="318.3098861837907" x2="318.3098861837907" y1="-3.0" y2="3.0"/><line fill="none" stroke="black" x1="350.1408748021698" x2="350.1408748021698" y1="-3.0" y2="3.0"/><line fill="none" stroke="black" x1="381.9718634205488" x2="381.9718634205488" y1="-3.0" y2="3.0"/><text dominant-baseline="middle" fill="black" stroke="none" text-anchor="middle" x="31.83098861837907" y="14.0">1</text><text dominant-baseline="middle" fill="black" stroke="none" text-anchor="middle" x="63.66197723675814" y="14.0">2</text><text dominant-baseline="middle" fill="black" stroke="none" text-anchor="middle" x="95.4929658551372" y="14.0">3</text><text dominant-baseline="middle" fill="black" stroke="none" text-anchor="middle" x="127.32395447351628" y="14.0">4</text><text dominant-baseline="middle" fill="black" stroke="none" text-anchor="middle" x="159.15494309189535" y="14.0">5</text><text dominant-baseline="middle" fill="black" stroke="none" text-anchor="middle" x="190.9859317102744" y="14.0">6</text><text dominant-baseline="middle" fill="black" stroke="none" text-anchor="middle" x="222.8169203286535" y="14.0">7</text><text dominant-baseline="middle" fill="black" stroke="none" text-anchor="middle" x="254.64790894703256" y="14.0">8</text><text dominant-baseline="middle" fill="black" stroke="none" text-anchor="middle" x="286.4788975654116" y="14.0">9</text><text dominant-baseline="middle" fill="black" stroke="none" text-anchor="middle" x="318.3098861837907" y="14.0">10</text><text dominant-baseline="middle" fill="black" stroke="none" text-anchor="middle" x="350.1408748021698" y="14.0">11</text><text dominant-baseline="middle" fill="black" stroke="none" text-anchor="middle" x="381.9718634205488" y="14.0">12</text></g><g><line fill="none" stroke="black" x1="0.0" x2="0.0" y1="8.0" y2="-308.0"/><polyline fill="black" points="-5.0,-308.0 5.0,-308.0 0.0,-324.0" stroke="none"/><line fill="none" stroke="black" x1="-3.0" x2="3.0" y1="-50.0" y2="-50.0"/><line fill="none" stroke="black" x1="-3.0" x2="3.0" y1="-100.0" y2="-100.0"/><line fill="none" stroke="black" x1="-3.0" x2="3.0" y1="-150.0" y2="-150.0"/><line fill="none" stroke="black" x1="-3.0" x2="3.0" y1="-200.0" y2="-200.0"/><line fill="none" stroke="black" x1="-3.0" x2="3.0" y1="-250.0" y2="-250.0"/><line fill="none" stroke="black" x1="-3.0" x2="3.0" y1="-300.0" y2="-300.0"/><text dominant-baseline="middle" fill="black" stroke="none" text-anchor="middle" x="-10.0" y="-50.0">1</text><text dominant-baseline="middle" fill="black" stroke="none" text-anchor="middle" x="-10.0" y="-100.0">2</text><text dominant-baseline="middle" fill="black" stroke="none" text-anchor="middle" x="-10.0" y="-150.0">3</text><text dominant-baseline="middle" fill="black" stroke="none" text-anchor="middle" x="-10.0" y="-200.0">4</text><text dominant-baseline="middle" fill="black" stroke="none" text-anchor="middle" x="-10.0" y="-250.0">5</text><text dominant-baseline="middle" fill="black" stroke="none" text-anchor="middle" x="-10.0" y="-300.0">6</text></g><text dominant-baseline="middle" fill="black" stroke="none" text-anchor="middle" x="-10.0" y="14.0">0</text></g></g></svg>