<svg xmlns="http://www.w3.org/2000/svg" height="380.0" width="480.0"><g transform="translate(40.0, 340.0)"><polyline fill="none" points="0.0,-150.0 0.4,-153.9468163585393 0.8,-157.88748222325614 1.2,-161.81585668490723 1.6,-165.725817988472 2.0,-169.6112730729464 2.4,-173.46616706642277 2.8000000000000003,-177.2844927216568 3.2,-181.06029977741997 3.5999999999999996,-184.78770423104731 4.0,-188.46089750773245 4.3999999999999995,-192.07415551227945 4.8,-195.62184754920693 5.2,-199.09844509730308 5.6000000000000005,-202.4985304249584 6.0,-205.81680503284977 6.4,-209.0480979108205 6.800000000000001,-212.18737359608764 7.199999999999999,-215.22974002022036 7.6,-218.17045613266126 8.0,-221.00493928890887 8.4,-223.72877239185044 8.799999999999999,-226.33771077511392 9.2,-228.8276888177149 9.6,-231.19482627968821 10.0,-233.4354343488333 10.4,-235.54602138914896 10.8,-237.52329838199984 11.200000000000001,-239.36418405153603 11.600000000000001,-241.06580966637756 12.0,-242.62552351008233 12.399999999999999,-244.04089501342966 12.8,-245.30971854208116 13.200000000000001,-246.43001683371548 13.600000000000001,-247.4000440792815 14.000000000000002,-248.21828864356758 14.399999999999999,-248.8834754208478 14.799999999999999,-249.39456782193403 15.2,-249.7507693895378 15.6,-249.95152503942342 16.0,-249.99652192542032 16.400000000000002,-249.88568992694402 16.8,-249.61920175826856 17.2,-249.19747269937827 17.599999999999998,-248.62115994881876 18.0,-247.89116159955685 18.4,-247.00861523944292 18.8,-245.97489617845926 19.2,-244.79161530551505 19.6,-243.46061657812905 20.0,-241.98397414891102 20.4,-240.36398913332064 20.8,-238.60318602374002 21.2,-236.70430875544872 21.6,-234.6703164306312 22.0,-232.5043787070806 22.400000000000002,-230.20987085878434 22.800000000000004,-227.7903685160898 23.200000000000003,-225.24964209364518 23.599999999999998,-222.5916509148003 24.0,-219.82053704162257 24.4,-216.94061882014336 24.799999999999997,-213.9563841508934 25.2,-210.87248349521434 25.6,-207.6937226282448 26.0,-204.4250551498736 26.400000000000002,-201.07157476533231 26.8,-197.63850734745495 27.200000000000003,-194.1312027929754 27.6,-190.55512668555312 28.000000000000004,-186.91585177851863 28.4,-183.2190493106125 28.799999999999997,-179.47048016824948 29.2,-175.67598590808154 29.599999999999998,-171.84147965384855 30.0,-167.97293688170302 30.4,-164.07638610836855 30.8,-160.15789949664247 31.2,-156.2235833928833 31.6,-152.27956881122842 32.0,-148.33200187937086 32.4,-144.38703426078376 32.800000000000004,-140.45081356831855 33.199999999999996,-136.52947378411523 33.6,-132.6291257007537 34.00000000000001,-128.7558473985431 34.4,-124.91567477378744 34.8,-121.11459213278806 35.199999999999996,-117.35852286624244 35.6,-113.65332021856882 36.0,-110.0047581665438 36.4,-106.41852242146567 36.8,-102.90020156886564 37.2,-99.45527835957478 37.6,-96.08912116571697 37.99999999999999,-92.80697561494397 38.4,-89.61395641594758 38.800000000000004,-86.51503938798939 39.2,-83.51505370686718 39.6,-80.61867437940235 40.0,-77.8304149581758 40.400000000000006,-75.15462050786435 40.8,-72.59546083413977 41.199999999999996,-70.15692398568073 41.6,-67.84281003942513 42.0,-65.65672517874673 42.4,-63.60207607378403 42.800000000000004,-61.68206457267974 43.2,-59.89968271200315 43.6,-58.257708054130426 44.0,-56.75869935884987 44.4,-55.40499259593623 44.800000000000004,-54.19869730490859 45.2,-53.14169330764401 45.60000000000001,-52.23562777897019 46.0,-51.48191267980217 46.400000000000006,-50.88172255682268 46.800000000000004,-50.43599271213557 47.199999999999996,-50.145417745744275 47.6,-50.01045047312678 48.0,-50.03130121959364 48.4,-50.207937492529126 48.8,-50.540084032025824 49.2,-51.027223239833944 49.599999999999994,-51.66859598595701 50.0,-52.46320279163685 50.4,-53.40980538688426 50.8,-54.50692864012842 51.2,-55.75286285697817 51.6,-57.145666444512 52.0,-58.68316893694616 52.400000000000006,-60.36297437796478 52.800000000000004,-62.18246505444185 53.2,-64.13880557573603 53.6,-66.22894729220222 54.0,-68.44963304603341 54.400000000000006,-70.79740224702977 54.800000000000004,-73.26859626538554 55.2,-75.8593641330892 55.60000000000001,-78.5656685450528 56.00000000000001,-81.38329215061803 56.39999999999999,-84.30784412563553 56.8,-87.3347670148752 57.199999999999996,-90.4593438341047 57.599999999999994,-93.67670542076884 57.99999999999999,-96.98183802181568 58.4,-100.36959110684332 58.8,-103.83468539439342 59.199999999999996,-107.37172107888233 59.599999999999994,-110.97518624535105 60.0,-114.63946545891936 60.4,-118.35884851555947 60.8,-122.12753934055316 61.199999999999996,-125.93966502076437 61.6,-129.7892849566525 62.0,-133.6704001197641 62.4,-137.5769624012778 62.8,-141.50288403703212 63.2,-145.44204709435033 63.6,-149.3883130058788 64.0,-153.33553213558042 64.39999999999999,-157.27755336197677 64.8,-161.2082336637066 65.2,-165.12144769245901 65.60000000000001,-169.01109731836868 66.0,-172.87112113299312 66.39999999999999,-176.69550389506708 66.8,-180.47828590431175 67.2,-184.21357228869198 67.60000000000001,-187.8955421906492 68.00000000000001,-191.51845783799476 68.4,-195.07667348532652 68.8,-198.56464421203773 69.19999999999999,-201.97693456320525 69.6,-205.30822701989229 70.0,-208.55333028566807 70.39999999999999,-211.70718737642773 70.8,-214.76488350090892 71.2,-217.72165371962194 71.6,-220.57289037026078 72.0,-223.31415024802095 72.39999999999999,-225.9411615296372 72.8,-228.44983043034972 73.2,-230.83624758342455 73.6,-233.0966941322886 74.00000000000001,-235.22764752578374 74.4,-237.22578700750975 74.8,-239.0879987907024 75.2,-240.81138091058074 75.6,-242.39324774660437 75.99999999999999,-243.83113420759108 76.4,-245.1227995731749 76.8,-246.26623098561674 77.2,-247.25964658652757 77.60000000000001,-248.10149829361475 78.0,-248.7904742131257 78.4,-249.32550068422793 78.8,-249.7057439521413 79.2,-249.93061146741385 79.60000000000001,-249.99975280931704 80.0,-249.9130602319217 80.4,-249.67066883200272 80.80000000000001,-249.27295633851247 81.2,-248.72054252394906 81.6,-248.01428823853846 81.99999999999999,-247.15529406873432 82.39999999999999,-246.14489862212693 82.8,-244.98467644143327 83.2,-243.67643555081935 83.60000000000001,-242.22221463837838 84.0,-240.6242798791552 84.39999999999999,-238.8851214036684 84.8,-237.00744941743235 85.2,-234.99418997752775 85.60000000000001,-232.84848043280087 86.0,-230.57366453479742 86.4,-228.1732872270506 86.8,-225.65108912084375 87.2,-223.01100066605377 87.6,-220.2571360261627 88.0,-217.39378666697905 88.4,-214.42541466906238 88.8,-211.35664577427056 89.20000000000002,-208.1922621772681 89.60000000000001,-204.93719507322498 90.0,-201.59651697332427 90.4,-198.17543380004855 90.8,-194.67927677456737 91.20000000000002,-191.11349410886618 91.60000000000001,-187.48364251556228 92.0,-183.79537854864023 92.4,-180.05444978860177 92.80000000000001,-176.26668588576197 93.19999999999999,-172.43798947565517 93.60000000000001,-168.5743269807038 94.0,-164.68171931248526 94.39999999999999,-160.76623248908646 94.8,-156.8339681821668 95.2,-152.8910542084601 95.6,-148.94363498053508 96.0,-144.997861931691 96.39999999999999,-141.05988392991597 96.8,-137.13583769584096 97.2,-133.23183823962324 97.6,-129.35396933166334 98.0,-125.50827402200365 98.4,-121.7007452231834 98.8,-117.93731637122494 99.19999999999999,-114.22385217930582 99.6,-110.56613949852198 100.0,-106.96987829999082 100.4,-103.44067279233919 100.8,-99.98402268842435 101.2,-96.60531463489544 101.6,-93.3098138179485 102.0,-90.10265575836165 102.4,-86.98883830859175 102.8,-83.97321386440515 103.2,-81.0604818031809 103.60000000000001,-78.25518116066881 104.0,-75.5616835576144 104.4,-72.98418638727424 104.80000000000001,-70.52670627443769 105.2,-68.19307281614655 105.60000000000001,-65.9869226138706 106.0,-63.91169360643384 106.4,-61.97061971252689 106.80000000000001,-60.16672579115229 107.2,-58.50282292785646 107.60000000000001,-56.98150405409399 108.0,-55.60513990655131 108.4,-54.37587533272515 108.80000000000001,-53.29562594851457 109.2,-52.36607515303452 109.60000000000001,-51.58867150530212 110.00000000000001,-50.964626466885 110.4,-50.494912514028655 110.80000000000001,-50.18026162220461 111.20000000000002,-50.02116412544182 111.60000000000001,-50.01786795221782 112.00000000000001,-50.17037823910123 112.4,-50.478457322747204 112.79999999999998,-50.94162511025837 113.19999999999999,-51.55915982733441 113.6,-52.33009914304387 113.99999999999999,-53.25324166946598 114.39999999999999,-54.327148833864996 114.8,-55.55014712048024 115.19999999999999,-56.9203306784378 115.6,-58.43556429171949 115.99999999999999,-60.09348670656246 116.39999999999999,-61.891514311102384 116.8,-63.82684516152663 117.19999999999999,-65.89646334846488 117.6,-68.09714369680931 118.0,-70.42545679164478 118.39999999999999,-72.87777432245318 118.8,-75.45027473726613 119.19999999999999,-78.13894919795375 119.6,-80.93960782736991 120.0,-83.84788623861762 120.39999999999999,-86.85925233626159 120.8,-89.96901337888781 121.2,-93.17232329200328 121.6,-96.46419021988386 122.0,-99.83948430459733 122.39999999999999,-103.29294568008132 122.8,-106.81919266882036 123.2,-110.41273016834438 123.6,-114.06795821448351 124.0,-117.7791807080341 124.4,-121.54061429123462 124.8,-125.34639736022116 125.2,-129.19059919941742 125.6,-133.06722922362306 126.0,-136.97024631340153 126.4,-140.8935682292168 126.8,-144.83108108964723 127.2,-148.77664889891216 127.60000000000001,-152.72412310885727 128.0,-156.66735220050165 128.40000000000003,-160.60019127021533 128.79999999999998,-164.51651160558657 129.20000000000002,-168.41021023605884 129.6,-172.27521944345173 130.0,-176.10551621754743 130.4,-179.89513164200767 130.8,-183.6381601959925 131.20000000000002,-187.32876895698692 131.6,-190.9612066904964 132.0,-194.52981281244226 132.40000000000003,-198.02902621029403 132.79999999999998,-201.45339390918926 133.20000000000002,-204.79757956954154 133.6,-208.0563718028851 134.0,-211.22469229300796 134.4,-214.29760370970996 134.8,-217.2703174028564 135.20000000000002,-220.1382008647388 135.60000000000002,-222.89678494911036 136.00000000000003,-225.54177083564875 136.39999999999998,-228.06903672899347 136.8,-230.47464428191677 137.20000000000002,-232.75484473261926 137.6,-234.90608474658714 138.0,-236.92501195390662 138.39999999999998,-238.8084801734056 138.79999999999998,-240.55355431548352 139.2,-242.15751495598798 139.6,-243.6178625740104 140.0,-244.93232144699667 140.4,-246.09884319710417 140.79999999999998,-247.11560998327664 141.2,-247.98103733406452 141.6,-248.69377661677464 142.0,-249.25271713910274 142.4,-249.65698787997334 142.79999999999998,-249.90595884688915 143.2,-249.99924205767527 143.6,-249.93669214508913 144.0,-249.71840658335185 144.4,-249.34472553625045 144.79999999999998,-248.81623132704584 145.2,-248.13374753101317 145.6,-247.29833769202935 146.0,-246.3113036652068 146.4,-245.1741835881564 146.8,-243.88874948404174 147.2,-242.4570045001588 147.6,-240.8811797863454 148.00000000000003,-239.16373101808475 148.39999999999998,-237.3073345697201 148.8,-235.31488334374552 149.2,-233.18948226267162 149.6,-230.93444343049114 150.0,-228.5532809712846 150.4,-226.04970555300943 150.8,-223.42761860500653 151.2,-220.69110623823474 151.60000000000002,-217.84443287770873 151.99999999999997,-214.89203461706148 152.4,-211.83851230558855 152.8,-208.68862437854702 153.2,-205.4472794418806 153.6,-202.11952862292836 154.0,-198.7105576990345 154.4,-195.2256790163289 154.8,-191.6703232112701 155.20000000000002,-188.05003074784938 155.6,-184.3704432836484 156.0,-180.63729487820044 156.4,-176.8564030573592 156.8,-173.03365974759828 157.20000000000002,-169.17502209436725 157.6,-165.28650317881633 158.0,-161.37416264735356 158.4,-157.44409726863586 158.8,-153.50243143271254 159.20000000000002,-149.55530760712546 159.6,-145.6088767648362 160.0,-141.66928879890028 160.4,-137.74268293882506 160.8,-133.83517818354326 161.20000000000002,-129.95286376591366 161.60000000000002,-126.10178966360813 162.0,-122.28795717116978 162.4,-118.51730954793811 162.79999999999998,-114.79572275641284 163.2,-111.12899630548634 163.60000000000002,-107.52284421282154 163.99999999999997,-103.98288610045245 164.39999999999998,-100.51463843748238 164.79999999999998,-97.12350594353576 165.2,-93.81477316634948 165.6,-90.59359624663449 166.0,-87.46499488304117 166.4,-84.43384450974497 166.79999999999998,-81.50486869884863 167.20000000000002,-78.68263179943627 167.59999999999997,-75.97153182475155 168.0,-73.37579359858456 168.4,-70.89946217154682 168.79999999999998,-68.54639651749495 169.2,-66.32026351992549 169.6,-64.22453225771262 170.0,-62.26246859909315 170.4,-60.43713011232327 170.79999999999998,-58.75136130093907 171.20000000000002,-57.20778917104318 171.59999999999997,-55.80881913752891 172.0,-54.55663127561798 172.4,-53.453176923556164 172.8,-52.500175641758744 173.2,-51.69911253314502 173.6,-51.05123592883898 174.0,-50.55755544284099 174.4,-50.2188403987029 174.8,-50.03561863065801 175.2,-50.008175661074226 175.6,-50.13655425551236 176.0,-50.420554356082626 176.4,-50.8597333932035 176.8,-51.453406975276955 177.2,-52.20064995520539 177.6,-53.10029787208794 178.0,-54.15094876585038 178.40000000000003,-55.35096536197961 178.79999999999998,-56.69847762295899 179.20000000000002,-58.19138566242884 179.6,-59.827363017528555 180.0,-61.603860274325065 180.4,-63.51810904067365 180.8,-65.56712626032278 181.20000000000002,-67.74771886153897 181.6,-70.0564887330082 182.0,-72.48983801925822 182.40000000000003,-75.04397472735276 182.79999999999998,-77.71491863611641 183.20000000000002,-80.49850749868564 183.6,-83.39040352871618 184.0,-86.38610016014208 184.4,-89.48092906995286 184.8,-92.67006745304127 185.20000000000002,-95.94854553778828 185.60000000000002,-99.3112543306721 186.00000000000003,-102.75295357783278 186.39999999999998,-106.26827993118532 186.8,-109.85175530635583 187.20000000000002,-113.4977954194162 187.6,-117.20071848911395 188.0,-120.95475409103797 188.39999999999998,-124.75405214991608 188.79999999999998,-128.59269205604247 189.2,-132.46469189161684 189.6,-136.36401775262502 190.0,-140.284593151731 190.4,-144.2203084875293 190.79999999999998,-148.16503056539798 191.2,-150.70425062323255 191.6,-152.02006628605628 192.0,-153.33553213558022 192.4,-154.65042037361158 192.79999999999998,-155.96450330198155 193.2,-157.27755336197686 193.6,-158.58934317374474 194.0,-159.89964557566887 194.4,-161.2082336637066 194.79999999999998,-162.51488083068136 195.2,-163.8193608055247 195.6,-165.12144769245901 196.0,-166.42091601011572 196.4,-167.71754073058202 196.8,-169.01109731836857 197.2,-170.30136176929219 197.6,-171.58811064926633 198.00000000000003,-172.87112113299312 198.39999999999998,-174.15017104254997 198.8,-175.42503888586393 199.2,-176.69550389506713 199.6,-177.96134606472663 200.0,-179.22234618994358 200.4,-180.47828590431175 200.8,-181.72894771773258 201.2,-182.9741150540775 201.6,-184.21357228869198 202.0,-185.4471047857354 202.4,-186.67449893534973 202.8,-187.89554219064914 203.2,-189.11002310452764 203.6,-190.31773136627484 204.0,-191.5184578379947 204.4,-192.71199459082283 204.8,-193.89813494093252 205.20000000000002,-195.07667348532652 205.6,-196.24740613740636 206.0,-197.41013016231364 206.4,-198.56464421203782 206.8,-199.7107483602834 207.20000000000002,-200.8482441370907 207.6,-201.97693456320525 208.0,-203.0966241841882 208.4,-204.20711910426306 208.8,-205.30822701989246 209.20000000000002,-206.39975725307923 209.60000000000002,-207.4815207843861 210.0,-208.55333028566804 210.4,-209.6150001525115 210.8,-210.66634653637522 211.20000000000002,-211.7071873764279 211.60000000000002,-212.73734243107455 212.0,-213.75663330916979 212.4,-214.76488350090895 212.8,-215.76191840839434 213.20000000000002,-216.74756537587027 213.60000000000002,-217.721653719622 214.0,-218.68401475753222 214.4,-219.63448183829232 214.8,-220.57289037026078 215.20000000000002,-221.4990778499657 215.60000000000002,-222.41288389024498 216.0,-223.314150248021 216.4,-224.202720851703 216.8,-225.07844182821404 217.20000000000002,-225.9411615296373 217.60000000000002,-226.79073055947623 218.00000000000003,-227.62700179852598 218.4,-228.44983043034978 218.8,-229.25907396635657 219.20000000000002,-230.05459227047584 219.60000000000002,-230.83624758342458 220.00000000000003,-231.6039045465633 220.4,-232.35743022533555 220.8,-233.0966941322886 221.20000000000002,-233.82156824966955 221.60000000000002,-234.53192705159415 222.00000000000003,-235.22764752578374 222.40000000000003,-235.9086091948677 222.8,-236.57469413724596 223.20000000000002,-237.2257870075098 223.60000000000002,-237.86177505641572 224.00000000000003,-238.48254815041042 224.40000000000003,-239.0879987907024 224.8,-239.67802213187753 225.2,-240.25251600005498 225.59999999999997,-240.8113809105807 225.99999999999997,-241.35452008525488 226.39999999999998,-241.88183946909132 226.79999999999998,-242.39324774660435 227.2,-242.88865635762224 227.59999999999997,-243.3679795126232 227.99999999999997,-243.83113420759108 228.39999999999998,-244.2780402383893 228.79999999999998,-244.70862021464993 229.2,-245.1227995731749 229.6,-245.52050659084847 229.99999999999997,-245.90167239705738 230.39999999999998,-246.26623098561674 230.79999999999998,-246.61411922620076 231.2,-246.94527687527483 231.6,-247.25964658652757 231.99999999999997,-247.55717392080183 232.39999999999998,-247.83780735552176 232.79999999999998,-248.10149829361475 233.2,-248.34820107192724 233.6,-248.57787296913182 234.0,-248.79047421312563 234.39999999999998,-248.98596798791752 234.79999999999998,-249.1643204400032 235.2,-249.32550068422793 235.6,-249.46948080913484 236.0,-249.59623588179826 236.39999999999998,-249.7057439521413 236.79999999999998,-249.79798605673702 237.2,-249.87294622209228 237.6,-249.93061146741385 238.0,-249.9709718068562 238.39999999999998,-249.994020251251 238.79999999999998,-249.99975280931704 239.2,-249.9881684883518 239.6,-249.9592692944031 240.0,-249.9130602319217 240.39999999999998,-249.84954930289487 240.79999999999998,-249.76874750546048 241.2,-249.67066883200272 241.6,-249.55533026672882 242.0,-249.42275178272791 242.4,-249.27295633851247 242.79999999999998,-249.10596987404256 243.2,-248.92182130623357 243.6,-248.72054252394906 244.0,-248.50216838247857 244.4,-248.26673669750141 244.79999999999998,-248.01428823853846 245.2,-247.744866721892 245.6,-247.45851880307558 246.0,-247.15529406873426 246.4,-246.83524502805858 246.8,-246.49842710369055 247.2,-246.1448986221269 247.6,-245.7747208036185 248.0,-245.38795775156882 248.4,-244.98467644143327 248.8,-244.56494670912113 249.2,-244.12884123890197 249.6,-243.67643555081935 250.0,-243.20780798761263 250.4,-242.72303970115047 250.8,-242.22221463837838 251.2,-241.70541952678084 251.6,-241.17274385936344 252.0,-240.6242798791552 252.4,-240.0601225632348 252.8,-239.48036960628372 253.2,-238.8851214036684 253.6,-238.27448103405465 254.0,-237.64855424155814 254.4,-237.00744941743235 254.8,-236.35127758129838 255.20000000000002,-235.6801523619203 255.6,-234.99418997752787 256.0,-234.2935092156908 256.4,-233.57823141274918 256.80000000000007,-232.84848043280087 257.2,-232.10438264625282 257.59999999999997,-231.3460669079371 258.0,-230.57366453479733 258.40000000000003,-229.78730928314886 258.8,-228.98713732551573 259.2,-228.1732872270506 259.6,-227.34589992153883 260.0,-226.50511868699354 260.40000000000003,-225.6510891208436 260.8,-224.7839591147219 261.2,-223.9038788288536 261.6,-223.01100066605366 262.0,-222.10547924533614 262.40000000000003,-221.18747137513728 262.8,-220.2571360261627 263.2,-219.31463430385736 263.6,-218.360129420508 264.0,-217.3937866669789 264.40000000000003,-216.41577338408996 264.80000000000007,-215.4262589336362 265.2,-214.42541466906226 265.59999999999997,-213.41341390578677 266.0,-212.3904318911909 266.40000000000003,-211.35664577427056 266.8,-210.31223457495958 267.2,-209.25737915312928 267.6,-208.1922621772681 268.0,-207.1170680928505 268.40000000000003,-206.0319830903954 268.8,-204.93719507322498 269.2,-203.83289362492434 269.6,-202.71926997651158 270.0,-201.59651697332427 270.40000000000003,-200.4648290416218 270.8,-199.324402154919 271.20000000000005,-198.17543380004838 271.6,-197.0181229429621 272.00000000000006,-195.85266999427628 272.40000000000003,-194.67927677456754 272.79999999999995,-193.49814647942216 273.20000000000005,-192.30948364425035 273.6,-191.11349410886635 274.0,-189.91038498184267 274.40000000000003,-188.70036460464712 274.8,-187.48364251556214 275.2,-186.26042941340134 275.59999999999997,-185.03093712102074 276.0,-183.79537854864043 276.4,-182.5539676569721 276.79999999999995,-181.30691942016975 277.20000000000005,-180.05444978860177 277.59999999999997,-178.7967756514555 277.99999999999994,-177.53411479917804 278.4,-176.26668588576217 278.79999999999995,-174.99470839088218 279.2,-173.71840258188678 279.59999999999997,-172.43798947565534 280.0,-171.15369080032434 280.4,-169.86572895689207 280.8,-168.5743269807038 281.2,-167.2797085028305 281.59999999999997,-165.98209771134225 282.0,-164.68171931248526 282.4,-163.3787984917707 282.8,-162.07356087497845 283.2,-160.76623248908646 283.59999999999997,-159.45703972312958 284.0,-158.14620928899592 284.40000000000003,-156.83396818216664 284.8,-155.52054364240922 285.19999999999993,-154.20616311442427 285.59999999999997,-152.89105420846028 286.0,-151.57544466089874 286.4,-150.25956229481665 286.8,-148.94363498053508 287.2,-147.627890596158 287.59999999999997,-146.31255698811253 288.0,-144.9978619316908 288.4,-143.68403309160894 288.8,-142.3712979825795 289.2,-141.05988392991597 289.59999999999997,-139.7500180301644 290.0,-138.4419271117787 290.4,-137.13583769584096 290.8,-135.83197595683444 291.2,-134.53056768347747 291.59999999999997,-133.23183823962324 292.0,-131.93601252523476 292.40000000000003,-130.64331493743762 292.8,-129.35396933166334 293.19999999999993,-128.0681989828824 293.6,-126.78622654694068 294.0,-125.50827402200365 294.4,-124.2345627101106 294.8,-122.96531317885405 295.2,-121.70074522318322 295.6,-120.44107782734275 296.00000000000006,-119.18652912695065 296.4,-117.93731637122508 296.79999999999995,-116.69365588536226 297.2,-115.45576303307656 297.6,-114.22385217930582 298.0,-112.99813665308919 298.4,-111.77882871062697 298.8,-110.56613949852198 299.2,-109.3602790172174 299.6,-108.16145608463023 300.0,-106.96987829999082 300.4,-105.78575200789265 300.8,-104.60928226255997 301.2,-103.44067279233919 301.6,-102.28012596441884 302.0,-101.1278427497862 302.4,-99.98402268842435 302.8,-98.84886385475993 303.20000000000005,-97.72256282336045 303.6,-96.60531463489544 303.99999999999994,-95.49731276236011 304.4,-94.39874907757289 304.8,-93.3098138179485 305.2,-92.23069555355444 305.6,-91.16158115445734 306.0,-90.10265575836165 306.4,-89.0541027385511 306.80000000000007,-88.01610367213193 307.2,-86.98883830859175 307.59999999999997,-85.97248453867036 308.0,-84.9672183635555 308.40000000000003,-83.97321386440515 308.8,-82.99064317220144 309.2,-82.01967643794332 309.6,-81.0604818031809 310.0,-80.11322537089967 310.40000000000003,-79.17807117675518 310.8,-78.25518116066881 311.2,-77.34471513878303 311.6,-76.44683077578696 312.0,-75.5616835576144 312.40000000000003,-74.68942676451695 312.8,-73.83021144452178 313.2,-72.98418638727424 313.6,-72.15149809827237 314.0,-71.33229077349607 314.40000000000003,-70.52670627443769 314.80000000000007,-69.73488410353495 315.2,-68.95696138001468 315.59999999999997,-68.19307281614665 316.0,-67.44335069391622 316.40000000000003,-66.70792484211766 316.8,-65.9869226138706 317.2,-65.28046886456748 317.6,-64.58868593025186 318.0,-63.91169360643384 318.40000000000003,-63.24960912734481 318.8,-62.60254714563668 319.2,-61.97061971252689 319.6,-61.35393625839518 320.0,-60.75260357383339 320.40000000000003,-60.16672579115221 320.8,-59.596404366349674 321.20000000000005,-59.04173806154088 321.6,-58.50282292785646 322.00000000000006,-57.97975228880872 322.40000000000003,-57.47261672413144 322.79999999999995,-56.98150405409406 323.20000000000005,-56.506499324293635 323.6,-56.047684790928066 324.0,-55.60513990655131 324.40000000000003,-55.1789413063153 324.8,-54.76916279469831 325.2,-54.37587533272515 325.59999999999997,-53.99914702567796 326.0,-53.63904311130335 326.4,-53.29562594851461 326.79999999999995,-52.968955006593454 327.20000000000005,-52.6590868548915 327.59999999999997,-52.36607515303456 327.99999999999994,-52.08997064162979 328.4,-51.83082113347976 328.79999999999995,-51.58867150530216 329.2,-51.36356368995881 329.59999999999997,-51.155536669194305 330.0,-50.964626466885015 330.4,-50.790866142801626 330.8,-50.63428578688353 331.2,-50.494912514028655 331.59999999999997,-50.372770459397685 332.0,-50.267880774234726 332.4,-50.18026162220464 332.8,-50.10992817624741 333.2,-50.05689261595097 333.59999999999997,-50.02116412544182 334.0,-50.002748891794724 334.40000000000003,-50.00165010396132 334.8,-50.017867952217806 335.19999999999993,-50.05139962813212 335.59999999999997,-50.10223932505011 336.0,-50.17037823910122 336.4,-50.25580457072297 336.8,-50.358503526704276 337.2,-50.47845732274719 337.59999999999997,-50.61564518654664 338.0,-50.77004336138745 338.4,-50.94162511025837 338.8,-51.13036072048212 339.2,-51.33621750886049 339.59999999999997,-51.55915982733441 340.0,-51.79914906915686 340.4,-52.056143675578404 340.8,-52.33009914304394 341.2,-52.620968030899164 341.59999999999997,-52.928699969606335 342.0,-53.25324166946592 342.40000000000003,-53.5945369298457 342.8,-53.952526648912006 343.19999999999993,-54.327148833864946 343.6,-54.71833861167383 344.0,-55.12602824031035 344.4,-55.55014712048037 344.8,-55.99062180784868 345.2,-56.44737602575818 345.6,-56.92033067843786 346.00000000000006,-57.409403864700145 346.4,-57.914510892123786 346.79999999999995,-58.43556429171955 347.2,-58.972473833077466 347.6,-59.52514653999204 348.0,-60.093486706562544 348.4,-60.67739591376646 348.8,-61.27677304650297 349.2,-61.891514311102384 349.6,-62.521513253300334 350.0,-63.166660776672586 350.4,-63.82684516152671 350.8,-64.50195208424871 351.2,-65.19186463710064 351.6,-65.89646334846488 352.0,-66.61562620353322 352.4,-67.34922866543647 352.8,-68.09714369680931 353.20000000000005,-68.85924178179076 353.6,-69.63539094845058 353.99999999999994,-70.42545679164478 354.4,-71.22930249628872 354.8,-72.04678886104962 355.2,-72.8777743224533 355.6,-73.72211497939627 356.0,-74.57966461806762 356.4,-75.45027473726624 356.80000000000007,-76.33379457411841 357.2,-77.23007113018441 357.59999999999997,-78.13894919795375 358.0,-79.06027138772205 358.40000000000003,-79.99387815484536 358.8,-80.93960782736991 359.2,-81.89729663402741 359.6,-82.86677873259565 360.0,-83.84788623861762 360.40000000000003,-84.84044925447326 360.8,-85.8442958988008 361.2,-86.85925233626172 361.6,-87.88514280764296 362.0,-88.92178966029327 362.40000000000003,-89.96901337888781 362.8,-91.02663261651355 363.2,-92.09446422607395 363.6,-93.17232329200328 364.0,-94.26002316229041 364.40000000000003,-95.35737548079811 364.80000000000007,-96.46419021988399 365.2,-97.58027571330423 365.59999999999997,-98.70543868940614 366.0,-99.83948430459733 366.40000000000003,-100.9822161770843 366.8,-102.13343642088248 367.2,-103.29294568008147 367.6,-104.46054316336962 368.0,-105.63602667880322 368.40000000000003,-106.81919266882052 368.8,-108.00983624549215 369.2,-109.20775122600043 369.6,-110.41273016834438 370.0,-111.62456440726267 370.40000000000003,-112.8430440903672 370.8,-114.06795821448351 371.20000000000005,-115.29909466219048 371.6,-116.53624023855153 372.00000000000006,-117.7791807080341 372.40000000000003,-119.0277008316089 372.79999999999995,-120.28158440402184 373.20000000000005,-121.54061429123462 373.6,-122.80457246802605 374.0,-124.07324005574648 374.40000000000003,-125.34639736022116 374.8,-126.62382390979539 375.2,-127.90529849351095 375.59999999999997,-129.19059919941725 376.0,-130.47950345299478 376.4,-131.77178805570156 376.79999999999995,-133.06722922362286 377.20000000000005,-134.36560262622456 377.59999999999997,-135.66668342519918 377.99999999999994,-136.97024631340153 378.4,-138.27606555386555 378.79999999999995,-139.58391501889383 379.2,-140.89356822921664 379.59999999999997,-142.2047983932115 380.0,-143.51737844617563 380.4,-144.83108108964706 380.8,-146.1456788307664 381.2,-147.4609440216696 381.59999999999997,-148.776648898912 382.0,-150.27769655146994 382.4,-154.22428131872394 382.8,-158.16428320656522 383.2,-162.0915623404522 383.59999999999997,-165.99999867226342 384.0,-169.8835015174212 384.40000000000003,-173.7360190462792 384.8,-177.5515477149382 385.19999999999993,-181.32414162083415 385.59999999999997,-185.047921768494 386.0,-188.71708523102066 386.4,-192.32591419305365 386.8,-195.86878486107727 387.2,-199.340176227227 387.59999999999997,-202.73467867291077 388.0,-206.04700239885088 388.4,-209.27198566840605 388.8,-212.4046028513276 389.2,-215.43997225541585 389.59999999999997,-218.37336373387055 390.0,-221.20020605648293 390.4,-223.91609403317997 390.8,-226.51679537882208 391.2,-228.9982573085549 391.59999999999997,-231.35661285343875 392.0,-233.58818688651235 392.40000000000003,-235.68950184990214 392.8,-237.6572831740484 393.19999999999993,-239.48846438061145 393.6,-241.1801918610934 394.0,-242.729829323741 394.4,-244.13496190179208 394.8,-245.3933999166656 395.2,-246.5031822902343 395.6,-247.46257960085404 396.00000000000006,-248.27009677839902 396.4,-248.92447543409136 396.79999999999995,-249.42469582150426 397.2,-249.7699784256761 397.6,-249.95978517786202 398.0,-249.9938202940298 398.4,-249.87203073579295 398.8,-249.59460629306247 399.2,-249.16197928828916 399.6,-248.57482390275715 400.0,-247.83405512597776" stroke="red" stroke-width="2.0"/><g><g><line fill="none" stroke="black" x1="-8.0" x2="408.0" y1="0.0" y2="0.0"/><polyline fill="black" points="408.0,-5.0 408.0,5.0 424.0,0.0" stroke="none"/><line fill="none" stroke="black" x1="31.83098861837907" x2="31.83098861837907" y1="-3.0" y2="3.0"/><line fill="none" stroke="black" x1="63.66197723675814" x2="63.66197723675814" y1="-3.0" y2="3.0"/><line fill="none" stroke="black" x1="95.4929658551372" x2="95.4929658551372" y1="-3.0" y2="3.0"/><line fill="none" stroke="black" x1="127.32395447351628" x2="127.32395447351628" y1="-3.0" y2="3.0"/><line fill="none" stroke="black" x1="159.15494309189535" x2="159.15494309189535" y1="-3.0" y2="3.0"/><line fill="none" stroke="black" x1="190.9859317102744" x2="190.9859317102744" y1="-3.0" y2="3.0"/><line fill="none" stroke="black" x1="222.8169203286535" x2="222.8169203286535" y1="-3.0" y2="3.0"/><line fill="none" stroke="black" x1="254.64790894703256" x2="254.64790894703256" y1="-3.0" y2="3.0"/><line fill="none" stroke="black" x1="286.4788975654116" x2="286.4788975654116" y1="-3.0" y2="3.0"/><line fill="none" stroke="black" x1="318.3098861837907" x2="318.3098861837907" y1="-3.0" y2="3.0"/><line fill="none" stroke="black" x1="350.1408748021698" x2="350.1408748021698" y1="-3.0" y2="3.0"/><line fill="none" stroke="black" x1="381.9718634205488" x2="381.9718634205488" y1="-3.0" y2="3.0"/><text dominant-baseline="middle" fill="black" stroke="none" text-anchor="middle" x="31.83098861837907" y="14.0">1</text><text dominant-baseline="middle" fill="black" stroke="none" text-anchor="middle" x="63.66197723675814" y="14.0">2</text><text dominant-baseline="middle" fill="black" stroke="none" text-anchor="middle" x="95.4929658551372" y="14.0">3</text><text dominant-baseline="middle" fill="black" stroke="none" text-anchor="middle" x="127.32395447351628" y="14.0">4</text><text dominant-baseline="middle" fill="black" stroke="none" text-anchor="middle" x="159.15494309189535" y="14.0">5</text><text dominant-baseline="middle" fill="black" stroke="none" text-anchor="middle" x="190.9859317102744" y="14.0">6</text><text dominant-baseline="middle" fill="black" stroke="none" text-anchor="middle" x="222.8169203286535" y="14.0">7</text><text dominant-baseline="middle" fill="black" stroke="none" text-anchor="middle" x="254.64790894703256" y="14.0">8</text><text dominant-baseline="middle" fill="black" stroke="none" text-anchor="middle" x="286.4788975654116" y="14.0">9</text><text dominant-baseline="middle" fill="black" stroke="none" text-anchor="middle" x="318.3098861837907" y="14.0">10</text><text dominant-baseline="middle" fill="black" stroke="none" text-anchor="middle" x="350.1408748021698" y="14.0">11</text><text dominant-baseline="middle" fill="black" stroke="none" text-anchor="middle" x="381.9718634205488" y="14.0">12</text></g><g><line fill="none" stroke="black" x1="0.0" x2="0.0" y1="8.0" y2="-308.0"/><polyline fill="black" points="-5.0,-308.0 5.0,-308.0 0.0,-324.0" stroke="none"/><line fill="none" stroke="black" x1="-3.0" x2="3.0" y1="-100.0" y2="-100.0"/><line fill="none" stroke="black" x1="-3.0" x2="3.0" y1="-200.0" y2="-200.0"/><line fill="none" stroke="black" x1="-3.0" x2="3.0" y1="-300.0" y2="-300.0"/><text dominant-baseline="middle" fill="black" stroke="none" text-anchor="middle" x="-10.0" y="-100.0">1</text><text dominant-baseline="middle" fill="black" stroke="none" text-anchor="middle" x="-10.0" y="-200.0">2</text><text dominant-baseline="middle" fill="black" stroke="none" text-anchor="middle" x="-10.0" y="-300.0">3</text></g><text dominant-baseline="middle" fill="black" stroke="none" text-anchor="middle" x="-10.0" y="14.0">0</text></g></g></svg>