<svg xmlns="http://www.w3.org/2000/svg" height="380.0" width="480.0"><g transform="translate(40.0, 340.0)"><polyline fill="none" points="0.0,-150.0 0.4,-151.25660398833529 0.8,-152.51300954433376 1.2,-153.76901826699347 1.6,-155.02443181797696 2.0,-156.27905195293135 2.4,-157.53268055279327 2.8000000000000003,-158.7851196550743 3.2,-160.03617148512146 3.5999999999999996,-161.28563848734814 4.0,-162.53332335643043 4.3999999999999995,-163.7790290684638 4.8,-165.0225589120757 5.2,-166.26371651948836 5.6000000000000005,-167.50230589752763 6.0,-168.73813145857244 6.4,-169.9709980514407 6.800000000000001,-171.20071099220547 7.199999999999999,-172.4270760949381 7.6,-173.64989970237247 8.0,-174.8689887164855 8.4,-176.0841506289897 8.799999999999999,-177.2951935517325 9.2,-178.5019262469976 9.6,-179.7041581577035 10.0,-180.90169943749476 10.4,-182.09436098072095 10.8,-183.28195445229866 11.200000000000001,-184.4642923174517 11.600000000000001,-185.6411878713251 12.0,-186.81245526846777 12.399999999999999,-187.9779095521801 12.8,-189.13736668372024 13.200000000000001,-190.29064357136625 13.600000000000001,-191.43755809932838 14.000000000000002,-192.57792915650725 14.399999999999999,-193.7115766650933 14.799999999999999,-194.83832160900323 15.2,-195.9579860621488 15.6,-197.07039321653323 16.0,-198.1753674101715 16.400000000000002,-199.27273415482915 16.8,-200.36232016357607 17.2,-201.44395337815064 17.599999999999998,-202.51746299612952 18.0,-203.58267949789965 18.4,-204.63943467342693 18.8,-205.6875616488188 19.2,-206.72689491267565 19.6,-207.75727034222675 20.0,-208.77852522924735 20.4,-209.79049830575187 20.8,-210.79302976946056 21.2,-211.78596130903344 21.6,-212.76913612907006 22.0,-213.74239897486896 22.400000000000002,-214.70559615694444 22.800000000000004,-215.65857557529563 23.200000000000003,-216.60118674342516 23.599999999999998,-217.53328081210245 24.0,-218.45471059286885 24.4,-219.36533058128046 24.799999999999997,-220.26499697988493 25.2,-221.15356772092855 25.6,-222.03090248879073 26.0,-222.89686274214117 26.400000000000002,-223.75131173581738 26.8,-224.59411454241823 27.200000000000003,-225.4251380736104 27.6,-226.2442511011448 28.000000000000004,-227.0513242775789 28.4,-227.84623015670232 28.799999999999997,-228.62884321366187 29.2,-229.3990398647835 29.599999999999998,-230.15669848708768 30.0,-230.90169943749476 30.4,-231.6339250717184 30.8,-232.35325976284275 31.2,-233.05958991958124 31.6,-233.7528040042142 32.0,-234.43279255020155 32.4,-235.0994481794692 32.800000000000004,-235.75266561936522 33.199999999999996,-236.39234171928354 33.6,-237.0183754669526 34.00000000000001,-237.63066800438634 34.4,-238.2291226434953 34.8,-238.81364488135443 35.199999999999996,-239.38414241512638 35.6,-239.9405251566371 36.0,-240.48270524660197 36.4,-241.01059706849958 36.8,-241.52411726209175 37.2,-242.023184736587 37.6,-242.5077206834458 37.99999999999999,-242.97764858882513 38.4,-243.4328942456612 38.800000000000004,-243.8733857653874 39.2,-244.29905358928644 39.6,-244.70983049947444 40.0,-245.10565162951536 40.400000000000006,-245.48645447466433 40.8,-245.8521789017376 41.199999999999996,-246.2027671586086 41.6,-246.53816388332743 42.0,-246.8583161128631 42.4,-247.16317329146742 42.800000000000004,-247.45268727865772 43.2,-247.72681235681935 43.6,-247.9855052384247 44.0,-248.22872507286888 44.4,-248.45643345292055 44.800000000000004,-248.6685944207868 45.2,-248.86517447379137 45.60000000000001,-249.0461425696651 46.0,-249.2114701314478 46.400000000000006,-249.36113105200084 46.800000000000004,-249.49510169813001 47.199999999999996,-249.61336091431727 47.6,-249.7158900260614 48.0,-249.80267284282718 48.4,-249.87369566060178 48.8,-249.9289472640589 49.2,-249.96841892832998 49.599999999999994,-249.99210442038162 50.0,-250.0 50.4,-249.99210442038162 50.8,-249.96841892832998 51.2,-249.9289472640589 51.6,-249.87369566060178 52.0,-249.80267284282718 52.400000000000006,-249.7158900260614 52.800000000000004,-249.61336091431727 53.2,-249.49510169813001 53.6,-249.36113105200084 54.0,-249.21147013144775 54.400000000000006,-249.0461425696651 54.800000000000004,-248.86517447379137 55.2,-248.6685944207868 55.60000000000001,-248.45643345292055 56.00000000000001,-248.22872507286888 56.39999999999999,-247.9855052384247 56.8,-247.72681235681935 57.199999999999996,-247.45268727865772 57.599999999999994,-247.16317329146742 57.99999999999999,-246.8583161128631 58.4,-246.53816388332743 58.8,-246.2027671586086 59.199999999999996,-245.8521789017376 59.599999999999994,-245.48645447466433 60.0,-245.10565162951536 60.4,-244.70983049947444 60.8,-244.29905358928644 61.199999999999996,-243.8733857653874 61.6,-243.4328942456612 62.0,-242.97764858882513 62.4,-242.5077206834458 62.8,-242.023184736587 63.2,-241.52411726209175 63.6,-241.01059706849958 64.0,-240.48270524660197 64.39999999999999,-239.9405251566371 64.8,-239.3841424151264 65.2,-238.8136448813545 65.60000000000001,-238.22912264349532 66.0,-237.63066800438634 66.39999999999999,-237.0183754669526 66.8,-236.39234171928356 67.2,-235.75266561936522 67.60000000000001,-235.0994481794692 68.00000000000001,-234.43279255020147 68.4,-233.7528040042142 68.8,-233.05958991958124 69.19999999999999,-232.35325976284278 69.6,-231.6339250717184 70.0,-230.90169943749476 70.39999999999999,-230.15669848708768 70.8,-229.39903986478356 71.2,-228.62884321366187 71.6,-227.84623015670235 72.0,-227.0513242775789 72.39999999999999,-226.24425110114484 72.8,-225.4251380736104 73.2,-224.59411454241823 73.6,-223.75131173581738 74.00000000000001,-222.89686274214114 74.4,-222.03090248879073 74.8,-221.15356772092855 75.2,-220.26499697988493 75.6,-219.36533058128046 75.99999999999999,-218.45471059286885 76.4,-217.53328081210245 76.8,-216.60118674342516 77.2,-215.65857557529563 77.60000000000001,-214.70559615694444 78.0,-213.74239897486896 78.4,-212.76913612907006 78.8,-211.78596130903344 79.2,-210.79302976946056 79.60000000000001,-209.79049830575187 80.0,-208.77852522924735 80.4,-207.75727034222675 80.80000000000001,-206.72689491267562 81.2,-205.6875616488188 81.6,-204.63943467342693 81.99999999999999,-203.58267949789968 82.39999999999999,-202.51746299612964 82.8,-201.44395337815064 83.2,-200.36232016357607 83.60000000000001,-199.27273415482915 84.0,-198.1753674101716 84.39999999999999,-197.0703932165333 84.8,-195.95798606214882 85.2,-194.83832160900323 85.60000000000001,-193.7115766650933 86.0,-192.57792915650728 86.4,-191.43755809932844 86.8,-190.29064357136625 87.2,-189.13736668372022 87.6,-187.97790955218014 88.0,-186.8124552684678 88.4,-185.6411878713251 88.8,-184.4642923174517 89.20000000000002,-183.28195445229863 89.60000000000001,-182.09436098072098 90.0,-180.90169943749476 90.4,-179.7041581577035 90.8,-178.5019262469976 91.20000000000002,-177.2951935517325 91.60000000000001,-176.0841506289897 92.0,-174.8689887164855 92.4,-173.64989970237247 92.80000000000001,-172.4270760949381 93.19999999999999,-171.20071099220547 93.60000000000001,-169.97099805144072 94.0,-168.73813145857252 94.39999999999999,-167.50230589752763 94.8,-166.26371651948836 95.2,-165.0225589120757 95.6,-163.77902906846384 96.0,-162.53332335643043 96.39999999999999,-161.2856384873482 96.8,-160.0361714851215 97.2,-158.7851196550743 97.6,-157.5326805527933 98.0,-156.27905195293135 98.4,-155.02443181797696 98.8,-153.76901826699347 99.19999999999999,-152.51300954433376 99.6,-151.25660398833529 100.0,-150.00000000000003 100.4,-148.74339601166474 100.8,-147.48699045566624 101.2,-146.23098173300656 101.6,-144.97556818202307 102.0,-143.72094804706867 102.4,-142.4673194472067 102.8,-141.2148803449257 103.2,-139.96382851487851 103.60000000000001,-138.71436151265183 104.0,-137.46667664356957 104.4,-136.2209709315362 104.80000000000001,-134.9774410879243 105.2,-133.73628348051164 105.60000000000001,-132.4976941024724 106.0,-131.26186854142753 106.4,-130.02900194855926 106.80000000000001,-128.79928900779456 107.2,-127.57292390506187 107.60000000000001,-126.35010029762752 108.0,-125.13101128351448 108.4,-123.91584937101031 108.80000000000001,-122.70480644826746 109.2,-121.49807375300239 109.60000000000001,-120.2958418422965 110.00000000000001,-119.09830056250523 110.4,-117.90563901927906 110.80000000000001,-116.71804554770134 111.20000000000002,-115.53570768254828 111.60000000000001,-114.35881212867488 112.00000000000001,-113.18754473153217 112.4,-112.02209044781988 112.79999999999998,-110.8626333162798 113.19999999999999,-109.7093564286338 113.6,-108.56244190067163 113.99999999999999,-107.42207084349278 114.39999999999999,-106.28842333490674 114.8,-105.16167839099684 115.19999999999999,-104.04201393785127 115.6,-102.92960678346678 115.99999999999999,-101.82463258982851 116.39999999999999,-100.72726584517088 116.8,-99.63767983642397 117.19999999999999,-98.55604662184939 117.6,-97.48253700387046 118.0,-96.41732050210037 118.39999999999999,-95.3605653265731 118.8,-94.31243835118124 119.19999999999999,-93.27310508732438 119.6,-92.24272965777327 120.0,-91.22147477075269 120.39999999999999,-90.20950169424815 120.8,-89.2069702305395 121.2,-88.21403869096659 121.6,-87.23086387092997 122.0,-86.25760102513104 122.39999999999999,-85.2944038430556 122.8,-84.34142442470437 123.2,-83.39881325657485 123.6,-82.46671918789757 124.0,-81.54528940713112 124.4,-80.63466941871953 124.8,-79.73500302011509 125.2,-78.84643227907146 125.6,-77.96909751120931 126.0,-77.10313725785886 126.4,-76.24868826418263 126.8,-75.40588545758179 127.2,-74.57486192638963 127.60000000000001,-73.7557488988552 128.0,-72.94867572242106 128.40000000000003,-72.15376984329764 128.79999999999998,-71.37115678633815 129.20000000000002,-70.60096013521648 129.6,-69.84330151291236 130.0,-69.09830056250526 130.4,-68.3660749282816 130.8,-67.64674023715726 131.20000000000002,-66.94041008041873 131.6,-66.24719599578582 132.0,-65.56720744979847 132.40000000000003,-64.9005518205308 132.79999999999998,-64.24733438063478 133.20000000000002,-63.60765828071648 133.6,-62.981624533047444 134.0,-62.36933199561364 134.4,-61.77087735650466 134.8,-61.186355118645544 135.20000000000002,-60.61585758487361 135.60000000000002,-60.05947484336288 136.00000000000003,-59.51729475339802 136.39999999999998,-58.98940293150045 136.8,-58.47588273790825 137.20000000000002,-57.97681526341296 137.6,-57.49227931655423 138.0,-57.02235141117489 138.39999999999998,-56.567105754338826 138.79999999999998,-56.1266142346126 139.2,-55.70094641071357 139.6,-55.29016950052558 140.0,-54.89434837048464 140.4,-54.51354552533571 140.79999999999998,-54.14782109826243 141.2,-53.79723284139143 141.6,-53.461836116672636 142.0,-53.14168388713691 142.4,-52.83682670853261 142.79999999999998,-52.54731272134229 143.2,-52.27318764318066 143.6,-52.014494761575314 144.0,-51.77127492713113 144.4,-51.54356654707946 144.79999999999998,-51.331405579213204 145.2,-51.13482552620861 145.6,-50.95385743033488 146.0,-50.788529868552224 146.4,-50.63886894799916 146.8,-50.504898301869986 147.2,-50.38663908568275 147.6,-50.284109973938605 148.00000000000003,-50.19732715717284 148.39999999999998,-50.12630433939825 148.8,-50.07105273594107 149.2,-50.031581071670004 149.6,-50.00789557961839 150.0,-50.0 150.4,-50.00789557961839 150.8,-50.031581071670004 151.2,-50.07105273594107 151.60000000000002,-50.12630433939825 151.99999999999997,-50.19732715717284 152.4,-50.284109973938605 152.8,-50.38663908568275 153.2,-50.504898301869986 153.6,-50.63886894799916 154.0,-50.78852986855222 154.4,-50.95385743033488 154.8,-51.13482552620861 155.20000000000002,-51.3314055792132 155.6,-51.54356654707946 156.0,-51.77127492713113 156.4,-52.014494761575314 156.8,-52.27318764318065 157.20000000000002,-52.54731272134229 157.6,-52.836826708532605 158.0,-53.14168388713689 158.4,-53.46183611667262 158.8,-53.79723284139142 159.20000000000002,-54.147821098262426 159.6,-54.513545525335694 160.0,-54.894348370484636 160.4,-55.290169500525565 160.8,-55.700946410713556 161.20000000000002,-56.126614234612596 161.60000000000002,-56.567105754338805 162.0,-57.02235141117488 162.4,-57.4922793165542 162.79999999999998,-57.97681526341295 163.2,-58.475882737908236 163.60000000000002,-58.98940293150042 163.99999999999997,-59.51729475339801 164.39999999999998,-60.059474843362864 164.79999999999998,-60.615857584873595 165.2,-61.18635511864552 165.6,-61.77087735650465 166.0,-62.36933199561362 166.4,-62.981624533047416 166.79999999999998,-63.607658280716464 167.20000000000002,-64.24733438063477 167.59999999999997,-64.90055182053078 168.0,-65.56720744979845 168.4,-66.24719599578579 168.79999999999998,-66.94041008041872 169.2,-67.64674023715723 169.6,-68.36607492828158 170.0,-69.09830056250524 170.4,-69.84330151291233 170.79999999999998,-70.60096013521645 171.20000000000002,-71.37115678633812 171.59999999999997,-72.15376984329762 172.0,-72.94867572242104 172.4,-73.75574889885519 172.8,-74.5748619263896 173.2,-75.40588545758176 173.6,-76.24868826418259 174.0,-77.10313725785885 174.4,-77.96909751120933 174.8,-78.84643227907146 175.2,-79.73500302011503 175.6,-80.63466941871947 176.0,-81.54528940713111 176.4,-82.46671918789754 176.8,-83.39881325657483 177.2,-84.34142442470434 177.6,-85.29440384305558 178.0,-86.25760102513104 178.40000000000003,-87.23086387092998 178.79999999999998,-88.21403869096652 179.20000000000002,-89.20697023053944 179.6,-90.20950169424808 180.0,-91.22147477075266 180.4,-92.24272965777322 180.8,-93.27310508732435 181.20000000000002,-94.3124383511812 181.6,-95.36056532657311 182.0,-96.41732050210037 182.40000000000003,-97.48253700387046 182.79999999999998,-98.55604662184932 183.20000000000002,-99.6376798364239 183.6,-100.72726584517082 184.0,-101.82463258982847 184.4,-102.92960678346674 184.8,-104.04201393785124 185.20000000000002,-105.1616783909968 185.60000000000002,-106.28842333490675 186.00000000000003,-107.42207084349278 186.39999999999998,-108.56244190067157 186.8,-109.70935642863371 187.20000000000002,-110.86263331627974 187.6,-112.02209044781982 188.0,-113.18754473153211 188.39999999999998,-114.35881212867487 188.79999999999998,-115.53570768254825 189.2,-116.71804554770128 189.6,-117.90563901927901 190.0,-119.09830056250523 190.4,-120.2958418422965 190.79999999999998,-121.4980737530023 191.2,-122.7048064482674 191.6,-123.91584937101024 192.0,-125.13101128351447 192.4,-126.35010029762748 192.79999999999998,-127.57292390506186 193.2,-128.7992890077945 193.6,-130.02900194855928 194.0,-131.26186854142753 194.4,-132.4976941024724 194.79999999999998,-133.73628348051156 195.2,-134.97744108792423 195.6,-136.22097093153613 196.0,-137.46667664356954 196.4,-138.7143615126518 196.8,-139.9638285148785 197.2,-141.21488034492566 197.6,-142.4673194472067 198.00000000000003,-143.72094804706867 198.39999999999998,-144.97556818202295 198.8,-146.2309817330065 199.2,-147.4869904556662 199.6,-148.74339601166471 200.0,-149.99999999999997 200.4,-151.25660398833526 200.8,-152.51300954433376 201.2,-153.76901826699347 201.6,-155.024431817977 202.0,-156.2790519529313 202.4,-157.5326805527932 202.8,-158.78511965507428 203.2,-160.03617148512146 203.6,-161.28563848734814 204.0,-162.53332335643043 204.4,-163.7790290684638 204.8,-165.0225589120757 205.20000000000002,-166.2637165194884 205.6,-167.50230589752755 206.0,-168.7381314585724 206.4,-169.97099805144066 206.8,-171.20071099220544 207.20000000000002,-172.4270760949381 207.6,-173.64989970237247 208.0,-174.8689887164855 208.4,-176.08415062898973 208.8,-177.29519355173255 209.20000000000002,-178.50192624699767 209.60000000000002,-179.70415815770346 210.0,-180.90169943749473 210.4,-182.09436098072095 210.8,-183.28195445229866 211.20000000000002,-184.4642923174517 211.60000000000002,-185.6411878713251 212.0,-186.8124552684678 212.4,-187.97790955218014 212.8,-189.13736668372027 213.20000000000002,-190.29064357136625 213.60000000000002,-191.43755809932838 214.0,-192.57792915650725 214.4,-193.7115766650933 214.8,-194.83832160900323 215.20000000000002,-195.95798606214882 215.60000000000002,-197.0703932165333 216.0,-198.1753674101716 216.4,-199.2727341548292 216.8,-200.36232016357607 217.20000000000002,-201.44395337815064 217.60000000000002,-202.51746299612958 218.00000000000003,-203.58267949789965 218.4,-204.63943467342693 218.8,-205.68756164881881 219.20000000000002,-206.72689491267573 219.60000000000002,-207.75727034222678 220.00000000000003,-208.77852522924735 220.4,-209.79049830575198 220.8,-210.79302976946056 221.20000000000002,-211.78596130903344 221.60000000000002,-212.76913612907006 222.00000000000003,-213.74239897486902 222.40000000000003,-214.70559615694444 222.8,-215.65857557529569 223.20000000000002,-216.60118674342522 223.60000000000002,-217.53328081210248 224.00000000000003,-218.45471059286893 224.40000000000003,-219.36533058128046 224.8,-220.26499697988493 225.2,-221.1535677209285 225.59999999999997,-222.03090248879062 225.99999999999997,-222.89686274214102 226.39999999999998,-223.75131173581727 226.79999999999998,-224.5941145424181 227.2,-225.4251380736103 227.59999999999997,-226.24425110114473 227.99999999999997,-227.05132427757886 228.39999999999998,-227.84623015670232 228.79999999999998,-228.62884321366184 229.2,-229.3990398647835 229.6,-230.15669848708757 229.99999999999997,-230.90169943749464 230.39999999999998,-231.63392507171832 230.79999999999998,-232.35325976284267 231.2,-233.0595899195812 231.6,-233.75280400421414 231.99999999999997,-234.43279255020147 232.39999999999998,-235.0994481794692 232.79999999999998,-235.75266561936522 233.2,-236.39234171928354 233.6,-237.01837546695248 234.0,-237.6306680043863 234.39999999999998,-238.2291226434953 234.79999999999998,-238.81364488135438 235.2,-239.38414241512638 235.6,-239.94052515663705 236.0,-240.48270524660194 236.39999999999998,-241.01059706849958 236.79999999999998,-241.52411726209175 237.2,-242.023184736587 237.6,-242.5077206834458 238.0,-242.97764858882508 238.39999999999998,-243.43289424566117 238.79999999999998,-243.87338576538738 239.2,-244.29905358928644 239.6,-244.7098304994744 240.0,-245.10565162951536 240.39999999999998,-245.48645447466433 240.79999999999998,-245.85217890173757 241.2,-246.20276715860854 241.6,-246.53816388332734 242.0,-246.8583161128631 242.4,-247.1631732914674 242.79999999999998,-247.45268727865772 243.2,-247.72681235681935 243.6,-247.9855052384247 244.0,-248.22872507286888 244.4,-248.45643345292055 244.79999999999998,-248.6685944207868 245.2,-248.86517447379137 245.6,-249.0461425696651 246.0,-249.21147013144775 246.4,-249.36113105200084 246.8,-249.49510169813001 247.2,-249.61336091431727 247.6,-249.7158900260614 248.0,-249.80267284282718 248.4,-249.87369566060178 248.8,-249.9289472640589 249.2,-249.96841892832998 249.6,-249.99210442038162 250.0,-250.0 250.4,-249.99210442038162 250.8,-249.96841892832998 251.2,-249.9289472640589 251.6,-249.87369566060178 252.0,-249.80267284282718 252.4,-249.7158900260614 252.8,-249.61336091431727 253.2,-249.49510169813001 253.6,-249.36113105200084 254.0,-249.2114701314478 254.4,-249.0461425696651 254.8,-248.86517447379137 255.20000000000002,-248.6685944207868 255.6,-248.45643345292055 256.0,-248.22872507286888 256.4,-247.9855052384247 256.80000000000007,-247.72681235681935 257.2,-247.45268727865772 257.59999999999997,-247.16317329146742 258.0,-246.8583161128631 258.40000000000003,-246.53816388332743 258.8,-246.2027671586086 259.2,-245.8521789017376 259.6,-245.48645447466433 260.0,-245.10565162951536 260.40000000000003,-244.7098304994744 260.8,-244.29905358928644 261.2,-243.8733857653874 261.6,-243.4328942456612 262.0,-242.9776485888252 262.40000000000003,-242.5077206834458 262.8,-242.02318473658707 263.2,-241.52411726209175 263.6,-241.01059706849958 264.0,-240.48270524660194 264.40000000000003,-239.9405251566371 264.80000000000007,-239.38414241512638 265.2,-238.81364488135443 265.59999999999997,-238.2291226434954 266.0,-237.63066800438634 266.40000000000003,-237.0183754669526 266.8,-236.39234171928354 267.2,-235.75266561936522 267.6,-235.0994481794691 268.0,-234.43279255020155 268.40000000000003,-233.75280400421408 268.8,-233.05958991958124 269.2,-232.35325976284278 269.6,-231.63392507171835 270.0,-230.90169943749476 270.40000000000003,-230.1566984870876 270.8,-229.39903986478356 271.20000000000005,-228.62884321366184 271.6,-227.84623015670232 272.00000000000006,-227.05132427757886 272.40000000000003,-226.24425110114473 272.79999999999995,-225.4251380736104 273.20000000000005,-224.5941145424182 273.6,-223.7513117358174 274.0,-222.8968627421411 274.40000000000003,-222.03090248879073 274.8,-221.1535677209285 275.2,-220.26499697988504 275.59999999999997,-219.36533058128057 276.0,-218.45471059286896 276.4,-217.53328081210248 276.79999999999995,-216.60118674342525 277.20000000000005,-215.65857557529569 277.59999999999997,-214.70559615694455 277.99999999999994,-213.7423989748691 278.4,-212.7691361290701 278.79999999999995,-211.78596130903355 279.2,-210.7930297694606 279.59999999999997,-209.790498305752 280.0,-208.77852522924735 280.4,-207.75727034222686 280.8,-206.72689491267565 281.2,-205.68756164881887 281.59999999999997,-204.63943467342705 282.0,-203.58267949789976 282.4,-202.51746299612972 282.8,-201.44395337815067 283.2,-200.36232016357621 283.59999999999997,-199.27273415482918 284.0,-198.17536741017162 284.40000000000003,-197.07039321653323 284.8,-195.95798606214885 285.19999999999993,-194.83832160900337 285.59999999999997,-193.71157666509336 286.0,-192.5779291565074 286.4,-191.43755809932847 286.8,-190.2906435713664 287.2,-189.13736668372024 287.59999999999997,-187.9779095521802 288.0,-186.81245526846777 288.4,-185.64118787132514 288.8,-184.46429231745168 289.2,-183.2819544522987 289.59999999999997,-182.09436098072106 290.0,-180.90169943749478 290.4,-179.70415815770357 290.8,-178.50192624699764 291.2,-177.29519355173264 291.59999999999997,-176.08415062898968 292.0,-174.86898871648557 292.40000000000003,-173.64989970237244 292.8,-172.42707609493817 293.19999999999993,-171.20071099220561 293.6,-169.97099805144072 294.0,-168.73813145857258 294.4,-167.50230589752763 294.8,-166.26371651948844 295.2,-165.02255891207568 295.6,-163.77902906846387 296.00000000000006,-162.53332335643037 296.4,-161.28563848734822 296.79999999999995,-160.0361714851216 297.2,-158.78511965507434 297.6,-157.53268055279338 298.0,-156.27905195293135 298.4,-155.02443181797702 298.8,-153.76901826699344 299.2,-152.5130095443338 299.6,-151.2566039883352 300.0,-150.00000000000003 300.4,-148.74339601166486 300.8,-147.48699045566627 301.2,-146.23098173300664 301.6,-144.97556818202304 302.0,-143.72094804706873 302.4,-142.4673194472067 302.8,-141.21488034492575 303.20000000000005,-139.96382851487846 303.6,-138.71436151265186 303.99999999999994,-137.46667664356968 304.4,-136.22097093153621 304.8,-134.97744108792438 305.2,-133.73628348051164 305.6,-132.49769410247245 306.0,-131.2618685414275 306.4,-130.02900194855937 306.80000000000007,-128.79928900779447 307.2,-127.57292390506188 307.59999999999997,-126.35010029762762 308.0,-125.13101128351452 308.40000000000003,-123.91584937101038 308.8,-122.70480644826746 309.2,-121.49807375300243 309.6,-120.29584184229647 310.0,-119.09830056250529 310.40000000000003,-117.905639019279 310.8,-116.71804554770135 311.2,-115.53570768254838 311.6,-114.35881212867494 312.0,-113.18754473153227 312.40000000000003,-112.02209044781988 312.8,-110.86263331627981 313.2,-109.7093564286337 313.6,-108.56244190067162 314.0,-107.42207084349266 314.40000000000003,-106.28842333490672 314.80000000000007,-105.16167839099667 315.2,-104.04201393785121 315.59999999999997,-102.92960678346681 316.0,-101.82463258982844 316.40000000000003,-100.72726584517089 316.8,-99.63767983642387 317.2,-98.55604662184938 317.6,-97.48253700387036 318.0,-96.41732050210035 318.40000000000003,-95.36056532657301 318.8,-94.31243835118119 319.2,-93.2731050873244 319.6,-92.2427296577732 320.0,-91.22147477075272 320.40000000000003,-90.20950169424806 320.8,-89.20697023053947 321.20000000000005,-88.2140386909665 321.6,-87.23086387092997 322.00000000000006,-86.25760102513095 322.40000000000003,-85.29440384305556 322.79999999999995,-84.34142442470439 323.20000000000005,-83.3988132565748 323.6,-82.46671918789758 324.0,-81.5452894071311 324.40000000000003,-80.63466941871951 324.8,-79.73500302011502 325.2,-78.84643227907159 325.59999999999997,-77.96909751120936 326.0,-77.10313725785895 326.4,-76.24868826418265 326.79999999999995,-75.40588545758186 327.20000000000005,-74.57486192638963 327.59999999999997,-73.75574889885527 327.99999999999994,-72.9486757224212 328.4,-72.15376984329771 328.79999999999995,-71.3711567863382 329.2,-70.60096013521651 329.59999999999997,-69.84330151291243 330.0,-69.09830056250529 330.4,-68.36607492828168 330.8,-67.64674023715726 331.2,-66.94041008041879 331.59999999999997,-66.24719599578592 332.0,-65.56720744979853 332.4,-64.9005518205309 332.8,-64.24733438063481 333.2,-63.60765828071654 333.59999999999997,-62.98162453304745 334.0,-62.36933199561369 334.40000000000003,-61.77087735650468 334.8,-61.18635511864559 335.19999999999993,-60.6158575848737 335.59999999999997,-60.05947484336293 336.0,-59.51729475339811 336.4,-58.98940293150046 336.8,-58.47588273790829 337.2,-57.97681526341297 337.59999999999997,-57.49227931655424 338.0,-57.02235141117486 338.4,-56.56710575433883 338.8,-56.12661423461258 339.2,-55.70094641071357 339.59999999999997,-55.29016950052562 340.0,-54.894348370484664 340.4,-54.51354552533574 340.8,-54.14782109826242 341.2,-53.79723284139144 341.59999999999997,-53.461836116672615 342.0,-53.14168388713691 342.40000000000003,-52.836826708532605 342.8,-52.5473127213423 343.19999999999993,-52.273187643180684 343.6,-52.01449476157533 344.0,-51.77127492713115 344.4,-51.543566547079465 344.8,-51.331405579213204 345.2,-51.134825526208594 345.6,-50.95385743033489 346.00000000000006,-50.78852986855222 346.4,-50.63886894799916 346.79999999999995,-50.50489830186999 347.2,-50.38663908568276 347.6,-50.28410997393861 348.0,-50.19732715717284 348.4,-50.12630433939825 348.8,-50.07105273594107 349.2,-50.031581071670004 349.6,-50.00789557961839 350.0,-50.0 350.4,-50.00789557961839 350.8,-50.031581071670004 351.2,-50.071052735941066 351.6,-50.12630433939825 352.0,-50.19732715717284 352.4,-50.284109973938605 352.8,-50.38663908568275 353.20000000000005,-50.50489830186999 353.6,-50.63886894799916 353.99999999999994,-50.788529868552196 354.4,-50.95385743033488 354.8,-51.13482552620858 355.2,-51.3314055792132 355.6,-51.54356654707945 356.0,-51.77127492713114 356.4,-52.0144947615753 356.80000000000007,-52.27318764318066 357.2,-52.54731272134228 357.59999999999997,-52.836826708532584 358.0,-53.14168388713688 358.40000000000003,-53.461836116672586 358.8,-53.79723284139142 359.2,-54.1478210982624 359.6,-54.513545525335715 360.0,-54.89434837048463 360.40000000000003,-55.290169500525586 360.8,-55.70094641071355 361.2,-56.12661423461256 361.6,-56.5671057543388 362.0,-57.02235141117483 362.40000000000003,-57.4922793165542 362.8,-57.97681526341294 363.2,-58.47588273790826 363.6,-58.989402931500415 364.0,-59.517294753398076 364.40000000000003,-60.05947484336289 364.80000000000007,-60.61585758487366 365.2,-61.18635511864555 365.59999999999997,-61.77087735650464 366.0,-62.36933199561365 366.40000000000003,-62.98162453304741 366.8,-63.6076582807165 367.2,-64.24733438063475 367.6,-64.90055182053085 368.0,-65.56720744979849 368.40000000000003,-66.24719599578587 368.8,-66.94041008041874 369.2,-67.64674023715722 369.6,-68.36607492828162 370.0,-69.09830056250523 370.40000000000003,-69.84330151291236 370.8,-70.60096013521645 371.20000000000005,-71.37115678633815 371.6,-72.15376984329765 372.00000000000006,-72.94867572242114 372.40000000000003,-73.75574889885523 372.79999999999995,-74.57486192638957 373.20000000000005,-75.40588545758182 373.6,-76.24868826418258 374.0,-77.10313725785889 374.40000000000003,-77.96909751120928 374.8,-78.84643227907152 375.2,-79.73500302011496 375.59999999999997,-80.63466941871944 376.0,-81.54528940713102 376.4,-82.46671918789752 376.79999999999995,-83.39881325657474 377.20000000000005,-84.34142442470434 377.59999999999997,-85.29440384305549 377.99999999999994,-86.25760102513088 378.4,-87.2308638709299 378.79999999999995,-88.21403869096643 379.2,-89.2069702305394 379.59999999999997,-90.20950169424799 380.0,-91.22147477075265 380.4,-92.24272965777313 380.8,-93.27310508732432 381.2,-94.31243835118111 381.59999999999997,-95.36056532657294 382.0,-96.41732050210027 382.4,-97.48253700387029 382.8,-98.5560466218493 383.2,-99.6376798364238 383.59999999999997,-100.72726584517082 384.0,-101.82463258982837 384.40000000000003,-102.92960678346672 384.8,-104.04201393785114 385.19999999999993,-105.16167839099661 385.59999999999997,-106.28842333490665 386.0,-107.42207084349259 386.4,-108.56244190067152 386.8,-109.70935642863363 387.2,-110.86263331627973 387.59999999999997,-112.02209044781978 388.0,-113.18754473153218 388.4,-114.35881212867484 388.8,-115.5357076825483 389.2,-116.71804554770127 389.59999999999997,-117.90563901927891 390.0,-119.09830056250522 390.4,-120.29584184229638 390.8,-121.49807375300237 391.2,-122.70480644826739 391.59999999999997,-123.9158493710103 392.0,-125.13101128351445 392.40000000000003,-126.35010029762755 392.8,-127.57292390506183 393.19999999999993,-128.7992890077944 393.6,-130.02900194855926 394.0,-131.26186854142745 394.4,-132.4976941024724 394.8,-133.73628348051156 395.2,-134.9774410879243 395.6,-136.2209709315361 396.00000000000006,-137.4666766435696 396.4,-138.71436151265178 396.79999999999995,-139.96382851487837 397.2,-141.21488034492563 397.6,-142.46731944720662 398.0,-143.72094804706865 398.4,-144.97556818202295 398.8,-146.23098173300656 399.2,-147.4869904556662 399.6,-148.74339601166477 400.0,-149.99999999999994" stroke="red" stroke-width="2.0"/><g><g><line fill="none" stroke="black" x1="-8.0" x2="408.0" y1="0.0" y2="0.0"/><polyline fill="black" points="408.0,-5.0 408.0,5.0 424.0,0.0" stroke="none"/><line fill="none" stroke="black" x1="63.66197723675814" x2="63.66197723675814" y1="-3.0" y2="3.0"/><line fill="none" stroke="black" x1="127.32395447351628" x2="127.32395447351628" y1="-3.0" y2="3.0"/><line fill="none" stroke="black" x1="190.9859317102744" x2="190.9859317102744" y1="-3.0" y2="3.0"/><line fill="none" stroke="black" x1="254.64790894703256" x2="254.64790894703256" y1="-3.0" y2="3.0"/><line fill="none" stroke="black" x1="318.3098861837907" x2="318.3098861837907" y1="-3.0" y2="3.0"/><line fill="none" stroke="black" x1="381.9718634205488" x2="381.9718634205488" y1="-3.0" y2="3.0"/><text dominant-baseline="middle" fill="black" stroke="none" text-anchor="middle" x="63.66197723675814" y="14.0">1</text><text dominant-baseline="middle" fill="black" stroke="none" text-anchor="middle" x="127.32395447351628" y="14.0">2</text><text dominant-baseline="middle" fill="black" stroke="none" text-anchor="middle" x="190.9859317102744" y="14.0">3</text><text dominant-baseline="middle" fill="black" stroke="none" text-anchor="middle" x="254.64790894703256" y="14.0">4</text><text dominant-baseline="middle" fill="black" stroke="none" text-anchor="middle" x="318.3098861837907" y="14.0">5</text><text dominant-baseline="middle" fill="black" stroke="none" text-anchor="middle" x="381.9718634205488" y="14.0">6</text></g><g><line fill="none" stroke="black" x1="0.0" x2="0.0" y1="8.0" y2="-308.0"/><polyline fill="black" points="-5.0,-308.0 5.0,-308.0 0.0,-324.0" stroke="none"/><line fill="none" stroke="black" x1="-3.0" x2="3.0" y1="-100.0" y2="-100.0"/><line fill="none" stroke="black" x1="-3.0" x2="3.0" y1="-200.0" y2="-200.0"/><line fill="none" stroke="black" x1="-3.0" x2="3.0" y1="-300.0" y2="-300.0"/><text dominant-baseline="middle" fill="black" stroke="none" text-anchor="middle" x="-10.0" y="-100.0">1</text><text dominant-baseline="middle" fill="black" stroke="none" text-anchor="middle" x="-10.0" y="-200.0">2</text><text dominant-baseline="middle" fill="black" stroke="none" text-anchor="middle" x="-10.0" y="-300.0">3</text></g><text dominant-baseline="middle" fill="black" stroke="none" text-anchor="middle" x="-10.0" y="14.0">0</text></g></g></svg>