<svg xmlns="http://www.w3.org/2000/svg" height="380.0" width="480.0"><g transform="translate(40.0, 340.0)"><polyline fill="none" points="0.0,-75.0 0.4,-75.62830199416764 0.8,-76.25650477216688 1.2,-76.88450913349673 1.6,-77.51221590898848 2.0,-78.13952597646568 2.4,-78.76634027639663 2.8000000000000003,-79.39255982753716 3.2,-80.01808574256073 3.5999999999999996,-80.64281924367407 4.0,-81.26666167821521 4.3999999999999995,-81.8895145342319 4.8,-82.51127945603785 5.2,-83.13185825974418 5.6000000000000005,-83.75115294876382 6.0,-84.36906572928622 6.4,-84.98549902572034 6.800000000000001,-85.60035549610274 7.199999999999999,-86.21353804746904 7.6,-86.82494985118623 8.0,-87.43449435824274 8.4,-88.04207531449485 8.799999999999999,-88.64759677586625 9.2,-89.2509631234988 9.6,-89.85207907885174 10.0,-90.45084971874738 10.4,-91.04718049036047 10.8,-91.64097722614933 11.200000000000001,-92.23214615872585 11.600000000000001,-92.82059393566254 12.0,-93.40622763423389 12.399999999999999,-93.98895477609005 12.8,-94.56868334186012 13.200000000000001,-95.14532178568312 13.600000000000001,-95.71877904966419 14.000000000000002,-96.28896457825363 14.399999999999999,-96.85578833254665 14.799999999999999,-97.41916080450162 15.2,-97.9789930310744 15.6,-98.53519660826662 16.0,-99.08768370508575 16.400000000000002,-99.63636707741458 16.8,-100.18116008178804 17.2,-100.72197668907532 17.599999999999998,-101.25873149806476 18.0,-101.79133974894982 18.4,-102.31971733671347 18.8,-102.8437808244094 19.2,-103.36344745633782 19.6,-103.87863517111337 20.0,-104.38926261462368 20.4,-104.89524915287593 20.8,-105.39651488473028 21.2,-105.89298065451672 21.6,-106.38456806453503 22.0,-106.87119948743448 22.400000000000002,-107.35279807847222 22.800000000000004,-107.82928778764781 23.200000000000003,-108.30059337171258 23.599999999999998,-108.76664040605122 24.0,-109.22735529643442 24.4,-109.68266529064023 24.799999999999997,-110.13249848994246 25.2,-110.57678386046427 25.6,-111.01545124439536 26.0,-111.44843137107058 26.400000000000002,-111.87565586790869 26.8,-112.29705727120911 27.200000000000003,-112.7125690368052 27.6,-113.1221255505724 28.000000000000004,-113.52566213878946 28.4,-113.92311507835116 28.799999999999997,-114.31442160683093 29.2,-114.69951993239175 29.599999999999998,-115.07834924354384 30.0,-115.45084971874738 30.4,-115.8169625358592 30.8,-116.17662988142138 31.2,-116.52979495979062 31.6,-116.8764020021071 32.0,-117.21639627510078 32.4,-117.5497240897346 32.800000000000004,-117.87633280968261 33.199999999999996,-118.19617085964177 33.6,-118.5091877334763 34.00000000000001,-118.81533400219317 34.4,-119.11456132174764 34.8,-119.40682244067722 35.199999999999996,-119.69207120756319 35.6,-119.97026257831855 36.0,-120.24135262330098 36.4,-120.50529853424979 36.8,-120.76205863104587 37.2,-121.0115923682935 37.6,-121.2538603417229 37.99999999999999,-121.48882429441257 38.4,-121.7164471228306 38.800000000000004,-121.9366928826937 39.2,-122.14952679464322 39.6,-122.35491524973722 40.0,-122.55282581475768 40.400000000000006,-122.74322723733216 40.8,-122.9260894508688 41.199999999999996,-123.1013835793043 41.6,-123.26908194166371 42.0,-123.42915805643155 42.4,-123.58158664573371 42.800000000000004,-123.72634363932886 43.2,-123.86340617840968 43.6,-123.99275261921235 44.0,-124.11436253643444 44.4,-124.22821672646027 44.800000000000004,-124.3342972103934 45.2,-124.43258723689569 45.60000000000001,-124.52307128483255 46.0,-124.6057350657239 46.400000000000006,-124.68056552600042 46.800000000000004,-124.74755084906501 47.199999999999996,-124.80668045715863 47.6,-124.8579450130307 48.0,-124.90133642141359 48.4,-124.93684783030089 48.8,-124.96447363202945 49.2,-124.98420946416499 49.599999999999994,-124.99605221019081 50.0,-125.0 50.4,-124.99605221019081 50.8,-124.98420946416499 51.2,-124.96447363202945 51.6,-124.93684783030089 52.0,-124.90133642141359 52.400000000000006,-124.8579450130307 52.800000000000004,-124.80668045715863 53.2,-124.74755084906501 53.6,-124.68056552600042 54.0,-124.60573506572388 54.400000000000006,-124.52307128483255 54.800000000000004,-124.43258723689569 55.2,-124.3342972103934 55.60000000000001,-124.22821672646027 56.00000000000001,-124.11436253643444 56.39999999999999,-123.99275261921235 56.8,-123.86340617840968 57.199999999999996,-123.72634363932886 57.599999999999994,-123.58158664573371 57.99999999999999,-123.42915805643155 58.4,-123.26908194166371 58.8,-123.1013835793043 59.199999999999996,-122.9260894508688 59.599999999999994,-122.74322723733216 60.0,-122.55282581475768 60.4,-122.35491524973722 60.8,-122.14952679464322 61.199999999999996,-121.9366928826937 61.6,-121.7164471228306 62.0,-121.48882429441257 62.4,-121.2538603417229 62.8,-121.0115923682935 63.2,-120.76205863104587 63.6,-120.50529853424979 64.0,-120.24135262330098 64.39999999999999,-119.97026257831855 64.8,-119.6920712075632 65.2,-119.40682244067725 65.60000000000001,-119.11456132174766 66.0,-118.81533400219317 66.39999999999999,-118.5091877334763 66.8,-118.19617085964178 67.2,-117.87633280968261 67.60000000000001,-117.5497240897346 68.00000000000001,-117.21639627510073 68.4,-116.8764020021071 68.8,-116.52979495979062 69.19999999999999,-116.17662988142139 69.6,-115.8169625358592 70.0,-115.45084971874738 70.39999999999999,-115.07834924354384 70.8,-114.69951993239178 71.2,-114.31442160683093 71.6,-113.92311507835117 72.0,-113.52566213878946 72.39999999999999,-113.12212555057242 72.8,-112.7125690368052 73.2,-112.29705727120911 73.6,-111.87565586790869 74.00000000000001,-111.44843137107057 74.4,-111.01545124439536 74.8,-110.57678386046427 75.2,-110.13249848994246 75.6,-109.68266529064023 75.99999999999999,-109.22735529643442 76.4,-108.76664040605122 76.8,-108.30059337171258 77.2,-107.82928778764781 77.60000000000001,-107.35279807847222 78.0,-106.87119948743448 78.4,-106.38456806453503 78.8,-105.89298065451672 79.2,-105.39651488473028 79.60000000000001,-104.89524915287593 80.0,-104.38926261462368 80.4,-103.87863517111337 80.80000000000001,-103.36344745633781 81.2,-102.8437808244094 81.6,-102.31971733671347 81.99999999999999,-101.79133974894984 82.39999999999999,-101.25873149806482 82.8,-100.72197668907532 83.2,-100.18116008178804 83.60000000000001,-99.63636707741458 84.0,-99.0876837050858 84.39999999999999,-98.53519660826665 84.8,-97.97899303107441 85.2,-97.41916080450162 85.60000000000001,-96.85578833254665 86.0,-96.28896457825364 86.4,-95.71877904966422 86.8,-95.14532178568312 87.2,-94.56868334186011 87.6,-93.98895477609007 88.0,-93.4062276342339 88.4,-92.82059393566254 88.8,-92.23214615872585 89.20000000000002,-91.64097722614932 89.60000000000001,-91.04718049036049 90.0,-90.45084971874738 90.4,-89.85207907885174 90.8,-89.2509631234988 91.20000000000002,-88.64759677586625 91.60000000000001,-88.04207531449485 92.0,-87.43449435824274 92.4,-86.82494985118623 92.80000000000001,-86.21353804746904 93.19999999999999,-85.60035549610274 93.60000000000001,-84.98549902572036 94.0,-84.36906572928626 94.39999999999999,-83.75115294876382 94.8,-83.13185825974418 95.2,-82.51127945603785 95.6,-81.88951453423192 96.0,-81.26666167821521 96.39999999999999,-80.6428192436741 96.8,-80.01808574256076 97.2,-79.39255982753716 97.6,-78.76634027639665 98.0,-78.13952597646568 98.4,-77.51221590898848 98.8,-76.88450913349673 99.19999999999999,-76.25650477216688 99.6,-75.62830199416764 100.0,-75.00000000000001 100.4,-74.37169800583237 100.8,-73.74349522783312 101.2,-73.11549086650328 101.6,-72.48778409101153 102.0,-71.86047402353434 102.4,-71.23365972360335 102.8,-70.60744017246284 103.2,-69.98191425743926 103.60000000000001,-69.35718075632592 104.0,-68.73333832178479 104.4,-68.1104854657681 104.80000000000001,-67.48872054396215 105.2,-66.86814174025582 105.60000000000001,-66.2488470512362 106.0,-65.63093427071377 106.4,-65.01450097427963 106.80000000000001,-64.39964450389728 107.2,-63.786461952530935 107.60000000000001,-63.17505014881376 108.0,-62.56550564175724 108.4,-61.957924685505155 108.80000000000001,-61.35240322413373 109.2,-60.749036876501194 109.60000000000001,-60.14792092114825 110.00000000000001,-59.549150281252615 110.4,-58.95281950963953 110.80000000000001,-58.35902277385067 111.20000000000002,-57.76785384127414 111.60000000000001,-57.17940606433744 112.00000000000001,-56.593772365766085 112.4,-56.01104522390994 112.79999999999998,-55.4313166581399 113.19999999999999,-54.8546782143169 113.6,-54.281220950335815 113.99999999999999,-53.71103542174639 114.39999999999999,-53.14421166745337 114.8,-52.58083919549842 115.19999999999999,-52.02100696892563 115.6,-51.46480339173339 115.99999999999999,-50.912316294914255 116.39999999999999,-50.36363292258544 116.8,-49.818839918211985 117.19999999999999,-49.278023310924695 117.6,-48.74126850193523 118.0,-48.20866025105018 118.39999999999999,-47.68028266328655 118.8,-47.15621917559062 119.19999999999999,-46.63655254366219 119.6,-46.121364828886634 120.0,-45.610737385376346 120.39999999999999,-45.10475084712407 120.8,-44.60348511526975 121.2,-44.107019345483295 121.6,-43.61543193546498 122.0,-43.12880051256552 122.39999999999999,-42.6472019215278 122.8,-42.170712212352186 123.2,-41.69940662828743 123.6,-41.233359593948784 124.0,-40.77264470356556 124.4,-40.31733470935976 124.8,-39.867501510057544 125.2,-39.42321613953573 125.6,-38.984548755604656 126.0,-38.55156862892943 126.4,-38.124344132091316 126.8,-37.702942728790894 127.2,-37.287430963194815 127.60000000000001,-36.8778744494276 128.0,-36.47433786121053 128.40000000000003,-36.07688492164882 128.79999999999998,-35.685578393169074 129.20000000000002,-35.30048006760824 129.6,-34.92165075645618 130.0,-34.54915028125263 130.4,-34.1830374641408 130.8,-33.82337011857863 131.20000000000002,-33.470205040209365 131.6,-33.12359799789291 132.0,-32.78360372489924 132.40000000000003,-32.4502759102654 132.79999999999998,-32.12366719031739 133.20000000000002,-31.80382914035824 133.6,-31.490812266523722 134.0,-31.18466599780682 134.4,-30.88543867825233 134.8,-30.593177559322772 135.20000000000002,-30.307928792436805 135.60000000000002,-30.02973742168144 136.00000000000003,-29.75864737669901 136.39999999999998,-29.494701465750225 136.8,-29.237941368954125 137.20000000000002,-28.98840763170648 137.6,-28.746139658277116 138.0,-28.511175705587444 138.39999999999998,-28.283552877169413 138.79999999999998,-28.0633071173063 139.2,-27.850473205356785 139.6,-27.64508475026279 140.0,-27.44717418524232 140.4,-27.256772762667854 140.79999999999998,-27.073910549131217 141.2,-26.898616420695713 141.6,-26.730918058336318 142.0,-26.570841943568453 142.4,-26.418413354266306 142.79999999999998,-26.273656360671144 143.2,-26.13659382159033 143.6,-26.007247380787657 144.0,-25.885637463565565 144.4,-25.77178327353973 144.79999999999998,-25.665702789606602 145.2,-25.567412763104304 145.6,-25.47692871516744 146.0,-25.394264934276112 146.4,-25.31943447399958 146.8,-25.252449150934993 147.2,-25.193319542841376 147.6,-25.142054986969303 148.00000000000003,-25.09866357858642 148.39999999999998,-25.063152169699126 148.8,-25.035526367970537 149.2,-25.015790535835002 149.6,-25.003947789809196 150.0,-25.0 150.4,-25.003947789809196 150.8,-25.015790535835002 151.2,-25.035526367970537 151.60000000000002,-25.063152169699126 151.99999999999997,-25.09866357858642 152.4,-25.142054986969303 152.8,-25.193319542841376 153.2,-25.252449150934993 153.6,-25.31943447399958 154.0,-25.39426493427611 154.4,-25.47692871516744 154.8,-25.567412763104304 155.20000000000002,-25.6657027896066 155.6,-25.77178327353973 156.0,-25.885637463565565 156.4,-26.007247380787657 156.8,-26.136593821590324 157.20000000000002,-26.273656360671144 157.6,-26.418413354266303 158.0,-26.570841943568446 158.4,-26.73091805833631 158.8,-26.89861642069571 159.20000000000002,-27.073910549131213 159.6,-27.256772762667847 160.0,-27.447174185242318 160.4,-27.645084750262782 160.8,-27.850473205356778 161.20000000000002,-28.063307117306298 161.60000000000002,-28.283552877169402 162.0,-28.51117570558744 162.4,-28.7461396582771 162.79999999999998,-28.988407631706476 163.2,-29.237941368954118 163.60000000000002,-29.49470146575021 163.99999999999997,-29.758647376699006 164.39999999999998,-30.029737421681432 164.79999999999998,-30.307928792436797 165.2,-30.59317755932276 165.6,-30.885438678252324 166.0,-31.18466599780681 166.4,-31.490812266523708 166.79999999999998,-31.803829140358232 167.20000000000002,-32.123667190317384 167.59999999999997,-32.45027591026539 168.0,-32.78360372489922 168.4,-33.123597997892894 168.79999999999998,-33.47020504020936 169.2,-33.823370118578616 169.6,-34.18303746414079 170.0,-34.54915028125262 170.4,-34.92165075645617 170.79999999999998,-35.30048006760823 171.20000000000002,-35.68557839316906 171.59999999999997,-36.07688492164881 172.0,-36.47433786121052 172.4,-36.877874449427594 172.8,-37.2874309631948 173.2,-37.70294272879088 173.6,-38.124344132091295 174.0,-38.551568628929424 174.4,-38.98454875560466 174.8,-39.42321613953573 175.2,-39.867501510057515 175.6,-40.317334709359734 176.0,-40.772644703565554 176.4,-41.23335959394877 176.8,-41.69940662828741 177.2,-42.17071221235217 177.6,-42.64720192152779 178.0,-43.12880051256552 178.40000000000003,-43.61543193546499 178.79999999999998,-44.10701934548326 179.20000000000002,-44.60348511526972 179.6,-45.10475084712404 180.0,-45.61073738537633 180.4,-46.12136482888661 180.8,-46.63655254366218 181.20000000000002,-47.1562191755906 181.6,-47.680282663286555 182.0,-48.20866025105018 182.40000000000003,-48.74126850193523 182.79999999999998,-49.27802331092466 183.20000000000002,-49.81883991821195 183.6,-50.36363292258541 184.0,-50.912316294914234 184.4,-51.46480339173337 184.8,-52.02100696892562 185.20000000000002,-52.5808391954984 185.60000000000002,-53.144211667453376 186.00000000000003,-53.71103542174639 186.39999999999998,-54.281220950335786 186.8,-54.854678214316856 187.20000000000002,-55.43131665813987 187.6,-56.01104522390991 188.0,-56.59377236576606 188.39999999999998,-57.179406064337435 188.79999999999998,-57.767853841274125 189.2,-58.35902277385064 189.6,-58.952819509639504 190.0,-59.549150281252615 190.4,-60.14792092114825 190.79999999999998,-60.74903687650115 191.2,-61.3524032241337 191.6,-61.95792468550512 192.0,-62.565505641757234 192.4,-63.17505014881374 192.79999999999998,-63.78646195253093 193.2,-64.39964450389725 193.6,-65.01450097427964 194.0,-65.63093427071377 194.4,-66.2488470512362 194.79999999999998,-66.86814174025578 195.2,-67.48872054396212 195.6,-68.11048546576806 196.0,-68.73333832178477 196.4,-69.3571807563259 196.8,-69.98191425743924 197.2,-70.60744017246283 197.6,-71.23365972360335 198.00000000000003,-71.86047402353434 198.39999999999998,-72.48778409101148 198.8,-73.11549086650325 199.2,-73.7434952278331 199.6,-74.37169800583236 200.0,-74.99999999999999 200.4,-75.62830199416763 200.8,-76.25650477216688 201.2,-76.88450913349673 201.6,-77.5122159089885 202.0,-78.13952597646565 202.4,-78.7663402763966 202.8,-79.39255982753714 203.2,-80.01808574256073 203.6,-80.64281924367407 204.0,-81.26666167821521 204.4,-81.8895145342319 204.8,-82.51127945603785 205.20000000000002,-83.1318582597442 205.6,-83.75115294876377 206.0,-84.3690657292862 206.4,-84.98549902572033 206.8,-85.60035549610272 207.20000000000002,-86.21353804746904 207.6,-86.82494985118623 208.0,-87.43449435824274 208.4,-88.04207531449487 208.8,-88.64759677586628 209.20000000000002,-89.25096312349883 209.60000000000002,-89.85207907885173 210.0,-90.45084971874736 210.4,-91.04718049036047 210.8,-91.64097722614933 211.20000000000002,-92.23214615872585 211.60000000000002,-92.82059393566254 212.0,-93.4062276342339 212.4,-93.98895477609007 212.8,-94.56868334186014 213.20000000000002,-95.14532178568312 213.60000000000002,-95.71877904966419 214.0,-96.28896457825363 214.4,-96.85578833254665 214.8,-97.41916080450162 215.20000000000002,-97.97899303107441 215.60000000000002,-98.53519660826665 216.0,-99.0876837050858 216.4,-99.6363670774146 216.8,-100.18116008178804 217.20000000000002,-100.72197668907532 217.60000000000002,-101.25873149806479 218.00000000000003,-101.79133974894982 218.4,-102.31971733671347 218.8,-102.84378082440941 219.20000000000002,-103.36344745633787 219.60000000000002,-103.87863517111339 220.00000000000003,-104.38926261462368 220.4,-104.89524915287599 220.8,-105.39651488473028 221.20000000000002,-105.89298065451672 221.60000000000002,-106.38456806453503 222.00000000000003,-106.87119948743451 222.40000000000003,-107.35279807847222 222.8,-107.82928778764784 223.20000000000002,-108.30059337171261 223.60000000000002,-108.76664040605124 224.00000000000003,-109.22735529643447 224.40000000000003,-109.68266529064023 224.8,-110.13249848994246 225.2,-110.57678386046425 225.59999999999997,-111.01545124439531 225.99999999999997,-111.44843137107051 226.39999999999998,-111.87565586790863 226.79999999999998,-112.29705727120906 227.2,-112.71256903680515 227.59999999999997,-113.12212555057236 227.99999999999997,-113.52566213878943 228.39999999999998,-113.92311507835116 228.79999999999998,-114.31442160683092 229.2,-114.69951993239175 229.6,-115.07834924354378 229.99999999999997,-115.45084971874732 230.39999999999998,-115.81696253585916 230.79999999999998,-116.17662988142133 231.2,-116.5297949597906 231.6,-116.87640200210707 231.99999999999997,-117.21639627510073 232.39999999999998,-117.5497240897346 232.79999999999998,-117.87633280968261 233.2,-118.19617085964177 233.6,-118.50918773347624 234.0,-118.81533400219315 234.39999999999998,-119.11456132174764 234.79999999999998,-119.40682244067719 235.2,-119.69207120756319 235.6,-119.97026257831853 236.0,-120.24135262330097 236.39999999999998,-120.50529853424979 236.79999999999998,-120.76205863104587 237.2,-121.0115923682935 237.6,-121.2538603417229 238.0,-121.48882429441254 238.39999999999998,-121.71644712283059 238.79999999999998,-121.93669288269369 239.2,-122.14952679464322 239.6,-122.3549152497372 240.0,-122.55282581475768 240.39999999999998,-122.74322723733216 240.79999999999998,-122.92608945086879 241.2,-123.10138357930427 241.6,-123.26908194166367 242.0,-123.42915805643155 242.4,-123.5815866457337 242.79999999999998,-123.72634363932886 243.2,-123.86340617840968 243.6,-123.99275261921235 244.0,-124.11436253643444 244.4,-124.22821672646027 244.79999999999998,-124.3342972103934 245.2,-124.43258723689569 245.6,-124.52307128483255 246.0,-124.60573506572388 246.4,-124.68056552600042 246.8,-124.74755084906501 247.2,-124.80668045715863 247.6,-124.8579450130307 248.0,-124.90133642141359 248.4,-124.93684783030089 248.8,-124.96447363202945 249.2,-124.98420946416499 249.6,-124.99605221019081 250.0,-125.0 250.4,-124.99605221019081 250.8,-124.98420946416499 251.2,-124.96447363202945 251.6,-124.93684783030089 252.0,-124.90133642141359 252.4,-124.8579450130307 252.8,-124.80668045715863 253.2,-124.74755084906501 253.6,-124.68056552600042 254.0,-124.6057350657239 254.4,-124.52307128483255 254.8,-124.43258723689569 255.20000000000002,-124.3342972103934 255.6,-124.22821672646027 256.0,-124.11436253643444 256.4,-123.99275261921235 256.80000000000007,-123.86340617840968 257.2,-123.72634363932886 257.59999999999997,-123.58158664573371 258.0,-123.42915805643155 258.40000000000003,-123.26908194166371 258.8,-123.1013835793043 259.2,-122.9260894508688 259.6,-122.74322723733216 260.0,-122.55282581475768 260.40000000000003,-122.3549152497372 260.8,-122.14952679464322 261.2,-121.9366928826937 261.6,-121.7164471228306 262.0,-121.4888242944126 262.40000000000003,-121.2538603417229 262.8,-121.01159236829353 263.2,-120.76205863104587 263.6,-120.50529853424979 264.0,-120.24135262330097 264.40000000000003,-119.97026257831855 264.80000000000007,-119.69207120756319 265.2,-119.40682244067722 265.59999999999997,-119.1145613217477 266.0,-118.81533400219317 266.40000000000003,-118.5091877334763 266.8,-118.19617085964177 267.2,-117.87633280968261 267.6,-117.54972408973455 268.0,-117.21639627510078 268.40000000000003,-116.87640200210704 268.8,-116.52979495979062 269.2,-116.17662988142139 269.6,-115.81696253585918 270.0,-115.45084971874738 270.40000000000003,-115.0783492435438 270.8,-114.69951993239178 271.20000000000005,-114.31442160683092 271.6,-113.92311507835116 272.00000000000006,-113.52566213878943 272.40000000000003,-113.12212555057236 272.79999999999995,-112.7125690368052 273.20000000000005,-112.2970572712091 273.6,-111.8756558679087 274.0,-111.44843137107055 274.40000000000003,-111.01545124439536 274.8,-110.57678386046425 275.2,-110.13249848994252 275.59999999999997,-109.68266529064029 276.0,-109.22735529643448 276.4,-108.76664040605124 276.79999999999995,-108.30059337171262 277.20000000000005,-107.82928778764784 277.59999999999997,-107.35279807847228 277.99999999999994,-106.87119948743455 278.4,-106.38456806453505 278.79999999999995,-105.89298065451678 279.2,-105.3965148847303 279.59999999999997,-104.895249152876 280.0,-104.38926261462368 280.4,-103.87863517111343 280.8,-103.36344745633782 281.2,-102.84378082440944 281.59999999999997,-102.31971733671352 282.0,-101.79133974894988 282.4,-101.25873149806486 282.8,-100.72197668907533 283.2,-100.18116008178811 283.59999999999997,-99.63636707741459 284.0,-99.08768370508581 284.40000000000003,-98.53519660826662 284.8,-97.97899303107442 285.19999999999993,-97.41916080450169 285.59999999999997,-96.85578833254668 286.0,-96.2889645782537 286.4,-95.71877904966424 286.8,-95.1453217856832 287.2,-94.56868334186012 287.59999999999997,-93.9889547760901 288.0,-93.40622763423389 288.4,-92.82059393566257 288.8,-92.23214615872584 289.2,-91.64097722614935 289.59999999999997,-91.04718049036053 290.0,-90.45084971874739 290.4,-89.85207907885179 290.8,-89.25096312349882 291.2,-88.64759677586632 291.59999999999997,-88.04207531449484 292.0,-87.43449435824279 292.40000000000003,-86.82494985118622 292.8,-86.21353804746909 293.19999999999993,-85.60035549610281 293.6,-84.98549902572036 294.0,-84.36906572928629 294.4,-83.75115294876382 294.8,-83.13185825974422 295.2,-82.51127945603784 295.6,-81.88951453423194 296.00000000000006,-81.26666167821519 296.4,-80.64281924367411 296.79999999999995,-80.0180857425608 297.2,-79.39255982753717 297.6,-78.76634027639669 298.0,-78.13952597646568 298.4,-77.51221590898851 298.8,-76.88450913349672 299.2,-76.2565047721669 299.6,-75.6283019941676 300.0,-75.00000000000001 300.4,-74.37169800583243 300.8,-73.74349522783314 301.2,-73.11549086650332 301.6,-72.48778409101152 302.0,-71.86047402353437 302.4,-71.23365972360335 302.8,-70.60744017246287 303.20000000000005,-69.98191425743923 303.6,-69.35718075632593 303.99999999999994,-68.73333832178484 304.4,-68.11048546576811 304.8,-67.48872054396219 305.2,-66.86814174025582 305.6,-66.24884705123623 306.0,-65.63093427071375 306.4,-65.01450097427968 306.80000000000007,-64.39964450389724 307.2,-63.78646195253094 307.59999999999997,-63.17505014881381 308.0,-62.56550564175726 308.40000000000003,-61.95792468550519 308.8,-61.35240322413373 309.2,-60.749036876501215 309.6,-60.147920921148234 310.0,-59.54915028125264 310.40000000000003,-58.9528195096395 310.8,-58.359022773850675 311.2,-57.76785384127419 311.6,-57.17940606433747 312.0,-56.593772365766135 312.40000000000003,-56.01104522390994 312.8,-55.431316658139906 313.2,-54.85467821431685 313.6,-54.28122095033581 314.0,-53.71103542174633 314.40000000000003,-53.14421166745336 314.80000000000007,-52.580839195498335 315.2,-52.021006968925604 315.59999999999997,-51.464803391733405 316.0,-50.91231629491422 316.40000000000003,-50.363632922585445 316.8,-49.818839918211935 317.2,-49.27802331092469 317.6,-48.74126850193518 318.0,-48.208660251050176 318.40000000000003,-47.680282663286505 318.8,-47.15621917559059 319.2,-46.6365525436622 319.6,-46.1213648288866 320.0,-45.61073738537636 320.40000000000003,-45.10475084712403 320.8,-44.603485115269734 321.20000000000005,-44.10701934548325 321.6,-43.61543193546498 322.00000000000006,-43.128800512565476 322.40000000000003,-42.64720192152778 322.79999999999995,-42.17071221235219 323.20000000000005,-41.6994066282874 323.6,-41.23335959394879 324.0,-40.77264470356555 324.40000000000003,-40.317334709359756 324.8,-39.86750151005751 325.2,-39.423216139535796 325.59999999999997,-38.98454875560468 326.0,-38.55156862892947 326.4,-38.12434413209132 326.79999999999995,-37.70294272879093 327.20000000000005,-37.287430963194815 327.59999999999997,-36.87787444942764 327.99999999999994,-36.4743378612106 328.4,-36.076884921648855 328.79999999999995,-35.6855783931691 329.2,-35.300480067608255 329.59999999999997,-34.921650756456216 330.0,-34.54915028125264 330.4,-34.18303746414084 330.8,-33.82337011857863 331.2,-33.47020504020939 331.59999999999997,-33.12359799789296 332.0,-32.783603724899265 332.4,-32.45027591026545 332.8,-32.123667190317406 333.2,-31.80382914035827 333.59999999999997,-31.490812266523726 334.0,-31.184665997806846 334.40000000000003,-30.88543867825234 334.8,-30.593177559322793 335.19999999999993,-30.30792879243685 335.59999999999997,-30.029737421681464 336.0,-29.758647376699056 336.4,-29.49470146575023 336.8,-29.237941368954147 337.2,-28.988407631706487 337.59999999999997,-28.74613965827712 338.0,-28.51117570558743 338.4,-28.283552877169416 338.8,-28.06330711730629 339.2,-27.850473205356785 339.59999999999997,-27.64508475026281 340.0,-27.447174185242332 340.4,-27.25677276266787 340.8,-27.07391054913121 341.2,-26.89861642069572 341.59999999999997,-26.730918058336307 342.0,-26.570841943568453 342.40000000000003,-26.418413354266303 342.8,-26.27365636067115 343.19999999999993,-26.136593821590342 343.6,-26.007247380787664 344.0,-25.885637463565576 344.4,-25.771783273539732 344.8,-25.665702789606602 345.2,-25.567412763104297 345.6,-25.476928715167446 346.00000000000006,-25.39426493427611 346.4,-25.31943447399958 346.79999999999995,-25.252449150934996 347.2,-25.19331954284138 347.6,-25.142054986969306 348.0,-25.09866357858642 348.4,-25.063152169699126 348.8,-25.035526367970537 349.2,-25.015790535835002 349.6,-25.003947789809196 350.0,-25.0 350.4,-25.003947789809196 350.8,-25.015790535835002 351.2,-25.035526367970533 351.6,-25.063152169699126 352.0,-25.09866357858642 352.4,-25.142054986969303 352.8,-25.193319542841376 353.20000000000005,-25.252449150934996 353.6,-25.31943447399958 353.99999999999994,-25.394264934276098 354.4,-25.47692871516744 354.8,-25.56741276310429 355.2,-25.6657027896066 355.6,-25.771783273539725 356.0,-25.88563746356557 356.4,-26.00724738078765 356.80000000000007,-26.13659382159033 357.2,-26.27365636067114 357.59999999999997,-26.418413354266292 358.0,-26.57084194356844 358.40000000000003,-26.730918058336293 358.8,-26.89861642069571 359.2,-27.0739105491312 359.6,-27.256772762667858 360.0,-27.447174185242314 360.40000000000003,-27.645084750262793 360.8,-27.850473205356774 361.2,-28.06330711730628 361.6,-28.2835528771694 362.0,-28.511175705587416 362.40000000000003,-28.7461396582771 362.8,-28.98840763170647 363.2,-29.23794136895413 363.6,-29.494701465750207 364.0,-29.758647376699038 364.40000000000003,-30.029737421681446 364.80000000000007,-30.30792879243683 365.2,-30.593177559322775 365.59999999999997,-30.88543867825232 366.0,-31.184665997806825 366.40000000000003,-31.490812266523704 366.8,-31.80382914035825 367.2,-32.12366719031738 367.6,-32.450275910265425 368.0,-32.783603724899244 368.40000000000003,-33.12359799789294 368.8,-33.47020504020937 369.2,-33.82337011857861 369.6,-34.18303746414081 370.0,-34.549150281252615 370.40000000000003,-34.92165075645618 370.8,-35.30048006760823 371.20000000000005,-35.685578393169074 371.6,-36.076884921648826 372.00000000000006,-36.47433786121057 372.40000000000003,-36.877874449427615 372.79999999999995,-37.28743096319479 373.20000000000005,-37.70294272879091 373.6,-38.12434413209129 374.0,-38.551568628929445 374.40000000000003,-38.98454875560464 374.8,-39.42321613953576 375.2,-39.86750151005748 375.59999999999997,-40.31733470935972 376.0,-40.77264470356551 376.4,-41.23335959394876 376.79999999999995,-41.69940662828737 377.20000000000005,-42.17071221235217 377.59999999999997,-42.647201921527746 377.99999999999994,-43.12880051256544 378.4,-43.61543193546495 378.79999999999995,-44.10701934548322 379.2,-44.6034851152697 379.59999999999997,-45.104750847123995 380.0,-45.610737385376325 380.4,-46.12136482888656 380.8,-46.63655254366216 381.2,-47.15621917559056 381.59999999999997,-47.68028266328647 382.0,-48.208660251050134 382.4,-48.741268501935146 382.8,-49.27802331092465 383.2,-49.8188399182119 383.59999999999997,-50.36363292258541 384.0,-50.912316294914184 384.40000000000003,-51.46480339173336 384.8,-52.02100696892557 385.19999999999993,-52.58083919549831 385.59999999999997,-53.14421166745333 386.0,-53.711035421746296 386.4,-54.28122095033576 386.8,-54.85467821431681 387.2,-55.43131665813986 387.59999999999997,-56.01104522390989 388.0,-56.59377236576609 388.4,-57.17940606433742 388.8,-57.76785384127415 389.2,-58.35902277385063 389.59999999999997,-58.952819509639454 390.0,-59.54915028125261 390.4,-60.14792092114819 390.8,-60.74903687650119 391.2,-61.352403224133695 391.59999999999997,-61.95792468550515 392.0,-62.56550564175723 392.40000000000003,-63.175050148813774 392.8,-63.786461952530914 393.19999999999993,-64.3996445038972 393.6,-65.01450097427963 394.0,-65.63093427071372 394.4,-66.2488470512362 394.8,-66.86814174025578 395.2,-67.48872054396215 395.6,-68.11048546576805 396.00000000000006,-68.7333383217848 396.4,-69.35718075632589 396.79999999999995,-69.98191425743919 397.2,-70.60744017246282 397.6,-71.23365972360331 398.0,-71.86047402353432 398.4,-72.48778409101148 398.8,-73.11549086650328 399.2,-73.7434952278331 399.6,-74.37169800583239 400.0,-74.99999999999997" stroke="red" stroke-width="2.0"/><g><g><line fill="none" stroke="black" x1="-8.0" x2="408.0" y1="0.0" y2="0.0"/><polyline fill="black" points="408.0,-5.0 408.0,5.0 424.0,0.0" stroke="none"/><line fill="none" stroke="black" x1="63.66197723675814" x2="63.66197723675814" y1="-3.0" y2="3.0"/><line fill="none" stroke="black" x1="127.32395447351628" x2="127.32395447351628" y1="-3.0" y2="3.0"/><line fill="none" stroke="black" x1="190.9859317102744" x2="190.9859317102744" y1="-3.0" y2="3.0"/><line fill="none" stroke="black" x1="254.64790894703256" x2="254.64790894703256" y1="-3.0" y2="3.0"/><line fill="none" stroke="black" x1="318.3098861837907" x2="318.3098861837907" y1="-3.0" y2="3.0"/><line fill="none" stroke="black" x1="381.9718634205488" x2="381.9718634205488" y1="-3.0" y2="3.0"/><text dominant-baseline="middle" fill="black" stroke="none" text-anchor="middle" x="63.66197723675814" y="14.0">1</text><text dominant-baseline="middle" fill="black" stroke="none" text-anchor="middle" x="127.32395447351628" y="14.0">2</text><text dominant-baseline="middle" fill="black" stroke="none" text-anchor="middle" x="190.9859317102744" y="14.0">3</text><text dominant-baseline="middle" fill="black" stroke="none" text-anchor="middle" x="254.64790894703256" y="14.0">4</text><text dominant-baseline="middle" fill="black" stroke="none" text-anchor="middle" x="318.3098861837907" y="14.0">5</text><text dominant-baseline="middle" fill="black" stroke="none" text-anchor="middle" x="381.9718634205488" y="14.0">6</text></g><g><line fill="none" stroke="black" x1="0.0" x2="0.0" y1="8.0" y2="-308.0"/><polyline fill="black" points="-5.0,-308.0 5.0,-308.0 0.0,-324.0" stroke="none"/><line fill="none" stroke="black" x1="-3.0" x2="3.0" y1="-100.0" y2="-100.0"/><line fill="none" stroke="black" x1="-3.0" x2="3.0" y1="-200.0" y2="-200.0"/><line fill="none" stroke="black" x1="-3.0" x2="3.0" y1="-300.0" y2="-300.0"/><text dominant-baseline="middle" fill="black" stroke="none" text-anchor="middle" x="-10.0" y="-100.0">1</text><text dominant-baseline="middle" fill="black" stroke="none" text-anchor="middle" x="-10.0" y="-200.0">2</text><text dominant-baseline="middle" fill="black" stroke="none" text-anchor="middle" x="-10.0" y="-300.0">3</text></g><text dominant-baseline="middle" fill="black" stroke="none" text-anchor="middle" x="-10.0" y="14.0">0</text></g></g></svg>