<svg xmlns="http://www.w3.org/2000/svg" height="380.0" width="480.0"><g transform="translate(40.0, 340.0)"><polyline fill="none" points="0.0,-150.0 0.4,-151.25581444076363 0.8,-152.5098516034046 1.2,-153.76191383493415 1.6,-155.0118040435067 2.0,-156.2593257294445 2.4,-157.5042830161295 2.8000000000000003,-158.74648068075732 3.2,-159.98572418494896 3.5999999999999996,-161.2218197052149 4.0,-162.45457416326715 4.3999999999999995,-163.68379525617462 4.8,-164.9092914863566 5.2,-166.13087219141036 5.6000000000000005,-167.34834757376765 6.0,-168.5615287301757 6.4,-169.77022768099823 6.800000000000001,-170.9742573993319 7.199999999999999,-172.17343183993322 7.6,-173.3675659679527 8.0,-174.5564757874698 8.4,-175.73997836982682 8.799999999999999,-176.9178918817546 9.2,-178.09003561328825 9.6,-179.2562300054668 10.0,-180.41629667781336 10.4,-181.57005845559175 10.8,-182.71733939683463 11.200000000000001,-183.85796481913994 11.600000000000001,-184.9917613262308 12.0,-186.11855683427567 12.399999999999999,-187.23818059796358 12.8,-188.35046323633193 13.200000000000001,-189.45523675834167 13.600000000000001,-190.55233458819706 14.000000000000002,-191.64159159040526 14.399999999999999,-192.7228440945725 14.799999999999999,-193.79592991993377 15.2,-194.8606883996104 15.6,-195.91696040459422 16.0,-196.96458836745325 16.400000000000002,-198.0034163057558 16.8,-199.03328984520962 17.2,-200.0540562425127 17.599999999999998,-201.06556440791198 18.0,-202.06766492746735 18.4,-203.0602100850166 18.8,-204.04305388383958 19.2,-205.01605206801688 19.6,-205.9790621434811 20.0,-206.93194339875689 20.4,-207.87455692538728 20.8,-208.80676563804323 21.2,-209.7284342943129 21.6,-210.63942951416917 22.0,-211.53961979911094 22.400000000000002,-212.428875550977 22.800000000000004,-213.30706909042894 23.200000000000003,-214.17407467510048 23.599999999999998,-215.02976851741144 24.0,-215.87402880204277 24.4,-216.70673570307116 24.799999999999997,-217.52777140076014 25.2,-218.337020098006 25.6,-219.13436803643577 26.0,-219.91970351215525 26.400000000000002,-220.6929168911449 26.8,-221.45390062430175 27.200000000000003,-222.2025492621249 27.6,-222.93875946904296 28.000000000000004,-223.66243003738163 28.4,-224.37346190096895 28.799999999999997,-225.0717581483775 29.2,-225.75722403580073 29.599999999999998,-226.42976699956256 30.0,-227.0892966682583 30.4,-227.73572487452543 30.8,-228.36896566644293 31.2,-228.98893531855728 31.6,-229.59555234253463 32.0,-230.18873749743696 32.4,-230.7684137996215 32.800000000000004,-231.33450653226237 33.199999999999996,-231.886943254493 33.6,-232.4256538101684 34.00000000000001,-232.95057033624664 34.4,-233.46162727078828 34.8,-233.9587613605728 35.199999999999996,-234.44191166833176 35.6,-234.91101957959773 36.0,-235.36602880916817 36.4,-235.80688540718378 36.8,-236.23353776482122 37.2,-236.64593661959879 37.6,-237.04403506029612 37.99999999999999,-237.4277885314857 38.4,-237.79715483767782 38.800000000000004,-238.15209414707743 39.2,-238.49256899495361 39.6,-238.81854428662078 40.0,-239.12998730003224 40.400000000000006,-239.4268676879865 40.8,-239.70915747994482 41.199999999999996,-239.9768310834624 41.6,-240.2298652852317 42.0,-240.4682392517389 42.4,-240.69193452953414 42.800000000000004,-240.90093504511532 43.2,-241.0952271044264 43.6,-241.27479939197076 44.0,-241.4396429695397 44.4,-241.58975127455804 44.800000000000004,-241.7251201180456 45.2,-241.84574768219755 45.60000000000001,-241.95163451758265 46.0,-242.04278353996142 46.400000000000006,-242.119200026725 46.800000000000004,-242.18089161295546 47.199999999999996,-242.227868287109 47.6,-242.2601423863228 48.0,-242.27772859134748 48.4,-242.2806439211059 48.8,-242.26890772687915 49.2,-242.24254168612276 49.599999999999994,-242.20156979591306 50.0,-242.14601836602552 50.4,-242.07591601164742 50.8,-241.9912936457258 51.2,-241.89218447095223 51.6,-241.77862397138713 52.0,-241.65064990372423 52.400000000000006,-241.5083022881979 52.800000000000004,-241.35162339913512 53.2,-241.18065775515387 53.6,-240.99545210900976 54.0,-240.79605543709417 54.400000000000006,-240.58251892858428 54.800000000000004,-240.35489597424842 55.2,-240.11324215490924 55.60000000000001,-239.85761522956568 56.00000000000001,-239.5880751231772 56.39999999999999,-239.3046839141127 56.8,-239.00750582126568 57.199999999999996,-238.69660719083942 57.599999999999994,-238.37205648280334 57.99999999999999,-238.0339242570249 58.4,-237.68228315907763 58.8,-237.31720790573004 59.199999999999996,-236.93877527011668 59.599999999999994,-236.54706406659506 60.0,-236.1421551352907 60.4,-235.72413132633395 60.8,-235.29307748379063 61.199999999999996,-234.8490804292903 61.6,-234.39222894535453 62.0,-233.92261375842924 62.4,-233.440327521623 62.8,-232.94546479715535 63.2,-232.43812203851843 63.6,-231.9183975723544 64.0,-231.38639158005296 64.39999999999999,-230.84220607907153 64.8,-230.28594490398174 65.2,-229.71771368724632 65.60000000000001,-229.13761983972844 66.0,-228.54577253093873 66.39999999999999,-227.94228266902192 66.8,-227.32726288048806 67.2,-226.70082748969108 67.60000000000001,-226.06309249805858 68.00000000000001,-225.4141755630768 68.4,-224.75419597703444 68.8,-224.0832746455284 69.19999999999999,-223.40153406573666 69.6,-222.70909830446084 70.0,-222.00609297594303 70.39999999999999,-221.29264521946044 70.8,-220.568883676702 71.2,-219.83493846893109 71.6,-219.0909411739379 72.0,-218.33702480278586 72.39999999999999,-217.573323776356 72.8,-216.7999739016934 73.2,-216.01711234815986 73.6,-215.22487762339716 74.00000000000001,-214.42340954910435 74.4,-213.61284923663425 74.8,-212.7933390624124 75.2,-211.96502264318397 75.6,-211.12804481109092 75.99999999999999,-210.28255158858633 76.4,-209.42869016318758 76.8,-208.5666088620745 77.2,-207.69645712653642 77.60000000000001,-206.81838548627158 78.0,-205.9325455335451 78.4,-205.0390898972077 78.8,-204.1381722165818 79.2,-203.22994711521767 79.60000000000001,-202.3145701745253 80.0,-201.39219790728552 80.4,-200.4629877310455 80.80000000000001,-199.5270979414033 81.2,-198.5846876851851 81.6,-197.63591693352035 81.99999999999999,-196.6809464548191 82.39999999999999,-195.71993778765645 82.8,-194.75305321356794 83.2,-193.7804557297612 83.60000000000001,-192.80230902174782 84.0,-191.81877743590064 84.39999999999999,-190.83002595194014 84.8,-189.83622015535573 85.2,-188.83752620976563 85.60000000000001,-187.83411082921987 86.0,-186.82614125045185 86.4,-185.81378520508227 86.8,-184.79721089178042 87.2,-183.77658694838732 87.6,-182.75208242400532 88.0,-181.7238667510589 88.4,-180.6921097173309 88.8,-179.65698143797962 89.20000000000002,-178.6186523275401 89.60000000000001,-177.57729307191556 90.0,-176.53307460036245 90.4,-175.48616805747466 90.8,-174.43674477517064 91.20000000000002,-173.38497624468872 91.60000000000001,-172.33103408859438 92.0,-171.27509003280522 92.4,-170.21731587863684 92.80000000000001,-169.15788347487515 93.19999999999999,-168.0969646898794 93.60000000000001,-167.03473138372004 94.0,-165.9713553803567 94.39999999999999,-164.90700843985988 94.8,-163.8418622306818 95.2,-162.77608830198 95.6,-161.70985805599872 96.0,-160.64334272051235 96.39999999999999,-159.5767133213353 96.8,-158.51014065490276 97.2,-157.4437952609269 97.6,-156.37784739513236 98.0,-155.31246700207632 98.4,-154.24782368805623 98.8,-153.18408669411113 99.19999999999999,-152.12142486911893 99.6,-151.06000664299563 100.0,-150.0 100.4,-148.94157245214768 100.8,-147.8848910127394 101.2,-146.83012217000748 101.6,-145.7774318608843 102.0,-144.7269854448974 102.4,-143.67894767819521 102.8,-142.63348268770716 103.2,-141.5907539454423 103.60000000000001,-140.55092424293125 104.0,-139.51415566581417 104.4,-138.4806095685797 104.80000000000001,-137.45044654945826 105.2,-136.42382642547423 105.60000000000001,-135.40090820766002 106.0,-134.38185007643685 106.4,-133.36680935716484 106.80000000000001,-132.35594249586777 107.2,-131.34940503513462 107.60000000000001,-130.34735159020278 108.0,-129.3499358252261 108.4,-128.35731042973137 108.80000000000001,-127.36962709526712 109.2,-126.387036492248 109.60000000000001,-125.40968824699871 110.00000000000001,-124.43773091900026 110.4,-123.47131197834284 110.80000000000001,-122.51057778338794 111.20000000000002,-121.55567355864395 111.60000000000001,-120.6067433728576 112.00000000000001,-119.66393011732538 112.4,-118.72737548442777 112.79999999999998,-117.79721994638938 113.19999999999999,-116.87360273426881 113.6,-115.9566618171805 113.99999999999999,-115.0465338817523 114.39999999999999,-114.14335431182171 114.8,-113.24725716837331 115.19999999999999,-112.35837516972107 115.6,-111.47683967193798 115.99999999999999,-110.60278064953597 116.39999999999999,-109.73632667639895 116.8,-108.87760490697183 117.19999999999999,-108.02674105770805 117.6,-107.18385938877874 118.0,-106.34908268604556 118.39999999999999,-105.52253224330026 118.8,-104.70432784477335 119.19999999999999,-103.89458774791424 119.6,-103.09342866644592 120.0,-102.30096575369542 120.39999999999999,-101.5173125862039 120.8,-100.74258114761693 121.2,-99.9768818128592 121.6,-99.220323332594 122.0,-98.47301281797095 122.39999999999999,-97.73505572566323 122.8,-97.00655584319703 123.2,-96.28761527457483 123.6,-95.57833442619442 124.0,-94.8788119930658 124.4,-94.18914494532777 124.8,-93.50942851506565 125.2,-92.83975618343264 125.6,-92.18021966807561 126.0,-91.53090891086747 126.4,-90.89191206594784 126.8,-90.26331548807308 127.2,-89.64520372127761 127.60000000000001,-89.03765948784762 128.0,-88.4407636776087 128.40000000000003,-87.85459533752883 128.79999999999998,-87.2792316616377 129.20000000000002,-86.71474798126363 129.6,-86.16121775558979 130.0,-85.61871256252985 130.4,-85.08730208992506 130.8,-84.567054127063 131.20000000000002,-84.05803455651959 131.6,-83.56030734632459 132.0,-83.07393454245222 132.40000000000003,-82.59897626163676 132.79999999999998,-82.13549068451464 133.20000000000002,-81.68353404909305 133.6,-81.24316064454645 134.0,-80.81442280534064 134.4,-80.39737090568556 134.8,-79.992053354317 135.20000000000002,-79.59851658960747 135.60000000000002,-79.2168050750072 136.00000000000003,-78.84696129481458 136.39999999999998,-78.48902575027716 136.8,-78.14303695602271 137.20000000000002,-77.80903143682109 137.6,-77.48704372467637 138.0,-77.17710635624962 138.39999999999998,-76.87924987061227 138.79999999999998,-76.59350280732963 139.2,-76.31989170487502 139.6,-76.05844109937343 140.0,-75.80917352367553 140.4,-75.5721095067606 140.79999999999998,-75.34726757346887 141.2,-75.13466424456232 141.6,-74.93431403711378 142.0,-74.74622946522356 142.4,-74.57042104106317 142.79999999999998,-74.4068972762454 143.2,-74.25566468352018 143.6,-74.11672777879524 144.0,-73.99008908348111 144.4,-73.87574912715935 144.79999999999998,-73.77370645057313 145.2,-73.68395760893925 145.6,-73.60649717558073 146.0,-73.54131774587859 146.4,-73.48840994154193 146.8,-73.44776241519526 147.2,-73.4193618552814 147.6,-73.40319299127933 148.00000000000003,-73.39923859923503 148.39999999999998,-73.40747950760458 148.8,-73.42789460340735 149.2,-73.46046083868863 149.6,-73.50515323728966 150.0,-73.56194490192344 150.4,-73.63080702155527 150.8,-73.71170887908562 151.2,-73.80461785933421 151.60000000000002,-73.9094994573233 151.99999999999997,-74.02631728685834 152.4,-74.15503308940421 152.8,-74.29560674325526 153.2,-74.4479962729969 153.6,-74.61215785925715 154.0,-74.78804584874578 154.4,-74.97561276457911 154.8,-75.17480931688839 155.20000000000002,-75.38558441370947 155.6,-75.6078851721517 156.0,-75.84165692984361 156.4,-76.08684325665328 156.8,-76.3433859666809 157.20000000000002,-76.61122513052135 157.6,-76.89029908779393 158.0,-77.18054445993752 158.4,-77.4818961632678 158.8,-77.79428742229467 159.20000000000002,-78.11764978329698 159.6,-78.45191312815203 160.0,-78.79700568841709 160.4,-79.15285405966021 160.8,-79.51938321603798 161.20000000000002,-79.89651652511681 161.60000000000002,-80.28417576293555 162.0,-80.6822811293061 162.4,-81.09075126334955 162.79999999999998,-81.50950325926458 163.2,-81.93845268232549 163.60000000000002,-82.37751358510654 163.99999999999997,-82.82659852392975 164.39999999999998,-83.28561857553342 164.79999999999998,-83.75448335395747 165.2,-84.23310102764347 165.6,-84.72137833674542 166.0,-85.21922061064856 166.4,-85.72653178569288 166.79999999999998,-86.24321442309792 167.20000000000002,-86.7691697270859 167.59999999999997,-87.30429756319967 168.0,-87.84849647681231 168.4,-88.40166371182478 168.79999999999998,-88.96369522954846 169.2,-89.53448572776928 169.6,-90.11392865998964 170.0,-90.7019162548451 170.4,-91.29833953569191 170.79999999999998,-91.90308834036239 171.20000000000002,-92.51605134108412 171.59999999999997,-93.13711606455988 172.0,-93.76616891220445 172.4,-94.40309518053459 172.8,-95.04777908170914 173.2,-95.70010376421499 173.6,-96.35995133369558 174.0,-97.02720287391836 174.4,-97.70173846787716 174.8,-98.38343721902622 175.2,-99.07217727264181 175.6,-99.76783583730797 176.0,-100.47028920652225 176.4,-101.1794127804183 176.8,-101.89508108760079 177.2,-102.61716780708954 177.6,-103.3455457903686 178.0,-104.08008708353682 178.40000000000003,-104.82066294955551 178.79999999999998,-105.5671438905903 179.20000000000002,-106.31939967044242 179.6,-107.0772993370658 180.0,-107.84071124516679 180.4,-108.60950307888146 180.8,-109.3835418745278 181.20000000000002,-110.16269404342775 181.6,-110.94682539479653 182.0,-111.73580115869383 182.40000000000003,-112.52948600903433 182.79999999999998,-113.32774408665277 183.20000000000002,-114.13043902242019 183.6,-114.93743396040686 184.0,-115.74859158108862 184.4,-116.56377412459209 184.8,-117.38284341397573 185.20000000000002,-118.20566087854145 185.60000000000002,-119.0320875771744 186.00000000000003,-119.86198422170571 186.39999999999998,-120.69521120029525 186.8,-121.53162860083005 187.20000000000002,-122.37109623433398 187.6,-123.21347365838596 188.0,-124.05862020054215 188.39999999999998,-124.90639498175749 188.79999999999998,-125.7566569398042 189.2,-126.60926485268243 189.6,-127.46407736201901 190.0,-128.3209529964512 190.4,-129.17975019499087 190.79999999999998,-130.04032733036556 191.2,-130.90254273233293 191.6,-131.76625471096372 192.0,-132.63132157989062 192.4,-133.49760167951857 192.79999999999998,-134.36495340019266 193.2,-135.23323520532026 193.6,-136.10230565444306 194.0,-136.97202342625587 194.4,-137.84224734156786 194.79999999999998,-138.71283638620275 195.2,-139.58364973383485 195.6,-140.45454676875556 196.0,-141.325387108569 196.4,-142.19603062681088 196.8,-143.0663374754885 197.2,-143.93616810753755 197.6,-144.80538329919233 198.00000000000003,-145.6738441722656 198.39999999999998,-146.54141221633466 198.8,-147.40794931083047 199.2,-148.27331774702506 199.6,-149.13738024991562 200.0,-149.99999999999997 200.4,-150.86104065494104 200.8,-151.72036637111663 201.2,-152.57784182505094 201.6,-153.43333223472482 202.0,-154.2867033807607 202.4,-155.13782162748004 202.8,-155.98655394382843 203.2,-156.83276792416646 203.6,-157.67633180892255 204.0,-158.51711450510444 204.4,-159.35498560666602 204.8,-160.18981541472692 205.20000000000002,-161.0214749576412 205.6,-161.8498360109122 206.0,-162.67477111695058 206.4,-163.49615360467203 206.8,-164.31385760893255 207.20000000000002,-165.12775808979754 207.6,-165.9377308516418 208.0,-166.74365256207798 208.4,-167.54540077071044 208.8,-168.3428539277112 209.20000000000002,-169.13589140221572 209.60000000000002,-169.92439350053573 210.0,-170.70824148418603 210.4,-171.48731758772257 210.8,-172.26150503638945 211.20000000000002,-173.03068806357217 211.60000000000002,-173.79475192805398 212.0,-174.55358293107355 212.4,-175.30706843318094 212.8,-176.0550968708894 213.20000000000002,-176.79755777312076 213.60000000000002,-177.53434177744205 214.0,-178.2653406460902 214.4,-178.99044728178413 214.8,-179.70955574331967 215.20000000000002,-180.42256126094753 215.60000000000002,-181.12936025152987 216.0,-181.8298503334749 216.4,-182.52393034144643 216.8,-183.21150034084684 217.20000000000002,-183.89246164207128 217.60000000000002,-184.56671681453057 218.00000000000003,-185.23416970044156 218.4,-185.89472542838286 218.8,-186.54829042661382 219.20000000000002,-187.1947724361547 219.60000000000002,-187.8340805236272 220.00000000000003,-188.4661250938523 220.4,-189.09081790220503 220.8,-189.70807206672296 221.20000000000002,-190.3178020799687 221.60000000000002,-190.91992382064277 222.00000000000003,-191.51435456494718 222.40000000000003,-192.10101299769659 222.8,-192.67981922317705 223.20000000000002,-193.25069477574988 223.60000000000002,-193.81356263019973 224.00000000000003,-194.3683472118256 224.40000000000003,-194.91497440627336 224.8,-195.45337156910858 225.2,-195.98346753512865 225.59999999999997,-196.50519262741298 225.99999999999997,-197.0184786661098 226.39999999999998,-197.5232589769594 226.79999999999998,-198.01946839955207 227.2,-198.50704329531982 227.59999999999997,-198.98592155526174 227.99999999999997,-199.45604260740092 228.39999999999998,-199.9173474239733 228.79999999999998,-200.3697785283471 229.2,-200.81328000167204 229.6,-201.24779748925786 229.99999999999997,-201.67327820668194 230.39999999999998,-202.08967094562442 230.79999999999998,-202.49692607943103 231.2,-202.89499556840354 231.6,-203.2838329648161 231.99999999999997,-203.6633934176585 232.39999999999998,-204.03363367710492 232.79999999999998,-204.39451209870836 233.2,-204.74598864732093 233.6,-205.08802490073867 234.0,-205.42058405307202 234.39999999999998,-205.7436309178405 234.79999999999998,-206.0571319307932 235.2,-206.36105515245322 235.6,-206.6553702703878 236.0,-206.94004860120262 236.39999999999998,-207.2150630922619 236.79999999999998,-207.48038832313335 237.2,-207.73600050675896 237.6,-207.98187749035117 238.0,-208.21799875601505 238.39999999999998,-208.44434542109767 238.79999999999998,-208.6609002382633 239.2,-208.86764759529638 239.6,-209.06457351463237 240.0,-209.2516656526167 240.39999999999998,-209.42891329849235 240.79999999999998,-209.59630737311747 241.2,-209.753840427413 241.6,-209.9015066405408 242.0,-210.03930181781402 242.4,-210.1672233883395 242.79999999999998,-210.28527040239388 243.2,-210.39344352853323 243.6,-210.4917450504388 244.0,-210.5801788634981 244.4,-210.65875047112326 244.79999999999998,-210.72746698080815 245.2,-210.78633709992394 245.6,-210.83537113125593 246.0,-210.87458096828144 246.4,-210.9039800901911 246.8,-210.92358355665402 247.2,-210.93340800232824 247.6,-210.93347163111855 248.0,-210.9237942101824 248.4,-210.90439706368497 248.8,-210.8753030663062 249.2,-210.83653663649997 249.6,-210.78812372950762 250.0,-210.73009183012758 250.4,-210.662469945242 250.8,-210.58528859610294 251.2,-210.49857981037928 251.6,-210.40237711396622 252.0,-210.29671552255908 252.4,-210.18163153299366 252.8,-210.05716311435435 253.2,-209.92334969885235 253.6,-209.78023217247588 254.0,-209.62785286541427 254.4,-209.4662555422575 254.8,-209.2954853919748 255.20000000000002,-209.1155890176718 255.6,-208.92661442613095 256.0,-208.72861101713556 256.4,-208.5216295725808 256.80000000000007,-208.3057222453725 257.2,-208.08094254811792 257.59999999999997,-207.84734534160876 258.0,-207.6049868231 258.40000000000003,-207.3539245143868 258.8,-207.0942172496806 259.2,-206.82592516328936 259.6,-206.54910967710086 260.0,-206.2638334878751 260.40000000000003,-205.97016055434557 260.8,-205.66815608413341 261.2,-205.35788652047611 261.6,-205.0394195287744 262.0,-204.7128239829586 262.40000000000003,-204.37816995167796 262.8,-204.03552868431552 263.2,-203.68497259683056 263.6,-203.32657525743252 264.0,-202.96041137208746 264.40000000000003,-202.58655676986163 264.80000000000007,-202.20508838810326 265.2,-201.8160842574667 265.59999999999997,-201.4196234867807 266.0,-201.01578624776408 266.40000000000003,-200.60465375959228 266.8,-200.18630827331606 267.2,-199.76083305613713 267.6,-199.32831237554197 268.0,-198.88883148329845 268.40000000000003,-198.44247659931588 268.8,-197.98933489537464 269.2,-197.52949447872479 269.6,-197.06304437555983 270.0,-196.59007451436673 270.40000000000003,-196.11067570915571 270.8,-195.62493964257328 271.20000000000005,-195.13295884890064 271.6,-194.63482669694227 272.00000000000006,-194.13063737280518 272.40000000000003,-193.6204858625748 272.79999999999995,-193.10446793488833 273.20000000000005,-192.58268012341014 273.6,-192.05521970921168 274.0,-191.5221847030589 274.40000000000003,-190.98367382761148 274.8,-190.4397864995351 275.2,-189.89062281153244 275.59999999999997,-189.33628351429311 276.0,-188.7768699983692 276.4,-188.2124842759758 276.79999999999995,-187.64322896272395 277.20000000000005,-187.0692072592845 277.59999999999997,-186.49052293299118 277.99999999999994,-185.9072802993814 278.4,-185.3195842036813 278.79999999999995,-184.7275400022376 279.2,-184.13125354389746 279.59999999999997,-183.53083115134308 280.0,-182.92637960238093 280.4,-182.3180061111916 280.8,-181.7058183095411 281.2,-181.0899242279594 281.59999999999997,-180.4704322768867 282.0,-179.84745122779333 282.4,-179.22109019427504 282.8,-178.59145861312652 283.2,-177.95866622539845 283.59999999999997,-177.3228230574384 284.0,-176.68403940192223 284.40000000000003,-176.04242579887574 284.8,-175.3980930166929 285.19999999999993,-174.75115203315158 285.59999999999997,-174.10171401643146 286.0,-173.44989030613692 286.4,-172.79579239432724 286.8,-172.13953190655954 287.2,-171.48122058294476 287.59999999999997,-170.8209702592227 288.0,-170.15889284785672 288.4,-169.4951003191541 288.8,-168.8297046824119 289.2,-168.162817967095 289.59999999999997,-167.4945522040464 290.0,-166.82501940673512 290.4,-166.15433155254362 290.8,-165.4826005640981 291.2,-164.8099382906453 291.59999999999997,-164.13645648947804 292.0,-163.46226680741347 292.40000000000003,-162.78748076232594 292.8,-162.1122097247395 293.19999999999993,-161.43656489948015 293.6,-160.76065730739384 294.0,-160.0845977671316 294.4,-159.40849687700447 294.8,-158.73246499691265 295.2,-158.05661223035028 295.6,-157.38104840649012 296.00000000000006,-156.70588306234959 296.4,-156.03122542504298 296.79999999999995,-155.35718439412034 297.2,-154.68386852399803 297.6,-154.011386006483 298.0,-153.33984465339253 298.4,-152.6693518792744 298.8,-152.0000146842279 299.2,-151.33193963683092 299.6,-150.66523285717304 300.0,-150.00000000000003 300.4,-149.3363462379703 300.8,-148.6743762450274 301.2,-148.01419417989075 301.6,-147.35590366966616 302.0,-146.6996077935812 302.4,-146.04540906684463 302.8,-145.39340942463605 303.20000000000005,-144.74371020622476 303.6,-144.0964121392236 303.99999999999994,-143.45161532397697 304.4,-142.8094192180883 304.8,-142.16992262108798 305.2,-141.53322365924336 305.6,-140.89941977051546 306.0,-140.26860768966193 306.4,-139.6408834334911 306.80000000000007,-139.01634228626705 307.2,-138.3950787852703 307.59999999999997,-137.7771867065137 308.0,-137.16275905061792 308.40000000000003,-136.55188802884777 308.8,-135.94466504931054 309.2,-135.34118070332062 309.6,-134.74152475192977 310.0,-134.14578611262763 310.40000000000003,-133.554052846212 310.8,-132.9664121438331 311.2,-132.38295031421174 311.6,-131.80375277103445 312.0,-131.22890402052755 312.40000000000003,-130.6584876492104 312.8,-130.09258631183192 313.2,-129.53128171948967 313.6,-128.97465462793548 314.0,-128.42278482606724 314.40000000000003,-127.8757511246101 314.80000000000007,-127.33363134498732 315.2,-126.79650230838391 315.59999999999997,-126.26443982500234 316.0,-125.73751868351432 316.40000000000003,-125.21581264070835 316.8,-124.69939441133452 317.2,-124.18833565814943 317.6,-123.68270698216013 318.0,-123.18257791307137 318.40000000000003,-122.68801689993397 318.8,-122.1990913019991 319.2,-121.71586737977647 319.6,-121.23841028629977 320.0,-120.76678405860002 320.40000000000003,-120.30105160938616 320.8,-119.8412747189372 321.20000000000005,-119.38751402720342 321.6,-118.93982902612042 322.00000000000006,-118.4982780521347 322.40000000000003,-118.06291827894367 322.79999999999995,-117.63380571044894 323.20000000000005,-117.21099517392547 323.6,-116.79454031340619 324.0,-116.38449358328303 324.40000000000003,-115.98090624212557 324.8,-115.58382834671717 325.2,-115.19330874631 325.59999999999997,-114.80939507709837 326.0,-114.43213375691293 326.4,-114.06156998013331 326.79999999999995,-113.69774771282277 327.20000000000005,-113.34070968808263 327.59999999999997,-112.99049740162883 327.99999999999994,-112.64715110758945 328.4,-112.3107098145245 328.79999999999995,-111.98121128166811 329.2,-111.65869201539233 329.59999999999997,-111.34318726589447 330.0,-111.03473102410615 330.4,-110.73335601882611 330.8,-110.4390937140749 331.2,-110.15197430667334 331.59999999999997,-109.87202672404315 332.0,-109.59927862223067 332.4,-109.3337563841534 332.8,-109.07548511806861 333.2,-108.82448865626509 333.59999999999997,-108.5807895539761 334.0,-108.34440908851529 334.40000000000003,-108.11536725863337 334.8,-107.89368278409658 335.19999999999993,-107.67937310548602 335.59999999999997,-107.47245438421716 336.0,-107.27294150278018 336.4,-107.08084806519906 336.8,-106.89618639771058 337.2,-106.7189675496609 337.59999999999997,-106.54920129462135 338.0,-106.38689613172026 338.4,-106.2320592871924 338.8,-106.0846967161438 339.2,-105.94481310453227 339.59999999999997,-105.81241187136179 340.0,-105.68749517109111 340.4,-105.57006389625478 340.8,-105.46011768029621 341.2,-105.35765490061172 341.59999999999997,-105.26267268180462 342.0,-105.17516689914841 342.40000000000003,-105.09513218225774 342.8,-105.02256191896686 343.19999999999993,-104.95744825941338 343.6,-104.89978212032715 344.0,-104.84955318952274 344.4,-104.80674993059411 344.8,-104.7713595878106 345.2,-104.74336819121287 345.6,-104.72276056190746 346.00000000000006,-104.70952031755854 346.4,-104.70362987807577 346.79999999999995,-104.70507047149673 347.2,-104.71382214006218 347.6,-104.72986374648353 348.0,-104.7531729804002 348.4,-104.78372636502552 348.8,-104.82149926398027 349.2,-104.86646588831148 349.6,-104.91859930369509 350.0,-104.97787143782138 350.4,-105.0442530879607 350.8,-105.11771392870847 351.2,-105.19822251990716 351.6,-105.28574631474423 352.0,-105.38025166802348 352.4,-105.48170384460845 352.8,-105.59006702803603 353.20000000000005,-105.70530432929836 353.6,-105.82737779579102 353.99999999999994,-105.95624842042572 354.4,-106.09187615090582 354.8,-106.234219899162 355.2,-106.38323755094694 355.6,-106.53888597558642 356.0,-106.70112103588524 356.4,-106.86989759818519 356.80000000000007,-107.0451695425741 357.2,-107.22688977324282 357.59999999999997,-107.41501022898854 358.0,-107.6094818938624 358.40000000000003,-107.81025480795867 358.8,-108.01727807834408 359.2,-108.23049989012429 359.6,-108.44986751764621 360.0,-108.67532733583265 360.40000000000003,-108.90682483164856 360.8,-109.14430461569525 361.2,-109.38771043393096 361.6,-109.63698517951568 362.0,-109.8920709047767 362.40000000000003,-110.1529088332945 362.8,-110.41943937210439 363.2,-110.69160212401334 363.6,-110.96933590002844 364.0,-111.25257873189534 364.40000000000003,-111.54126788474335 364.80000000000007,-111.83533986983599 365.2,-112.13473045742307 365.59999999999997,-112.4393746896932 366.0,-112.74920689382323 366.40000000000003,-113.06416069512255 366.8,-113.38416903026996 367.2,-113.70916416063987 367.6,-114.03907768571628 368.0,-114.37384055659075 368.40000000000003,-114.71338308954334 368.8,-115.05763497970223 369.2,-115.40652531478115 369.6,-115.7599825888907 370.0,-116.11793471642139 370.40000000000003,-116.4803090459966 370.8,-116.84703237449108 371.20000000000005,-117.21803096111452 371.6,-117.59323054155556 372.00000000000006,-117.97255634218519 372.40000000000003,-118.3559330943158 372.79999999999995,-118.74328504851418 373.20000000000005,-119.13453598896466 373.6,-119.52960924788103 374.0,-119.92842771996379 374.40000000000003,-120.33091387689991 374.8,-120.73698978190356 375.2,-121.14657710429333 375.59999999999997,-121.55959713410577 376.0,-121.97597079673945 376.4,-122.39561866763007 376.79999999999995,-122.81846098695141 377.20000000000005,-123.24441767434142 377.59999999999997,-123.67340834364903 377.99999999999994,-124.10535231770052 378.4,-124.5401686430819 378.79999999999995,-124.97777610493453 379.2,-125.41809324176269 379.59999999999997,-125.8610383602481 380.0,-126.30652955007136 380.4,-126.75448469873535 380.8,-127.20482150638999 381.2,-127.65745750065352 381.59999999999997,-128.1123100514302 382.0,-128.56929638571958 382.4,-129.0283336024157 382.8,-129.48933868709415 383.2,-129.95222852678293 383.59999999999997,-130.4169199247163 384.0,-130.88332961506697 384.40000000000003,-131.35137427765648 384.8,-131.82097055263856 385.19999999999993,-132.29203505515548 385.59999999999997,-132.76448438996275 386.0,-133.23823516602062 386.4,-133.7132040110503 386.8,-134.18930758605092 387.2,-134.6664625997765 387.59999999999997,-135.14458582316865 388.0,-135.62359410374432 388.4,-136.10340437993435 388.8,-136.583933695372 389.2,-137.06509921312758 389.59999999999997,-137.54681822988817 390.0,-138.0290081900785 390.4,-138.5115866999219 390.8,-138.9944715414382 391.2,-139.4775806863764 391.59999999999997,-139.96083231008015 392.0,-140.44414480528246 392.40000000000003,-140.9274367958295 392.8,-141.41062715032834 393.19999999999993,-141.8936349957195 393.6,-142.3763797307693 394.0,-142.85878103948096 394.4,-143.34075890442324 394.8,-143.82223361997194 395.2,-144.30312580546456 395.6,-144.7833564182642 396.00000000000006,-145.2628467667318 396.4,-145.7415185231032 396.79999999999995,-146.21929373627094 397.2,-146.69609484446642 397.6,-147.1718446878417 398.0,-147.64646652094936 398.4,-148.1198840251166 398.8,-148.5920213207137 399.2,-149.06280297931306 399.6,-149.53215403573824 400.0,-149.99999999999997" stroke="red" stroke-width="2.0"/><g><g><line fill="none" stroke="black" x1="-8.0" x2="408.0" y1="0.0" y2="0.0"/><polyline fill="black" points="408.0,-5.0 408.0,5.0 424.0,0.0" stroke="none"/><line fill="none" stroke="black" x1="63.66197723675814" x2="63.66197723675814" y1="-3.0" y2="3.0"/><line fill="none" stroke="black" x1="127.32395447351628" x2="127.32395447351628" y1="-3.0" y2="3.0"/><line fill="none" stroke="black" x1="190.9859317102744" x2="190.9859317102744" y1="-3.0" y2="3.0"/><line fill="none" stroke="black" x1="254.64790894703256" x2="254.64790894703256" y1="-3.0" y2="3.0"/><line fill="none" stroke="black" x1="318.3098861837907" x2="318.3098861837907" y1="-3.0" y2="3.0"/><line fill="none" stroke="black" x1="381.9718634205488" x2="381.9718634205488" y1="-3.0" y2="3.0"/><text dominant-baseline="middle" fill="black" stroke="none" text-anchor="middle" x="63.66197723675814" y="14.0">1</text><text dominant-baseline="middle" fill="black" stroke="none" text-anchor="middle" x="127.32395447351628" y="14.0">2</text><text dominant-baseline="middle" fill="black" stroke="none" text-anchor="middle" x="190.9859317102744" y="14.0">3</text><text dominant-baseline="middle" fill="black" stroke="none" text-anchor="middle" x="254.64790894703256" y="14.0">4</text><text dominant-baseline="middle" fill="black" stroke="none" text-anchor="middle" x="318.3098861837907" y="14.0">5</text><text dominant-baseline="middle" fill="black" stroke="none" text-anchor="middle" x="381.9718634205488" y="14.0">6</text></g><g><line fill="none" stroke="black" x1="0.0" x2="0.0" y1="8.0" y2="-308.0"/><polyline fill="black" points="-5.0,-308.0 5.0,-308.0 0.0,-324.0" stroke="none"/><line fill="none" stroke="black" x1="-3.0" x2="3.0" y1="-100.0" y2="-100.0"/><line fill="none" stroke="black" x1="-3.0" x2="3.0" y1="-200.0" y2="-200.0"/><line fill="none" stroke="black" x1="-3.0" x2="3.0" y1="-300.0" y2="-300.0"/><text dominant-baseline="middle" fill="black" stroke="none" text-anchor="middle" x="-10.0" y="-100.0">1</text><text dominant-baseline="middle" fill="black" stroke="none" text-anchor="middle" x="-10.0" y="-200.0">2</text><text dominant-baseline="middle" fill="black" stroke="none" text-anchor="middle" x="-10.0" y="-300.0">3</text></g><text dominant-baseline="middle" fill="black" stroke="none" text-anchor="middle" x="-10.0" y="14.0">0</text></g></g></svg>