<svg xmlns="http://www.w3.org/2000/svg" height="380.0" width="480.0"><g transform="translate(40.0, 340.0)"><polyline fill="none" points="0.0,-250.0 0.4,-250.2999928000518 0.8,-250.59994240165884 1.2000000000000002,-250.89980561259674 1.6,-251.19953925308127 2.0,-251.49910016198615 2.4000000000000004,-251.7984452030581 2.8000000000000003,-252.0975312711285 3.2,-252.39631529832042 3.5999999999999996,-252.6947542602502 4.0,-252.99280518222298 4.4,-253.29042514542112 4.800000000000001,-253.5875712930841 5.2,-253.88420083668012 5.6000000000000005,-254.18027106206762 6.0,-254.47573933564559 6.4,-254.77056311049333 6.800000000000001,-255.06469993249658 7.199999999999999,-255.35810744646133 7.6,-255.6507434022126 8.0,-255.94256566067835 8.4,-256.23353219995766 8.8,-256.5236011213717 9.200000000000001,-256.812730655497 9.600000000000001,-257.1008791681802 10.000000000000002,-257.3880051665335 10.4,-257.6740673049092 10.8,-257.9590243908537 11.200000000000001,-258.2428353910391 11.600000000000001,-258.52545943717166 12.0,-258.8068558318773 12.4,-259.0869840545612 12.8,-259.36580376724356 13.200000000000001,-259.6432748203674 13.600000000000001,-259.9193572585807 14.000000000000002,-260.19401132648926 14.399999999999999,-260.46719747438203 14.799999999999999,-260.73887636392567 15.2,-261.0090088738296 15.6,-261.27755610547916 16.0,-261.5444793885371 16.400000000000002,-261.8097402865118 16.8,-262.0733006022924 17.200000000000003,-262.3351223836488 17.6,-262.59516792869704 18.000000000000004,-262.85339979132783 18.400000000000002,-263.10978078659923 18.800000000000004,-263.36427399609096 19.200000000000003,-263.61684277322064 19.600000000000005,-263.8674507485207 20.000000000000004,-264.1160618348759 20.4,-264.3626402327193 20.8,-264.60715043518763 21.2,-264.8495572332344 21.6,-265.0898257206995 22.0,-265.32792129933586 22.400000000000002,-265.56380968379165 22.8,-265.7974569065471 23.200000000000003,-266.0288293228059 23.599999999999998,-266.2578936153399 24.0,-266.4846167992868 24.4,-266.7089662268999 24.8,-266.9309095922493 25.2,-267.15041493587387 25.6,-267.36745064938344 26.0,-267.58198548001025 26.400000000000002,-267.7939885351095 26.8,-268.00342928660757 27.200000000000003,-268.2102775753982 27.6,-268.4145036156851 28.000000000000004,-268.6160779992715 28.4,-268.8149716997944 28.799999999999997,-269.0111560769047 29.2,-269.20460288039095 29.599999999999998,-269.3952842542479 30.0,-269.5831727406871 30.4,-269.7682412840912 30.8,-269.9504632349097 31.2,-270.12981235349673 31.6,-270.3062628138889 32.0,-270.47978920752496 32.4,-270.650366546904 32.800000000000004,-270.817970269184 33.2,-270.9825762397185 33.6,-271.1441607555322 34.0,-271.30270054873404 34.400000000000006,-271.4581727898678 34.800000000000004,-271.6105550911993 35.2,-271.7598255099405 35.6,-271.9059625514092 36.00000000000001,-272.0489451721237 36.400000000000006,-272.18875278283383 36.800000000000004,-272.3253652514852 37.2,-272.45876290611847 37.60000000000001,-272.58892653770175 38.00000000000001,-272.7158374028971 38.400000000000006,-272.8394772267592 38.800000000000004,-272.9598282053671 39.20000000000001,-273.07687300838774 39.60000000000001,-273.1905947815719 40.00000000000001,-273.30097714918065 40.400000000000006,-273.40800421634384 40.8,-273.51166057134867 41.199999999999996,-273.6119312878592 41.6,-273.70880192706545 42.0,-273.8022585397629 42.4,-273.89228766836067 42.8,-273.97887634881994 43.2,-274.0620121125202 43.6,-274.1416829880552 44.0,-274.21787750295664 44.4,-274.2905846853459 44.800000000000004,-274.3597940655144 45.2,-274.425495677431 45.6,-274.48768006017707 46.0,-274.546338259309 46.400000000000006,-274.6014618281475 46.800000000000004,-274.65304282899376 47.199999999999996,-274.701073834273 47.599999999999994,-274.7455479276033 48.0,-274.78645870479215 48.4,-274.8238002747583 48.8,-274.8575672603802 49.2,-274.8877547992703 49.6,-274.91435854447514 50.0,-274.9373746651014 50.4,-274.9567998468674 50.8,-274.9726312925806 51.2,-274.98486672254023 51.6,-274.9935043748654 52.0,-274.9985430057491 52.400000000000006,-274.99998188963735 52.800000000000004,-274.99782081933324 53.2,-274.99206010602717 53.6,-274.98270057925185 54.0,-274.9697435867631 54.400000000000006,-274.95319099434533 54.800000000000004,-274.9330451855433 55.2,-274.9093090613186 55.60000000000001,-274.8819860396322 56.00000000000001,-274.8510800549519 56.39999999999999,-274.8165955576862 56.8,-274.77853751354303 57.199999999999996,-274.73691140281505 57.599999999999994,-274.6917232195902 57.99999999999999,-274.64297947088886 58.4,-274.59068717572654 58.8,-274.5348538641034 59.199999999999996,-274.47548757591994 59.599999999999994,-274.4125968598189 60.0,-274.34619077195487 60.4,-274.2762788746897 60.8,-274.20287123521575 61.199999999999996,-274.12597842410634 61.6,-274.0456115137933 62.0,-273.96178207697284 62.4,-273.87450218493916 62.8,-273.7837844058457 63.2,-273.68964180289606 63.6,-273.5920879324623 64.0,-273.49113684213313 64.4,-273.3868030686912 64.8,-273.2791016360196 65.2,-273.16804805293856 65.60000000000001,-273.053658310972 66.0,-272.93594888204524 66.4,-272.8149367161126 66.8,-272.69063923871687 67.2,-272.56307434848 67.60000000000001,-272.4322604145257 68.0,-272.2982162738345 68.4,-272.160961228531 68.80000000000001,-272.0205150431045 69.19999999999999,-271.87689794156313 69.60000000000001,-271.73013060452126 69.99999999999999,-271.5802341662218 70.4,-271.42723021149294 70.79999999999998,-271.2711407726396 71.2,-271.11198832627144 71.59999999999998,-270.94979579006565 72.00000000000001,-270.7845865194671 72.39999999999999,-270.6163843043253 72.80000000000001,-270.4452133654687 73.19999999999999,-270.2710983512166 73.60000000000001,-270.0940643338302 73.99999999999999,-269.91413680590216 74.4,-269.73134167668553 74.79999999999998,-269.545705268363 75.20000000000002,-269.35725431225666 75.6,-269.16601594497854 76.00000000000001,-268.97201770452307 76.39999999999999,-268.7752875263016 76.80000000000001,-268.5758537391199 77.19999999999999,-268.3737450610987 77.60000000000001,-268.16899059553833 77.99999999999999,-267.96161982672817 78.40000000000002,-267.7516626157004 78.8,-267.53914919593075 79.20000000000002,-267.32411016898436 79.6,-267.10657650010955 80.00000000000001,-266.88657951377877 80.39999999999999,-266.6641508891779 80.80000000000001,-266.43932265564445 81.19999999999999,-266.2121271880556 81.6,-265.9825972021661 82.0,-265.7507657498973 82.39999999999999,-265.5166662145777 82.8,-265.28033230613585 83.2,-265.04179805624625 83.6,-264.8010978134286 84.0,-264.558266238102 84.39999999999999,-264.3133382975937 84.8,-264.0663492611039 85.2,-263.817334694627 85.6,-263.5663304558304 86.0,-263.3133726888905 86.4,-263.0584978192889 86.8,-262.8017425485663 87.2,-262.543143849038 87.6,-262.2827389584699 88.0,-262.02056537471617 88.4,-261.75666085032003 88.8,-261.4910633870768 89.2,-261.2238112305623 89.60000000000001,-260.95494286462525 90.0,-260.68449700584574 90.4,-260.41251259796013 90.8,-260.1390288062531 91.2,-259.8640850119182 91.60000000000001,-259.5877208063866 92.0,-259.30997598562635 92.4,-259.0308905444118 92.80000000000001,-258.7505046705641 93.2,-258.46885873916466 93.60000000000001,-258.18599330674095 94.0,-257.90194910542635 94.39999999999999,-257.61676703709503 94.8,-257.33048816747214 95.19999999999999,-257.0431537202201 95.6,-256.754805071003 96.0,-256.46548374152775 96.39999999999999,-256.17523139356615 96.8,-255.88408982295454 97.2,-255.5921009535761 97.6,-255.29930683132343 98.0,-255.00574961804426 98.4,-254.71147158546998 98.8,-254.41651510912874 99.2,-254.1209226622435 99.6,-253.8247368096158 100.0,-253.52800020149667 100.4,-253.23075556744487 100.8,-252.9330457101741 101.2,-252.63491349938928 101.6,-252.3364018656137 102.0,-252.03755379400673 102.4,-251.73841231817428 102.8,-251.43902051397203 103.2,-251.13942149330234 103.60000000000001,-250.83965839790656 104.0,-250.53977439315238 104.4,-250.23981266181835 104.80000000000001,-249.93981639787538 105.2,-249.63982880026714 105.60000000000001,-249.33989306668926 106.0,-249.04005238736912 106.4,-248.74034993884646 106.80000000000001,-248.44082887775585 107.2,-248.1415323346127 107.60000000000001,-247.8425034076019 108.0,-247.54378515637228 108.4,-247.24542059583584 108.80000000000001,-246.94745268997366 109.2,-246.64992434564942 109.60000000000001,-246.35287840643048 110.00000000000001,-246.0563576464188 110.4,-245.76040476409142 110.80000000000001,-245.46506237615213 111.20000000000002,-245.17037301139425 111.60000000000001,-244.8763791045772 112.00000000000001,-244.5831229903155 112.4,-244.29064689698288 112.79999999999998,-243.99899294063144 113.19999999999999,-243.70820311892678 113.6,-243.41831930510085 113.99999999999999,-243.1293832419219 114.39999999999999,-242.84143653568375 114.8,-242.55452065021453 115.19999999999999,-242.26867690090592 115.6,-241.9839464487639 115.99999999999999,-241.70037029448164 116.39999999999999,-241.41798927253527 116.8,-241.136844045304 117.19999999999999,-240.85697509721476 117.6,-240.57842272891244 118.0,-240.30122705145675 118.39999999999999,-240.02542798054628 118.8,-239.75106523077056 119.19999999999999,-239.4781783098916 119.6,-239.20680651315436 120.0,-238.93698891762872 120.39999999999999,-238.6687643765821 120.8,-238.402171513885 121.2,-238.13724871844892 121.6,-237.87403413869868 122.0,-237.6125656770789 122.39999999999999,-237.35288098459623 122.8,-237.09501745539762 123.2,-236.8390122213858 123.6,-236.58490214687197 124.0,-236.33272382326786 124.4,-236.08251356381618 124.8,-235.83430739836206 125.2,-235.5881410681644 125.6,-235.34405002074934 126.0,-235.1020694048059 126.4,-234.8622340651247 126.8,-234.62457853758013 127.2,-234.38913704415762 127.60000000000001,-234.1559434880253 128.0,-233.9250314486523 128.4,-233.69643417697324 128.8,-233.4701845906003 129.20000000000002,-233.24631526908294 129.6,-233.0248584492166 130.0,-232.80584602040065 130.4,-232.5893095200464 130.8,-232.3752801290358 131.20000000000002,-232.1637886672312 131.6,-231.95486558903767 132.0,-231.74854097901752 132.4,-231.544844547558 132.8,-231.34380562659328 133.20000000000002,-231.1454531653806 133.6,-230.9498157263316 134.0,-230.75692148089936 134.4,-230.56679820552208 134.8,-230.3794732776228 135.20000000000002,-230.19497367166738 135.60000000000002,-230.0133259552804 136.0,-229.83455628541898 136.4,-229.6586904046068 136.8,-229.4857536372267 137.20000000000002,-229.31577088587437 137.60000000000002,-229.14876662777232 138.0,-228.98476491124512 138.39999999999998,-228.8237893522566 138.79999999999998,-228.66586313100896 139.20000000000002,-228.51100898860525 139.6,-228.3592492237744 139.99999999999997,-228.2106056896603 140.39999999999998,-228.065099790675 140.8,-227.92275247941646 141.2,-227.78358425365167 141.59999999999997,-227.64761515336454 142.0,-227.51486475787055 142.4,-227.38535218299734 142.79999999999998,-227.25909607833182 143.19999999999996,-227.13611462453497 143.6,-227.01642553072358 144.00000000000003,-226.9000460319203 144.4,-226.7869928865719 144.79999999999998,-226.677282374136 145.2,-226.57093029273673 145.60000000000002,-226.46795195689003 146.0,-226.36836219529843 146.39999999999998,-226.2721753487154 146.8,-226.1794052678806 147.20000000000002,-226.09006531152556 147.6,-226.0041683444494 147.99999999999997,-225.9217267356671 148.4,-225.84275235662776 148.8,-225.76725657950558 149.2,-225.69525027556193 149.59999999999997,-225.6267438135802 150.0,-225.5617470583726 150.40000000000003,-225.50026936935944 150.8,-225.44231959922172 151.2,-225.3879060926263 151.6,-225.33703668502403 152.00000000000003,-225.28971870152176 152.4,-225.24595895582726 152.79999999999998,-225.20576374926833 153.2,-225.16913886988533 153.60000000000002,-225.13608959159754 154.0,-225.10662067344387 154.39999999999998,-225.08073635889772 154.8,-225.05844037525557 155.20000000000002,-225.0397359331006 155.6,-225.02462572584014 155.99999999999997,-225.0131119293179 156.4,-225.00519620150072 156.80000000000004,-225.00087968223968 157.20000000000002,-225.0001629931062 157.6,-225.0030462373021 158.0,-225.00952899964534 158.40000000000003,-225.01961034662932 158.8,-225.0332888265575 159.2,-225.05056246975232 159.60000000000002,-225.07142878883917 160.00000000000003,-225.09588477910398 160.4,-225.12392691892651 160.79999999999998,-225.15555117028708 161.20000000000002,-225.19075297934813 161.60000000000002,-225.22952727711 162.0,-225.27186848014074 162.39999999999998,-225.31777049138037 162.79999999999998,-225.36722670101852 163.2,-225.42022998744653 163.6,-225.47677271828275 164.0,-225.53684675147153 164.39999999999998,-225.60044343645603 164.79999999999998,-225.66755361542337 165.2,-225.7381676246239 165.6,-225.81227529576222 166.0,-225.88986595746172 166.4,-225.97092843680127 166.79999999999998,-226.0554510609239 167.2,-226.14342165871773 167.6,-226.2348275625688 168.0,-226.32965561018474 168.4,-226.42789214649073 168.79999999999998,-226.52952302559524 169.2,-226.6345336128272 169.6,-226.74290878684363 170.0,-226.8546329418067 170.4,-226.96968998963115 170.79999999999998,-227.08806336230086 171.2,-227.2097360142548 171.6,-227.33469042484126 172.0,-227.4629086008411 172.4,-227.59437207905853 172.8,-227.72906192897983 173.2,-227.86695875549938 173.6,-228.00804270171238 174.0,-228.15229345177445 174.4,-228.2996902338268 174.8,-228.4502118229875 175.2,-228.60383654440787 175.6,-228.7605422763934 176.0,-228.92030645358957 176.4,-229.08310607023085 176.8,-229.24891768345387 177.2,-229.41771741667273 177.6,-229.58948096301754 178.0,-229.76418358883453 178.4,-229.94180013724738 178.8,-230.12230503178006 179.20000000000002,-230.30567228003966 179.6,-230.4918754774593 180.0,-230.68088781110032 180.4,-230.87268206351328 180.8,-231.06723061665724 181.20000000000002,-231.26450545587673 181.6,-231.4644781739358 182.0,-231.6671199751086 182.4,-231.87240167932592 182.8,-232.08029372637708 183.20000000000002,-232.29076618016654 183.6,-232.50378873302458 184.0,-232.71933071007183 184.4,-232.93736107363597 184.8,-233.1578484277214 185.20000000000002,-233.3807610225301 185.60000000000002,-233.6060667590337 186.0,-233.83373319359538 186.4,-234.06372754264208 186.8,-234.29601668738482 187.20000000000002,-234.53056717858829 187.60000000000002,-234.76734524138695 188.0,-235.00631678014892 188.39999999999998,-235.24744738338563 188.79999999999998,-235.4907023287068 189.20000000000002,-235.73604658782077 189.6,-235.98344483157803 189.99999999999997,-236.23286143505905 190.39999999999998,-236.48426048270395 190.8,-236.73760577348423 191.2,-236.99286082611584 191.59999999999997,-237.24998888431224 192.0,-237.5089529220774 192.4,-237.76971564903738 192.79999999999998,-238.03223951581006 193.19999999999996,-238.29648671941226 193.6,-238.5624192087033 194.00000000000003,-238.82999868986425 194.4,-239.0991866319122 194.79999999999998,-239.36994427224857 195.2,-239.64223262224118 195.60000000000002,-239.916012472838 196.0,-240.19124440021366 196.39999999999998,-240.46788877144624 196.8,-240.74590575022435 197.20000000000002,-241.02525530258347 197.6,-241.30589720267065 197.99999999999997,-241.5877910385374 198.4,-241.87089621795832 198.8,-242.15517197427687 199.2,-242.44057737227527 199.59999999999997,-242.72707131406943 200.0,-243.01461254502684 200.4,-243.3031596597071 200.8,-243.59267110782423 201.2,-243.88310520023003 201.6,-244.1744201149171 202.0,-244.46657390304102 202.4,-244.75952449496117 202.8,-245.05322970629862 203.2,-245.34764724401032 203.6,-245.6427347124797 204.0,-245.9384496196211 204.4,-246.234749382999 204.8,-246.53159133595946 205.20000000000002,-246.82893273377414 205.6,-247.12673075979552 206.0,-247.42494253162258 206.4,-247.72352510727535 206.8,-248.02243549137896 207.20000000000002,-248.3216306413546 207.6,-248.6210674736177 208.0,-248.92070286978176 208.4,-249.2204936828676 208.8,-249.52039674351613 209.20000000000002,-249.8203688662048 209.60000000000002,-250.12036685546641 210.0,-250.42034751210878 210.4,-250.72026763943575 210.8,-251.02008404946721 211.20000000000002,-251.31975356915834 211.60000000000002,-251.619233046616 212.0,-251.91847935731298 212.4,-252.21744941029758 212.8,-252.51610015439888 213.20000000000002,-252.81438858442576 213.60000000000002,-253.11227174735964 214.0,-253.40970674853995 214.4,-253.70665075784038 214.8,-254.0030610158368 215.20000000000002,-254.2988948399641 215.60000000000002,-254.59410963066298 216.0,-254.8886628775136 216.4,-255.18251216535745 216.8,-255.4756151804048 217.20000000000002,-255.76792971632796 217.60000000000002,-256.05941368033893 218.00000000000003,-256.3500250992506 218.4,-256.63972212552073 218.8,-256.9284630432781 219.20000000000002,-257.2162062743297 219.60000000000002,-257.50291038414724 220.00000000000003,-257.7885340878345 220.4,-258.07303625607153 220.8,-258.3563759210379 221.20000000000002,-258.6385122823114 221.60000000000002,-258.91940471274347 222.00000000000003,-259.1990127643096 222.40000000000003,-259.47729617393355 222.8,-259.754214869285 223.20000000000002,-260.02972897455055 223.60000000000002,-260.30379881617506 224.00000000000003,-260.57638492857495 224.40000000000003,-260.847448059821 224.8,-261.11694917729073 225.2,-261.3848494732889 225.59999999999997,-261.6511103706358 225.99999999999997,-261.9156935282225 226.39999999999998,-262.17856084653124 226.79999999999998,-262.4396744731226 227.2,-262.6989968080854 227.59999999999997,-262.95649050945167 227.99999999999997,-263.21211849857326 228.39999999999998,-263.4658439654615 228.79999999999998,-263.71763037408755 229.2,-263.9674414676437 229.6,-264.2152412737642 229.99999999999997,-264.460994109705 230.39999999999998,-264.70466458748245 230.79999999999998,-264.946217618969 231.2,-265.1856184209452 231.6,-265.42283252010947 231.99999999999997,-265.6578257580414 232.39999999999998,-265.8905642961207 232.79999999999998,-266.1210146204002 233.2,-266.34914354643126 233.6,-266.5749182240429 234.0,-266.7983061420715 234.39999999999998,-267.0192751330431 234.79999999999998,-267.2377933778046 235.2,-267.4538294101065 235.6,-267.66735212113343 236.0,-267.87833076398397 236.39999999999998,-268.086734958098 236.79999999999998,-268.2925346936319 237.2,-268.49570033577925 237.6,-268.6962026290387 238.0,-268.8940127014264 238.39999999999998,-269.08910206863374 238.79999999999998,-269.281442638129 239.2,-269.47100671320266 239.6,-269.6577669969553 240.0,-269.8416965962288 240.39999999999998,-270.0227690254788 240.79999999999998,-270.2009582105883 241.2,-270.37623849262246 241.6,-270.5485846315238 242.0,-270.7179718097459 242.4,-270.8843756358279 242.79999999999998,-271.0477721479063 243.2,-271.2081378171659 243.6,-271.36544955122724 244.0,-271.51968469747254 244.4,-271.67082104630725 244.79999999999998,-271.81883683435825 245.2,-271.96371074760793 245.6,-272.10542192446303 246.0,-272.243949958759 246.4,-272.3792749026983 246.8,-272.51137726972274 247.2,-272.6402380373198 247.6,-272.76583864976175 248.0,-272.8881610207772 248.4,-273.00718753615627 248.8,-273.12290105628637 249.2,-273.23528491862055 249.6,-273.34432294007684 250.0,-273.4499994193685 250.4,-273.55229913926513 250.8,-273.651207368784 251.2,-273.7467098653108 251.6,-273.8387928766511 252.0,-273.92744314301046 252.4,-274.0126478989036 252.8,-274.09439487499293 253.2,-274.1726722998552 253.6,-274.2474689016765 254.0,-274.31877390987535 254.4,-274.38657705665383 254.8,-274.45086857847593 255.20000000000002,-274.51163921747366 255.6,-274.56888022277997 256.0,-274.622583351789 256.4,-274.672740871343 256.8,-274.7193455588459 257.2,-274.762390703303 257.6,-274.80187010628816 258.0,-274.8377780828354 258.40000000000003,-274.8701094622582 258.8,-274.89885958889374 259.2,-274.9240243227735 259.6,-274.94560004021935 260.0,-274.96358363436514 260.40000000000003,-274.9779725156044 260.8,-274.98876461196323 261.2,-274.9959583693983 261.6,-274.99955275202103 262.0,-274.9995472422464 262.40000000000003,-274.99594184086794 262.8,-274.9887370670571 263.2,-274.97793395828904 263.6,-274.9635340701926 264.0,-274.9455394763268 264.40000000000003,-274.92395276788216 264.8,-274.89877705330736 265.2,-274.8700159578617 265.6,-274.8376736230933 266.0,-274.80175470624243 266.40000000000003,-274.76226437957115 266.80000000000007,-274.7192083296182 267.2,-274.6725927563803 267.6,-274.6224243724196 268.0,-274.56871040189657 268.4,-274.51145857953014 268.8,-274.4506771494839 269.20000000000005,-274.3863748641788 269.6,-274.3185609830326 270.00000000000006,-274.2472452711271 270.40000000000003,-274.1724379978017 270.8,-274.0941499351743 271.20000000000005,-274.0123923565908 271.59999999999997,-273.9271770350011 272.0,-273.83851624126436 272.40000000000003,-273.74642274238164 272.8,-273.6509097996576 273.20000000000005,-273.55199116679097 273.6,-273.449681087894 274.0,-273.34399429544123 274.40000000000003,-273.2349460081482 274.79999999999995,-273.1225519287797 275.20000000000005,-273.00682824188914 275.59999999999997,-272.8877916114873 276.0,-272.76545917864325 276.4,-272.63984855901606 276.79999999999995,-272.5109778403178 277.2,-272.37886557970944 277.59999999999997,-272.243530801128 278.0,-272.1049929925478 278.40000000000003,-271.963272103174 278.79999999999995,-271.81838854056963 279.2,-271.6703631677175 279.59999999999997,-271.5192173000153 279.99999999999994,-271.364972702207 280.4,-271.2076515852481 280.79999999999995,-271.04727660310755 281.2,-270.8838708495056 281.6,-270.71745785458864 282.0,-270.5480615815401 282.4,-270.3757064231307 282.8,-270.2004171982054 283.19999999999993,-270.0222191481098 283.59999999999997,-269.841137933055 284.0,-269.65719962842326 284.4,-269.4704307210124 284.8,-269.28085810522253 285.2,-269.08850907918264 285.59999999999997,-268.89341134082014 286.0,-268.69559298387225 286.3999999999999,-268.49508249384047 286.8,-268.291908743889 287.2,-268.0861009906866 287.59999999999997,-267.87768887019416 288.00000000000006,-267.666702393397 288.4,-267.45317194198304 288.8,-267.2371282639684 289.2,-267.0186024692693 289.59999999999997,-266.79762602522266 290.0,-266.5742307520546 290.4,-266.3484488182983 290.8,-266.1203127361622 291.20000000000005,-265.8898553568478 291.59999999999997,-265.6571098658197 292.0,-265.42210977802614 292.4,-265.1848889330738 292.79999999999995,-264.94548149035455 293.2,-264.7039219241263 293.6,-264.46024501854924 294.0,-264.2144858626768 294.40000000000003,-263.9666798454025 294.8,-263.7168626503649 295.2,-263.46507025080814 295.6,-263.21133890440285 295.99999999999994,-262.95570514802444 296.4,-262.698205792492 296.8,-262.43887791726786 297.2,-262.17775886511794 297.6,-261.91488623673445 298.0,-261.6502978853218 298.4,-261.3840319111452 298.8,-261.11612665604486 299.19999999999993,-260.8466206979148 299.6,-260.57555284514694 300.0,-260.3029621310439 300.4,-260.0288878081974 300.80000000000007,-259.7533693428364 301.2,-259.4764464091438 301.6,-259.19815888354344 302.0,-258.9185468389582 302.4,-258.6376505390394 302.8,-258.35551043236865 303.2,-258.072167146634 303.6,-257.78766148277873 304.00000000000006,-257.5020344091271 304.4,-257.21532705548395 304.8,-256.9275807072128 305.2,-256.6388367992907 305.59999999999997,-256.3491369103413 306.0,-256.0585227566481 306.4,-255.767036186147 306.8,-255.47471917240046 307.20000000000005,-255.18161380855335 307.6,-254.88776230127166 308.0,-254.5932069646646 308.40000000000003,-254.29799021419157 308.79999999999995,-254.00215456055466 309.2,-253.7057426035767 309.6,-253.4087970260673 310.0,-253.11136058767656 310.40000000000003,-252.81347611873755 310.8,-252.51518651409913 311.2,-252.21653472694894 311.6,-251.91756376262816 311.99999999999994,-251.61831667243916 312.40000000000003,-251.3188365474457 312.8,-251.01916651226833 313.2,-250.71934971887435 313.6000000000001,-250.41942934036388 314.0,-250.11944856475324 314.40000000000003,-249.81945058875556 314.8,-249.51947861156114 315.2,-249.21957582861637 315.6,-248.91978542540372 316.0,-248.62015057122315 316.40000000000003,-248.32071441297595 316.80000000000007,-248.0215200689515 317.2,-247.7226106226184 317.6,-247.42402911642026 318.0,-247.1258185455781 318.4,-246.82802185189888 318.8,-246.53068191759172 319.20000000000005,-246.23384155909352 319.6,-245.93754352090298 320.00000000000006,-245.64183046942546 320.40000000000003,-245.34674498682952 320.8,-245.0523295649147 321.20000000000005,-244.75862659899295 321.59999999999997,-244.46567838178393 322.0,-244.17352709732467 322.40000000000003,-243.88221481489524 322.8,-243.59178348296103 323.20000000000005,-243.30227492313188 323.6,-243.01373082414028 324.0,-242.72619273583774 324.40000000000003,-242.43970206321214 324.79999999999995,-242.15430006042538 325.20000000000005,-241.87002782487252 325.59999999999997,-241.58692629126443 326.0,-241.3050362257326 326.4,-241.0243982199595 326.79999999999995,-240.74505268533295 327.2,-240.46703984712724 327.59999999999997,-240.19039973871062 328.0,-239.91517219578077 328.40000000000003,-239.64139685062818 328.79999999999995,-239.3691131264296 329.2,-239.09836023157064 329.59999999999997,-238.82917715400043 329.99999999999994,-238.56160265561698 330.4,-238.29567526668563 330.79999999999995,-238.03143328029094 331.2,-237.76891474682228 331.6,-237.50815746849483 332.0,-237.2491989939062 332.4,-236.9920766126291 332.8,-236.73682734984223 333.19999999999993,-236.48348796099833 333.59999999999997,-236.23209492653157 334.0,-235.9826844466046 334.4,-235.7352924358955 334.8,-235.48995451842637 335.2,-235.24670602243333 335.59999999999997,-235.00558197527945 336.0,-234.76661709841096 336.3999999999999,-234.52984580235716 336.8,-234.29530218177547 337.2,-234.063020010542 337.59999999999997,-233.83303273688807 338.00000000000006,-233.6053734785837 338.4,-233.38007501816858 338.8,-233.15716979823173 339.2,-232.93668991673968 339.59999999999997,-232.71866712241442 340.0,-232.50313281016142 340.4,-232.2901180165494 340.8,-232.0796534153404 341.20000000000005,-231.87176931307346 341.59999999999997,-231.66649564469995 342.0,-231.4638619692735 342.4,-231.26389746569313 342.79999999999995,-231.06663092850192 343.2,-230.87209076374026 343.6,-230.6803049848558 344.0,-230.4913012086692 344.40000000000003,-230.3051066513977 344.8,-230.12174812473583 345.2,-229.94125203199448 345.6,-229.76364436429918 345.99999999999994,-229.58895069684723 346.4,-229.41719618522475 346.8,-229.24840556178466 347.2,-229.08260313208513 347.6,-228.91981277138947 348.0,-228.76005792122842 348.4,-228.6033615860242 348.8,-228.44974632977835 349.19999999999993,-228.29923427282242 349.6,-228.15184708863242 350.0,-228.00760600070825 350.4,-227.86653177951732 350.80000000000007,-227.72864473950364 351.2,-227.59396473616275 351.6,-227.46251116318246 352.0,-227.33430294965004 352.4,-227.20935855732674 352.8,-227.0876959779892 353.2,-226.9693327308385 353.6,-226.85428585997775 354.00000000000006,-226.74257193195757 354.4,-226.63420703339057 354.8,-226.52920676863488 355.2,-226.4275862575471 355.59999999999997,-226.32936013330536 356.0,-226.23454254030173 356.4,-226.14314713210584 356.8,-226.0551870694984 357.20000000000005,-225.97067501857657 357.6,-225.88962314892953 358.0,-225.81204313188655 358.40000000000003,-225.73794613883598 358.79999999999995,-225.6673428396168 359.2,-225.6002434009821 359.6,-225.53665748513504 360.0,-225.4765942483377 360.40000000000003,-225.42006233959236 360.8,-225.36706989939617 361.2,-225.31762455856898 361.6,-225.2717334371544 361.99999999999994,-225.22940314339468 362.40000000000003,-225.1906397727789 362.8,-225.15544890716544 363.2,-225.12383561397817 363.6000000000001,-225.09580444547672 364.0,-225.07135943810084 364.40000000000003,-225.05050411188947 364.8,-225.0332414699734 365.2,-225.01957399814327 365.6,-225.00950366449152 366.0,-225.00303191912866 366.40000000000003,-225.00015969397487 366.80000000000007,-225.0008874026257 367.2,-225.00521494029223 367.6,-225.01314168381663 368.0,-225.0246664917614 368.4,-225.03978770457425 368.8,-225.05850314482657 369.20000000000005,-225.08081011752736 369.6,-225.1067054105111 370.00000000000006,-225.1361852949003 370.40000000000003,-225.16924552564254 370.8,-225.20588134212173 371.20000000000005,-225.24608746884368 371.59999999999997,-225.2898581161955 372.0,-225.33718698127973 372.40000000000003,-225.3880672488215 372.8,-225.44249159215025 373.20000000000005,-225.50045217425452 373.6,-225.56194064891068 374.0,-225.6269481618846 374.40000000000003,-225.6954653522069 374.79999999999995,-225.7674823535203 375.20000000000005,-225.8429887955013 375.59999999999997,-225.92197380535256 376.0,-226.0044260093693 376.4,-226.09033353457647 376.79999999999995,-226.179684010439 377.2,-226.27246457064274 377.59999999999997,-226.36866185494728 378.0,-226.46826201110994 378.40000000000003,-226.57125069688038 378.79999999999995,-226.67761308206573 379.2,-226.78733385066647 379.59999999999997,-226.90039720308138 379.99999999999994,-227.0167868583831 380.4,-227.13648605666242 380.79999999999995,-227.2594775614416 381.2,-227.38574366215656 381.6,-227.5152661767069 382.0,-227.64802645407428 382.4,-227.78400537700833 382.8,-227.92318336477902 383.19999999999993,-228.06554037599662 383.59999999999997,-228.2110559114975 384.0,-228.35970901729607 384.4,-228.51147828760185 384.8,-228.66634186790225 385.2,-228.82427745810926 385.59999999999997,-228.98526231577083 386.0,-229.14927325934568 386.3999999999999,-229.31628667154123 386.8,-229.48627850271487 387.2,-229.65922427433654 387.59999999999997,-229.83509908251403 388.00000000000006,-230.01387760157886 388.4,-230.19553408773317 388.8,-230.38004238275695 389.2,-230.56737591777446 389.59999999999997,-230.75750771708036 390.0,-230.95041040202418 390.4,-231.14605619495256 390.8,-231.34441692320942 391.20000000000005,-231.54546402319264 391.59999999999997,-231.7491685444672 392.0,-231.9555011539341 392.4,-232.16443214005415 392.79999999999995,-232.37593141712622 393.2,-232.58996852962002 393.6,-232.80651265656118 394.0,-233.02553261596958 394.40000000000003,-233.24699686934954 394.8,-233.47087352623126 395.2,-233.69713034876304 395.6,-233.92573475635334 395.99999999999994,-234.15665383036253 396.4,-234.38985431884296 396.8,-234.62530264132727 397.2,-234.86296489366393 397.6,-235.10280685289922 398.0,-235.34479398220543 398.4,-235.58889143585415 398.8,-235.83506406423385 399.19999999999993,-236.08327641891137 399.6,-236.33349275773662 400.0,-236.58567704998913" stroke="red" stroke-width="2.0"/><g><g><line fill="none" stroke="black" x1="-8.0" x2="408.0" y1="0.0" y2="0.0"/><polyline fill="black" points="408.0,-5.0 408.0,5.0 424.0,0.0" stroke="none"/><line fill="none" stroke="black" x1="33.33333333333333" x2="33.33333333333333" y1="-3.0" y2="3.0"/><line fill="none" stroke="black" x1="66.66666666666666" x2="66.66666666666666" y1="-3.0" y2="3.0"/><line fill="none" stroke="black" x1="100.0" x2="100.0" y1="-3.0" y2="3.0"/><line fill="none" stroke="black" x1="133.33333333333331" x2="133.33333333333331" y1="-3.0" y2="3.0"/><line fill="none" stroke="black" x1="166.66666666666669" x2="166.66666666666669" y1="-3.0" y2="3.0"/><line fill="none" stroke="black" x1="200.0" x2="200.0" y1="-3.0" y2="3.0"/><line fill="none" stroke="black" x1="233.33333333333334" x2="233.33333333333334" y1="-3.0" y2="3.0"/><line fill="none" stroke="black" x1="266.66666666666663" x2="266.66666666666663" y1="-3.0" y2="3.0"/><line fill="none" stroke="black" x1="300.0" x2="300.0" y1="-3.0" y2="3.0"/><line fill="none" stroke="black" x1="333.33333333333337" x2="333.33333333333337" y1="-3.0" y2="3.0"/><line fill="none" stroke="black" x1="366.66666666666663" x2="366.66666666666663" y1="-3.0" y2="3.0"/><line fill="none" stroke="black" x1="400.0" x2="400.0" y1="-3.0" y2="3.0"/><text dominant-baseline="middle" fill="black" stroke="none" text-anchor="middle" x="33.33333333333333" y="14.0">1</text><text dominant-baseline="middle" fill="black" stroke="none" text-anchor="middle" x="66.66666666666666" y="14.0">2</text><text dominant-baseline="middle" fill="black" stroke="none" text-anchor="middle" x="100.0" y="14.0">3</text><text dominant-baseline="middle" fill="black" stroke="none" text-anchor="middle" x="133.33333333333331" y="14.0">4</text><text dominant-baseline="middle" fill="black" stroke="none" text-anchor="middle" x="166.66666666666669" y="14.0">5</text><text dominant-baseline="middle" fill="black" stroke="none" text-anchor="middle" x="200.0" y="14.0">6</text><text dominant-baseline="middle" fill="black" stroke="none" text-anchor="middle" x="233.33333333333334" y="14.0">7</text><text dominant-baseline="middle" fill="black" stroke="none" text-anchor="middle" x="266.66666666666663" y="14.0">8</text><text dominant-baseline="middle" fill="black" stroke="none" text-anchor="middle" x="300.0" y="14.0">9</text><text dominant-baseline="middle" fill="black" stroke="none" text-anchor="middle" x="333.33333333333337" y="14.0">10</text><text dominant-baseline="middle" fill="black" stroke="none" text-anchor="middle" x="366.66666666666663" y="14.0">11</text><text dominant-baseline="middle" fill="black" stroke="none" text-anchor="middle" x="400.0" y="14.0">12</text></g><g><line fill="none" stroke="black" x1="0.0" x2="0.0" y1="8.0" y2="-308.0"/><polyline fill="black" points="-5.0,-308.0 5.0,-308.0 0.0,-324.0" stroke="none"/><line fill="none" stroke="black" x1="-3.0" x2="3.0" y1="-50.0" y2="-50.0"/><line fill="none" stroke="black" x1="-3.0" x2="3.0" y1="-100.0" y2="-100.0"/><line fill="none" stroke="black" x1="-3.0" x2="3.0" y1="-150.0" y2="-150.0"/><line fill="none" stroke="black" x1="-3.0" x2="3.0" y1="-200.0" y2="-200.0"/><line fill="none" stroke="black" x1="-3.0" x2="3.0" y1="-250.0" y2="-250.0"/><line fill="none" stroke="black" x1="-3.0" x2="3.0" y1="-300.0" y2="-300.0"/><text dominant-baseline="middle" fill="black" stroke="none" text-anchor="middle" x="-10.0" y="-50.0">1</text><text dominant-baseline="middle" fill="black" stroke="none" text-anchor="middle" x="-10.0" y="-100.0">2</text><text dominant-baseline="middle" fill="black" stroke="none" text-anchor="middle" x="-10.0" y="-150.0">3</text><text dominant-baseline="middle" fill="black" stroke="none" text-anchor="middle" x="-10.0" y="-200.0">4</text><text dominant-baseline="middle" fill="black" stroke="none" text-anchor="middle" x="-10.0" y="-250.0">5</text><text dominant-baseline="middle" fill="black" stroke="none" text-anchor="middle" x="-10.0" y="-300.0">6</text></g><text dominant-baseline="middle" fill="black" stroke="none" text-anchor="middle" x="-10.0" y="14.0">0</text></g></g></svg>