<svg xmlns="http://www.w3.org/2000/svg" height="380.0" width="480.0"><g transform="translate(40.0, 340.0)"><polyline fill="none" points="0.0,-175.0 0.4,-174.99820002159987 0.8,-174.99280034559337 1.2000000000000002,-174.98380174952442 1.6,-174.97120552917536 2.0,-174.95501349838008 2.4000000000000004,-174.93522798876316 2.8000000000000003,-174.9118518494037 3.2,-174.88488844642538 3.5999999999999996,-174.85434166251167 4.0,-174.82021589634667 4.4,-174.7825160619817 4.800000000000001,-174.74124758812778 5.2,-174.69641641737385 5.6000000000000005,-174.64802900533104 6.0,-174.59609231970305 6.4,-174.54061383928283 6.800000000000001,-174.48160155287576 7.199999999999999,-174.41906395814908 7.6,-174.35301006040834 8.0,-174.28344937130075 8.4,-174.21039190744526 8.8,-174.13384818899044 9.200000000000001,-174.05382923809952 9.600000000000001,-173.97034657736313 10.000000000000002,-173.88341222814014 10.4,-173.79303870882663 10.8,-173.69923903305326 11.200000000000001,-173.6020267078112 11.600000000000001,-173.50141573150734 12.0,-173.39742059194836 12.4,-173.29005626425473 12.8,-173.17933820870405 13.200000000000001,-173.065282368505 13.600000000000001,-172.94790516750152 14.000000000000002,-172.8272235078077 14.399999999999999,-172.703254767374 14.799999999999999,-172.57601679748487 15.2,-172.44552792018806 15.6,-172.3118069256564 16.0,-172.1748730694821 16.400000000000002,-172.03474606990378 16.8,-171.89144610496726 17.200000000000003,-171.7449938096198 17.6,-171.595410272739 18.000000000000004,-171.4427170340956 18.400000000000002,-171.2869360812521 18.800000000000004,-171.1280898463966 19.200000000000003,-170.96620120311232 19.600000000000005,-170.80129346308425 20.000000000000004,-170.63339037274196 20.4,-170.46251610984032 20.8,-170.2886952799779 21.2,-170.1119529130539 21.6,-169.93231445966364 22.0,-169.74980578743413 22.400000000000002,-169.56445317729873 22.8,-169.37628331971297 23.200000000000003,-169.18532331081124 23.599999999999998,-168.9916006485048 24.0,-168.79514322852236 24.4,-168.59597934039286 24.8,-168.39413766337202 25.2,-168.18964726231258 25.6,-167.98253758347894 26.0,-167.77283845030695 26.400000000000002,-167.5605800591094 26.8,-167.3457929747279 27.200000000000003,-167.12850812613144 27.6,-166.9087568019627 28.000000000000004,-166.6865706460327 28.4,-166.46198165276394 28.799999999999997,-166.2350221625833 29.2,-166.00572485726528 29.599999999999998,-165.77412275522553 30.0,-165.54024920676662 30.4,-165.30413788927532 30.8,-165.06582280237345 31.2,-164.8253382630216 31.6,-164.58271890057793 32.0,-164.33799965181143 32.4,-164.091215755871 32.800000000000004,-163.8424027492112 33.2,-163.59159646047507 33.6,-163.33883300533486 34.0,-163.08414878129125 34.400000000000006,-162.82758046243242 34.800000000000004,-162.56916499415294 35.2,-162.30893958783372 35.6,-162.0469417154836 36.00000000000001,-161.78320910434348 36.400000000000006,-161.5177797314536 36.800000000000004,-161.25069181818506 37.2,-160.98198382473578 37.60000000000001,-160.71169444459252 38.00000000000001,-160.43986259895894 38.400000000000006,-160.1665274311511 38.800000000000004,-159.8917283009609 39.20000000000001,-159.61550477898814 39.60000000000001,-159.33789664094274 40.00000000000001,-159.05894386191684 40.400000000000006,-158.7786866106286 40.8,-158.49716524363794 41.199999999999996,-158.21442029953522 41.6,-157.93049249310383 42.0,-157.64542270945722 42.4,-157.3592519981517 42.8,-157.07202156727516 43.2,-156.78377277751335 43.6,-156.4945471361939 44.0,-156.2043862913093 44.4,-155.91333202551994 44.800000000000004,-155.62142625013706 45.2,-155.32871099908795 45.6,-155.03522842286293 46.0,-154.74102078244584 46.400000000000006,-154.44613044322853 46.800000000000004,-154.15059986891032 47.199999999999996,-153.85447161538312 47.599999999999994,-153.55778832460385 48.0,-153.26059271845367 48.4,-152.96292759258625 48.8,-152.66483581026543 49.2,-152.36636029619277 49.6,-152.0675440303265 50.0,-151.76843004169257 50.4,-151.46906140218846 50.8,-151.169481220381 51.2,-150.8697326352986 51.6,-150.56985881021964 52.0,-150.26990292645667 52.400000000000006,-149.96990817713873 52.800000000000004,-149.6699177609913 53.2,-149.36997487611583 53.6,-149.0701227137696 54.0,-148.77040445214573 54.400000000000006,-148.47086325015604 54.800000000000004,-148.17154224121597 55.2,-147.8724845270336 55.60000000000001,-147.57373317140306 56.00000000000001,-147.27533119400323 56.39999999999999,-146.97732156420327 56.8,-146.6797471948749 57.199999999999996,-146.38265093621308 57.599999999999994,-146.08607556956568 57.99999999999999,-145.79006380127308 58.4,-145.49465825651836 58.8,-145.19990147318947 59.199999999999996,-144.90583589575394 59.599999999999994,-144.61250386914674 60.0,-144.3199476326728 60.4,-144.02820931392472 60.8,-143.73733092271624 61.199999999999996,-143.447354345033 61.6,-143.1583213370012 62.0,-142.87027351887448 62.4,-142.58325236904096 62.8,-142.29729921805017 63.2,-142.01245524266184 63.6,-141.72876145991614 64.0,-141.44625872122754 64.4,-141.16498770650233 64.8,-140.88498891828056 65.2,-140.60630267590386 65.60000000000001,-140.3289691097096 66.0,-140.0530281552521 66.4,-139.77851954755195 66.8,-139.50548281537434 67.2,-139.23395727553685 67.60000000000001,-138.96398202724808 68.0,-138.6955959464772 68.4,-138.42883768035614 68.80000000000001,-138.16374564161424 69.19999999999999,-137.90035800304696 69.60000000000001,-137.6387126920192 69.99999999999999,-137.37884738500355 70.4,-137.12079950215525 70.79999999999998,-136.8646062019235 71.2,-136.61030437570076 71.59999999999998,-136.3579306425107 72.00000000000001,-136.1075213437347 72.39999999999999,-135.8591125378791 72.80000000000001,-135.61273999538273 73.19999999999999,-135.36843919346597 73.60000000000001,-135.1262453110221 73.99999999999999,-134.88619322355177 74.4,-134.64831749814067 74.79999999999998,-134.4126523884823 75.20000000000002,-134.17923182994514 75.6,-133.94808943468632 76.00000000000001,-133.71925848681136 76.39999999999999,-133.4927719375813 76.80000000000001,-133.26866240066786 77.19999999999999,-133.04696214745712 77.60000000000001,-132.82770310240247 77.99999999999999,-132.61091683842744 78.40000000000002,-132.3966345723795 78.8,-132.1848871605347 79.20000000000002,-131.97570509415436 79.6,-131.76911849509466 80.00000000000001,-131.56515711146886 80.39999999999999,-131.36385031336374 80.80000000000001,-131.16522708861038 81.19999999999999,-130.96931603860995 81.6,-130.7761453742151 82.0,-130.58574291166767 82.39999999999999,-130.3981360685933 82.8,-130.21335186005322 83.2,-130.0314168946541 83.6,-129.8523573707166 84.0,-129.67619907250275 84.39999999999999,-129.5029673665031 84.8,-129.332687197784 85.2,-129.16538308639548 85.6,-129.0010791238404 86.0,-128.8397989696056 86.4,-128.6815658477545 86.8,-128.5264025435833 87.2,-128.37433140033954 87.6,-128.2253743160052 88.0,-128.07955274014296 88.4,-127.93688767080779 88.8,-127.79739965152316 89.2,-127.66110876832282 89.60000000000001,-127.5280346468584 90.0,-127.39819644957348 90.4,-127.27161287294406 90.8,-127.1483021447865 91.2,-127.02828202163255 91.60000000000001,-126.91156978617254 92.0,-126.79818224476669 92.4,-126.68813572502503 92.80000000000001,-126.58144607345629 93.2,-126.4781286531859 93.60000000000001,-126.37819834174387 94.0,-126.28166952892232 94.39999999999999,-126.18855611470354 94.8,-126.09887150725827 95.19999999999999,-126.01262862101498 95.6,-125.92983987480031 96.0,-125.85051719005064 96.39999999999999,-125.77467198909547 96.8,-125.70231519351272 97.2,-125.6334572225559 97.6,-125.56810799165385 98.0,-125.50627691098288 98.4,-125.4479728841118 98.8,-125.39320430671972 99.2,-125.34197906538711 99.6,-125.29430453646022 100.0,-125.25018758498886 100.4,-125.2096345637378 100.8,-125.172651312272 101.2,-125.13924315611578 101.6,-125.1094149059859 102.0,-125.08317085709884 102.4,-125.06051478855227 102.8,-125.04144996278094 103.2,-125.02597912508679 103.60000000000001,-125.01410450324373 104.0,-125.0058278071768 104.4,-125.0011502287159 104.80000000000001,-125.00007244142424 105.2,-125.00259460050138 105.60000000000001,-125.00871634276072 106.0,-125.01843678668197 106.4,-125.03175453253803 106.80000000000001,-125.04866766259646 107.2,-125.06917374139576 107.60000000000001,-125.09326981609608 108.0,-125.12095241690423 108.4,-125.15221755757358 108.80000000000001,-125.18706073597788 109.2,-125.22547693475963 109.60000000000001,-125.26746062205261 110.00000000000001,-125.31300575227837 110.4,-125.36210576701693 110.80000000000001,-125.41475359595091 111.20000000000002,-125.47094165788398 111.60000000000001,-125.53066186183231 112.00000000000001,-125.59390560818974 112.4,-125.66066378996608 112.79999999999998,-125.73092679409845 113.19999999999999,-125.80468450283573 113.6,-125.8819262951953 113.99999999999999,-125.96264104849253 114.39999999999999,-126.0468171399424 114.8,-126.13444244833325 115.19999999999999,-126.22550435577205 115.6,-126.31998974950147 115.99999999999999,-126.4178850237881 116.39999999999999,-126.51917608188161 116.8,-126.62384833804468 117.19999999999999,-126.73188671965326 117.6,-126.84327566936709 118.0,-126.9579991473699 118.39999999999999,-127.07604063367913 118.8,-127.19738313052468 119.19999999999999,-127.32200916479671 119.6,-127.44990079056164 120.0,-127.58103959164632 120.39999999999999,-127.71540668429004 120.8,-127.85298271986362 121.2,-127.9937478876557 121.6,-128.1376819177253 122.0,-128.28476408382087 122.39999999999999,-128.43497320636462 122.8,-128.58828765550248 123.2,-128.74468535421866 123.6,-128.90414378151482 124.0,-129.066639975653 124.4,-129.232150537462 124.8,-129.40065163370693 125.2,-129.57211900052113 125.6,-129.74652794690002 126.0,-129.92385335825674 126.4,-130.10406970003842 126.8,-130.28715102140333 127.2,-130.47307095895752 127.60000000000001,-130.66180274055122 128.0,-130.85331918913408 128.4,-131.04759272666837 128.8,-131.2445953781004 129.20000000000002,-131.44429877538883 129.6,-131.6466741615895 130.0,-131.8516923949965 130.4,-132.05932395333846 130.8,-132.26953893802988 131.20000000000002,-132.48230707847608 131.6,-132.69759773643258 132.0,-132.9153799104166 132.4,-133.13562224017147 132.8,-133.3582930111822 133.20000000000002,-133.5833601592426 133.6,-133.8107912750723 134.0,-134.04055360898354 134.4,-134.27261407559726 134.8,-134.50693925860736 135.20000000000002,-134.7434954155923 135.60000000000002,-134.9822484828743 136.0,-135.22316408042423 136.4,-135.46620751681232 136.8,-135.71134379420369 137.20000000000002,-135.95853761339805 137.60000000000002,-136.2077533789125 138.0,-136.45895520410755 138.39999999999998,-136.71210691635437 138.79999999999998,-136.96717206224386 139.20000000000002,-137.2241139128358 139.6,-137.48289546894765 139.99999999999997,-137.74347946648248 140.39999999999998,-138.00582838179503 140.8,-138.26990443709477 141.2,-138.53566960588603 141.59999999999997,-138.80308561844376 142.0,-139.0721139673243 142.4,-139.34271591291025 142.79999999999998,-139.61485248898902 143.19999999999996,-139.88848450836392 143.6,-140.163572568497 144.00000000000003,-140.440077057183 144.4,-140.71795815825325 144.79999999999998,-140.99717585730943 145.2,-141.27768994748536 145.60000000000002,-141.55946003523675 146.0,-141.8424455461579 146.39999999999998,-142.12660573082422 146.8,-142.41189967066015 147.20000000000002,-142.69828628383132 147.6,-142.9857243311603 147.99999999999997,-143.274172422065 148.4,-143.56358902051875 148.8,-143.8539324510315 149.2,-144.1451609046509 149.59999999999997,-144.43723244498293 150.0,-144.7301050142305 150.40000000000003,-145.0237364392497 150.8,-145.31808443762264 151.2,-145.61310662374626 151.6,-145.9087605149356 152.00000000000003,-146.20500353754113 152.4,-146.50179303307954 152.79999999999998,-146.79908626437629 153.2,-147.09684042171983 153.60000000000002,-147.395012629026 154.0,-147.69355995001223 154.39999999999998,-147.99243939438009 154.8,-148.29160792400614 155.20000000000002,-148.59102245913905 155.6,-148.89063988460316 155.99999999999997,-149.19041705600688 156.4,-149.49031080595563 156.80000000000004,-149.79027795026755 157.20000000000002,-150.09027529419222 157.6,-150.39025963863054 158.0,-150.6901877863553 158.40000000000003,-150.99001654823144 158.8,-151.28970274943532 159.2,-151.58920323567193 159.60000000000002,-151.88847487938875 160.00000000000003,-152.1874745859862 160.4,-152.48615930002316 160.79999999999998,-152.784486011417 161.20000000000002,-153.08241176163676 161.60000000000002,-153.37989364988928 162.0,-153.67688883929657 162.39999999999998,-153.97335456306465 162.79999999999998,-154.26924813064159 163.2,-154.56452693386495 163.6,-154.8591484530973 164.0,-155.15307026334895 164.39999999999998,-155.44625004038713 164.79999999999998,-155.73864556683063 165.2,-156.03021473822878 165.6,-156.32091556912482 166.0,-156.61070619910137 166.4,-156.89954489880853 166.79999999999998,-157.1873900759726 167.2,-157.47420028138544 167.6,-157.75993421487317 168.0,-158.04455073124305 168.4,-158.32800884620855 168.79999999999998,-158.6102677422909 169.2,-158.89128677469685 169.6,-159.1710254771713 170.0,-159.44944356782452 170.4,-159.7265009549325 170.79999999999998,-160.0021577427103 171.2,-160.2763742370568 171.6,-160.54911095127065 172.0,-160.8203286117363 172.4,-161.0899881635793 172.8,-161.35805077629013 173.2,-161.62447784931578 173.6,-161.8892310176182 174.0,-162.1522721571985 174.4,-162.41356339058723 174.8,-162.67306709229825 175.2,-162.9307458942469 175.6,-163.18656269113103 176.0,-163.4404806457739 176.4,-163.69246319442883 176.8,-163.9424740520442 177.2,-164.19047721748856 177.6,-164.43643697873463 178.0,-164.6803179180018 178.4,-164.92208491685628 178.8,-165.16170316126795 179.20000000000002,-165.3991381466237 179.6,-165.6343556826959 180.0,-165.86732189856588 180.4,-166.09800324750103 180.8,-166.32636651178572 181.20000000000002,-166.5523788075046 181.6,-166.77600758927755 182.0,-166.99722065494643 182.4,-167.21598615021205 182.8,-167.43227257322116 183.20000000000002,-167.64604877910253 183.6,-167.85728398445193 184.0,-168.06594777176483 184.4,-168.27201009381636 184.8,-168.47544127798827 185.20000000000002,-168.67621203054156 185.60000000000002,-168.87429344083483 186.0,-169.0696569854872 186.4,-169.2622745324859 186.8,-169.45211834523698 187.20000000000002,-169.63916108655943 187.60000000000002,-169.8233758226217 188.0,-170.00473602682015 188.39999999999998,-170.18321558359872 188.79999999999998,-170.35878879220977 189.20000000000002,-170.5314303704145 189.6,-170.70111545812406 189.99999999999997,-170.867819620979 190.39999999999998,-171.03151885386794 190.8,-171.1921895843842 191.2,-171.34980867622022 191.59999999999997,-171.50435343249916 192.0,-171.65580159904323 192.4,-171.804131367578 192.79999999999998,-171.94932137887326 193.19999999999996,-172.09135072581816 193.6,-172.23019895643225 194.00000000000003,-172.3658460768102 194.4,-172.49827255400103 194.79999999999998,-172.627459318821 195.2,-172.75338776859908 195.60000000000002,-172.87603976985616 196.0,-172.99539766091598 196.39999999999998,-173.1114442544485 196.8,-173.22416283994474 197.20000000000002,-173.3335371861232 197.6,-173.439551543267 197.99999999999997,-173.5421906454919 198.4,-173.64143971294462 198.8,-173.73728445393087 199.2,-173.82971106697357 199.59999999999997,-173.91870624280017 200.0,-174.00425716625918 200.4,-174.08635151816532 200.8,-174.1649774770739 201.2,-174.2401237209827 201.6,-174.31177942896235 202.0,-174.3799342827148 202.4,-174.4445784680589 202.8,-174.50570267634362 203.2,-174.56329810578853 203.6,-174.61735646275145 204.0,-174.66786996292228 204.4,-174.71483133244436 204.8,-174.7582338089616 205.20000000000002,-174.79807114259233 205.6,-174.8343375968294 206.0,-174.8670279493661 206.4,-174.89613749284803 206.8,-174.92166203555138 207.20000000000002,-174.94359790198598 207.6,-174.96194193342507 208.0,-174.97669148835976 208.4,-174.9878444428796 208.8,-174.99539919097853 209.20000000000002,-174.99935464478574 209.60000000000002,-174.99971023472284 210.0,-174.99646590958537 210.4,-174.98962213655065 210.8,-174.9791799011101 211.20000000000002,-174.96514070692763 211.60000000000002,-174.94750657562287 212.0,-174.92628004648034 212.4,-174.90146417608352 212.8,-174.87306253787486 213.20000000000002,-174.84107922164122 213.60000000000002,-174.80551883292478 214.0,-174.7663864923602 214.4,-174.7236878349368 214.8,-174.67742900918748 215.20000000000002,-174.62761667630326 215.60000000000002,-174.57425800917395 216.0,-174.51736069135544 216.4,-174.45693291596316 216.8,-174.39298338449237 217.20000000000002,-174.3255213055651 217.60000000000002,-174.2545563936041 218.00000000000003,-174.18009886743408 218.4,-174.1021594488102 218.8,-174.020749360874 219.20000000000002,-173.9358803265375 219.60000000000002,-173.84756456679497 220.00000000000003,-173.75581479896323 220.4,-173.66064423485028 220.8,-173.56206657885292 221.20000000000002,-173.46009602598323 221.60000000000002,-173.3547472598247 222.00000000000003,-173.24603545041754 222.40000000000003,-173.1339762520745 222.8,-173.01858580112642 223.20000000000002,-172.89988071359895 223.60000000000002,-172.77787808281948 224.00000000000003,-172.65259547695612 224.40000000000003,-172.52405093648753 224.8,-172.3922629716055 225.2,-172.2572505595492 225.59999999999997,-172.11903314187268 225.99999999999997,-171.97763062164523 226.39999999999998,-171.83306336058538 226.79999999999998,-171.68535217612902 227.2,-171.53451833843135 227.59999999999997,-171.38058356730443 227.99999999999997,-171.2235700290893 228.39999999999998,-171.06350033346416 228.79999999999998,-170.90039753018854 229.2,-170.73428510578427 229.6,-170.5651869801534 229.99999999999997,-170.3931275031339 230.39999999999998,-170.21813145099316 230.79999999999998,-170.04022402286014 231.2,-169.85943083709725 231.6,-169.67577792761074 231.99999999999997,-169.48929174010223 232.39999999999998,-169.29999912826042 232.79999999999998,-169.10792734989442 233.2,-168.91310406300838 233.6,-168.71555732181898 234.0,-168.5153155727155 234.39999999999998,-168.31240765016392 234.79999999999998,-168.10686277255436 235.2,-167.89871053799408 235.6,-167.6879809200452 236.0,-167.47470426340846 236.39999999999998,-167.25891127955393 236.79999999999998,-167.04063304229842 237.2,-166.81990098333088 237.6,-166.5967468876864 238.0,-166.37120288916913 238.39999999999998,-166.14330146572513 238.79999999999998,-165.91307543476557 239.2,-165.68055794844102 239.6,-165.4457824888678 240.0,-165.2087828633064 240.39999999999998,-164.96959319929326 240.79999999999998,-164.7282479397268 241.2,-164.48478183790732 241.6,-164.23922995253275 242.0,-163.99162764265026 242.4,-163.74201056256464 242.79999999999998,-163.49041465670416 243.2,-163.23687615444442 243.6,-162.9814315648916 244.0,-162.72411767162524 244.4,-162.46497152740142 244.79999999999998,-162.20403044881695 245.2,-161.94133201093632 245.6,-161.67691404188065 246.0,-161.41081461738057 246.4,-161.14307205529335 246.8,-160.87372491008534 247.2,-160.60281196727996 247.6,-160.3303722378729 248.0,-160.05644495271434 248.4,-159.78106955686005 248.8,-159.50428570389116 249.2,-159.2261332502043 249.6,-158.94665224927203 250.0,-158.66588294587567 250.4,-158.3838657703096 250.8,-158.1006413325599 251.2,-157.81625041645617 251.6,-157.53073397379885 252.0,-157.24413311846234 252.4,-156.95648912047463 252.8,-156.6678434000743 253.2,-156.3782375217463 253.6,-156.08771318823673 254.0,-155.79631223454757 254.4,-155.50407662191267 254.8,-155.21104843175513 255.20000000000002,-154.9172698596281 255.6,-154.62278320913836 256.0,-154.32763088585457 256.4,-154.03185539120128 256.8,-153.7354993163387 257.2,-153.4386053360295 257.6,-153.1412162024938 258.0,-152.8433747392529 258.40000000000003,-152.5451238349629 258.8,-152.24650643723865 259.2,-151.94756554646932 259.6,-151.6483442096267 260.0,-151.3488855140662 260.40000000000003,-151.04923258132257 260.8,-150.7494285609003 261.2,-150.44951662406024 261.6,-150.1495399576031 262.0,-149.84954175765046 262.40000000000003,-149.54956522342474 262.8,-149.24965355102844 263.2,-148.94984992722425 263.6,-148.65019752321592 264.0,-148.35073948843174 264.40000000000003,-148.05151894431134 264.8,-147.75257897809598 265.2,-147.4539626366243 265.6,-147.1557129201334 266.0,-146.85787277606707 266.40000000000003,-146.56048509289138 266.80000000000007,-146.2635926939189 267.2,-145.96723833114206 267.6,-145.6714646790769 268.0,-145.3763143286183 268.4,-145.08182978090673 268.8,-144.7880534412081 269.20000000000005,-144.4950276128077 269.6,-144.20279449091856 270.00000000000006,-143.91139615660518 270.40000000000003,-143.62087457072423 270.8,-143.331271567882 271.20000000000005,-143.04262885041047 271.59999999999997,-142.75498798236225 272.0,-142.46839038352522 272.40000000000003,-142.18287732345837 272.8,-141.89848991554905 273.20000000000005,-141.61526911109254 273.6,-141.3332556933953 274.0,-141.05249027190217 274.40000000000003,-140.77301327634862 274.79999999999995,-140.49486495093916 275.20000000000005,-140.21808534855194 275.59999999999997,-139.9427143249715 276.0,-139.6687915331493 276.4,-139.3963564174941 276.79999999999995,-139.1254482081918 277.2,-138.85610591555638 277.59999999999997,-138.58836832441256 278.0,-138.32227398851077 278.40000000000003,-138.05786122497565 278.79999999999995,-137.79516810878826 279.2,-137.53423246730333 279.59999999999997,-137.27509187480234 279.99999999999994,-137.0177836470829 280.4,-136.76234483608508 280.79999999999995,-136.5088122245563 281.2,-136.2572223207545 281.6,-136.00761135319112 282.0,-135.76001526541418 282.4,-135.51446971083246 282.8,-135.27101004758146 283.19999999999993,-135.02967133343208 283.59999999999997,-134.79048832074204 284.0,-134.55349545145188 284.4,-134.3187268521253 284.8,-134.08621632903493 285.2,-133.8559973632943 285.59999999999997,-133.6281031060366 286.0,-133.40256637364115 286.3999999999999,-133.17941964300772 286.8,-132.95869504687982 287.2,-132.74042436921795 287.59999999999997,-132.5246390406225 288.00000000000006,-132.3113701338079 288.4,-132.1006483591283 288.8,-131.892504060155 289.2,-131.68696720930743 289.59999999999997,-131.484067403537 290.0,-131.28383386006502 290.4,-131.08629541217584 290.8,-130.89148050506458 291.20000000000005,-130.69941719174122 291.59999999999997,-130.51013312899104 292.0,-130.3236555733919 292.4,-130.14001137738967 292.79999999999995,-129.9592269854312 293.2,-129.78132843015652 293.6,-129.60634132865022 294.0,-129.4342908787525 294.40000000000003,-129.26520185543086 294.8,-129.0990986072125 295.2,-128.93600505267813 295.6,-128.77594467701772 295.99999999999994,-128.6189405286489 296.4,-128.4650152158976 296.8,-128.31419090374294 297.2,-128.16648931062525 297.6,-128.0219317053187 298.0,-127.88053890386868 298.4,-127.74233126659423 298.8,-127.60732869515635 299.19999999999993,-127.47555062969202 299.6,-127.34701604601494 300.0,-127.22174345288309 300.4,-127.09975088933335 300.80000000000007,-126.98105592208411 301.2,-126.86567564300557 301.6,-126.75362666665849 302.0,-126.64492512790189 302.4,-126.53958667956951 302.8,-126.43762649021583 303.2,-126.339059241932 303.6,-126.24389912823142 304.00000000000006,-126.15215985200602 304.4,-126.06385462355307 304.8,-125.97899615867287 305.2,-125.89759667683772 305.59999999999997,-125.81966789943237 306.0,-125.74522104806607 306.4,-125.67426684295678 306.8,-125.60681550138746 307.20000000000005,-125.54287673623472 307.6,-125.48245975457024 308.0,-125.42557325633501 308.40000000000003,-125.37222543308646 308.79999999999995,-125.32242396681897 309.2,-125.27617602885759 309.6,-125.23348827882548 310.0,-125.19436686368492 310.40000000000003,-125.15881741685205 310.8,-125.12684505738578 311.2,-125.09845438925068 311.6,-125.07364950065383 311.99999999999994,-125.05243396345635 312.40000000000003,-125.03481083265898 312.8,-125.02078264596206 313.2,-125.01035142340022 313.6000000000001,-125.00351866705154 314.0,-125.00028536082104 314.40000000000003,-125.00065197029932 314.8,-125.00461844269522 315.2,-125.01218420684353 315.6,-125.02334817328732 316.0,-125.03810873443473 316.40000000000003,-125.05646376479042 316.80000000000007,-125.07841062126178 317.2,-125.10394614353935 317.6,-125.1330666545521 318.0,-125.16576796099672 318.4,-125.20204535394161 318.8,-125.24189360950488 319.20000000000005,-125.28530698960658 319.6,-125.332279242795 320.00000000000006,-125.38280360514683 320.40000000000003,-125.43687280124121 320.8,-125.49447904520734 321.20000000000005,-125.55561404184562 321.59999999999997,-125.62026898782216 322.0,-125.68843457293649 322.40000000000003,-125.76010098146213 322.8,-125.83525789356013 323.20000000000005,-125.91389448676495 323.6,-125.99599943754308 324.0,-126.0815609229235 324.40000000000003,-126.17056662220017 324.79999999999995,-126.26300371870613 325.20000000000005,-126.35885890165932 325.59999999999997,-126.45811836807894 326.0,-126.5607678247734 326.4,-126.6667924903983 326.79999999999995,-126.77617709758495 327.2,-126.88890589513902 327.59999999999997,-127.00496265030841 328.0,-127.1243306511209 328.40000000000003,-127.24699270879067 328.79999999999995,-127.37293116019337 329.2,-127.50212787040961 329.59999999999997,-127.6345642353364 329.99999999999994,-127.77022118436595 330.4,-127.90907918313214 330.79999999999995,-128.05111823632302 331.2,-128.19631789056038 331.6,-128.3446572373449 332.0,-128.496114916067 332.4,-128.65066911708266 332.8,-128.80829758485396 333.19999999999993,-128.96897762115398 333.59999999999997,-129.13268608833513 334.0,-129.29939941266102 334.4,-129.469093587701 334.8,-129.64174417778713 335.2,-129.81732632153273 335.59999999999997,-129.99581473541258 336.0,-130.17718371740344 336.3999999999999,-130.36140715068532 336.8,-130.5484585074022 337.2,-130.7383108524819 337.59999999999997,-130.93093684751483 338.00000000000006,-131.1263087546905 338.4,-131.32439844079192 338.8,-131.52517738124658 339.2,-131.728616664234 339.59999999999997,-131.934686994849 340.0,-132.14335869931998 340.4,-132.35460172928217 340.8,-132.56838566610423 341.20000000000005,-132.78467972526872 341.59999999999997,-133.0034527608048 342.0,-133.22467326977343 342.4,-133.44830939680358 342.79999999999995,-133.6743289386794 343.2,-133.90269934897748 343.6,-134.13338774275329 344.0,-134.36636090127675 344.40000000000003,-134.60158527681563 344.8,-134.83902699746628 345.2,-135.07865187203132 345.6,-135.32042539494282 345.99999999999994,-135.5643127512312 346.4,-135.8102788215387 346.8,-136.05828818717617 347.2,-136.30830513522352 347.6,-136.5602936636723 348.0,-136.81421748660975 348.4,-137.07004003944425 348.8,-137.3277244841702 349.19999999999993,-137.5872337146728 349.6,-137.8485303620714 350.0,-138.11157680010018 350.4,-138.37633515052667 350.80000000000007,-138.6427672886059 351.2,-138.9108348485703 351.6,-139.18049922915455 352.0,-139.45172159915384 352.4,-139.72446290301545 352.8,-139.998683866463 353.2,-140.27434500215162 353.6,-140.5514066153541 354.00000000000006,-140.82982880967683 354.4,-141.10957149280497 354.8,-141.3905943822756 355.2,-141.67285701127818 355.59999999999997,-141.9563187344819 356.0,-142.24093873388844 356.4,-142.52667602470973 356.8,-142.8134894612696 357.20000000000005,-143.10133774292885 357.6,-143.39017942003224 358.0,-143.67997289987744 358.40000000000003,-143.9706764527041 358.79999999999995,-144.26224821770296 359.2,-144.55464620904368 359.6,-144.8478283219208 360.0,-145.14175233861664 360.40000000000003,-145.4363759345807 360.8,-145.73165668452424 361.2,-146.0275520685296 361.6,-146.32401947817272 361.99999999999994,-146.62101622265885 362.40000000000003,-146.91849953497015 362.8,-147.2164265780236 363.2,-147.51475445083983 363.6000000000001,-147.8134401947206 364.0,-148.11244079943498 364.40000000000003,-148.4117132094126 364.8,-148.71121432994352 365.2,-149.01090103338387 365.6,-149.31073016536627 366.0,-149.61065855101384 366.40000000000003,-149.91064300115727 366.80000000000007,-150.2106403185541 367.2,-150.51060730410904 367.6,-150.81050076309452 368.0,-151.1102775113707 368.4,-151.40989438160372 368.8,-151.7093082294821 369.20000000000005,-152.00847593992916 369.6,-152.30735443331145 370.00000000000006,-152.60590067164244 370.40000000000003,-152.90407166477968 370.8,-153.20182447661543 371.20000000000005,-153.49911623125925 371.59999999999997,-153.79590411921222 372.0,-154.09214540353128 372.40000000000003,-154.3877974259835 372.8,-154.6828176131884 373.20000000000005,-154.9771634827489 373.6,-155.27079264936833 374.0,-155.5636628309542 374.40000000000003,-155.85573185470636 374.79999999999995,-156.14695766319005 375.20000000000005,-156.43729832039216 375.59999999999997,-156.72671201775972 376.0,-157.01515708022046 376.4,-157.3025919721838 376.79999999999995,-157.58897530352186 377.2,-157.87426583552997 377.59999999999997,-158.15842248686448 378.0,-158.44140433945853 378.40000000000003,-158.72317064441435 378.79999999999995,-159.00368082787094 379.2,-159.2828944968466 379.59999999999997,-159.5607714450555 379.99999999999994,-159.83727165869723 380.4,-160.11235532221886 380.79999999999995,-160.38598282404814 381.2,-160.65811476229766 381.6,-160.92871195043855 382.0,-161.19773542294325 382.4,-161.4651464408967 382.8,-161.73090649757427 383.19999999999993,-161.99497732398714 383.59999999999997,-162.2573208943926 384.0,-162.51789943176976 384.4,-162.77667541325965 384.8,-163.03361157556796 385.2,-163.28867092033136 385.59999999999997,-163.54181671944497 386.0,-163.7930125203511 386.3999999999999,-164.04222215128854 386.8,-164.28940972650102 387.2,-164.53453965140488 387.59999999999997,-164.7775766277145 388.00000000000006,-165.01848565852524 388.4,-165.25723205335296 388.8,-165.4937814331294 389.2,-165.7280997351526 389.59999999999997,-165.9601532179919 390.0,-166.18990846634688 390.4,-166.41733239585875 390.8,-166.6423922578746 391.20000000000005,-166.86505564416325 391.59999999999997,-167.08529049158176 392.0,-167.30306508669278 392.4,-167.5183480703309 392.79999999999995,-167.73110844211837 393.2,-167.94131556492943 393.6,-168.14893916930157 394.0,-168.35394935779456 394.40000000000003,-168.55631660929552 394.8,-168.75601178326983 395.2,-168.95300612395764 395.6,-169.14727126451422 395.99999999999994,-169.33877923109503 396.4,-169.52750244688383 396.8,-169.71341373606361 397.2,-169.89648632773006 397.6,-170.07669385974626 398.0,-170.25401038253898 398.4,-170.42841036283545 398.8,-170.59986868733975 399.19999999999993,-170.76836066634945 399.6,-170.9338620373108 400.0,-171.0963489683123" stroke="red" stroke-width="2.0"/><g><g><line fill="none" stroke="black" x1="-8.0" x2="408.0" y1="0.0" y2="0.0"/><polyline fill="black" points="408.0,-5.0 408.0,5.0 424.0,0.0" stroke="none"/><line fill="none" stroke="black" x1="33.33333333333333" x2="33.33333333333333" y1="-3.0" y2="3.0"/><line fill="none" stroke="black" x1="66.66666666666666" x2="66.66666666666666" y1="-3.0" y2="3.0"/><line fill="none" stroke="black" x1="100.0" x2="100.0" y1="-3.0" y2="3.0"/><line fill="none" stroke="black" x1="133.33333333333331" x2="133.33333333333331" y1="-3.0" y2="3.0"/><line fill="none" stroke="black" x1="166.66666666666669" x2="166.66666666666669" y1="-3.0" y2="3.0"/><line fill="none" stroke="black" x1="200.0" x2="200.0" y1="-3.0" y2="3.0"/><line fill="none" stroke="black" x1="233.33333333333334" x2="233.33333333333334" y1="-3.0" y2="3.0"/><line fill="none" stroke="black" x1="266.66666666666663" x2="266.66666666666663" y1="-3.0" y2="3.0"/><line fill="none" stroke="black" x1="300.0" x2="300.0" y1="-3.0" y2="3.0"/><line fill="none" stroke="black" x1="333.33333333333337" x2="333.33333333333337" y1="-3.0" y2="3.0"/><line fill="none" stroke="black" x1="366.66666666666663" x2="366.66666666666663" y1="-3.0" y2="3.0"/><line fill="none" stroke="black" x1="400.0" x2="400.0" y1="-3.0" y2="3.0"/><text dominant-baseline="middle" fill="black" stroke="none" text-anchor="middle" x="33.33333333333333" y="14.0">1</text><text dominant-baseline="middle" fill="black" stroke="none" text-anchor="middle" x="66.66666666666666" y="14.0">2</text><text dominant-baseline="middle" fill="black" stroke="none" text-anchor="middle" x="100.0" y="14.0">3</text><text dominant-baseline="middle" fill="black" stroke="none" text-anchor="middle" x="133.33333333333331" y="14.0">4</text><text dominant-baseline="middle" fill="black" stroke="none" text-anchor="middle" x="166.66666666666669" y="14.0">5</text><text dominant-baseline="middle" fill="black" stroke="none" text-anchor="middle" x="200.0" y="14.0">6</text><text dominant-baseline="middle" fill="black" stroke="none" text-anchor="middle" x="233.33333333333334" y="14.0">7</text><text dominant-baseline="middle" fill="black" stroke="none" text-anchor="middle" x="266.66666666666663" y="14.0">8</text><text dominant-baseline="middle" fill="black" stroke="none" text-anchor="middle" x="300.0" y="14.0">9</text><text dominant-baseline="middle" fill="black" stroke="none" text-anchor="middle" x="333.33333333333337" y="14.0">10</text><text dominant-baseline="middle" fill="black" stroke="none" text-anchor="middle" x="366.66666666666663" y="14.0">11</text><text dominant-baseline="middle" fill="black" stroke="none" text-anchor="middle" x="400.0" y="14.0">12</text></g><g><line fill="none" stroke="black" x1="0.0" x2="0.0" y1="8.0" y2="-308.0"/><polyline fill="black" points="-5.0,-308.0 5.0,-308.0 0.0,-324.0" stroke="none"/><line fill="none" stroke="black" x1="-3.0" x2="3.0" y1="-50.0" y2="-50.0"/><line fill="none" stroke="black" x1="-3.0" x2="3.0" y1="-100.0" y2="-100.0"/><line fill="none" stroke="black" x1="-3.0" x2="3.0" y1="-150.0" y2="-150.0"/><line fill="none" stroke="black" x1="-3.0" x2="3.0" y1="-200.0" y2="-200.0"/><line fill="none" stroke="black" x1="-3.0" x2="3.0" y1="-250.0" y2="-250.0"/><line fill="none" stroke="black" x1="-3.0" x2="3.0" y1="-300.0" y2="-300.0"/><text dominant-baseline="middle" fill="black" stroke="none" text-anchor="middle" x="-10.0" y="-50.0">1</text><text dominant-baseline="middle" fill="black" stroke="none" text-anchor="middle" x="-10.0" y="-100.0">2</text><text dominant-baseline="middle" fill="black" stroke="none" text-anchor="middle" x="-10.0" y="-150.0">3</text><text dominant-baseline="middle" fill="black" stroke="none" text-anchor="middle" x="-10.0" y="-200.0">4</text><text dominant-baseline="middle" fill="black" stroke="none" text-anchor="middle" x="-10.0" y="-250.0">5</text><text dominant-baseline="middle" fill="black" stroke="none" text-anchor="middle" x="-10.0" y="-300.0">6</text></g><text dominant-baseline="middle" fill="black" stroke="none" text-anchor="middle" x="-10.0" y="14.0">0</text></g></g></svg>