<svg xmlns="http://www.w3.org/2000/svg" height="380.0" width="480.0"><g transform="translate(40.0, 340.0)"><polyline fill="none" points="0.0,-50.0 0.4,-50.29999280005185 0.8,-50.59994240165886 1.2000000000000002,-50.89980561259672 1.6,-51.19953925308125 2.0,-51.499100161986114 2.4000000000000004,-51.79844520305809 2.8000000000000003,-52.09753127112852 3.2,-52.396315298320424 3.5999999999999996,-52.694754260250185 4.0,-52.99280518222297 4.4,-53.29042514542109 4.800000000000001,-53.587571293084075 5.2,-53.88420083668015 5.6000000000000005,-54.18027106206761 6.0,-54.4757393356456 6.4,-54.770563110493306 6.800000000000001,-55.064699932496595 7.199999999999999,-55.358107446461354 7.6,-55.6507434022126 8.0,-55.94256566067837 8.4,-56.23353219995769 8.8,-56.52360112137171 9.200000000000001,-56.81273065549699 9.600000000000001,-57.10087916818022 10.000000000000002,-57.38800516653349 10.4,-57.674067304909194 10.8,-57.959024390853706 11.200000000000001,-58.24283539103907 11.600000000000001,-58.52545943717168 12.0,-58.80685583187725 12.4,-59.086984054561206 12.8,-59.36580376724354 13.200000000000001,-59.64327482036742 13.600000000000001,-59.919357258580675 14.000000000000002,-60.194011326489246 14.399999999999999,-60.46719747438199 14.799999999999999,-60.73887636392565 15.2,-61.00900887382957 15.6,-61.27755610547916 16.0,-61.54447938853708 16.400000000000002,-61.809740286511804 16.8,-62.07330060229241 17.200000000000003,-62.335122383648844 17.6,-62.59516792869704 18.000000000000004,-62.853399791327824 18.400000000000002,-63.109780786599245 18.800000000000004,-63.364273996090986 19.200000000000003,-63.61684277322063 19.600000000000005,-63.86745074852074 20.000000000000004,-64.11606183487588 20.4,-64.36264023271926 20.8,-64.60715043518763 21.2,-64.84955723323438 21.6,-65.08982572069947 22.0,-65.32792129933584 22.400000000000002,-65.56380968379165 22.8,-65.79745690654713 23.200000000000003,-66.02882932280593 23.599999999999998,-66.25789361533992 24.0,-66.48461679928684 24.4,-66.70896622689992 24.8,-66.93090959224928 25.2,-67.15041493587384 25.6,-67.36745064938339 26.0,-67.58198548001026 26.400000000000002,-67.79398853510952 26.8,-68.0034292866076 27.200000000000003,-68.21027757539818 27.6,-68.4145036156851 28.000000000000004,-68.61607799927148 28.4,-68.8149716997944 28.799999999999997,-69.01115607690465 29.2,-69.20460288039096 29.599999999999998,-69.39528425424788 30.0,-69.58317274068708 30.4,-69.76824128409118 30.8,-69.95046323490975 31.2,-70.12981235349669 31.6,-70.3062628138889 32.0,-70.47978920752496 32.4,-70.65036654690404 32.800000000000004,-70.81797026918403 33.2,-70.98257623971853 33.6,-71.14416075553223 34.0,-71.30270054873408 34.400000000000006,-71.45817278986779 34.800000000000004,-71.6105550911993 35.2,-71.75982550994054 35.6,-71.90596255140915 36.00000000000001,-72.0489451721237 36.400000000000006,-72.18875278283383 36.800000000000004,-72.32536525148522 37.2,-72.45876290611844 37.60000000000001,-72.58892653770174 38.00000000000001,-72.71583740289708 38.400000000000006,-72.83947722675919 38.800000000000004,-72.95982820536707 39.20000000000001,-73.07687300838778 39.60000000000001,-73.19059478157192 40.00000000000001,-73.30097714918065 40.400000000000006,-73.40800421634383 40.8,-73.51166057134866 41.199999999999996,-73.61193128785919 41.6,-73.70880192706548 42.0,-73.8022585397629 42.4,-73.8922876683607 42.8,-73.97887634881991 43.2,-74.0620121125202 43.6,-74.14168298805524 44.0,-74.21787750295663 44.4,-74.29058468534589 44.800000000000004,-74.35979406551438 45.2,-74.42549567743097 45.6,-74.48768006017707 46.0,-74.546338259309 46.400000000000006,-74.60146182814745 46.800000000000004,-74.65304282899379 47.199999999999996,-74.70107383427299 47.599999999999994,-74.74554792760331 48.0,-74.78645870479215 48.4,-74.82380027475831 48.8,-74.85756726038022 49.2,-74.88775479927031 49.6,-74.91435854447514 50.0,-74.93737466510136 50.4,-74.95679984686738 50.8,-74.9726312925806 51.2,-74.9848667225402 51.6,-74.99350437486538 52.0,-74.99854300574916 52.400000000000006,-74.99998188963738 52.800000000000004,-74.99782081933326 53.2,-74.99206010602717 53.6,-74.9827005792519 54.0,-74.96974358676309 54.400000000000006,-74.95319099434532 54.800000000000004,-74.93304518554326 55.2,-74.9093090613186 55.60000000000001,-74.88198603963217 56.00000000000001,-74.8510800549519 56.39999999999999,-74.81659555768618 56.8,-74.77853751354301 57.199999999999996,-74.73691140281502 57.599999999999994,-74.69172321959019 57.99999999999999,-74.64297947088885 58.4,-74.59068717572654 58.8,-74.53485386410344 59.199999999999996,-74.47548757591993 59.599999999999994,-74.41259685981893 60.0,-74.34619077195488 60.4,-74.27627887468968 60.8,-74.20287123521574 61.199999999999996,-74.1259784241063 61.6,-74.04561151379325 62.0,-73.96178207697287 62.4,-73.87450218493913 62.8,-73.78378440584572 63.2,-73.68964180289605 63.6,-73.59208793246225 64.0,-73.49113684213312 64.4,-73.38680306869122 64.8,-73.27910163601962 65.2,-73.16804805293853 65.60000000000001,-73.05365831097201 66.0,-72.93594888204524 66.4,-72.81493671611258 66.8,-72.69063923871684 67.2,-72.56307434847996 67.60000000000001,-72.43226041452569 68.0,-72.2982162738345 68.4,-72.160961228531 68.80000000000001,-72.02051504310455 69.19999999999999,-71.87689794156316 69.60000000000001,-71.73013060452128 69.99999999999999,-71.58023416622184 70.4,-71.42723021149294 70.79999999999998,-71.27114077263965 71.2,-71.11198832627144 71.59999999999998,-70.94979579006562 72.00000000000001,-70.78458651946708 72.39999999999999,-70.61638430432535 72.80000000000001,-70.4452133654687 73.19999999999999,-70.27109835121662 73.60000000000001,-70.09406433383023 73.99999999999999,-69.91413680590217 74.4,-69.7313416766855 74.79999999999998,-69.54570526836301 75.20000000000002,-69.35725431225666 75.6,-69.16601594497853 76.00000000000001,-68.97201770452305 76.39999999999999,-68.7752875263016 76.80000000000001,-68.57585373911989 77.19999999999999,-68.3737450610987 77.60000000000001,-68.16899059553838 77.99999999999999,-67.96161982672815 78.40000000000002,-67.75166261570041 78.8,-67.53914919593075 79.20000000000002,-67.32411016898435 79.6,-67.10657650010955 80.00000000000001,-66.88657951377877 80.39999999999999,-66.66415088917788 80.80000000000001,-66.43932265564443 81.19999999999999,-66.2121271880556 81.6,-65.98259720216612 82.0,-65.75076574989731 82.39999999999999,-65.5166662145777 82.8,-65.28033230613588 83.2,-65.04179805624625 83.6,-64.80109781342863 84.0,-64.55826623810205 84.39999999999999,-64.31333829759373 84.8,-64.06634926110392 85.2,-63.81733469462703 85.6,-63.56633045583034 86.0,-63.313372688890524 86.4,-63.05849781928892 86.8,-62.801742548566295 87.2,-62.54314384903798 87.6,-62.28273895846987 88.0,-62.020565374716206 88.4,-61.75666085032001 88.8,-61.49106338707679 89.2,-61.2238112305623 89.60000000000001,-60.95494286462525 90.0,-60.68449700584575 90.4,-60.412512597960124 90.8,-60.13902880625312 91.2,-59.86408501191819 91.60000000000001,-59.58772080638659 92.0,-59.30997598562638 92.4,-59.0308905444118 92.80000000000001,-58.750504670564126 93.2,-58.468858739164695 93.60000000000001,-58.18599330674094 94.0,-57.90194910542634 94.39999999999999,-57.61676703709506 94.8,-57.33048816747216 95.19999999999999,-57.043153720220154 95.6,-56.75480507100294 96.0,-56.46548374152777 96.39999999999999,-56.175231393566115 96.8,-55.884089822954536 97.2,-55.59210095357609 97.6,-55.299306831323456 98.0,-55.00574961804427 98.4,-54.71147158546996 98.8,-54.41651510912874 99.2,-54.12092266224351 99.6,-53.82473680961582 100.0,-53.52800020149668 100.4,-53.230755567444874 100.8,-52.93304571017406 101.2,-52.634913499389285 101.6,-52.33640186561369 102.0,-52.03755379400673 102.4,-51.73841231817431 102.8,-51.43902051397204 103.2,-51.13942149330236 103.60000000000001,-50.839658397906575 104.0,-50.5397743931524 104.4,-50.239812661818334 104.80000000000001,-49.939816397875376 105.2,-49.63982880026711 105.60000000000001,-49.33989306668925 106.0,-49.040052387369116 106.4,-48.74034993884642 106.80000000000001,-48.44082887775587 107.2,-48.141532334612684 107.60000000000001,-47.8425034076019 108.0,-47.54378515637228 108.4,-47.245420595835824 108.80000000000001,-46.94745268997369 109.2,-46.64992434564942 109.60000000000001,-46.352878406430456 110.00000000000001,-46.05635764641879 110.4,-45.76040476409144 110.80000000000001,-45.46506237615209 111.20000000000002,-45.17037301139423 111.60000000000001,-44.87637910457718 112.00000000000001,-44.583122990315495 112.4,-44.29064689698289 112.79999999999998,-43.99899294063142 113.19999999999999,-43.70820311892678 113.6,-43.41831930510086 113.99999999999999,-43.12938324192189 114.39999999999999,-42.841436535683755 114.8,-42.554520650214506 115.19999999999999,-42.26867690090592 115.6,-41.98394644876393 115.99999999999999,-41.70037029448166 116.39999999999999,-41.41798927253527 116.8,-41.13684404530402 117.19999999999999,-40.85697509721475 117.6,-40.57842272891245 118.0,-40.30122705145674 118.39999999999999,-40.02542798054625 118.8,-39.75106523077057 119.19999999999999,-39.4781783098916 119.6,-39.206806513154355 120.0,-38.9369889176287 120.39999999999999,-38.66876437658209 120.8,-38.402171513884994 121.2,-38.13724871844892 121.6,-37.874034138698676 122.0,-37.61256567707888 122.39999999999999,-37.35288098459621 122.8,-37.095017455397624 123.2,-36.83901222138578 123.6,-36.584902146871954 124.0,-36.332723823267834 124.4,-36.08251356381619 124.8,-35.83430739836208 125.2,-35.58814106816438 125.6,-35.34405002074932 126.0,-35.102069404805896 126.4,-34.86223406512469 126.8,-34.624578537580156 127.2,-34.38913704415762 127.60000000000001,-34.15594348802529 128.0,-33.92503144865228 128.4,-33.69643417697325 128.8,-33.47018459060031 129.20000000000002,-33.246315269082935 129.6,-33.024858449216595 130.0,-32.80584602040065 130.4,-32.58930952004643 130.8,-32.37528012903577 131.20000000000002,-32.16378866723118 131.6,-31.95486558903767 132.0,-31.748540979017516 132.4,-31.544844547557986 132.8,-31.343805626593273 133.20000000000002,-31.145453165380566 133.6,-30.949815726331565 134.0,-30.75692148089939 134.4,-30.566798205522105 134.8,-30.37947327762279 135.20000000000002,-30.194973671667412 135.60000000000002,-30.01332595528038 136.0,-29.834556285418987 136.4,-29.65869040460677 136.8,-29.485753637226676 137.20000000000002,-29.31577088587437 137.60000000000002,-29.148766627772332 138.0,-28.984764911245136 138.39999999999998,-28.82378935225657 138.79999999999998,-28.66586313100895 139.20000000000002,-28.51100898860526 139.6,-28.359249223774405 139.99999999999997,-28.210605689660305 140.39999999999998,-28.065099790674985 140.8,-27.92275247941649 141.2,-27.78358425365166 141.59999999999997,-27.647615153364526 142.0,-27.51486475787056 142.4,-27.385352182997334 142.79999999999998,-27.25909607833184 143.19999999999996,-27.136114624534976 143.6,-27.016425530723566 144.00000000000003,-26.900046031920297 144.4,-26.786992886571927 144.79999999999998,-26.67728237413599 145.2,-26.570930292736715 145.60000000000002,-26.46795195689005 146.0,-26.368362195298417 146.39999999999998,-26.272175348715383 146.8,-26.179405267880643 147.20000000000002,-26.090065311525542 147.6,-26.00416834444941 147.99999999999997,-25.92172673566709 148.4,-25.842752356627763 148.8,-25.767256579505567 149.2,-25.695250275561943 149.59999999999997,-25.62674381358023 150.0,-25.561747058372575 150.40000000000003,-25.500269369359412 150.8,-25.442319599221744 151.2,-25.38790609262631 151.6,-25.33703668502404 152.00000000000003,-25.289718701521736 152.4,-25.245958955827252 152.79999999999998,-25.20576374926835 153.2,-25.169138869885323 153.60000000000002,-25.136089591597496 154.0,-25.106620673443867 154.39999999999998,-25.080736358897706 154.8,-25.058440375255575 155.20000000000002,-25.039735933100598 155.6,-25.02462572584013 155.99999999999997,-25.013111929317898 156.4,-25.00519620150071 156.80000000000004,-25.000879682239695 157.20000000000002,-25.00016299310617 157.6,-25.00304623730212 158.0,-25.00952899964536 158.40000000000003,-25.01961034662934 158.8,-25.033288826557495 159.2,-25.05056246975235 159.60000000000002,-25.071428788839146 160.00000000000003,-25.095884779103983 160.4,-25.12392691892653 160.79999999999998,-25.155551170287094 161.20000000000002,-25.190752979348144 161.60000000000002,-25.229527277109987 162.0,-25.271868480140757 162.39999999999998,-25.317770491380376 162.79999999999998,-25.367226701018556 163.2,-25.420229987446557 163.6,-25.476772718282724 164.0,-25.536846751471536 164.39999999999998,-25.600443436456 164.79999999999998,-25.667553615423387 165.2,-25.738167624623884 165.6,-25.812275295762202 166.0,-25.88986595746173 166.4,-25.970928436801277 166.79999999999998,-26.055451060923886 167.2,-26.14342165871775 167.6,-26.234827562568775 168.0,-26.32965561018478 168.4,-26.42789214649075 168.79999999999998,-26.529523025595225 169.2,-26.634533612827216 169.6,-26.742908786843643 170.0,-26.85463294180669 170.4,-26.96968998963112 170.79999999999998,-27.088063362300858 171.2,-27.20973601425479 171.6,-27.33469042484128 172.0,-27.462908600841132 172.4,-27.594372079058545 172.8,-27.729061928979842 173.2,-27.86695875549936 173.6,-28.008042701712387 174.0,-28.15229345177444 174.4,-28.29969023382679 174.8,-28.4502118229875 175.2,-28.60383654440786 175.6,-28.76054227639342 176.0,-28.920306453589582 176.4,-29.08310607023088 176.8,-29.248917683453858 177.2,-29.417717416672705 177.6,-29.589480963017557 178.0,-29.764183588834513 178.4,-29.941800137247366 178.8,-30.12230503178004 179.20000000000002,-30.30567228003965 179.6,-30.491875477459295 180.0,-30.68088781110032 180.4,-30.872682063513267 180.8,-31.067230616657238 181.20000000000002,-31.264505455876723 181.6,-31.464478173935802 182.0,-31.667119975108587 182.4,-31.872401679325915 182.8,-32.08029372637705 183.20000000000002,-32.29076618016651 183.6,-32.5037887330246 184.0,-32.71933071007184 184.4,-32.93736107363596 184.8,-33.15784842772139 185.20000000000002,-33.38076102253013 185.60000000000002,-33.606066759033716 186.0,-33.833733193595414 186.4,-34.06372754264208 186.8,-34.29601668738483 187.20000000000002,-34.53056717858827 187.60000000000002,-34.76734524138691 188.0,-35.00631678014891 188.39999999999998,-35.2474473833856 188.79999999999998,-35.4907023287068 189.20000000000002,-35.73604658782074 189.6,-35.983444831578005 189.99999999999997,-36.232861435059036 190.39999999999998,-36.484260482703945 190.8,-36.737605773484255 191.2,-36.99286082611585 191.59999999999997,-37.24998888431226 192.0,-37.50895292207744 192.4,-37.76971564903741 192.79999999999998,-38.03223951581006 193.19999999999996,-38.29648671941226 193.6,-38.562419208703304 194.00000000000003,-38.82999868986425 194.4,-39.09918663191217 194.79999999999998,-39.369944272248574 195.2,-39.64223262224114 195.60000000000002,-39.91601247283798 196.0,-40.191244400213655 196.39999999999998,-40.46788877144625 196.8,-40.745905750224374 197.20000000000002,-41.02525530258346 197.6,-41.30589720267068 197.99999999999997,-41.587791038537375 198.4,-41.870896217958304 198.8,-42.15517197427684 199.2,-42.44057737227524 199.59999999999997,-42.72707131406943 200.0,-43.01461254502685 200.4,-43.30315965970709 200.8,-43.59267110782424 201.2,-43.883105200230034 201.6,-44.17442011491709 202.0,-44.46657390304104 202.4,-44.759524494961205 202.8,-45.0532297062986 203.2,-45.347647244010346 203.6,-45.642734712479715 204.0,-45.93844961962115 204.4,-46.23474938299903 204.8,-46.53159133595946 205.20000000000002,-46.82893273377413 205.6,-47.12673075979555 206.0,-47.424942531622555 206.4,-47.72352510727536 206.8,-48.022435491378985 207.20000000000002,-48.32163064135461 207.6,-48.621067473617686 208.0,-48.920702869781785 208.4,-49.22049368286762 208.8,-49.52039674351612 209.20000000000002,-49.82036886620482 209.60000000000002,-50.12036685546638 210.0,-50.42034751210876 210.4,-50.72026763943573 210.8,-51.020084049467236 211.20000000000002,-51.319753569158344 211.60000000000002,-51.61923304661602 212.0,-51.918479357312975 212.4,-52.21744941029759 212.8,-52.516100154398885 213.20000000000002,-52.81438858442574 213.60000000000002,-53.112271747359664 214.0,-53.40970674853994 214.4,-53.7066507578404 214.8,-54.003061015836785 215.20000000000002,-54.29889483996413 215.60000000000002,-54.594109630662985 216.0,-54.88866287751361 216.4,-55.182512165357444 216.8,-55.475615180404795 217.20000000000002,-55.767929716327984 217.60000000000002,-56.05941368033896 218.00000000000003,-56.3500250992506 218.4,-56.639722125520706 218.8,-56.92846304327814 219.20000000000002,-57.21620627432968 219.60000000000002,-57.50291038414725 220.00000000000003,-57.78853408783447 220.4,-58.07303625607155 220.8,-58.356375921037916 221.20000000000002,-58.6385122823114 221.60000000000002,-58.91940471274351 222.00000000000003,-59.199012764309614 222.40000000000003,-59.47729617393351 222.8,-59.75421486928504 223.20000000000002,-60.02972897455059 223.60000000000002,-60.30379881617508 224.00000000000003,-60.576384928574946 224.40000000000003,-60.84744805982099 224.8,-61.116949177290714 225.2,-61.38484947328888 225.59999999999997,-61.65111037063584 225.99999999999997,-61.91569352822247 226.39999999999998,-62.17856084653125 226.79999999999998,-62.439674473122565 227.2,-62.69899680808541 227.59999999999997,-62.95649050945166 227.99999999999997,-63.21211849857327 228.39999999999998,-63.46584396546149 228.79999999999998,-63.717630374087555 229.2,-63.96744146764371 229.6,-64.21524127376416 229.99999999999997,-64.46099410970498 230.39999999999998,-64.7046645874825 230.79999999999998,-64.94621761896896 231.2,-65.18561842094523 231.6,-65.42283252010948 231.99999999999997,-65.65782575804138 232.39999999999998,-65.89056429612073 232.79999999999998,-66.12101462040019 233.2,-66.34914354643128 233.6,-66.57491822404286 234.0,-66.79830614207154 234.39999999999998,-67.01927513304308 234.79999999999998,-67.2377933778046 235.2,-67.45382941010651 235.6,-67.66735212113343 236.0,-67.87833076398395 236.39999999999998,-68.08673495809805 236.79999999999998,-68.2925346936319 237.2,-68.49570033577925 237.6,-68.69620262903865 238.0,-68.89401270142635 238.39999999999998,-69.08910206863372 238.79999999999998,-69.28144263812905 239.2,-69.47100671320266 239.6,-69.65776699695529 240.0,-69.84169659622881 240.39999999999998,-70.0227690254788 240.79999999999998,-70.20095821058827 241.2,-70.3762384926225 241.6,-70.54858463152377 242.0,-70.71797180974589 242.4,-70.88437563582788 242.79999999999998,-71.04777214790634 243.2,-71.20813781716589 243.6,-71.36544955122724 244.0,-71.51968469747254 244.4,-71.67082104630724 244.79999999999998,-71.81883683435825 245.2,-71.96371074760792 245.6,-72.10542192446303 246.0,-72.24394995875899 246.4,-72.37927490269826 246.8,-72.51137726972274 247.2,-72.64023803731986 247.6,-72.76583864976175 248.0,-72.88816102077723 248.4,-73.0071875361563 248.8,-73.12290105628638 249.2,-73.23528491862054 249.6,-73.3443229400768 250.0,-73.44999941936847 250.4,-73.55229913926517 250.8,-73.65120736878399 251.2,-73.74670986531079 251.6,-73.83879287665111 252.0,-73.92744314301042 252.4,-74.01264789890358 252.8,-74.09439487499293 253.2,-74.17267229985522 253.6,-74.24746890167648 254.0,-74.31877390987535 254.4,-74.3865770566538 254.8,-74.45086857847593 255.20000000000002,-74.51163921747366 255.6,-74.56888022277997 256.0,-74.62258335178902 256.4,-74.67274087134304 256.8,-74.71934555884587 257.2,-74.76239070330305 257.6,-74.80187010628816 258.0,-74.8377780828354 258.40000000000003,-74.87010946225818 258.8,-74.89885958889373 259.2,-74.9240243227735 259.6,-74.94560004021932 260.0,-74.96358363436512 260.40000000000003,-74.97797251560445 260.8,-74.98876461196326 261.2,-74.99595836939831 261.6,-74.99955275202099 262.0,-74.9995472422464 262.40000000000003,-74.99594184086793 262.8,-74.98873706705714 263.2,-74.97793395828904 263.6,-74.96353407019262 264.0,-74.94553947632686 264.40000000000003,-74.9239527678822 264.8,-74.89877705330734 265.2,-74.87001595786168 265.6,-74.83767362309328 266.0,-74.80175470624245 266.40000000000003,-74.76226437957114 266.80000000000007,-74.71920832961816 267.2,-74.67259275638031 267.6,-74.62242437241957 268.0,-74.56871040189654 268.4,-74.51145857953018 268.8,-74.45067714948395 269.20000000000005,-74.38637486417878 269.6,-74.3185609830326 270.00000000000006,-74.24724527112714 270.40000000000003,-74.1724379978017 270.8,-74.09414993517433 271.20000000000005,-74.01239235659078 271.59999999999997,-73.92717703500112 272.0,-73.83851624126436 272.40000000000003,-73.74642274238161 272.8,-73.6509097996576 273.20000000000005,-73.551991166791 273.6,-73.44968108789404 274.0,-73.34399429544128 274.40000000000003,-73.23494600814819 274.79999999999995,-73.12255192877973 275.20000000000005,-73.0068282418891 275.59999999999997,-72.88779161148726 276.0,-72.76545917864325 276.4,-72.63984855901606 276.79999999999995,-72.51097784031786 277.2,-72.37886557970941 277.59999999999997,-72.24353080112797 278.0,-72.10499299254782 278.40000000000003,-71.96327210317398 278.79999999999995,-71.81838854056966 279.2,-71.67036316771747 279.59999999999997,-71.51921730001533 279.99999999999994,-71.36497270220703 280.4,-71.2076515852481 280.79999999999995,-71.04727660310755 281.2,-70.88387084950566 281.6,-70.71745785458859 282.0,-70.54806158154008 282.4,-70.3757064231307 282.8,-70.20041719820541 283.19999999999993,-70.02221914810978 283.59999999999997,-69.84113793305502 284.0,-69.65719962842323 284.4,-69.47043072101242 284.8,-69.28085810522252 285.2,-69.08850907918267 285.59999999999997,-68.89341134082017 286.0,-68.69559298387225 286.3999999999999,-68.49508249384051 286.8,-68.29190874388898 287.2,-68.08610099068659 287.59999999999997,-67.87768887019418 288.00000000000006,-67.66670239339695 288.4,-67.45317194198303 288.8,-67.23712826396836 289.2,-67.0186024692693 289.59999999999997,-66.79762602522268 290.0,-66.57423075205459 290.4,-66.34844881829831 290.8,-66.12031273616219 291.20000000000005,-65.88985535684782 291.59999999999997,-65.65710986581965 292.0,-65.42210977802611 292.4,-65.18488893307382 292.79999999999995,-64.94548149035457 293.2,-64.70392192412633 293.6,-64.46024501854927 294.0,-64.21448586267674 294.40000000000003,-63.96667984540249 294.8,-63.71686265036485 295.2,-63.46507025080813 295.6,-63.21133890440282 295.99999999999994,-62.95570514802442 296.4,-62.698205792492 296.8,-62.43887791726786 297.2,-62.177758865117916 297.6,-61.91488623673447 298.0,-61.650297885321784 298.4,-61.384031911145186 298.8,-61.1161266560449 299.19999999999993,-60.846620697914766 299.6,-60.57555284514695 300.0,-60.30296213104391 300.4,-60.02888780819744 300.80000000000007,-59.753369342836415 301.2,-59.476446409143804 301.6,-59.19815888354345 302.0,-58.918546838958214 302.4,-58.637650539039385 302.8,-58.35551043236868 303.2,-58.07216714663397 303.6,-57.78766148277877 304.00000000000006,-57.502034409127084 304.4,-57.21532705548396 304.8,-56.92758070721285 305.2,-56.638836799290694 305.59999999999997,-56.34913691034132 306.0,-56.0585227566481 306.4,-55.76703618614698 306.8,-55.474719172400455 307.20000000000005,-55.181613808553365 307.6,-54.88776230127168 308.0,-54.593206964664574 308.40000000000003,-54.29799021419158 308.79999999999995,-54.002154560554686 309.2,-53.70574260357671 309.6,-53.40879702606732 310.0,-53.111360587676536 310.40000000000003,-52.81347611873754 310.8,-52.51518651409915 311.2,-52.216534726948915 311.6,-51.91756376262815 311.99999999999994,-51.61831667243914 312.40000000000003,-51.318836547445706 312.8,-51.01916651226837 313.2,-50.71934971887437 313.6000000000001,-50.41942934036389 314.0,-50.11944856475321 314.40000000000003,-49.819450588755565 314.8,-49.51947861156116 315.2,-49.2195758286164 315.6,-48.91978542540369 316.0,-48.62015057122314 316.40000000000003,-48.32071441297595 316.80000000000007,-48.02152006895151 317.2,-47.72261062261838 317.6,-47.42402911642025 318.0,-47.12581854557809 318.4,-46.82802185189886 318.8,-46.53068191759175 319.20000000000005,-46.233841559093555 319.6,-45.93754352090296 320.00000000000006,-45.641830469425464 320.40000000000003,-45.346744986829535 320.8,-45.05232956491467 321.20000000000005,-44.758626598992926 321.59999999999997,-44.465678381783924 322.0,-44.17352709732464 322.40000000000003,-43.88221481489524 322.8,-43.59178348296102 323.20000000000005,-43.302274923131904 323.6,-43.01373082414028 324.0,-42.72619273583773 324.40000000000003,-42.43970206321214 324.79999999999995,-42.154300060425356 325.20000000000005,-41.87002782487252 325.59999999999997,-41.586926291264426 326.0,-41.30503622573263 326.4,-41.02439821995949 326.79999999999995,-40.745052685332965 327.2,-40.467039847127225 327.59999999999997,-40.19039973871064 328.0,-39.91517219578076 328.40000000000003,-39.64139685062819 328.79999999999995,-39.369113126429596 329.2,-39.098360231570666 329.59999999999997,-38.82917715400045 329.99999999999994,-38.56160265561701 330.4,-38.295675266685656 330.79999999999995,-38.03143328029093 331.2,-37.768914746822254 331.6,-37.50815746849483 332.0,-37.24919899390618 332.4,-36.99207661262909 332.8,-36.736827349842194 333.19999999999993,-36.4834879609983 333.59999999999997,-36.23209492653157 334.0,-35.9826844466046 334.4,-35.73529243589551 334.8,-35.48995451842636 335.2,-35.246706022433344 335.59999999999997,-35.0055819752795 336.0,-34.766617098410975 336.3999999999999,-34.52984580235716 336.8,-34.295302181775476 337.2,-34.06302001054203 337.59999999999997,-33.83303273688809 338.00000000000006,-33.60537347858366 338.4,-33.38007501816856 338.8,-33.157169798231735 339.2,-32.93668991673968 339.59999999999997,-32.71866712241439 340.0,-32.50313281016144 340.4,-32.290118016549386 340.8,-32.079653415340424 341.20000000000005,-31.87176931307344 341.59999999999997,-31.666495644699964 342.0,-31.463861969273488 342.4,-31.26389746569314 342.79999999999995,-31.06663092850194 343.2,-30.87209076374029 343.6,-30.680304984855802 344.0,-30.491301208669206 344.40000000000003,-30.305106651397708 344.8,-30.12174812473582 345.2,-29.941252031994484 345.6,-29.763644364299196 345.99999999999994,-29.588950696847217 346.4,-29.41719618522475 346.8,-29.248405561784686 347.2,-29.08260313208515 347.6,-28.9198127713895 348.0,-28.76005792122841 348.4,-28.60336158602419 348.8,-28.44974632977837 349.19999999999993,-28.299234272822428 349.6,-28.15184708863243 350.0,-28.007606000708254 350.4,-27.866531779517288 350.80000000000007,-27.72864473950363 351.2,-27.593964736162782 351.6,-27.462511163182455 352.0,-27.334302949650052 352.4,-27.209358557326773 352.8,-27.087695977989185 353.2,-26.969332730838488 353.6,-26.85428585997776 354.00000000000006,-26.74257193195759 354.4,-26.634207033390588 354.8,-26.52920676863486 355.2,-26.427586257547127 355.59999999999997,-26.329360133305382 356.0,-26.23454254030175 356.4,-26.143147132105803 356.8,-26.055187069498388 357.20000000000005,-25.970675018576536 357.6,-25.889623148929545 358.0,-25.81204313188655 358.40000000000003,-25.737946138835987 358.79999999999995,-25.667342839616815 359.2,-25.600243400982098 359.6,-25.536657485135063 360.0,-25.476594248337715 360.40000000000003,-25.420062339592366 360.8,-25.36706989939619 361.2,-25.317624558568998 361.6,-25.27173343715443 361.99999999999994,-25.22940314339468 362.40000000000003,-25.19063977277889 362.8,-25.155448907165447 363.2,-25.123835613978194 363.6000000000001,-25.095804445476734 364.0,-25.071359438100874 364.40000000000003,-25.050504111889442 364.8,-25.033241469973376 365.2,-25.019573998143287 365.6,-25.009503664491497 366.0,-25.00303191912865 366.40000000000003,-25.000159693974886 366.80000000000007,-25.00088740262568 367.2,-25.005214940292237 367.6,-25.01314168381661 368.0,-25.02466649176143 368.4,-25.039787704574255 368.8,-25.0585031448266 369.20000000000005,-25.080810117527385 369.6,-25.10670541051109 370.00000000000006,-25.136185294900272 370.40000000000003,-25.169245525642523 370.8,-25.205881342121753 371.20000000000005,-25.24608746884368 371.59999999999997,-25.28985811619553 372.0,-25.337186981279736 372.40000000000003,-25.388067248821503 372.8,-25.442491592150226 373.20000000000005,-25.50045217425451 373.6,-25.56194064891067 374.0,-25.626948161884634 374.40000000000003,-25.695465352206856 374.79999999999995,-25.767482353520318 375.20000000000005,-25.84298879550129 375.59999999999997,-25.92197380535259 376.0,-26.004426009369297 376.4,-26.0903335345765 376.79999999999995,-26.17968401043901 377.2,-26.27246457064272 377.59999999999997,-26.368661854947273 378.0,-26.468262011109957 378.40000000000003,-26.571250696880387 378.79999999999995,-26.677613082065776 379.2,-26.78733385066647 379.59999999999997,-26.900397203081372 379.99999999999994,-27.016786858383092 380.4,-27.136486056662417 380.79999999999995,-27.259477561441628 381.2,-27.38574366215655 381.6,-27.515266176706877 382.0,-27.648026454074305 382.4,-27.784005377008334 382.8,-27.923183364779035 383.19999999999993,-28.065540375996623 383.59999999999997,-28.211055911497517 384.0,-28.359709017296055 384.4,-28.51147828760185 384.8,-28.666341867902247 385.2,-28.82427745810925 385.59999999999997,-28.985262315770843 386.0,-29.149273259345676 386.3999999999999,-29.31628667154125 386.8,-29.486278502714864 387.2,-29.659224274336548 387.59999999999997,-29.835099082514034 388.00000000000006,-30.013877601578855 388.4,-30.195534087733165 388.8,-30.380042382756923 389.2,-30.56737591777444 389.59999999999997,-30.757507717080355 390.0,-30.950410402024165 390.4,-31.14605619495256 390.8,-31.344416923209415 391.20000000000005,-31.545464023192643 391.59999999999997,-31.74916854446721 392.0,-31.955501153934126 392.4,-32.164432140054124 392.79999999999995,-32.37593141712621 393.2,-32.58996852962002 393.6,-32.806512656561175 394.0,-33.02553261596958 394.40000000000003,-33.246996869349545 394.8,-33.470873526231244 395.2,-33.697130348763004 395.6,-33.92573475635332 395.99999999999994,-34.156653830362494 396.4,-34.38985431884295 396.8,-34.625302641327295 397.2,-34.86296489366394 397.6,-35.10280685289923 398.0,-35.34479398220543 398.4,-35.588891435854165 398.8,-35.835064064233855 399.19999999999993,-36.08327641891137 399.6,-36.33349275773661 400.0,-36.58567704998913" stroke="red" stroke-width="2.0"/><g><g><line fill="none" stroke="black" x1="-8.0" x2="408.0" y1="0.0" y2="0.0"/><polyline fill="black" points="408.0,-5.0 408.0,5.0 424.0,0.0" stroke="none"/><line fill="none" stroke="black" x1="33.33333333333333" x2="33.33333333333333" y1="-3.0" y2="3.0"/><line fill="none" stroke="black" x1="66.66666666666666" x2="66.66666666666666" y1="-3.0" y2="3.0"/><line fill="none" stroke="black" x1="100.0" x2="100.0" y1="-3.0" y2="3.0"/><line fill="none" stroke="black" x1="133.33333333333331" x2="133.33333333333331" y1="-3.0" y2="3.0"/><line fill="none" stroke="black" x1="166.66666666666669" x2="166.66666666666669" y1="-3.0" y2="3.0"/><line fill="none" stroke="black" x1="200.0" x2="200.0" y1="-3.0" y2="3.0"/><line fill="none" stroke="black" x1="233.33333333333334" x2="233.33333333333334" y1="-3.0" y2="3.0"/><line fill="none" stroke="black" x1="266.66666666666663" x2="266.66666666666663" y1="-3.0" y2="3.0"/><line fill="none" stroke="black" x1="300.0" x2="300.0" y1="-3.0" y2="3.0"/><line fill="none" stroke="black" x1="333.33333333333337" x2="333.33333333333337" y1="-3.0" y2="3.0"/><line fill="none" stroke="black" x1="366.66666666666663" x2="366.66666666666663" y1="-3.0" y2="3.0"/><line fill="none" stroke="black" x1="400.0" x2="400.0" y1="-3.0" y2="3.0"/><text dominant-baseline="middle" fill="black" stroke="none" text-anchor="middle" x="33.33333333333333" y="14.0">1</text><text dominant-baseline="middle" fill="black" stroke="none" text-anchor="middle" x="66.66666666666666" y="14.0">2</text><text dominant-baseline="middle" fill="black" stroke="none" text-anchor="middle" x="100.0" y="14.0">3</text><text dominant-baseline="middle" fill="black" stroke="none" text-anchor="middle" x="133.33333333333331" y="14.0">4</text><text dominant-baseline="middle" fill="black" stroke="none" text-anchor="middle" x="166.66666666666669" y="14.0">5</text><text dominant-baseline="middle" fill="black" stroke="none" text-anchor="middle" x="200.0" y="14.0">6</text><text dominant-baseline="middle" fill="black" stroke="none" text-anchor="middle" x="233.33333333333334" y="14.0">7</text><text dominant-baseline="middle" fill="black" stroke="none" text-anchor="middle" x="266.66666666666663" y="14.0">8</text><text dominant-baseline="middle" fill="black" stroke="none" text-anchor="middle" x="300.0" y="14.0">9</text><text dominant-baseline="middle" fill="black" stroke="none" text-anchor="middle" x="333.33333333333337" y="14.0">10</text><text dominant-baseline="middle" fill="black" stroke="none" text-anchor="middle" x="366.66666666666663" y="14.0">11</text><text dominant-baseline="middle" fill="black" stroke="none" text-anchor="middle" x="400.0" y="14.0">12</text></g><g><line fill="none" stroke="black" x1="0.0" x2="0.0" y1="8.0" y2="-308.0"/><polyline fill="black" points="-5.0,-308.0 5.0,-308.0 0.0,-324.0" stroke="none"/><line fill="none" stroke="black" x1="-3.0" x2="3.0" y1="-50.0" y2="-50.0"/><line fill="none" stroke="black" x1="-3.0" x2="3.0" y1="-100.0" y2="-100.0"/><line fill="none" stroke="black" x1="-3.0" x2="3.0" y1="-150.0" y2="-150.0"/><line fill="none" stroke="black" x1="-3.0" x2="3.0" y1="-200.0" y2="-200.0"/><line fill="none" stroke="black" x1="-3.0" x2="3.0" y1="-250.0" y2="-250.0"/><line fill="none" stroke="black" x1="-3.0" x2="3.0" y1="-300.0" y2="-300.0"/><text dominant-baseline="middle" fill="black" stroke="none" text-anchor="middle" x="-10.0" y="-50.0">1</text><text dominant-baseline="middle" fill="black" stroke="none" text-anchor="middle" x="-10.0" y="-100.0">2</text><text dominant-baseline="middle" fill="black" stroke="none" text-anchor="middle" x="-10.0" y="-150.0">3</text><text dominant-baseline="middle" fill="black" stroke="none" text-anchor="middle" x="-10.0" y="-200.0">4</text><text dominant-baseline="middle" fill="black" stroke="none" text-anchor="middle" x="-10.0" y="-250.0">5</text><text dominant-baseline="middle" fill="black" stroke="none" text-anchor="middle" x="-10.0" y="-300.0">6</text></g><text dominant-baseline="middle" fill="black" stroke="none" text-anchor="middle" x="-10.0" y="14.0">0</text></g></g></svg>