<svg xmlns="http://www.w3.org/2000/svg" height="380.0" width="480.0"><g transform="translate(40.0, 340.0)"><circle cx="33.33333333333333" cy="-71.03677462019742" fill="blue" r="4.0" stroke="lightblue" stroke-width="1.0"/><circle cx="66.66666666666666" cy="-139.59632908632145" fill="blue" r="4.0" stroke="lightblue" stroke-width="1.0"/><circle cx="100.0" cy="-253.52800020149667" fill="blue" r="4.0" stroke="lightblue" stroke-width="1.0"/><circle cx="133.33333333333331" cy="-31.079937617301795" fill="blue" r="4.0" stroke="lightblue" stroke-width="1.0"/><circle cx="166.66666666666669" cy="-157.09155463658067" fill="blue" r="4.0" stroke="lightblue" stroke-width="1.0"/><circle cx="200.0" cy="-243.01461254502684" fill="blue" r="4.0" stroke="lightblue" stroke-width="1.0"/><circle cx="233.33333333333334" cy="-66.42466496796973" fill="blue" r="4.0" stroke="lightblue" stroke-width="1.0"/><circle cx="266.66666666666663" cy="-146.36249915478464" fill="blue" r="4.0" stroke="lightblue" stroke-width="1.0"/><circle cx="300.0" cy="-260.3029621310439" fill="blue" r="4.0" stroke="lightblue" stroke-width="1.0"/><circle cx="333.33333333333337" cy="-36.399472227765756" fill="blue" r="4.0" stroke="lightblue" stroke-width="1.0"/><circle cx="366.66666666666663" cy="-150.11064244970126" fill="blue" r="4.0" stroke="lightblue" stroke-width="1.0"/><circle cx="400.0" cy="-236.58567704998913" fill="blue" r="4.0" stroke="lightblue" stroke-width="1.0"/><g><g><line fill="none" stroke="black" x1="-8.0" x2="408.0" y1="0.0" y2="0.0"/><polyline fill="black" points="408.0,-5.0 408.0,5.0 424.0,0.0" stroke="none"/><line fill="none" stroke="black" x1="33.33333333333333" x2="33.33333333333333" y1="-3.0" y2="3.0"/><line fill="none" stroke="black" x1="66.66666666666666" x2="66.66666666666666" y1="-3.0" y2="3.0"/><line fill="none" stroke="black" x1="100.0" x2="100.0" y1="-3.0" y2="3.0"/><line fill="none" stroke="black" x1="133.33333333333331" x2="133.33333333333331" y1="-3.0" y2="3.0"/><line fill="none" stroke="black" x1="166.66666666666669" x2="166.66666666666669" y1="-3.0" y2="3.0"/><line fill="none" stroke="black" x1="200.0" x2="200.0" y1="-3.0" y2="3.0"/><line fill="none" stroke="black" x1="233.33333333333334" x2="233.33333333333334" y1="-3.0" y2="3.0"/><line fill="none" stroke="black" x1="266.66666666666663" x2="266.66666666666663" y1="-3.0" y2="3.0"/><line fill="none" stroke="black" x1="300.0" x2="300.0" y1="-3.0" y2="3.0"/><line fill="none" stroke="black" x1="333.33333333333337" x2="333.33333333333337" y1="-3.0" y2="3.0"/><line fill="none" stroke="black" x1="366.66666666666663" x2="366.66666666666663" y1="-3.0" y2="3.0"/><line fill="none" stroke="black" x1="400.0" x2="400.0" y1="-3.0" y2="3.0"/><text dominant-baseline="middle" fill="black" stroke="none" text-anchor="middle" x="33.33333333333333" y="14.0">1</text><text dominant-baseline="middle" fill="black" stroke="none" text-anchor="middle" x="66.66666666666666" y="14.0">2</text><text dominant-baseline="middle" fill="black" stroke="none" text-anchor="middle" x="100.0" y="14.0">3</text><text dominant-baseline="middle" fill="black" stroke="none" text-anchor="middle" x="133.33333333333331" y="14.0">4</text><text dominant-baseline="middle" fill="black" stroke="none" text-anchor="middle" x="166.66666666666669" y="14.0">5</text><text dominant-baseline="middle" fill="black" stroke="none" text-anchor="middle" x="200.0" y="14.0">6</text><text dominant-baseline="middle" fill="black" stroke="none" text-anchor="middle" x="233.33333333333334" y="14.0">7</text><text dominant-baseline="middle" fill="black" stroke="none" text-anchor="middle" x="266.66666666666663" y="14.0">8</text><text dominant-baseline="middle" fill="black" stroke="none" text-anchor="middle" x="300.0" y="14.0">9</text><text dominant-baseline="middle" fill="black" stroke="none" text-anchor="middle" x="333.33333333333337" y="14.0">10</text><text dominant-baseline="middle" fill="black" stroke="none" text-anchor="middle" x="366.66666666666663" y="14.0">11</text><text dominant-baseline="middle" fill="black" stroke="none" text-anchor="middle" x="400.0" y="14.0">12</text></g><g><line fill="none" stroke="black" x1="0.0" x2="0.0" y1="8.0" y2="-308.0"/><polyline fill="black" points="-5.0,-308.0 5.0,-308.0 0.0,-324.0" stroke="none"/><line fill="none" stroke="black" x1="-3.0" x2="3.0" y1="-50.0" y2="-50.0"/><line fill="none" stroke="black" x1="-3.0" x2="3.0" y1="-100.0" y2="-100.0"/><line fill="none" stroke="black" x1="-3.0" x2="3.0" y1="-150.0" y2="-150.0"/><line fill="none" stroke="black" x1="-3.0" x2="3.0" y1="-200.0" y2="-200.0"/><line fill="none" stroke="black" x1="-3.0" x2="3.0" y1="-250.0" y2="-250.0"/><line fill="none" stroke="black" x1="-3.0" x2="3.0" y1="-300.0" y2="-300.0"/><text dominant-baseline="middle" fill="black" stroke="none" text-anchor="middle" x="-10.0" y="-50.0">1</text><text dominant-baseline="middle" fill="black" stroke="none" text-anchor="middle" x="-10.0" y="-100.0">2</text><text dominant-baseline="middle" fill="black" stroke="none" text-anchor="middle" x="-10.0" y="-150.0">3</text><text dominant-baseline="middle" fill="black" stroke="none" text-anchor="middle" x="-10.0" y="-200.0">4</text><text dominant-baseline="middle" fill="black" stroke="none" text-anchor="middle" x="-10.0" y="-250.0">5</text><text dominant-baseline="middle" fill="black" stroke="none" text-anchor="middle" x="-10.0" y="-300.0">6</text></g><text dominant-baseline="middle" fill="black" stroke="none" text-anchor="middle" x="-10.0" y="14.0">0</text></g></g></svg>