<svg xmlns="http://www.w3.org/2000/svg" height="380.0" width="480.0"><g transform="translate(40.0, 340.0)"><polyline fill="none" points="0.0,-150.0 0.4,-150.89997840015553 0.8,-151.79982720497657 1.2000000000000002,-152.69941683779018 1.6,-153.59861775924375 2.0,-154.49730048595833 2.4000000000000004,-155.39533560917425 2.8000000000000003,-156.29259381338554 3.2,-157.18894589496128 3.5999999999999996,-158.08426278075055 4.0,-158.97841554666894 4.4,-159.87127543626326 4.800000000000001,-160.7627138792522 5.2,-161.65260251004045 5.6000000000000005,-162.54081318620283 6.0,-163.4272180069368 6.4,-164.31168933147993 6.800000000000001,-165.1940997974898 7.199999999999999,-166.07432233938408 7.6,-166.9522302066378 8.0,-167.8276969820351 8.4,-168.70059659987308 8.8,-169.57080336411514 9.200000000000001,-170.43819196649096 9.600000000000001,-171.30263750454066 10.000000000000002,-172.16401549960045 10.4,-173.0222019147276 10.8,-173.87707317256113 11.200000000000001,-174.7285061731172 11.600000000000001,-175.57637831151504 12.0,-176.42056749563173 12.4,-177.26095216368364 12.8,-178.09741130173063 13.200000000000001,-178.92982446110227 13.600000000000001,-179.75807177574202 14.000000000000002,-180.58203397946775 14.399999999999999,-181.40159242314596 14.799999999999999,-182.21662909177692 15.2,-183.02702662148872 15.6,-183.83266831643746 16.0,-184.63343816561124 16.400000000000002,-185.4292208595354 16.8,-186.21990180687723 17.200000000000003,-187.00536715094654 17.6,-187.7855037860911 18.000000000000004,-188.56019937398347 18.400000000000002,-189.32934235979775 18.800000000000004,-190.09282198827293 19.200000000000003,-190.8505283196619 19.600000000000005,-191.6023522455622 20.000000000000004,-192.34818550462765 20.4,-193.08792069815775 20.8,-193.8214513055629 21.2,-194.54867169970314 21.6,-195.26947716209838 22.0,-195.98376389800754 22.400000000000002,-196.69142905137497 22.8,-197.39237071964138 23.200000000000003,-198.08648796841777 23.599999999999998,-198.77368084601977 24.0,-199.4538503978605 24.4,-200.12689868069972 24.8,-200.79272877674782 25.2,-201.45124480762152 25.6,-202.10235194815016 26.0,-202.74595644003077 26.400000000000002,-203.38196560532856 26.8,-204.0102878598228 27.200000000000003,-204.6308327261945 27.6,-205.24351084705532 28.000000000000004,-205.84823399781445 28.4,-206.44491509938317 28.799999999999997,-207.03346823071396 29.2,-207.61380864117288 29.599999999999998,-208.18585276274365 30.0,-208.74951822206125 30.4,-209.30472385227355 30.8,-209.85138970472923 31.2,-210.38943706049008 31.6,-210.9187884416667 32.0,-211.43936762257488 32.4,-211.95109964071213 32.800000000000004,-212.4539108075521 33.2,-212.9477287191556 33.6,-213.43248226659668 34.0,-213.90810164620223 34.400000000000006,-214.37451836960338 34.800000000000004,-214.8316652735979 35.2,-215.27947652982164 35.6,-215.71788765422747 36.00000000000001,-216.14683551637108 36.400000000000006,-216.5662583485015 36.800000000000004,-216.97609575445566 37.2,-217.3762887183553 37.60000000000001,-217.7667796131052 38.00000000000001,-218.14751220869127 38.400000000000006,-218.51843168027756 38.800000000000004,-218.87948461610122 39.20000000000001,-219.23061902516332 39.60000000000001,-219.57178434471575 40.00000000000001,-219.90293144754196 40.400000000000006,-220.22401264903147 40.8,-220.53498171404598 41.199999999999996,-220.83579386357758 41.6,-221.12640578119644 42.0,-221.4067756192887 42.4,-221.67686300508208 42.8,-221.9366290464597 43.2,-222.18603633756058 43.6,-222.4250489641657 44.0,-222.6536325088699 44.4,-222.87175405603764 44.800000000000004,-223.07938219654315 45.2,-223.27648703229292 45.6,-223.46304018053118 46.0,-223.639014777927 46.400000000000006,-223.80438548444235 46.800000000000004,-223.95912848698137 47.199999999999996,-224.10322150281897 47.599999999999994,-224.23664378280992 48.0,-224.3593761143765 48.4,-224.47140082427492 48.8,-224.57270178114067 49.2,-224.66326439781093 49.6,-224.7430756334254 50.0,-224.8121239953041 50.4,-224.87039954060214 50.8,-224.91789387774182 51.2,-224.9546001676206 51.6,-224.98051312459614 52.0,-224.99562901724747 52.400000000000006,-224.99994566891215 52.800000000000004,-224.99346245799975 53.2,-224.9761803180815 53.6,-224.94810173775568 54.0,-224.9092307602893 54.400000000000006,-224.85957298303595 54.800000000000004,-224.7991355566298 55.2,-224.72792718395579 55.60000000000001,-224.6459581188965 56.00000000000001,-224.5532401648557 56.39999999999999,-224.44978667305855 56.8,-224.33561254062906 57.199999999999996,-224.21073420844507 57.599999999999994,-224.07516965877056 57.99999999999999,-223.92893841266653 58.4,-223.77206152717963 58.8,-223.6045615923103 59.199999999999996,-223.4264627277598 59.599999999999994,-223.2377905794568 60.0,-223.03857231586463 60.4,-222.82883662406906 60.8,-222.60861370564723 61.199999999999996,-222.37793527231887 61.6,-222.13683454137976 62.0,-221.88534623091857 62.4,-221.6235065548174 62.8,-221.35135321753717 63.2,-221.06892540868813 63.6,-220.77626379738678 64.0,-220.47341052639936 64.4,-220.16040920607367 64.8,-219.83730490805885 65.2,-219.5041441588156 65.60000000000001,-219.16097493291605 66.0,-218.80784664613572 66.4,-218.44481014833775 66.8,-218.07191771615052 67.2,-217.68922304543986 67.60000000000001,-217.29678124357704 68.0,-216.89464882150347 68.4,-216.48288368559298 68.80000000000001,-216.06154512931366 69.19999999999999,-215.6306938246895 69.60000000000001,-215.19039181356385 69.99999999999999,-214.74070249866554 70.4,-214.2816906344788 70.79999999999998,-213.81342231791896 71.2,-213.33596497881433 71.59999999999998,-212.84938737019687 72.00000000000001,-212.35375955840124 72.39999999999999,-211.84915291297602 72.80000000000001,-211.3356400964061 73.19999999999999,-210.81329505364985 73.60000000000001,-210.2821930014907 73.99999999999999,-209.7424104177065 74.4,-209.1940250300565 74.79999999999998,-208.637115805089 75.20000000000002,-208.07176293676997 75.6,-207.4980478349356 76.00000000000001,-206.91605311356915 76.39999999999999,-206.3258625789048 76.80000000000001,-205.7275612173597 77.19999999999999,-205.1212351832961 77.60000000000001,-204.5069717866151 77.99999999999999,-203.88485948018445 78.40000000000002,-203.2549878471012 78.8,-202.61744758779224 79.20000000000002,-201.97233050695306 79.6,-201.3197295003287 80.00000000000001,-200.6597385413363 80.39999999999999,-199.99245266753363 80.80000000000001,-199.31796796693328 81.19999999999999,-198.6363815641668 81.6,-197.94779160649836 82.0,-197.25229724969194 82.39999999999999,-196.5499986437331 82.8,-195.84099691840763 83.2,-195.12539416873875 83.6,-194.4032934402859 84.0,-193.67479871430615 84.39999999999999,-192.94001489278122 84.8,-192.19904778331176 85.2,-191.45200408388106 85.6,-190.69899136749103 86.0,-189.94011806667157 86.4,-189.17549345786676 86.8,-188.4052276456989 87.2,-187.62943154711397 87.6,-186.84821687540963 88.0,-186.06169612414863 88.4,-185.26998255096004 88.8,-184.47319016123038 89.2,-183.6714336916869 89.60000000000001,-182.86482859387576 90.0,-182.05349101753725 90.4,-181.23753779388036 90.8,-180.41708641875937 91.2,-179.59225503575456 91.60000000000001,-178.76316241915978 92.0,-177.92992795687914 92.4,-177.0926716332354 92.80000000000001,-176.2515140116924 93.2,-175.4065762174941 93.60000000000001,-174.5579799202228 94.0,-173.70584731627903 94.39999999999999,-172.85030111128518 94.8,-171.99146450241648 95.19999999999999,-171.12946116066047 95.6,-170.26441521300885 96.0,-169.3964512245833 96.39999999999999,-168.52569418069834 96.8,-167.65226946886358 97.2,-166.7763028607283 97.6,-165.89792049397036 98.0,-165.0172488541328 98.4,-164.13441475640988 98.8,-163.24954532738622 99.2,-162.36276798673052 99.6,-161.47421042884747 100.0,-160.58400060449006 100.4,-159.69226670233462 100.8,-158.79913713052218 101.2,-157.90474049816783 101.6,-157.00920559684107 102.0,-156.11266138202018 102.4,-155.21523695452294 102.8,-154.3170615419161 103.2,-153.4182644799071 103.60000000000001,-152.5189751937197 104.0,-151.6193231794572 104.4,-150.71943798545502 104.80000000000001,-149.81944919362613 105.2,-148.91948640080136 105.60000000000001,-148.01967920006774 106.0,-147.12015716210735 106.4,-146.22104981653928 106.80000000000001,-145.3224866332676 107.2,-144.42459700383804 107.60000000000001,-143.5275102228057 108.0,-142.63135546911684 108.4,-141.7362617875075 108.80000000000001,-140.84235806992106 109.2,-139.94977303694824 109.60000000000001,-139.05863521929138 110.00000000000001,-138.16907293925635 110.4,-137.28121429227434 110.80000000000001,-136.39518712845626 111.20000000000002,-135.51111903418268 111.60000000000001,-134.62913731373155 112.00000000000001,-133.7493689709465 112.4,-132.87194069094866 112.79999999999998,-131.99697882189426 113.19999999999999,-131.12460935678035 113.6,-130.25495791530258 113.99999999999999,-129.3881497257657 114.39999999999999,-128.52430960705126 114.8,-127.66356195064351 115.19999999999999,-126.80603070271776 115.6,-125.95183934629179 115.99999999999999,-125.10111088344497 116.39999999999999,-124.25396781760581 116.8,-123.41053213591204 117.19999999999999,-122.57092529164426 117.6,-121.73526818673733 118.0,-120.90368115437023 118.39999999999999,-120.07628394163875 118.8,-119.25319569231169 119.19999999999999,-118.43453492967478 119.6,-117.62041953946307 120.0,-116.8109667528861 120.39999999999999,-116.00629312974627 120.8,-115.20651454165497 121.2,-114.41174615534678 121.6,-113.62210241609603 122.0,-112.83769703123664 122.39999999999999,-112.05864295378863 122.8,-111.28505236619289 123.2,-110.51703666415735 123.6,-109.75470644061586 124.0,-108.9981714698035 124.4,-108.24754069144856 124.8,-107.50292219508624 125.2,-106.76442320449316 125.6,-106.03215006224796 126.0,-105.30620821441768 126.4,-104.58670219537406 126.8,-103.87373561274048 127.2,-103.16741113247288 127.60000000000001,-102.46783046407586 128.0,-101.77509434595683 128.4,-101.08930253091974 128.8,-100.41055377180093 129.20000000000002,-99.7389458072488 129.6,-99.07457534764978 130.0,-98.41753806120194 130.4,-97.76792856013928 130.8,-97.12584038710732 131.20000000000002,-96.49136600169356 131.6,-95.86459676711301 132.0,-95.24562293705254 132.4,-94.63453364267396 132.8,-94.03141687977983 133.20000000000002,-93.43635949614172 133.6,-92.8494471789947 134.0,-92.27076444269817 134.4,-91.7003946165663 134.8,-91.13841983286838 135.20000000000002,-90.58492101500224 135.60000000000002,-90.03997786584114 136.0,-89.50366885625697 136.4,-88.9760712138203 136.8,-88.45726091168002 137.20000000000002,-87.94731265762312 137.60000000000002,-87.446299883317 138.0,-86.95429473373541 138.39999999999998,-86.4713680567697 138.79999999999998,-85.99758939302686 139.20000000000002,-85.53302696581578 139.6,-85.07774767132322 139.99999999999997,-84.63181706898092 140.39999999999998,-84.19529937202496 140.8,-83.76825743824948 141.2,-83.35075276095498 141.59999999999997,-82.94284546009358 142.0,-82.54459427361168 142.4,-82.15605654899201 142.79999999999998,-81.77728823499552 143.19999999999996,-81.40834387360492 143.6,-81.0492765921707 144.00000000000003,-80.70013809576089 144.4,-80.36097865971577 144.79999999999998,-80.03184712240797 145.2,-79.71279087821014 145.60000000000002,-79.40385587067016 146.0,-79.10508658589525 146.39999999999998,-78.81652604614615 146.8,-78.53821580364192 147.20000000000002,-78.27019593457662 147.6,-78.01250503334823 147.99999999999997,-77.76518020700126 148.4,-77.5282570698833 148.8,-77.3017697385167 149.2,-77.08575082668582 149.59999999999997,-76.8802314407407 150.0,-76.68524117511772 150.40000000000003,-76.50080810807823 150.8,-76.32695879766523 151.2,-76.16371827787893 151.6,-76.01111005507212 152.00000000000003,-75.8691561045652 152.4,-75.73787686748176 152.79999999999998,-75.61729124780506 153.2,-75.50741660965596 153.60000000000002,-75.4082687747925 154.0,-75.31986202033161 154.39999999999998,-75.24220907669311 154.8,-75.17532112576673 155.20000000000002,-75.11920779930179 155.6,-75.0738771775204 155.99999999999997,-75.0393357879537 156.4,-75.01558860450214 156.80000000000004,-75.00263904671908 157.20000000000002,-75.0004889793185 157.6,-75.00913871190636 158.0,-75.02858699893609 158.40000000000003,-75.05883103988802 158.8,-75.09986647967247 159.2,-75.15168740925705 159.60000000000002,-75.21428636651744 160.00000000000003,-75.28765433731195 160.4,-75.37178075677957 160.79999999999998,-75.46665351086128 161.20000000000002,-75.57225893804443 161.60000000000002,-75.68858183132996 162.0,-75.81560544042227 162.39999999999998,-75.95331147414113 162.79999999999998,-76.10168010305566 163.2,-76.26068996233967 163.6,-76.43031815484818 164.0,-76.61054025441462 164.39999999999998,-76.801330309368 164.79999999999998,-77.00266084627016 165.2,-77.21450287387167 165.6,-77.4368258872866 166.0,-77.6695978723852 166.4,-77.91278531040383 166.79999999999998,-78.16635318277167 167.2,-78.43026497615324 167.6,-78.70448268770632 168.0,-78.98896683055433 168.4,-79.28367643947225 168.79999999999998,-79.58856907678567 169.2,-79.90360083848165 169.6,-80.22872636053093 170.0,-80.56389882542007 170.4,-80.90906996889338 170.79999999999998,-81.26419008690257 171.2,-81.62920804276438 171.6,-82.00407127452384 172.0,-82.38872580252338 172.4,-82.78311623717563 172.8,-83.18718578693952 173.2,-83.60087626649808 173.6,-84.02412810513717 174.0,-84.45688035532332 174.4,-84.89907070148037 174.8,-85.35063546896251 175.2,-85.81150963322357 175.6,-86.28162682918025 176.0,-86.76091936076875 176.4,-87.24931821069264 176.8,-87.74675305036158 177.2,-88.25315225001812 177.6,-88.76844288905266 178.0,-89.29255076650354 178.4,-89.8254004117421 178.8,-90.36691509534012 179.20000000000002,-90.91701684011896 179.6,-91.4756264323779 180.0,-92.04266343330096 180.4,-92.6180461905398 180.8,-93.20169184997171 181.20000000000002,-93.79351636763018 181.6,-94.39343452180741 182.0,-95.00135992532576 182.4,-95.61720503797774 182.8,-96.24088117913115 183.20000000000002,-96.87229854049953 183.6,-97.51136619907379 184.0,-98.1579921302155 184.4,-98.81208322090788 184.8,-99.47354528316417 185.20000000000002,-100.14228306759037 185.60000000000002,-100.81820027710114 186.0,-101.50119958078625 186.4,-102.19118262792622 186.8,-102.88805006215449 187.20000000000002,-103.5917015357648 187.60000000000002,-104.30203572416075 188.0,-105.01895034044672 188.39999999999998,-105.74234215015679 188.79999999999998,-106.47210698612041 189.20000000000002,-107.20813976346221 189.6,-107.95033449473401 189.99999999999997,-108.69858430517712 190.39999999999998,-109.45278144811184 190.8,-110.21281732045274 191.2,-110.97858247834756 191.59999999999997,-111.74996665293679 192.0,-112.52685876623231 192.4,-113.30914694711224 192.79999999999998,-114.0967185474302 193.19999999999996,-114.88946015823677 193.6,-115.68725762610991 194.00000000000003,-116.48999606959275 194.4,-117.2975598957365 194.79999999999998,-118.10983281674571 195.2,-118.92669786672343 195.60000000000002,-119.74803741851393 196.0,-120.57373320064096 196.39999999999998,-121.40366631433876 196.8,-122.23771725067313 197.20000000000002,-123.0757659077504 197.6,-123.91769160801205 197.99999999999997,-124.76337311561213 198.4,-125.61268865387493 198.8,-126.46551592283052 199.2,-127.32173211682574 199.59999999999997,-128.1812139422083 200.0,-129.04383763508056 200.4,-129.9094789791213 200.8,-130.77801332347272 201.2,-131.6493156006901 201.6,-132.52326034475126 202.0,-133.3997217091231 202.4,-134.27857348488362 202.8,-135.1596891188958 203.2,-136.04294173203104 203.6,-136.92820413743914 204.0,-137.81534885886344 204.4,-138.7042481489971 204.8,-139.59477400787839 205.20000000000002,-140.4867982013224 205.6,-141.38019227938662 206.0,-142.27482759486767 206.4,-143.17057532182608 206.8,-144.06730647413696 207.20000000000002,-144.96489192406383 207.6,-145.86320242085304 208.0,-146.76210860934535 208.4,-147.66148104860287 208.8,-148.5611902305484 209.20000000000002,-149.46110659861444 209.60000000000002,-150.36110056639913 210.0,-151.2610425363263 210.4,-152.1608029183072 210.8,-153.06025214840173 211.20000000000002,-153.95926070747504 211.60000000000002,-154.85769913984805 212.0,-155.75543807193893 212.4,-156.65234823089276 212.8,-157.54830046319665 213.20000000000002,-158.4431657532772 213.60000000000002,-159.33681524207898 214.0,-160.22912024561984 214.4,-161.1199522735212 214.8,-162.00918304751036 215.20000000000002,-162.89668451989237 215.60000000000002,-163.78232889198893 216.0,-164.6659886325408 216.4,-165.54753649607233 216.8,-166.42684554121436 217.20000000000002,-167.30378914898395 217.60000000000002,-168.1782410410169 218.00000000000003,-169.0500752977518 218.4,-169.91916637656212 218.8,-170.78538912983444 219.20000000000002,-171.64861882298902 219.60000000000002,-172.50873115244175 220.00000000000003,-173.3656022635034 220.4,-174.21910876821465 220.8,-175.06912776311376 221.20000000000002,-175.91553684693423 221.60000000000002,-176.75821413823053 222.00000000000003,-177.59703829292883 222.40000000000003,-178.43188852180054 222.8,-179.26264460785515 223.20000000000002,-180.08918692365177 223.60000000000002,-180.91139644852524 224.00000000000003,-181.72915478572483 224.40000000000003,-182.542344179463 224.8,-183.35084753187215 225.2,-184.15454841986664 225.59999999999997,-184.95333111190752 225.99999999999997,-185.7470805846674 226.39999999999998,-186.53568253959375 226.79999999999998,-187.31902341936768 227.2,-188.0969904242562 227.59999999999997,-188.869471528355 227.99999999999997,-189.6363554957198 228.39999999999998,-190.39753189638446 228.79999999999998,-191.15289112226264 229.2,-191.90232440293116 229.6,-192.6457238212925 229.99999999999997,-193.38298232911495 230.39999999999998,-194.11399376244748 230.79999999999998,-194.83865285690683 231.2,-195.55685526283568 231.6,-196.26849756032846 231.99999999999997,-196.97347727412412 232.39999999999998,-197.67169288836217 232.79999999999998,-198.36304386120057 233.2,-199.04743063929382 233.6,-199.7247546721286 234.0,-200.39491842621462 234.39999999999998,-201.05782539912923 234.79999999999998,-201.71338013341384 235.2,-202.3614882303195 235.6,-203.00205636340027 236.0,-203.63499229195185 236.39999999999998,-204.26020487429415 236.79999999999998,-204.8776040808957 237.2,-205.48710100733777 237.6,-206.08860788711596 238.0,-206.68203810427903 238.39999999999998,-207.26730620590118 238.79999999999998,-207.84432791438715 239.2,-208.41302013960797 239.6,-208.97330099086588 240.0,-209.52508978868647 240.39999999999998,-210.06830707643638 240.79999999999998,-210.60287463176482 241.2,-211.1287154778675 241.6,-211.64575389457127 242.0,-212.15391542923766 242.4,-212.65312690748362 242.79999999999998,-213.14331644371902 243.2,-213.62441345149762 243.6,-214.0963486536817 244.0,-214.55905409241763 244.4,-215.0124631389217 244.79999999999998,-215.45651050307478 245.2,-215.89113224282377 245.6,-216.3162657733891 246.0,-216.73184987627698 246.4,-217.13782470809477 246.8,-217.53413180916823 247.2,-217.92071411195957 247.6,-218.2975159492852 248.0,-218.6644830623317 248.4,-219.02156260846888 248.8,-219.36870316885916 249.2,-219.7058547558616 249.6,-220.03296882023037 250.0,-220.34999825810542 250.4,-220.65689741779553 250.8,-220.95362210635196 251.2,-221.24012959593236 251.6,-221.51637862995335 252.0,-221.78232942903128 252.4,-222.03794369671073 252.8,-222.2831846249788 253.2,-222.51801689956565 253.6,-222.74240670502945 254.0,-222.95632172962604 254.4,-223.15973116996145 254.8,-223.3526057354278 255.20000000000002,-223.53491765242097 255.6,-223.7066406683399 256.0,-223.86775005536705 256.4,-224.0182226140291 256.8,-224.15803667653762 257.2,-224.28717210990914 257.6,-224.4056103188645 258.0,-224.51333424850617 258.40000000000003,-224.61032838677454 258.8,-224.6965787666812 259.2,-224.77207296832051 259.6,-224.83680012065795 260.0,-224.89075090309538 260.40000000000003,-224.93391754681335 260.8,-224.96629383588976 261.2,-224.9878751081949 261.6,-224.99865825606298 262.0,-224.99864172673918 262.40000000000003,-224.98782552260377 262.8,-224.96621120117143 263.2,-224.93380187486713 263.6,-224.89060221057784 264.0,-224.8366184289806 264.40000000000003,-224.77185830364658 264.8,-224.696331159922 265.2,-224.61004787358507 265.6,-224.51302086927984 266.0,-224.40526411872736 266.40000000000003,-224.28679313871342 266.80000000000007,-224.15762498885448 267.2,-224.01777826914093 267.6,-223.86727311725872 268.0,-223.70613120568962 268.4,-223.53437573859057 268.8,-223.35203144845187 269.20000000000005,-223.15912459253633 269.6,-222.9556829490978 270.00000000000006,-222.74173581338144 270.40000000000003,-222.5173139934051 270.8,-222.282449805523 271.20000000000005,-222.03717706977235 271.59999999999997,-221.78153110500332 272.0,-221.51554872379307 272.40000000000003,-221.23926822714483 272.8,-220.9527293989728 273.20000000000005,-220.655973500373 273.6,-220.34904326368212 274.0,-220.03198288632382 274.40000000000003,-219.70483802444454 274.79999999999995,-219.3676557863392 275.20000000000005,-219.0204847256673 275.59999999999997,-218.6633748344618 276.0,-218.29637753592976 276.4,-217.91954567704818 276.79999999999995,-217.53293352095358 277.2,-217.1365967391282 277.59999999999997,-216.73059240338392 278.0,-216.31497897764348 278.40000000000003,-215.88981630952193 278.79999999999995,-215.45516562170897 279.2,-215.0110895031524 279.59999999999997,-214.55765190004598 279.99999999999994,-214.0949181066211 280.4,-213.6229547557443 280.79999999999995,-213.14182980932264 281.2,-212.65161254851694 281.6,-212.15237356376576 282.0,-211.64418474462025 282.4,-211.12711926939207 282.8,-210.60125159461626 283.19999999999993,-210.06665744432937 283.59999999999997,-209.5234137991651 284.0,-208.97159888526969 284.4,-208.41129216303727 284.8,-207.84257431566755 285.2,-207.265527237548 285.59999999999997,-206.6802340224605 286.0,-206.08677895161674 286.3999999999999,-205.48524748152153 286.8,-204.87572623166693 287.2,-204.25830297205974 287.59999999999997,-203.63306661058252 288.00000000000006,-203.00010718019084 288.4,-202.35951582594907 288.8,-201.7113847919051 289.2,-201.0558074078079 289.59999999999997,-200.39287807566808 290.0,-199.72269225616375 290.4,-199.04534645489494 290.8,-198.36093820848657 291.20000000000005,-197.66956607054348 291.59999999999997,-196.97132959745895 292.0,-196.26632933407834 292.4,-195.55466679922148 292.79999999999995,-194.83644447106371 293.2,-194.11176577237902 293.6,-193.38073505564785 294.0,-192.64345758803023 294.40000000000003,-191.90003953620746 294.8,-191.15058795109454 295.2,-190.3952107524244 295.6,-189.63401671320847 295.99999999999994,-188.86711544407325 296.4,-188.094617377476 296.8,-187.3166337518036 297.2,-186.53327659535375 297.6,-185.7446587102034 298.0,-184.95089365596533 298.4,-184.15209573343557 298.8,-183.3483799681347 299.19999999999993,-182.5398620937443 299.6,-181.72665853544086 300.0,-180.90888639313175 300.4,-180.08666342459233 300.80000000000007,-179.26010802850925 301.2,-178.4293392274314 301.6,-177.59447665063036 302.0,-176.75564051687465 302.4,-175.91295161711815 302.8,-175.06653129710605 303.2,-174.21650143990192 303.6,-173.36298444833633 304.00000000000006,-172.50610322738123 304.4,-171.6459811664519 304.8,-170.78274212163853 305.2,-169.9165103978721 305.59999999999997,-169.04741073102397 306.0,-168.1755682699443 306.4,-167.30110855844094 306.8,-166.42415751720137 307.20000000000005,-165.54484142566008 307.6,-164.66328690381505 308.0,-163.77962089399372 308.40000000000003,-162.89397064257474 308.79999999999995,-162.00646368166406 309.2,-161.11722781073013 309.6,-160.22639107820197 310.0,-159.33408176302962 310.40000000000003,-158.44042835621264 310.8,-157.54555954229747 311.2,-156.64960418084675 311.6,-155.75269128788446 311.99999999999994,-154.85495001731744 312.40000000000003,-153.9565096423371 312.8,-153.0574995368051 313.2,-152.15804915662312 313.6000000000001,-151.25828802109166 314.0,-150.35834569425964 314.40000000000003,-149.4583517662667 314.8,-148.55843583468348 315.2,-147.6587274858492 315.6,-146.7593562762111 316.0,-145.86045171366942 316.40000000000003,-144.96214323892787 316.80000000000007,-144.06456020685454 317.2,-143.16783186785514 317.6,-142.27208734926074 318.0,-141.37745563673428 318.4,-140.48406555569656 318.8,-139.59204575277525 319.20000000000005,-138.70152467728064 319.6,-137.81263056270888 320.00000000000006,-136.9254914082764 320.40000000000003,-136.0402349604886 320.8,-135.15698869474403 321.20000000000005,-134.27587979697878 321.59999999999997,-133.39703514535177 322.0,-132.5205812919739 322.40000000000003,-131.64664444468573 322.8,-130.77535044888305 323.20000000000005,-129.9068247693957 323.6,-129.04119247242085 324.0,-128.1785782075132 324.40000000000003,-127.31910618963641 324.79999999999995,-126.46290018127605 325.20000000000005,-125.61008347461757 325.59999999999997,-124.76077887379327 326.0,-123.91510867719788 326.4,-123.07319465987847 326.79999999999995,-122.23515805599888 327.2,-121.40111954138169 327.59999999999997,-120.5711992161319 328.0,-119.74551658734227 328.40000000000003,-118.92419055188458 328.79999999999995,-118.10733937928879 329.2,-117.295080694712 329.59999999999997,-116.48753146200134 329.99999999999994,-115.68480796685101 330.4,-114.88702580005697 330.79999999999995,-114.0942998408728 331.2,-113.30674424046677 331.6,-112.52447240548449 332.0,-111.74759698171854 332.4,-110.97622983788726 332.8,-110.21048204952658 333.19999999999993,-109.45046388299492 333.59999999999997,-108.69628477959473 334.0,-107.94805333981381 334.4,-107.20587730768654 334.8,-106.46986355527908 335.2,-105.74011806730003 335.59999999999997,-105.01674592583849 336.0,-104.29985129523294 336.3999999999999,-103.58953740707149 336.8,-102.88590654532643 337.2,-102.1890600316261 337.59999999999997,-101.49909821066427 338.00000000000006,-100.81612043575099 338.4,-100.14022505450569 338.8,-99.4715093946952 339.2,-98.81006975021904 339.59999999999997,-98.15600136724318 340.0,-97.50939843048431 340.4,-96.87035404964816 340.8,-96.23896024602128 341.20000000000005,-95.61530793922032 341.59999999999997,-94.99948693409989 342.0,-94.39158590782046 342.4,-93.79169239707943 342.79999999999995,-93.19989278550581 343.2,-92.61627229122087 343.6,-92.0409149545674 344.0,-91.47390362600763 344.40000000000003,-90.91531995419312 344.8,-90.36524437420746 345.2,-89.82375609598346 345.6,-89.29093309289759 345.99999999999994,-88.76685209054165 346.4,-88.25158855567425 346.8,-87.74521668535405 347.2,-87.24780939625545 347.6,-86.75943831416849 348.0,-86.28017376368523 348.4,-85.81008475807256 348.8,-85.3492389893351 349.19999999999993,-84.89770281846728 349.6,-84.4555412658973 350.0,-84.02281800212475 350.4,-83.59959533855186 350.80000000000007,-83.18593421851088 351.2,-82.78189420848834 351.6,-82.38753348954737 352.0,-82.00290884895016 352.4,-81.62807567198033 352.8,-81.26308793396755 353.2,-80.90799819251548 353.6,-80.56285757993328 354.00000000000006,-80.22771579587277 354.4,-79.90262110017177 354.8,-79.58762030590458 355.2,-79.28275877264137 355.59999999999997,-78.98808039991614 356.0,-78.70362762090524 356.4,-78.42944139631742 356.8,-78.16556120849516 357.20000000000005,-77.9120250557296 357.6,-77.66886944678862 358.0,-77.43612939565966 358.40000000000003,-77.21383841650797 358.79999999999995,-77.00202851885044 359.2,-76.8007302029463 359.6,-76.60997245540518 360.0,-76.42978274501314 360.40000000000003,-76.26018701877709 360.8,-76.10120969818857 361.2,-75.95287367570698 361.6,-75.81520031146329 361.99999999999994,-75.68820943018405 362.40000000000003,-75.57191931833667 362.8,-75.46634672149634 363.2,-75.37150684193459 363.6000000000001,-75.28741333643019 364.0,-75.21407831430261 364.40000000000003,-75.15151233566833 364.8,-75.09972440992013 365.2,-75.05872199442986 365.6,-75.02851099347448 366.0,-75.00909575738595 366.40000000000003,-75.00047908192467 366.80000000000007,-75.00266220787705 367.2,-75.01564482087672 367.6,-75.03942505144983 368.0,-75.07399947528428 368.4,-75.11936311372277 368.8,-75.17550943447979 369.20000000000005,-75.24243035258216 369.6,-75.32011623153326 370.00000000000006,-75.40855588470082 370.40000000000003,-75.50773657692757 370.8,-75.61764402636526 371.20000000000005,-75.73826240653105 371.59999999999997,-75.86957434858658 372.0,-76.01156094383921 372.40000000000003,-76.16420174646451 372.8,-76.32747477645067 373.20000000000005,-76.50135652276352 373.6,-76.685821946732 374.0,-76.8808444856539 374.40000000000003,-77.08639605662057 374.79999999999995,-77.30244706056097 375.20000000000005,-77.52896638650388 375.59999999999997,-77.76592141605776 376.0,-78.01327802810789 376.4,-78.27100060372952 376.79999999999995,-78.53905203131703 377.2,-78.81739371192815 377.59999999999997,-79.10598556484182 378.0,-79.40478603332987 378.40000000000003,-79.71375209064117 378.79999999999995,-80.03283924619733 379.2,-80.36200155199941 379.59999999999997,-80.70119160924412 379.99999999999994,-81.05036057514927 380.4,-81.40945816998725 380.79999999999995,-81.77843268432487 381.2,-82.15723098646964 381.6,-82.54579853012063 382.0,-82.94407936222291 382.4,-83.35201613102501 382.8,-83.7695500943371 383.19999999999993,-84.19662112798987 383.59999999999997,-84.63316773449256 384.0,-85.07912705188816 384.4,-85.53443486280555 384.8,-85.99902560370674 385.2,-86.47283237432777 385.59999999999997,-86.95578694731253 386.0,-87.44781977803703 386.3999999999999,-87.94886001462375 386.8,-88.45883550814459 387.2,-88.97767282300964 387.59999999999997,-89.5052972475421 388.00000000000006,-90.04163280473657 388.4,-90.5866022631995 388.8,-91.14012714827076 389.2,-91.70212775332332 389.59999999999997,-92.27252315124107 390.0,-92.8512312060725 390.4,-93.43816858485768 390.8,-94.03325076962825 391.20000000000005,-94.63639206957792 391.59999999999997,-95.24750563340163 392.0,-95.86650346180237 392.4,-96.49329642016237 392.79999999999995,-97.12779425137865 393.2,-97.76990558886007 393.6,-98.41953796968353 394.0,-99.07659784790874 394.40000000000003,-99.74099060804865 394.8,-100.41262057869375 395.2,-101.09139104628902 395.6,-101.77720426905996 395.99999999999994,-102.46996149108747 396.4,-103.16956295652885 396.8,-103.87590792398188 397.2,-104.58889468099181 397.6,-105.30842055869768 398.0,-106.03438194661629 398.4,-106.7666743075625 398.8,-107.50519219270156 399.19999999999993,-108.24982925673409 399.6,-109.00047827320982 400.0,-109.75703114996739" stroke="red" stroke-width="2.0"/><g><g><line fill="none" stroke="black" x1="-8.0" x2="408.0" y1="0.0" y2="0.0"/><polyline fill="black" points="408.0,-5.0 408.0,5.0 424.0,0.0" stroke="none"/><line fill="none" stroke="black" x1="33.33333333333333" x2="33.33333333333333" y1="-3.0" y2="3.0"/><line fill="none" stroke="black" x1="66.66666666666666" x2="66.66666666666666" y1="-3.0" y2="3.0"/><line fill="none" stroke="black" x1="100.0" x2="100.0" y1="-3.0" y2="3.0"/><line fill="none" stroke="black" x1="133.33333333333331" x2="133.33333333333331" y1="-3.0" y2="3.0"/><line fill="none" stroke="black" x1="166.66666666666669" x2="166.66666666666669" y1="-3.0" y2="3.0"/><line fill="none" stroke="black" x1="200.0" x2="200.0" y1="-3.0" y2="3.0"/><line fill="none" stroke="black" x1="233.33333333333334" x2="233.33333333333334" y1="-3.0" y2="3.0"/><line fill="none" stroke="black" x1="266.66666666666663" x2="266.66666666666663" y1="-3.0" y2="3.0"/><line fill="none" stroke="black" x1="300.0" x2="300.0" y1="-3.0" y2="3.0"/><line fill="none" stroke="black" x1="333.33333333333337" x2="333.33333333333337" y1="-3.0" y2="3.0"/><line fill="none" stroke="black" x1="366.66666666666663" x2="366.66666666666663" y1="-3.0" y2="3.0"/><line fill="none" stroke="black" x1="400.0" x2="400.0" y1="-3.0" y2="3.0"/><text dominant-baseline="middle" fill="black" stroke="none" text-anchor="middle" x="33.33333333333333" y="14.0">1</text><text dominant-baseline="middle" fill="black" stroke="none" text-anchor="middle" x="66.66666666666666" y="14.0">2</text><text dominant-baseline="middle" fill="black" stroke="none" text-anchor="middle" x="100.0" y="14.0">3</text><text dominant-baseline="middle" fill="black" stroke="none" text-anchor="middle" x="133.33333333333331" y="14.0">4</text><text dominant-baseline="middle" fill="black" stroke="none" text-anchor="middle" x="166.66666666666669" y="14.0">5</text><text dominant-baseline="middle" fill="black" stroke="none" text-anchor="middle" x="200.0" y="14.0">6</text><text dominant-baseline="middle" fill="black" stroke="none" text-anchor="middle" x="233.33333333333334" y="14.0">7</text><text dominant-baseline="middle" fill="black" stroke="none" text-anchor="middle" x="266.66666666666663" y="14.0">8</text><text dominant-baseline="middle" fill="black" stroke="none" text-anchor="middle" x="300.0" y="14.0">9</text><text dominant-baseline="middle" fill="black" stroke="none" text-anchor="middle" x="333.33333333333337" y="14.0">10</text><text dominant-baseline="middle" fill="black" stroke="none" text-anchor="middle" x="366.66666666666663" y="14.0">11</text><text dominant-baseline="middle" fill="black" stroke="none" text-anchor="middle" x="400.0" y="14.0">12</text></g><g><line fill="none" stroke="black" x1="0.0" x2="0.0" y1="8.0" y2="-308.0"/><polyline fill="black" points="-5.0,-308.0 5.0,-308.0 0.0,-324.0" stroke="none"/><line fill="none" stroke="black" x1="-3.0" x2="3.0" y1="-75.0" y2="-75.0"/><line fill="none" stroke="black" x1="-3.0" x2="3.0" y1="-150.0" y2="-150.0"/><line fill="none" stroke="black" x1="-3.0" x2="3.0" y1="-225.0" y2="-225.0"/><line fill="none" stroke="black" x1="-3.0" x2="3.0" y1="-300.0" y2="-300.0"/><text dominant-baseline="middle" fill="black" stroke="none" text-anchor="middle" x="-10.0" y="-75.0">1</text><text dominant-baseline="middle" fill="black" stroke="none" text-anchor="middle" x="-10.0" y="-150.0">2</text><text dominant-baseline="middle" fill="black" stroke="none" text-anchor="middle" x="-10.0" y="-225.0">3</text><text dominant-baseline="middle" fill="black" stroke="none" text-anchor="middle" x="-10.0" y="-300.0">4</text></g><text dominant-baseline="middle" fill="black" stroke="none" text-anchor="middle" x="-10.0" y="14.0">0</text></g></g></svg>