<svg xmlns="http://www.w3.org/2000/svg" height="380.0" width="480.0"><g transform="translate(40.0, 340.0)"><polyline fill="none" points="0.0,-75.0 0.4,-75.6579546364999 0.8,-76.31579533550966 1.2,-76.97340817926965 1.6,-77.6306792894777 2.0,-78.2874948470094 2.4,-78.94374111162807 2.8000000000000003,-79.59930444168096 3.2,-80.25407131377862 3.5999999999999996,-80.90792834245362 4.0,-81.56076229979539 4.3999999999999995,-82.21246013505774 4.8,-82.862908994236 5.2,-83.51199623960959 5.6000000000000005,-84.15960946924758 6.0,-84.8056365364732 6.4,-85.44996556928419 6.800000000000001,-86.09248498972552 7.199999999999999,-86.73308353321137 7.6,-87.3716502677927 8.0,-88.00807461336723 8.4,-88.6422463608284 8.799999999999999,-89.27405569115047 9.2,-89.9033931944055 9.6,-90.53014988870999 10.0,-91.15421723909704 10.4,-91.77548717631142 10.8,-92.39385211552366 11.200000000000001,-93.0092049749606 11.600000000000001,-93.62143919444854 12.0,-94.23044875386623 12.399999999999999,-94.83612819150429 12.8,-95.4383726223279 13.200000000000001,-96.03707775613974 13.600000000000001,-96.63213991563973 14.000000000000002,-97.22345605437881 14.399999999999999,-97.81092377460347 14.799999999999999,-98.39444134498774 15.2,-98.97390771825008 15.6,-99.54922254865154 16.0,-100.12028620937264 16.400000000000002,-100.68699980976558 16.8,-101.2492652124792 17.2,-101.8069850504531 17.599999999999998,-102.36006274377895 18.0,-102.90840251642489 18.4,-103.45190941282105 18.8,-103.99048931430303 19.2,-104.52404895541025 19.6,-105.05249594003672 20.0,-105.57573875743111 20.4,-106.09368679804382 20.8,-106.60625036921738 21.2,-107.11334071071886 21.6,-107.61487001011018 22.0,-108.11075141795459 22.400000000000002,-108.60089906285624 22.800000000000004,-109.08522806633063 23.200000000000003,-109.56365455750276 23.599999999999998,-110.03609568763112 24.0,-110.50246964445444 24.4,-110.96269566635922 24.799999999999997,-111.41669405636492 25.2,-111.86438619592522 25.6,-112.30569455854221 26.0,-112.74054272319175 26.400000000000002,-113.16885538755699 26.8,-113.59055838106862 27.200000000000003,-114.0055786777489 27.6,-114.41384440885744 28.000000000000004,-114.8152848753367 28.4,-115.20983056005484 28.799999999999997,-115.59741313984411 29.2,-115.97796549733201 29.599999999999998,-116.35142173256432 30.0,-116.71771717441665 30.4,-117.07678839179367 30.8,-117.4285732046133 31.2,-117.77301069457448 31.6,-118.1100412157063 32.0,-118.43960640469685 32.4,-118.76164919099992 32.800000000000004,-119.07611380671797 33.199999999999996,-119.38294579625928 33.6,-119.68209202576801 34.00000000000001,-119.97350069232546 34.4,-120.25712133292062 34.8,-120.53290483318878 35.199999999999996,-120.80080343591683 35.6,-121.06077074931311 36.0,-121.31276175504117 36.4,-121.5567328160155 36.8,-121.79264168395814 37.2,-122.02044750671483 37.6,-122.24011083532936 37.99999999999999,-122.45159363087471 38.4,-122.65485927104058 38.800000000000004,-122.84987255647488 39.2,-123.03659971687942 39.6,-123.21500841685774 40.0,-123.38506776151478 40.400000000000006,-123.54674830180673 40.8,-123.70002203964076 41.199999999999996,-123.84486243272353 41.6,-123.98124439915739 42.0,-124.10914432178379 42.4,-124.22854005227312 42.800000000000004,-124.33941091496001 43.2,-124.4417377104239 43.6,-124.53550271881353 44.0,-124.62068970291571 44.4,-124.69728391096702 44.800000000000004,-124.7652720792083 45.2,-124.82464243418157 45.60000000000001,-124.8753846947689 46.0,-124.91749007397266 46.400000000000006,-124.95095128043725 46.800000000000004,-124.97576251971171 47.199999999999996,-124.99191949525316 47.6,-124.9994194091707 48.0,-124.99826096271016 48.4,-124.98844435647877 48.8,-124.96997129041058 49.2,-124.94284496347201 49.599999999999994,-124.90707007310786 50.0,-124.86265281442796 50.4,-124.80960087913428 50.8,-124.74792345418896 51.2,-124.67763122022352 51.6,-124.59873634968909 52.0,-124.51125250474884 52.400000000000006,-124.4151948349117 52.800000000000004,-124.31057997440938 53.2,-124.19742603931545 53.6,-124.07575262440842 54.0,-123.94558079977843 54.400000000000006,-123.80693310717861 54.800000000000004,-123.65983355612154 55.2,-123.50430761972146 55.60000000000001,-123.34038223028324 56.00000000000001,-123.16808577463846 56.39999999999999,-122.98744808922963 56.8,-122.79850045494355 57.199999999999996,-122.60127559169437 57.599999999999994,-122.39580765275753 57.99999999999999,-122.18213221885536 58.4,-121.96028629199579 58.8,-121.73030828906452 59.199999999999996,-121.49223803517259 59.599999999999994,-121.2461167567598 60.0,-120.99198707445551 60.4,-120.72989299569822 60.8,-120.45987990711467 61.199999999999996,-120.18199456666032 61.6,-119.89628509552243 62.0,-119.60280096978677 62.4,-119.30159301187001 62.8,-118.99271338171877 63.2,-118.6762155677772 63.6,-118.35215437772436 64.0,-118.0205859289832 64.39999999999999,-117.68156763900285 64.8,-117.3351582153156 65.2,-116.98141764537058 65.60000000000001,-116.6204071861458 66.0,-116.25218935354026 66.39999999999999,-115.87682791154832 66.8,-115.49438786121743 67.2,-115.10493542939217 67.60000000000001,-114.70853805724579 68.00000000000001,-114.30526438860139 68.4,-113.8951842580449 68.8,-113.4783686788321 69.19999999999999,-113.05488983059091 69.6,-112.6248210468226 70.0,-112.18823680220225 70.39999999999999,-111.74521269968226 70.8,-111.29582545740016 71.2,-110.84015289539346 71.6,-110.37827392212358 72.0,-109.91026852081127 72.39999999999999,-109.43621773558613 72.8,-108.956203657452 73.2,-108.47030941007168 73.6,-107.97861913537217 74.00000000000001,-107.48121797897402 74.4,-106.9781920754467 74.8,-106.46962853339274 75.2,-105.95561542036324 75.6,-105.43624174760717 75.99999999999999,-104.91159745465754 76.4,-104.38177339375648 76.8,-103.8468613141224 77.2,-103.30695384606213 77.60000000000001,-102.76214448492982 78.0,-102.2125275749368 78.4,-101.6581982928137 78.8,-101.09925263132904 79.2,-100.53578738266616 79.60000000000001,-99.9679001216617 80.0,-99.39568918890883 80.4,-98.81925367372747 80.80000000000001,-98.23869339700525 81.2,-97.65410889391148 81.6,-97.06560139648772 81.99999999999999,-96.4732728161172 82.39999999999999,-95.87722572587725 82.8,-95.27756334277656 83.2,-94.67438950988134 83.60000000000001,-94.06780867833275 84.0,-93.45792588925933 84.39999999999999,-92.84484675558689 84.8,-92.2286774437498 85.2,-91.60952465530622 85.60000000000001,-90.98749560846059 86.0,-90.36269801949672 86.4,-89.73524008412471 86.8,-89.10523045874486 87.2,-88.4727782416315 87.6,-87.83799295404076 88.0,-87.20098452124472 88.4,-86.56186325349576 88.8,-85.92073982692425 89.20000000000002,-85.27772526437289 89.60000000000001,-84.6329309161709 90.0,-83.98646844085151 90.4,-83.33844978581631 90.8,-82.68898716794924 91.20000000000002,-82.03819305418426 91.60000000000001,-81.38618014202936 92.0,-80.73306134005084 92.4,-80.07894974832124 92.80000000000001,-79.42395863883353 93.19999999999999,-78.76820143588624 93.60000000000001,-78.11179169644166 94.0,-77.45484309046125 94.39999999999999,-76.79746938122162 94.8,-76.13978440561425 95.2,-75.48190205443218 95.6,-74.82393625264807 96.0,-74.16600093968547 96.39999999999999,-73.50821004968823 96.8,-72.85067749179068 97.2,-72.19351713039188 97.6,-71.53684276543802 98.0,-70.88076811271556 98.4,-70.22540678415929 98.8,-69.57087226817822 99.19999999999999,-68.91727791000301 99.6,-68.2647368920576 100.0,-67.61336221436014 100.4,-66.96326667495444 100.8,-66.31456285037684 101.2,-65.6673630761617 101.6,-65.02177942738801 102.0,-64.37792369927158 102.4,-63.73590738780563 102.8,-63.09584167045301 103.2,-62.457837386893694 103.60000000000001,-61.82200501983076 104.0,-61.18845467585824 104.4,-60.55729606639398 104.80000000000001,-59.92863848868113 105.2,-59.302590806860934 105.60000000000001,-58.67926143312118 106.0,-58.05875830892231 106.4,-57.441188886305305 106.80000000000001,-56.82666010928438 107.2,-56.21527839532756 107.60000000000001,-55.6071496169283 108.0,-55.00237908327188 108.4,-54.40107152199894 108.80000000000001,-53.80333106106975 109.2,-53.209261210732805 109.60000000000001,-52.618964845599734 110.00000000000001,-52.03254418683068 110.4,-51.45010078443282 110.80000000000001,-50.87173549967479 111.20000000000002,-50.29754848762095 111.60000000000001,-49.727639179787374 112.00000000000001,-49.162106266923416 112.4,-48.60104768192158 112.79999999999998,-48.044560582858516 113.19999999999999,-47.49274133617013 113.6,-46.94568549996412 113.99999999999999,-46.40348780747198 114.39999999999999,-45.86624215064439 114.8,-45.334041563891816 115.19999999999999,-44.806978207973806 115.6,-44.28514335403981 115.99999999999999,-43.768627367823576 116.39999999999999,-43.257519693994695 116.8,-42.75190884066963 117.19999999999999,-42.25188236408453 117.6,-41.75752685343359 118.0,-41.26892791587419 118.39999999999999,-40.7861701617024 118.8,-40.30933718970119 119.19999999999999,-39.83851157266364 119.6,-39.37377484309379 120.0,-38.9152074790879 120.39999999999999,-38.46288889039797 120.8,-38.016897404680385 121.2,-37.57731025393219 121.6,-37.14420356111668 122.0,-36.717652326981295 122.39999999999999,-36.297730417069886 122.8,-35.88451054893135 123.2,-35.478064279527224 123.6,-35.07846199284034 124.0,-34.685772887686355 124.4,-34.300064965730655 124.8,-33.921405019712566 125.2,-33.54985862187901 125.6,-33.18549011262931 126.0,-32.82836258937336 126.4,-32.47853789560524 126.8,-32.136076610193754 127.2,-31.801038036892017 127.60000000000001,-31.473480194067843 128.0,-31.15345980465689 128.40000000000003,-30.84103228633987 128.79999999999998,-30.5362517419459 129.20000000000002,-30.239170950083633 129.6,-29.949841356001574 130.0,-29.66831306267941 130.4,-29.394634822151612 130.8,-29.1288540270652 131.20000000000002,-28.87101670247273 131.6,-28.62116749786215 132.0,-28.37934967942492 132.40000000000003,-28.14560512256367 132.79999999999998,-27.91997430464063 133.20000000000002,-27.702496297968114 133.6,-27.49320876304261 134.0,-27.292147942022936 134.4,-27.099348652454296 134.8,-26.914844281238985 135.20000000000002,-26.73866677885477 135.60000000000002,-26.57084665382199 136.00000000000003,-26.41141296742057 136.39999999999998,-26.260393328657337 136.8,-26.11781388948511 137.20000000000002,-25.9836993402739 137.6,-25.85807290553541 138.0,-25.740956339901096 138.39999999999998,-25.632369924355125 138.79999999999998,-25.5323324627222 139.2,-25.440861278411347 139.6,-25.357972211416058 140.0,-25.283679615571288 140.4,-25.217996356067786 140.79999999999998,-25.160933807224257 141.2,-25.112501850517674 141.6,-25.072708872872138 142.0,-25.041561765206488 142.4,-25.019065921240998 142.79999999999998,-25.00522523656339 143.2,-25.000042107954215 143.6,-25.003517432971798 144.0,-25.01565060979682 144.4,-25.03643953733654 144.79999999999998,-25.065880615588625 145.2,-25.103968746264563 145.6,-25.15069733367254 146.0,-25.206058285859598 146.4,-25.270042016012912 146.8,-25.342637444119955 147.2,-25.423831998887167 147.6,-25.513611619916976 148.00000000000003,-25.611960760142576 148.39999999999998,-25.71886238852023 148.8,-25.834297992978506 149.2,-25.958247583624022 149.6,-26.090689696203036 150.0,-26.231601395818426 150.4,-26.380958280901318 150.8,-26.538734487436678 151.2,-26.70490269344213 151.60000000000002,-26.87943412369931 151.99999999999997,-27.062298554736863 152.4,-27.25346432006421 152.8,-27.452898315655183 153.2,-27.66056600568067 153.6,-27.876431428489084 154.0,-28.100457202833883 154.4,-28.332604534346842 154.8,-28.572833222256 155.20000000000002,-28.821101666347268 155.6,-29.07736687416818 156.0,-29.34158446847308 156.4,-29.613708694907643 156.8,-29.893692429932255 157.20000000000002,-30.18148718898239 157.6,-30.477043134864598 158.0,-30.78030908638671 158.4,-31.091232527220924 158.8,-31.409759614998073 159.20000000000002,-31.735835190631285 159.6,-32.069402787868015 160.0,-32.41040464306818 160.4,-32.75878170520708 160.8,-33.11447364610111 161.20000000000002,-33.47741887085494 161.60000000000002,-33.84755452852763 162.0,-34.224816523016706 162.4,-34.60913952415744 162.79999999999998,-35.000456979036066 163.2,-35.39870112351486 163.60000000000002,-35.80380299396664 163.99999999999997,-36.21569243921699 164.39999999999998,-36.63429813269274 164.79999999999998,-37.059547584773114 165.2,-37.491367155342914 165.6,-37.9296820665446 166.0,-38.37441641572759 166.4,-38.82549318859223 166.79999999999998,-39.28283427252637 167.20000000000002,-39.746360470132004 167.59999999999997,-40.21599151293973 168.0,-40.69164607530898 168.4,-41.173241788511014 168.79999999999998,-41.66069525499252 169.2,-42.15392206281776 169.6,-42.652836800285975 170.0,-43.15735307072198 170.4,-43.66738350743766 170.79999999999998,-44.18283978886084 171.20000000000002,-44.70363265383018 171.59999999999997,-45.229671917052315 172.0,-45.7608664847193 172.4,-46.29712437028297 172.8,-46.838352710384456 173.2,-47.38445778093509 173.6,-47.9353450133467 174.0,-48.490919010907874 174.4,-49.05108356530363 174.8,-49.61574167327596 175.2,-50.1847955534217 175.6,-50.75814666312514 176.0,-51.3356957156228 176.4,-51.91734269719671 176.8,-52.50298688449365 177.2,-53.09252686196757 177.6,-53.685860539441215 178.0,-54.282885169785494 178.40000000000003,-54.883497366711865 178.79999999999998,-55.48759312267553 179.20000000000002,-56.095067826886755 179.6,-56.70581628342577 180.0,-57.31973272945968 180.4,-57.93671085355743 180.8,-58.556643814099544 181.20000000000002,-59.179424257779736 181.6,-59.80494433819547 182.0,-60.43309573452318 182.40000000000003,-61.06376967027663 182.79999999999998,-61.696856932143284 183.20000000000002,-62.33224788889695 183.6,-62.969832510382226 184.0,-63.60950038656856 184.4,-64.25114074666976 184.8,-64.89464247832625 185.20000000000002,-65.53989414684617 185.60000000000002,-66.18678401450234 186.00000000000003,-66.83520005988206 186.39999999999998,-67.48502999728561 186.8,-68.13616129617057 187.20000000000002,-68.7884812006389 187.6,-69.44187674896256 188.0,-70.09623479314534 188.39999999999998,-70.751442018516 188.79999999999998,-71.40738496335156 189.2,-72.06395003852488 189.6,-72.72102354717512 190.0,-73.37849170439642 190.4,-74.03624065694189 190.79999999999998,-74.69415650293936 191.2,-75.35212531161628 191.6,-76.01003314302814 192.0,-76.66776606779011 192.4,-77.32521018680579 192.79999999999998,-77.98225165099078 193.2,-78.63877668098843 193.6,-79.29467158687237 194.0,-79.94982278783444 194.4,-80.6041168318533 194.79999999999998,-81.25744041534068 195.2,-81.90968040276235 195.6,-82.56072384622951 196.0,-83.21045800505786 196.4,-83.85877036529101 196.8,-84.50554865918429 197.2,-85.15068088464609 197.6,-85.79405532463316 198.00000000000003,-86.43556056649656 198.39999999999998,-87.07508552127499 198.8,-87.71251944293196 199.2,-88.34775194753357 199.6,-88.98067303236331 200.0,-89.61117309497179 200.4,-90.23914295215587 200.8,-90.86447385886629 201.2,-91.48705752703874 201.6,-92.10678614434599 202.0,-92.7235523928677 202.4,-93.33724946767487 202.8,-93.94777109532457 203.2,-94.55501155226382 203.6,-95.15886568313742 204.0,-95.75922891899735 204.4,-96.35599729541141 204.8,-96.94906747046626 205.20000000000002,-97.53833674266326 205.6,-98.12370306870318 206.0,-98.70506508115682 206.4,-99.28232210601891 206.8,-99.8553741801417 207.20000000000002,-100.42412206854534 207.6,-100.98846728160262 208.0,-101.5483120920941 208.4,-102.10355955213153 208.8,-102.65411350994623 209.20000000000002,-103.19987862653961 209.60000000000002,-103.74076039219305 210.0,-104.27666514283402 210.4,-104.80750007625575 210.8,-105.33317326818761 211.20000000000002,-105.85359368821395 211.60000000000002,-106.36867121553728 212.0,-106.87831665458489 212.4,-107.38244175045448 212.8,-107.88095920419717 213.20000000000002,-108.37378268793513 213.60000000000002,-108.860826859811 214.0,-109.34200737876611 214.4,-109.81724091914616 214.8,-110.28644518513039 215.20000000000002,-110.74953892498284 215.60000000000002,-111.20644194512249 216.0,-111.6570751240105 216.4,-112.1013604258515 216.8,-112.53922091410702 217.20000000000002,-112.97058076481865 217.60000000000002,-113.39536527973812 218.00000000000003,-113.81350089926299 218.4,-114.22491521517489 218.8,-114.62953698317828 219.20000000000002,-115.02729613523792 219.60000000000002,-115.41812379171229 220.00000000000003,-115.80195227328166 220.4,-116.17871511266777 220.8,-116.5483470661443 221.20000000000002,-116.91078412483478 221.60000000000002,-117.26596352579708 222.00000000000003,-117.61382376289187 222.40000000000003,-117.95430459743385 222.8,-118.28734706862298 223.20000000000002,-118.6128935037549 223.60000000000002,-118.93088752820786 224.00000000000003,-119.24127407520521 224.40000000000003,-119.5439993953512 224.8,-119.83901106593876 225.2,-120.12625800002749 225.59999999999997,-120.40569045529035 225.99999999999997,-120.67726004262744 226.39999999999998,-120.94091973454566 226.79999999999998,-121.19662387330217 227.2,-121.44432817881112 227.59999999999997,-121.6839897563116 227.99999999999997,-121.91556710379554 228.39999999999998,-122.13902011919465 228.79999999999998,-122.35431010732496 229.2,-122.56139978658744 229.6,-122.76025329542423 229.99999999999997,-122.95083619852869 230.39999999999998,-123.13311549280837 230.79999999999998,-123.30705961310038 231.2,-123.47263843763741 231.6,-123.62982329326378 231.99999999999997,-123.77858696040092 232.39999999999998,-123.91890367776088 232.79999999999998,-124.05074914680738 233.2,-124.17410053596362 233.6,-124.28893648456591 234.0,-124.39523710656282 234.39999999999998,-124.49298399395876 234.79999999999998,-124.5821602200016 235.2,-124.66275034211397 235.6,-124.73474040456742 236.0,-124.79811794089913 236.39999999999998,-124.85287197607065 236.79999999999998,-124.89899302836851 237.2,-124.93647311104614 237.6,-124.96530573370693 238.0,-124.9854859034281 238.39999999999998,-124.9970101256255 238.79999999999998,-124.99987640465852 239.2,-124.9940842441759 239.6,-124.97963464720155 240.0,-124.95653011596085 240.39999999999998,-124.92477465144744 240.79999999999998,-124.88437375273024 241.2,-124.83533441600136 241.6,-124.77766513336441 242.0,-124.71137589136396 242.4,-124.63647816925624 242.79999999999998,-124.55298493702128 243.2,-124.46091065311678 243.6,-124.36027126197453 244.0,-124.25108419123929 244.4,-124.13336834875071 244.79999999999998,-124.00714411926923 245.2,-123.872433360946 245.6,-123.72925940153779 246.0,-123.57764703436713 246.4,-123.41762251402929 246.8,-123.24921355184527 247.2,-123.07244931106345 247.6,-122.88736040180925 248.0,-122.69397887578441 248.4,-122.49233822071663 248.8,-122.28247335456057 249.2,-122.06442061945098 249.6,-121.83821777540967 250.0,-121.60390399380631 250.4,-121.36151985057523 250.8,-121.11110731918919 251.2,-120.85270976339042 251.6,-120.58637192968172 252.0,-120.3121399395776 252.4,-120.0300612816174 252.8,-119.74018480314186 253.2,-119.4425607018342 253.6,-119.13724051702732 254.0,-118.82427712077907 254.4,-118.50372470871618 254.8,-118.17563879064919 255.20000000000002,-117.84007618096015 255.6,-117.49709498876393 256.0,-117.1467546078454 256.4,-116.78911570637459 256.80000000000007,-116.42424021640043 257.2,-116.05219132312641 257.59999999999997,-115.67303345396854 258.0,-115.28683226739867 258.40000000000003,-114.89365464157443 258.8,-114.49356866275787 259.2,-114.0866436135253 259.6,-113.67294996076942 260.0,-113.25255934349677 260.40000000000003,-112.8255445604218 260.8,-112.39197955736095 261.2,-111.9519394144268 261.6,-111.50550033302683 262.0,-111.05273962266807 262.40000000000003,-110.59373568756864 262.8,-110.12856801308135 263.2,-109.65731715192868 263.6,-109.180064710254 264.0,-108.69689333348946 264.40000000000003,-108.20788669204498 264.80000000000007,-107.7131294668181 265.2,-107.21270733453113 265.59999999999997,-106.70670695289338 266.0,-106.19521594559545 266.40000000000003,-105.67832288713528 266.8,-105.15611728747979 267.2,-104.62868957656464 267.6,-104.09613108863405 268.0,-103.55853404642525 268.40000000000003,-103.0159915451977 268.8,-102.46859753661249 269.2,-101.91644681246217 269.6,-101.35963498825579 270.0,-100.79825848666214 270.40000000000003,-100.2324145208109 270.8,-99.6622010774595 271.20000000000005,-99.08771690002419 271.6,-98.50906147148105 272.00000000000006,-97.92633499713814 272.40000000000003,-97.33963838728377 272.79999999999995,-96.74907323971108 273.20000000000005,-96.15474182212517 273.6,-95.55674705443317 274.0,-94.95519249092133 274.40000000000003,-94.35018230232356 274.8,-93.74182125778107 275.2,-93.13021470670067 275.59999999999997,-92.51546856051037 276.0,-91.89768927432021 276.4,-91.27698382848605 276.79999999999995,-90.65345971008487 277.20000000000005,-90.02722489430089 277.59999999999997,-89.39838782572775 277.99999999999994,-88.76705739958902 278.4,-88.13334294288109 278.79999999999995,-87.49735419544109 279.2,-86.85920129094339 279.59999999999997,-86.21899473782767 280.0,-85.57684540016217 280.4,-84.93286447844604 280.8,-84.2871634903519 281.2,-83.63985425141524 281.59999999999997,-82.99104885567112 282.0,-82.34085965624263 282.4,-81.68939924588535 282.8,-81.03678043748923 283.2,-80.38311624454323 283.59999999999997,-79.72851986156479 284.0,-79.07310464449796 284.40000000000003,-78.41698409108332 284.8,-77.76027182120461 285.19999999999993,-77.10308155721214 285.59999999999997,-76.44552710423014 286.0,-75.78772233044937 286.4,-75.12978114740832 286.8,-74.47181749026754 287.2,-73.813945298079 287.59999999999997,-73.15627849405627 288.0,-72.4989309658454 288.4,-71.84201654580447 288.8,-71.18564899128975 289.2,-70.52994196495798 289.59999999999997,-69.8750090150822 290.0,-69.22096355588936 290.4,-68.56791884792048 290.8,-67.91598797841722 291.2,-67.26528384173874 291.59999999999997,-66.61591911981162 292.0,-65.96800626261738 292.40000000000003,-65.32165746871881 292.8,-64.67698466583167 293.19999999999993,-64.0340994914412 293.6,-63.39311327347034 294.0,-62.75413701100182 294.4,-62.1172813550553 294.8,-61.48265658942702 295.2,-60.85037261159161 295.6,-60.220538913671376 296.00000000000006,-59.59326456347532 296.4,-58.96865818561254 296.79999999999995,-58.34682794268113 297.2,-57.72788151653828 297.6,-57.11192608965291 298.0,-56.499068326544595 298.4,-55.889414355313484 298.8,-55.28306974926099 299.2,-54.6801395086087 299.6,-54.080728042315116 300.0,-53.48493914999541 300.4,-52.89287600394633 300.8,-52.304641131279986 301.2,-51.72033639616959 301.6,-51.14006298220942 302.0,-50.5639213748931 302.4,-49.99201134421217 302.8,-49.42443192737996 303.20000000000005,-48.861281411680224 303.6,-48.30265731744772 303.99999999999994,-47.748656381180055 304.4,-47.199374538786444 304.8,-46.65490690897425 305.2,-46.11534777677722 305.6,-45.58079057722867 306.0,-45.051327879180825 306.4,-44.52705136927555 306.80000000000007,-44.00805183606597 307.2,-43.494419154295876 307.59999999999997,-42.98624226933518 308.0,-42.48360918177775 308.40000000000003,-41.98660693220258 308.8,-41.49532158610072 309.2,-41.00983821897166 309.6,-40.53024090159045 310.0,-40.056612685449835 310.40000000000003,-39.58903558837759 310.8,-39.127590580334406 311.2,-38.672357569391515 311.6,-38.22341538789348 312.0,-37.7808417788072 312.40000000000003,-37.344713382258476 312.8,-36.91510572226089 313.2,-36.49209319363712 313.6,-36.075749049136185 314.0,-35.666145386748035 314.40000000000003,-35.26335313721884 314.80000000000007,-34.867442051767476 315.2,-34.47848069000734 315.59999999999997,-34.09653640807333 316.0,-33.72167534695811 316.40000000000003,-33.35396242105883 316.8,-32.9934613069353 317.2,-32.64023443228374 317.6,-32.29434296512593 318.0,-31.95584680321692 318.40000000000003,-31.624804563672406 318.8,-31.30127357281834 319.2,-30.985309856263445 319.6,-30.67696812919759 320.0,-30.376301786916695 320.40000000000003,-30.083362895576105 320.8,-29.798202183174837 321.20000000000005,-29.52086903077044 321.6,-29.25141146392823 322.00000000000006,-28.98987614440436 322.40000000000003,-28.73630836206572 322.79999999999995,-28.49075202704703 323.20000000000005,-28.253249662146818 323.6,-28.023842395464033 324.0,-27.802569953275654 324.40000000000003,-27.58947065315765 324.8,-27.384581397349155 325.2,-27.187937666362576 325.59999999999997,-26.99957351283898 326.0,-26.819521555651676 326.4,-26.647812974257306 326.79999999999995,-26.484477503296727 327.20000000000005,-26.32954342744575 327.59999999999997,-26.18303757651728 327.99999999999994,-26.044985320814895 328.4,-25.91541056673988 328.79999999999995,-25.79433575265108 329.2,-25.681781844979405 329.59999999999997,-25.577768334597152 330.0,-25.482313233442508 330.4,-25.395433071400813 330.8,-25.317142893441765 331.2,-25.247456257014328 331.59999999999997,-25.186385229698843 332.0,-25.133940387117363 332.4,-25.09013081110232 332.8,-25.054964088123704 333.2,-25.028446307975486 333.59999999999997,-25.01058206272091 334.0,-25.001374445897362 334.40000000000003,-25.00082505198066 334.8,-25.008933976108903 335.19999999999993,-25.02569981406606 335.59999999999997,-25.051119662525053 336.0,-25.08518911955061 336.4,-25.127902285361486 336.8,-25.179251763352138 337.2,-25.239228661373595 337.59999999999997,-25.30782259327332 338.0,-25.385021680693725 338.4,-25.470812555129186 338.8,-25.56518036024106 339.2,-25.668108754430246 339.59999999999997,-25.779579913667206 340.0,-25.89957453457843 340.4,-26.028071837789202 340.8,-26.16504957152197 341.2,-26.310484015449582 341.59999999999997,-26.464349984803167 342.0,-26.62662083473296 342.40000000000003,-26.79726846492285 342.8,-26.976263324456003 343.19999999999993,-27.163574416932473 343.6,-27.359169305836915 344.0,-27.563014120155174 344.4,-27.775073560240184 344.8,-27.99531090392434 345.2,-28.22368801287909 345.6,-28.46016533921893 346.00000000000006,-28.704701932350073 346.4,-28.957255446061893 346.79999999999995,-29.217782145859776 347.2,-29.486236916538733 347.6,-29.76257326999602 348.0,-30.046743353281272 348.4,-30.33869795688323 348.8,-30.638386523251484 349.2,-30.945757155551192 349.6,-31.260756626650167 350.0,-31.583330388336293 350.4,-31.913422580763356 350.8,-32.25097604212436 351.2,-32.59593231855032 351.6,-32.94823167423244 352.0,-33.30781310176661 352.4,-33.674614332718235 352.8,-34.048571848404656 353.20000000000005,-34.42962089089538 353.6,-34.81769547422529 353.99999999999994,-35.21272839582239 354.4,-35.61465124814436 354.8,-36.02339443052481 355.2,-36.43888716122665 355.6,-36.86105748969813 356.0,-37.28983230903381 356.4,-37.72513736863312 356.80000000000007,-38.16689728705921 357.2,-38.61503556509221 357.59999999999997,-39.069474598976875 358.0,-39.53013569386103 358.40000000000003,-39.99693907742268 358.8,-40.469803913684956 359.2,-40.948648317013706 359.6,-41.433389366297824 360.0,-41.92394311930881 360.40000000000003,-42.42022462723663 360.8,-42.9221479494004 361.2,-43.42962616813086 361.6,-43.94257140382148 362.0,-44.460894830146636 362.40000000000003,-44.984506689443904 362.8,-45.513316308256776 363.2,-46.047232113036976 363.6,-46.58616164600164 364.0,-47.130011581145205 364.40000000000003,-47.678687740399056 364.80000000000007,-48.232095109941994 365.2,-48.790137856652116 365.59999999999997,-49.35271934470307 366.0,-49.91974215229867 366.40000000000003,-50.49110808854215 366.8,-51.06671821044124 367.2,-51.64647284004074 367.6,-52.23027158168481 368.0,-52.81801333940161 368.40000000000003,-53.40959633441026 368.8,-54.004918122746076 369.2,-54.60387561300021 369.6,-55.20636508417219 370.0,-55.812282203631334 370.40000000000003,-56.4215220451836 370.8,-57.033979107241755 371.20000000000005,-57.64954733109524 371.6,-58.268120119275764 372.00000000000006,-58.88959035401705 372.40000000000003,-59.51385041580445 372.79999999999995,-60.14079220201092 373.20000000000005,-60.77030714561731 373.6,-61.402286234013026 374.0,-62.03662002787324 374.40000000000003,-62.67319868011058 374.8,-63.311911954897695 375.2,-63.95264924675548 375.59999999999997,-64.59529959970862 376.0,-65.23975172649739 376.4,-65.88589402785078 376.79999999999995,-66.53361461181143 377.20000000000005,-67.18280131311228 377.59999999999997,-67.83334171259959 377.99999999999994,-68.48512315670077 378.4,-69.13803277693277 378.79999999999995,-69.79195750944692 379.2,-70.44678411460832 379.59999999999997,-71.10239919660575 380.0,-71.75868922308781 380.4,-72.41554054482353 380.8,-73.0728394153832 381.2,-73.7304720108348 381.59999999999997,-74.388324449456 382.0,-75.04628281145423 382.4,-75.70423315869422 382.8,-76.36206155442864 383.2,-77.01965408302803 383.59999999999997,-77.67689686970876 384.0,-78.33367610025064 384.40000000000003,-78.98987804070819 384.8,-79.64538905710397 385.19999999999993,-80.3000956351075 385.59999999999997,-80.95388439969288 386.0,-81.60664213477033 386.4,-82.25825580279339 386.8,-82.90861256433217 387.2,-83.55759979761488 387.59999999999997,-84.2051051180295 388.0,-84.85101639758572 388.4,-85.49522178433232 388.8,-86.13760972172587 389.2,-86.7780689679493 389.59999999999997,-87.41648861517571 390.0,-88.05275810877372 390.4,-88.68676726645235 390.8,-89.31840629734151 391.2,-89.94756582100383 391.59999999999997,-90.57413688637631 392.0,-91.19801099063746 392.40000000000003,-91.81908009799625 392.8,-92.43723665840051 393.19999999999993,-93.05237362616224 393.6,-93.66438447849337 394.0,-94.27316323395291 394.4,-94.87860447079986 394.8,-95.48060334524813 395.2,-96.07905560962348 395.6,-96.67385763041467 396.00000000000006,-97.26490640622113 396.4,-97.85209958558806 396.79999999999995,-98.43533548473147 397.2,-99.01451310514693 397.6,-99.58953215109818 398.0,-100.16029304698695 398.4,-100.7266969545947 398.8,-101.28864579019954 399.2,-101.8460422415608 399.6,-102.39878978477077 400.0,-102.94679270096943" stroke="red" stroke-width="2.0"/><g><g><line fill="none" stroke="black" x1="-8.0" x2="408.0" y1="0.0" y2="0.0"/><polyline fill="black" points="408.0,-5.0 408.0,5.0 424.0,0.0" stroke="none"/><line fill="none" stroke="black" x1="31.83098861837907" x2="31.83098861837907" y1="-3.0" y2="3.0"/><line fill="none" stroke="black" x1="63.66197723675814" x2="63.66197723675814" y1="-3.0" y2="3.0"/><line fill="none" stroke="black" x1="95.4929658551372" x2="95.4929658551372" y1="-3.0" y2="3.0"/><line fill="none" stroke="black" x1="127.32395447351628" x2="127.32395447351628" y1="-3.0" y2="3.0"/><line fill="none" stroke="black" x1="159.15494309189535" x2="159.15494309189535" y1="-3.0" y2="3.0"/><line fill="none" stroke="black" x1="190.9859317102744" x2="190.9859317102744" y1="-3.0" y2="3.0"/><line fill="none" stroke="black" x1="222.8169203286535" x2="222.8169203286535" y1="-3.0" y2="3.0"/><line fill="none" stroke="black" x1="254.64790894703256" x2="254.64790894703256" y1="-3.0" y2="3.0"/><line fill="none" stroke="black" x1="286.4788975654116" x2="286.4788975654116" y1="-3.0" y2="3.0"/><line fill="none" stroke="black" x1="318.3098861837907" x2="318.3098861837907" y1="-3.0" y2="3.0"/><line fill="none" stroke="black" x1="350.1408748021698" x2="350.1408748021698" y1="-3.0" y2="3.0"/><line fill="none" stroke="black" x1="381.9718634205488" x2="381.9718634205488" y1="-3.0" y2="3.0"/><text dominant-baseline="middle" fill="black" stroke="none" text-anchor="middle" x="31.83098861837907" y="14.0">1</text><text dominant-baseline="middle" fill="black" stroke="none" text-anchor="middle" x="63.66197723675814" y="14.0">2</text><text dominant-baseline="middle" fill="black" stroke="none" text-anchor="middle" x="95.4929658551372" y="14.0">3</text><text dominant-baseline="middle" fill="black" stroke="none" text-anchor="middle" x="127.32395447351628" y="14.0">4</text><text dominant-baseline="middle" fill="black" stroke="none" text-anchor="middle" x="159.15494309189535" y="14.0">5</text><text dominant-baseline="middle" fill="black" stroke="none" text-anchor="middle" x="190.9859317102744" y="14.0">6</text><text dominant-baseline="middle" fill="black" stroke="none" text-anchor="middle" x="222.8169203286535" y="14.0">7</text><text dominant-baseline="middle" fill="black" stroke="none" text-anchor="middle" x="254.64790894703256" y="14.0">8</text><text dominant-baseline="middle" fill="black" stroke="none" text-anchor="middle" x="286.4788975654116" y="14.0">9</text><text dominant-baseline="middle" fill="black" stroke="none" text-anchor="middle" x="318.3098861837907" y="14.0">10</text><text dominant-baseline="middle" fill="black" stroke="none" text-anchor="middle" x="350.1408748021698" y="14.0">11</text><text dominant-baseline="middle" fill="black" stroke="none" text-anchor="middle" x="381.9718634205488" y="14.0">12</text></g><g><line fill="none" stroke="black" x1="0.0" x2="0.0" y1="8.0" y2="-308.0"/><polyline fill="black" points="-5.0,-308.0 5.0,-308.0 0.0,-324.0" stroke="none"/><line fill="none" stroke="black" x1="-3.0" x2="3.0" y1="-50.0" y2="-50.0"/><line fill="none" stroke="black" x1="-3.0" x2="3.0" y1="-100.0" y2="-100.0"/><line fill="none" stroke="black" x1="-3.0" x2="3.0" y1="-150.0" y2="-150.0"/><line fill="none" stroke="black" x1="-3.0" x2="3.0" y1="-200.0" y2="-200.0"/><line fill="none" stroke="black" x1="-3.0" x2="3.0" y1="-250.0" y2="-250.0"/><line fill="none" stroke="black" x1="-3.0" x2="3.0" y1="-300.0" y2="-300.0"/><text dominant-baseline="middle" fill="black" stroke="none" text-anchor="middle" x="-10.0" y="-50.0">1</text><text dominant-baseline="middle" fill="black" stroke="none" text-anchor="middle" x="-10.0" y="-100.0">2</text><text dominant-baseline="middle" fill="black" stroke="none" text-anchor="middle" x="-10.0" y="-150.0">3</text><text dominant-baseline="middle" fill="black" stroke="none" text-anchor="middle" x="-10.0" y="-200.0">4</text><text dominant-baseline="middle" fill="black" stroke="none" text-anchor="middle" x="-10.0" y="-250.0">5</text><text dominant-baseline="middle" fill="black" stroke="none" text-anchor="middle" x="-10.0" y="-300.0">6</text></g><text dominant-baseline="middle" fill="black" stroke="none" text-anchor="middle" x="-10.0" y="14.0">0</text></g></g></svg>