<svg xmlns="http://www.w3.org/2000/svg" height="380.0" width="480.0"><g transform="translate(40.0, 340.0)"><polyline fill="none" points="0.0,-150.0 0.4,-149.9960522101908 0.8,-149.984209464165 1.2,-149.96447363202944 1.6,-149.93684783030088 2.0,-149.9013364214136 2.4,-149.8579450130307 2.8000000000000003,-149.80668045715862 3.2,-149.74755084906502 3.5999999999999996,-149.6805655260004 4.0,-149.6057350657239 4.3999999999999995,-149.52307128483255 4.8,-149.4325872368957 5.2,-149.3342972103934 5.6000000000000005,-149.22821672646026 6.0,-149.11436253643444 6.4,-148.99275261921235 6.800000000000001,-148.86340617840966 7.199999999999999,-148.72634363932886 7.6,-148.5815866457337 8.0,-148.42915805643156 8.4,-148.2690819416637 8.799999999999999,-148.1013835793043 9.2,-147.9260894508688 9.6,-147.74322723733215 10.0,-147.55282581475768 10.4,-147.35491524973725 10.8,-147.1495267946432 11.200000000000001,-146.9366928826937 11.600000000000001,-146.7164471228306 12.0,-146.48882429441258 12.399999999999999,-146.25386034172288 12.8,-146.01159236829352 13.200000000000001,-145.76205863104587 13.600000000000001,-145.5052985342498 14.000000000000002,-145.24135262330097 14.399999999999999,-144.97026257831857 14.799999999999999,-144.69207120756317 15.2,-144.40682244067725 15.6,-144.1145613217477 16.0,-143.81533400219317 16.400000000000002,-143.5091877334763 16.8,-143.19617085964177 17.2,-142.87633280968262 17.599999999999998,-142.5497240897346 18.0,-142.21639627510078 18.4,-141.87640200210708 18.8,-141.52979495979065 19.2,-141.17662988142138 19.6,-140.8169625358592 20.0,-140.45084971874738 20.4,-140.07834924354384 20.8,-139.69951993239178 21.2,-139.31442160683093 21.6,-138.92311507835117 22.0,-138.52566213878944 22.400000000000002,-138.1221255505724 22.800000000000004,-137.7125690368052 23.200000000000003,-137.2970572712091 23.599999999999998,-136.87565586790868 24.0,-136.4484313710706 24.4,-136.01545124439536 24.799999999999997,-135.57678386046427 25.2,-135.13249848994246 25.6,-134.68266529064022 26.0,-134.22735529643444 26.400000000000002,-133.7666404060512 26.8,-133.30059337171258 27.200000000000003,-132.82928778764781 27.6,-132.3527980784722 28.000000000000004,-131.8711994874345 28.4,-131.38456806453502 28.799999999999997,-130.89298065451672 29.2,-130.39651488473027 29.599999999999998,-129.89524915287592 30.0,-129.38926261462368 30.4,-128.87863517111336 30.8,-128.36344745633784 31.2,-127.84378082440941 31.6,-127.31971733671345 32.0,-126.79133974894982 32.4,-126.25873149806479 32.800000000000004,-125.72197668907532 33.199999999999996,-125.18116008178804 33.6,-124.63636707741456 34.00000000000001,-124.08768370508577 34.4,-123.53519660826663 34.8,-122.9789930310744 35.199999999999996,-122.41916080450162 35.6,-121.85578833254664 36.0,-121.28896457825364 36.4,-120.7187790496642 36.8,-120.14532178568314 37.2,-119.56868334186012 37.6,-118.98895477609005 37.99999999999999,-118.4062276342339 38.4,-117.82059393566253 38.800000000000004,-117.23214615872587 39.2,-116.64097722614933 39.6,-116.04718049036046 40.0,-115.45084971874738 40.400000000000006,-114.85207907885174 40.8,-114.2509631234988 41.199999999999996,-113.64759677586626 41.6,-113.04207531449487 42.0,-112.43449435824276 42.4,-111.82494985118622 42.800000000000004,-111.21353804746906 43.2,-110.60035549610275 43.6,-109.98549902572034 44.0,-109.36906572928623 44.4,-108.7511529487638 44.800000000000004,-108.13185825974418 45.2,-107.51127945603785 45.60000000000001,-106.88951453423189 46.0,-106.26666167821521 46.400000000000006,-105.64281924367407 46.800000000000004,-105.01808574256074 47.199999999999996,-104.39255982753717 47.6,-103.76634027639665 48.0,-103.13952597646568 48.4,-102.51221590898848 48.8,-101.88450913349675 49.2,-101.25650477216688 49.599999999999994,-100.62830199416763 50.0,-100.0 50.4,-99.37169800583237 50.8,-98.74349522783312 51.2,-98.11549086650328 51.6,-97.48778409101153 52.0,-96.86047402353434 52.400000000000006,-96.23365972360338 52.800000000000004,-95.60744017246284 53.2,-94.98191425743924 53.6,-94.35718075632592 54.0,-93.7333383217848 54.400000000000006,-93.11048546576811 54.800000000000004,-92.48872054396215 55.2,-91.86814174025581 55.60000000000001,-91.2488470512362 56.00000000000001,-90.63093427071375 56.39999999999999,-90.01450097427964 56.8,-89.39964450389728 57.199999999999996,-88.78646195253094 57.599999999999994,-88.17505014881378 57.99999999999999,-87.56550564175727 58.4,-86.95792468550516 58.8,-86.35240322413374 59.199999999999996,-85.7490368765012 59.599999999999994,-85.14792092114827 60.0,-84.54915028125264 60.4,-83.95281950963953 60.8,-83.35902277385068 61.199999999999996,-82.76785384127416 61.6,-82.17940606433747 62.0,-81.5937723657661 62.4,-81.01104522390995 62.8,-80.43131665813986 63.2,-79.85467821431686 63.6,-79.2812209503358 64.0,-78.71103542174637 64.39999999999999,-78.14421166745336 64.8,-77.58083919549838 65.2,-77.0210069689256 65.60000000000001,-76.46480339173337 66.0,-75.91231629491422 66.39999999999999,-75.36363292258544 66.8,-74.81883991821196 67.2,-74.27802331092468 67.60000000000001,-73.74126850193521 68.00000000000001,-73.20866025105015 68.4,-72.68028266328655 68.8,-72.15621917559062 69.19999999999999,-71.63655254366219 69.6,-71.12136482888663 70.0,-70.61073738537635 70.39999999999999,-70.10475084712408 70.8,-69.60348511526975 71.2,-69.10701934548328 71.6,-68.61543193546497 72.0,-68.12880051256552 72.39999999999999,-67.6472019215278 72.8,-67.17071221235219 73.2,-66.69940662828742 73.6,-66.23335959394878 74.00000000000001,-65.77264470356556 74.4,-65.31733470935977 74.8,-64.86750151005755 75.2,-64.42321613953573 75.6,-63.984548755604656 75.99999999999999,-63.55156862892944 76.4,-63.124344132091316 76.8,-62.702942728790894 77.2,-62.2874309631948 77.60000000000001,-61.8778744494276 78.0,-61.47433786121055 78.4,-61.07688492164883 78.8,-60.68557839316906 79.2,-60.30048006760823 79.60000000000001,-59.92165075645617 80.0,-59.54915028125263 80.4,-59.183037464140796 80.80000000000001,-58.82337011857863 81.2,-58.470205040209365 81.6,-58.123597997892915 81.99999999999999,-57.78360372489926 82.39999999999999,-57.45027591026541 82.8,-57.12366719031739 83.2,-56.80382914035824 83.60000000000001,-56.49081226652372 84.0,-56.18466599780683 84.39999999999999,-55.88543867825234 84.8,-55.593177559322775 85.2,-55.30792879243681 85.60000000000001,-55.029737421681446 86.0,-54.75864737669903 86.4,-54.49470146575021 86.8,-54.237941368954125 87.2,-53.98840763170649 87.6,-53.7461396582771 88.0,-53.511175705587426 88.4,-53.28355287716939 88.8,-53.063307117306294 89.20000000000002,-52.85047320535677 89.60000000000001,-52.6450847502628 90.0,-52.44717418524232 90.4,-52.25677276266784 90.8,-52.0739105491312 91.20000000000002,-51.89861642069571 91.60000000000001,-51.73091805833631 92.0,-51.570841943568446 92.4,-51.4184133542663 92.80000000000001,-51.27365636067114 93.19999999999999,-51.13659382159033 93.60000000000001,-51.00724738078765 94.0,-50.885637463565565 94.39999999999999,-50.77178327353973 94.8,-50.6657027896066 95.2,-50.5674127631043 95.6,-50.476928715167446 96.0,-50.394264934276116 96.39999999999999,-50.319434473999586 96.8,-50.252449150934986 97.2,-50.19331954284137 97.6,-50.142054986969306 98.0,-50.09866357858642 98.4,-50.063152169699116 98.8,-50.03552636797054 99.19999999999999,-50.01579053583501 99.6,-50.00394778980919 100.0,-50.0 100.4,-50.00394778980919 100.8,-50.01579053583501 101.2,-50.03552636797054 101.6,-50.063152169699116 102.0,-50.09866357858642 102.4,-50.142054986969306 102.8,-50.19331954284137 103.2,-50.252449150934986 103.60000000000001,-50.319434473999586 104.0,-50.394264934276094 104.4,-50.476928715167446 104.80000000000001,-50.5674127631043 105.2,-50.6657027896066 105.60000000000001,-50.77178327353973 106.0,-50.885637463565565 106.4,-51.00724738078765 106.80000000000001,-51.13659382159033 107.2,-51.27365636067114 107.60000000000001,-51.418413354266306 108.0,-51.570841943568446 108.4,-51.73091805833631 108.80000000000001,-51.89861642069571 109.2,-52.073910549131206 109.60000000000001,-52.25677276266784 110.00000000000001,-52.44717418524232 110.4,-52.64508475026278 110.80000000000001,-52.850473205356785 111.20000000000002,-53.063307117306294 111.60000000000001,-53.2835528771694 112.00000000000001,-53.511175705587426 112.4,-53.7461396582771 112.79999999999998,-53.988407631706465 113.19999999999999,-54.2379413689541 113.6,-54.494701465750204 113.99999999999999,-54.758647376699024 114.39999999999999,-55.029737421681446 114.8,-55.307928792436805 115.19999999999999,-55.59317755932276 115.6,-55.88543867825233 115.99999999999999,-56.18466599780681 116.39999999999999,-56.490812266523704 116.8,-56.803829140358225 117.19999999999999,-57.123667190317384 117.6,-57.4502759102654 118.0,-57.78360372489923 118.39999999999999,-58.12359799789291 118.8,-58.47020504020936 119.19999999999999,-58.823370118578616 119.6,-59.183037464140796 120.0,-59.54915028125263 120.39999999999999,-59.92165075645616 120.8,-60.30048006760822 121.2,-60.685578393169045 121.6,-61.076884921648826 122.0,-61.474337861210536 122.39999999999999,-61.877874449427594 122.8,-62.2874309631948 123.2,-62.702942728790894 123.6,-63.1243441320913 124.0,-63.55156862892942 124.4,-63.98454875560464 124.8,-64.42321613953573 125.2,-64.86750151005754 125.6,-65.31733470935976 126.0,-65.77264470356556 126.4,-66.23335959394878 126.8,-66.69940662828742 127.2,-67.17071221235219 127.60000000000001,-67.6472019215278 128.0,-68.12880051256552 128.40000000000003,-68.615431935465 128.79999999999998,-69.10701934548327 129.20000000000002,-69.6034851152697 129.6,-70.10475084712404 130.0,-70.61073738537634 130.4,-71.12136482888663 130.8,-71.63655254366218 131.20000000000002,-72.1562191755906 131.6,-72.68028266328656 132.0,-73.20866025105019 132.40000000000003,-73.74126850193522 132.79999999999998,-74.27802331092465 133.20000000000002,-74.81883991821195 133.6,-75.36363292258541 134.0,-75.91231629491423 134.4,-76.46480339173338 134.8,-77.02100696892562 135.20000000000002,-77.58083919549841 135.60000000000002,-78.14421166745338 136.00000000000003,-78.71103542174639 136.39999999999998,-79.28122095033578 136.8,-79.85467821431686 137.20000000000002,-80.43131665813986 137.6,-81.01104522390992 138.0,-81.59377236576607 138.39999999999998,-82.17940606433744 138.79999999999998,-82.76785384127413 139.2,-83.35902277385065 139.6,-83.95281950963951 140.0,-84.54915028125264 140.4,-85.14792092114826 140.79999999999998,-85.74903687650115 141.2,-86.3524032241337 141.6,-86.9579246855051 142.0,-87.56550564175723 142.4,-88.17505014881375 142.79999999999998,-88.78646195253093 143.2,-89.39964450389726 143.6,-90.01450097427964 144.0,-90.63093427071377 144.4,-91.2488470512362 144.79999999999998,-91.86814174025578 145.2,-92.48872054396212 145.6,-93.11048546576808 146.0,-93.73333832178476 146.4,-94.3571807563259 146.8,-94.98191425743924 147.2,-95.60744017246284 147.6,-96.23365972360338 148.00000000000003,-96.86047402353434 148.39999999999998,-97.48778409101149 148.8,-98.11549086650325 149.2,-98.74349522783311 149.6,-99.37169800583236 150.0,-100.0 150.4,-100.62830199416763 150.8,-101.25650477216688 151.2,-101.88450913349675 151.60000000000002,-102.51221590898848 151.99999999999997,-103.13952597646566 152.4,-103.76634027639662 152.8,-104.39255982753716 153.2,-105.01808574256073 153.6,-105.64281924367407 154.0,-106.26666167821521 154.4,-106.88951453423189 154.8,-107.51127945603787 155.20000000000002,-108.13185825974418 155.6,-108.75115294876379 156.0,-109.36906572928622 156.4,-109.98549902572034 156.8,-110.60035549610271 157.20000000000002,-111.21353804746906 157.6,-111.82494985118622 158.0,-112.43449435824276 158.4,-113.04207531449487 158.8,-113.64759677586629 159.20000000000002,-114.25096312349882 159.6,-114.85207907885174 160.0,-115.45084971874738 160.4,-116.04718049036046 160.8,-116.64097722614933 161.20000000000002,-117.23214615872587 161.60000000000002,-117.82059393566254 162.0,-118.40622763423391 162.4,-118.98895477609008 162.79999999999998,-119.56868334186011 163.2,-120.14532178568311 163.60000000000002,-120.71877904966419 163.99999999999997,-121.28896457825361 164.39999999999998,-121.8557883325466 164.79999999999998,-122.4191608045016 165.2,-122.97899303107435 165.6,-123.5351966082666 166.0,-124.08768370508574 166.4,-124.63636707741456 166.79999999999998,-125.18116008178804 167.20000000000002,-125.72197668907532 167.59999999999997,-126.25873149806475 168.0,-126.79133974894981 168.4,-127.31971733671344 168.79999999999998,-127.84378082440938 169.2,-128.3634474563378 169.6,-128.87863517111336 170.0,-129.38926261462365 170.4,-129.89524915287592 170.79999999999998,-130.39651488473027 171.20000000000002,-130.89298065451672 171.59999999999997,-131.38456806453502 172.0,-131.87119948743447 172.4,-132.3527980784722 172.8,-132.8292877876478 173.2,-133.30059337171258 173.6,-133.7666404060512 174.0,-134.22735529643444 174.4,-134.68266529064027 174.8,-135.13249848994246 175.2,-135.57678386046425 175.6,-136.01545124439534 176.0,-136.44843137107057 176.4,-136.87565586790868 176.8,-137.2970572712091 177.2,-137.7125690368052 177.6,-138.1221255505724 178.0,-138.52566213878947 178.40000000000003,-138.92311507835117 178.79999999999998,-139.31442160683093 179.20000000000002,-139.69951993239175 179.6,-140.07834924354384 180.0,-140.45084971874738 180.4,-140.8169625358592 180.8,-141.17662988142138 181.20000000000002,-141.52979495979065 181.6,-141.87640200210708 182.0,-142.21639627510078 182.40000000000003,-142.5497240897346 182.79999999999998,-142.87633280968262 183.20000000000002,-143.19617085964177 183.6,-143.50918773347627 184.0,-143.81533400219317 184.4,-144.1145613217477 184.8,-144.40682244067725 185.20000000000002,-144.6920712075632 185.60000000000002,-144.97026257831857 186.00000000000003,-145.24135262330097 186.39999999999998,-145.5052985342498 186.8,-145.76205863104587 187.20000000000002,-146.01159236829352 187.6,-146.25386034172288 188.0,-146.48882429441255 188.39999999999998,-146.71644712283057 188.79999999999998,-146.93669288269368 189.2,-147.1495267946432 189.6,-147.3549152497372 190.0,-147.55282581475768 190.4,-147.74322723733215 190.79999999999998,-147.92608945086877 191.2,-148.1013835793043 191.6,-148.2690819416637 192.0,-148.42915805643156 192.4,-148.5815866457337 192.79999999999998,-148.72634363932886 193.2,-148.86340617840966 193.6,-148.99275261921235 194.0,-149.11436253643444 194.4,-149.22821672646026 194.79999999999998,-149.3342972103934 195.2,-149.4325872368957 195.6,-149.52307128483255 196.0,-149.60573506572388 196.4,-149.6805655260004 196.8,-149.74755084906502 197.2,-149.80668045715862 197.6,-149.8579450130307 198.00000000000003,-149.9013364214136 198.39999999999998,-149.93684783030088 198.8,-149.96447363202944 199.2,-149.984209464165 199.6,-149.9960522101908 200.0,-150.0 200.4,-149.9960522101908 200.8,-149.984209464165 201.2,-149.96447363202944 201.6,-149.93684783030088 202.0,-149.9013364214136 202.4,-149.8579450130307 202.8,-149.80668045715862 203.2,-149.74755084906502 203.6,-149.6805655260004 204.0,-149.6057350657239 204.4,-149.52307128483255 204.8,-149.4325872368957 205.20000000000002,-149.3342972103934 205.6,-149.22821672646026 206.0,-149.11436253643444 206.4,-148.99275261921235 206.8,-148.86340617840966 207.20000000000002,-148.72634363932886 207.6,-148.5815866457337 208.0,-148.42915805643156 208.4,-148.2690819416637 208.8,-148.1013835793043 209.20000000000002,-147.92608945086877 209.60000000000002,-147.74322723733215 210.0,-147.55282581475768 210.4,-147.35491524973725 210.8,-147.1495267946432 211.20000000000002,-146.9366928826937 211.60000000000002,-146.7164471228306 212.0,-146.48882429441258 212.4,-146.25386034172288 212.8,-146.01159236829352 213.20000000000002,-145.76205863104587 213.60000000000002,-145.5052985342498 214.0,-145.24135262330097 214.4,-144.97026257831857 214.8,-144.69207120756317 215.20000000000002,-144.40682244067722 215.60000000000002,-144.11456132174763 216.0,-143.81533400219317 216.4,-143.50918773347627 216.8,-143.19617085964177 217.20000000000002,-142.87633280968262 217.60000000000002,-142.54972408973458 218.00000000000003,-142.21639627510078 218.4,-141.87640200210708 218.8,-141.52979495979065 219.20000000000002,-141.17662988142138 219.60000000000002,-140.81696253585918 220.00000000000003,-140.45084971874735 220.4,-140.0783492435438 220.8,-139.69951993239178 221.20000000000002,-139.31442160683093 221.60000000000002,-138.92311507835115 222.00000000000003,-138.52566213878944 222.40000000000003,-138.12212555057238 222.8,-137.71256903680518 223.20000000000002,-137.2970572712091 223.60000000000002,-136.87565586790868 224.00000000000003,-136.44843137107054 224.40000000000003,-136.01545124439536 224.8,-135.57678386046425 225.2,-135.1324984899425 225.59999999999997,-134.68266529064027 225.99999999999997,-134.22735529643447 226.39999999999998,-133.76664040605127 226.79999999999998,-133.3005933717126 227.2,-132.82928778764787 227.59999999999997,-132.35279807847226 227.99999999999997,-131.87119948743452 228.39999999999998,-131.38456806453505 228.79999999999998,-130.89298065451675 229.2,-130.3965148847303 229.6,-129.895249152876 229.99999999999997,-129.3892626146237 230.39999999999998,-128.87863517111342 230.79999999999998,-128.36344745633787 231.2,-127.84378082440944 231.6,-127.31971733671347 231.99999999999997,-126.79133974894987 232.39999999999998,-126.2587314980648 232.79999999999998,-125.72197668907535 233.2,-125.18116008178805 233.6,-124.63636707741463 234.0,-124.0876837050858 234.39999999999998,-123.53519660826667 234.79999999999998,-122.97899303107442 235.2,-122.41916080450163 235.6,-121.85578833254667 236.0,-121.28896457825364 236.39999999999998,-120.7187790496642 236.79999999999998,-120.14532178568315 237.2,-119.56868334186017 237.6,-118.98895477609011 238.0,-118.40622763423393 238.39999999999998,-117.82059393566259 238.79999999999998,-117.23214615872588 239.2,-116.64097722614936 239.6,-116.0471804903605 240.0,-115.45084971874739 240.39999999999998,-114.85207907885176 240.79999999999998,-114.25096312349885 241.2,-113.6475967758663 241.6,-113.04207531449488 242.0,-112.43449435824277 242.4,-111.82494985118626 242.79999999999998,-111.21353804746907 243.2,-110.60035549610275 243.6,-109.98549902572037 244.0,-109.36906572928623 244.4,-108.7511529487638 244.79999999999998,-108.13185825974423 245.2,-107.51127945603788 245.6,-106.88951453423192 246.0,-106.26666167821523 246.4,-105.64281924367413 246.8,-105.01808574256074 247.2,-104.39255982753717 247.6,-103.76634027639665 248.0,-103.13952597646568 248.4,-102.51221590898852 248.8,-101.88450913349676 249.2,-101.25650477216689 249.6,-100.62830199416766 250.0,-100.00000000000003 250.4,-99.37169800583237 250.8,-98.74349522783312 251.2,-98.11549086650328 251.6,-97.48778409101152 252.0,-96.86047402353437 252.4,-96.2336597236034 252.8,-95.60744017246287 253.2,-94.98191425743927 253.6,-94.35718075632593 254.0,-93.7333383217848 254.4,-93.11048546576811 254.8,-92.48872054396219 255.20000000000002,-91.86814174025581 255.6,-91.24884705123623 256.0,-90.63093427071375 256.4,-90.01450097427967 256.80000000000007,-89.39964450389724 257.2,-88.78646195253094 257.59999999999997,-88.17505014881381 258.0,-87.56550564175727 258.40000000000003,-86.95792468550518 258.8,-86.35240322413372 259.2,-85.74903687650121 259.6,-85.14792092114824 260.0,-84.54915028125265 260.40000000000003,-83.9528195096395 260.8,-83.35902277385068 261.2,-82.76785384127419 261.6,-82.17940606433746 262.0,-81.59377236576614 262.40000000000003,-81.01104522390993 262.8,-80.4313166581399 263.2,-79.85467821431685 263.6,-79.28122095033581 264.0,-78.71103542174633 264.40000000000003,-78.14421166745336 264.80000000000007,-77.58083919549834 265.2,-77.0210069689256 265.59999999999997,-76.4648033917334 266.0,-75.91231629491422 266.40000000000003,-75.36363292258544 266.8,-74.81883991821194 267.2,-74.27802331092468 267.6,-73.7412685019352 268.0,-73.20866025105018 268.40000000000003,-72.6802826632865 268.8,-72.15621917559059 269.2,-71.63655254366219 269.6,-71.1213648288866 270.0,-70.61073738537635 270.40000000000003,-70.10475084712404 270.8,-69.60348511526973 271.20000000000005,-69.10701934548325 271.6,-68.61543193546497 272.00000000000006,-68.12880051256548 272.40000000000003,-67.64720192152778 272.79999999999995,-67.1707122123522 273.20000000000005,-66.69940662828739 273.6,-66.23335959394878 274.0,-65.77264470356553 274.40000000000003,-65.31733470935976 274.8,-64.86750151005751 275.2,-64.42321613953578 275.59999999999997,-63.98454875560467 276.0,-63.55156862892948 276.4,-63.124344132091316 276.79999999999995,-62.70294272879093 277.20000000000005,-62.28743096319482 277.59999999999997,-61.87787444942764 277.99999999999994,-61.47433786121059 278.4,-61.076884921648855 278.79999999999995,-60.6855783931691 279.2,-60.300480067608255 279.59999999999997,-59.921650756456216 280.0,-59.549150281252636 280.4,-59.183037464140845 280.8,-58.82337011857863 281.2,-58.47020504020939 281.59999999999997,-58.12359799789296 282.0,-57.78360372489926 282.4,-57.45027591026545 282.8,-57.12366719031741 283.2,-56.80382914035826 283.59999999999997,-56.490812266523726 284.0,-56.184665997806846 284.40000000000003,-55.88543867825233 284.8,-55.5931775593228 285.19999999999993,-55.30792879243685 285.59999999999997,-55.029737421681475 286.0,-54.75864737669906 286.4,-54.49470146575021 286.8,-54.23794136895415 287.2,-53.988407631706494 287.59999999999997,-53.746139658277116 288.0,-53.511175705587426 288.4,-53.28355287716942 288.8,-53.063307117306294 289.2,-52.850473205356785 289.59999999999997,-52.645084750262804 290.0,-52.44717418524233 290.4,-52.25677276266787 290.8,-52.073910549131206 291.2,-51.89861642069572 291.59999999999997,-51.73091805833631 292.0,-51.570841943568446 292.40000000000003,-51.4184133542663 292.8,-51.27365636067115 293.19999999999993,-51.136593821590345 293.6,-51.00724738078765 294.0,-50.88563746356559 294.4,-50.77178327353973 294.8,-50.6657027896066 295.2,-50.5674127631043 295.6,-50.476928715167446 296.00000000000006,-50.394264934276094 296.4,-50.319434473999586 296.79999999999995,-50.25244915093499 297.2,-50.19331954284138 297.6,-50.142054986969306 298.0,-50.09866357858642 298.4,-50.063152169699116 298.8,-50.03552636797054 299.2,-50.01579053583501 299.6,-50.00394778980919 300.0,-50.0 300.4,-50.00394778980919 300.8,-50.01579053583501 301.2,-50.035526367970526 301.6,-50.063152169699116 302.0,-50.09866357858642 302.4,-50.142054986969306 302.8,-50.19331954284137 303.20000000000005,-50.25244915093499 303.6,-50.319434473999586 303.99999999999994,-50.394264934276094 304.4,-50.476928715167446 304.8,-50.567412763104294 305.2,-50.6657027896066 305.6,-50.77178327353973 306.0,-50.885637463565565 306.4,-51.00724738078765 306.80000000000007,-51.13659382159033 307.2,-51.27365636067114 307.59999999999997,-51.41841335426629 308.0,-51.570841943568446 308.40000000000003,-51.73091805833629 308.8,-51.89861642069571 309.2,-52.0739105491312 309.6,-52.25677276266786 310.0,-52.44717418524232 310.40000000000003,-52.6450847502628 310.8,-52.85047320535677 311.2,-53.06330711730628 311.6,-53.28355287716939 312.0,-53.51117570558741 312.40000000000003,-53.7461396582771 312.8,-53.988407631706465 313.2,-54.237941368954125 313.6,-54.49470146575021 314.0,-54.75864737669904 314.40000000000003,-55.029737421681446 314.80000000000007,-55.30792879243683 315.2,-55.593177559322775 315.59999999999997,-55.88543867825232 316.0,-56.18466599780683 316.40000000000003,-56.490812266523704 316.8,-56.80382914035824 317.2,-57.123667190317384 317.6,-57.450275910265425 318.0,-57.78360372489925 318.40000000000003,-58.123597997892944 318.8,-58.470205040209365 319.2,-58.823370118578616 319.6,-59.18303746414082 320.0,-59.549150281252615 320.40000000000003,-59.92165075645619 320.8,-60.30048006760823 321.20000000000005,-60.68557839316908 321.6,-61.076884921648826 322.00000000000006,-61.474337861210564 322.40000000000003,-61.87787444942762 322.79999999999995,-62.28743096319479 323.20000000000005,-62.70294272879091 323.6,-63.124344132091295 324.0,-63.55156862892945 324.40000000000003,-63.984548755604656 324.8,-64.42321613953577 325.2,-64.86750151005748 325.59999999999997,-65.31733470935971 326.0,-65.77264470356552 326.4,-66.23335959394876 326.79999999999995,-66.69940662828738 327.20000000000005,-67.17071221235217 327.59999999999997,-67.64720192152775 327.99999999999994,-68.12880051256545 328.4,-68.61543193546494 328.79999999999995,-69.10701934548322 329.2,-69.6034851152697 329.59999999999997,-70.104750847124 330.0,-70.61073738537634 330.4,-71.12136482888657 330.8,-71.63655254366216 331.2,-72.15621917559056 331.59999999999997,-72.68028266328648 332.0,-73.20866025105015 332.4,-73.74126850193514 332.8,-74.27802331092465 333.2,-74.81883991821189 333.59999999999997,-75.36363292258541 334.0,-75.91231629491419 334.40000000000003,-76.46480339173335 334.8,-77.02100696892558 335.19999999999993,-77.58083919549831 335.59999999999997,-78.14421166745333 336.0,-78.7110354217463 336.4,-79.28122095033578 336.8,-79.85467821431682 337.2,-80.43131665813986 337.59999999999997,-81.01104522390989 338.0,-81.5937723657661 338.4,-82.17940606433743 338.8,-82.76785384127416 339.2,-83.35902277385063 339.59999999999997,-83.95281950963945 340.0,-84.5491502812526 340.4,-85.1479209211482 340.8,-85.74903687650118 341.2,-86.3524032241337 341.59999999999997,-86.95792468550515 342.0,-87.56550564175723 342.40000000000003,-88.17505014881377 342.8,-88.78646195253091 343.19999999999993,-89.3996445038972 343.6,-90.01450097427963 344.0,-90.63093427071372 344.4,-91.2488470512362 344.8,-91.86814174025578 345.2,-92.48872054396216 345.6,-93.11048546576805 346.00000000000006,-93.7333383217848 346.4,-94.35718075632589 346.79999999999995,-94.98191425743919 347.2,-95.60744017246284 347.6,-96.23365972360331 348.0,-96.86047402353434 348.4,-97.48778409101148 348.8,-98.11549086650328 349.2,-98.7434952278331 349.6,-99.37169800583239 350.0,-99.99999999999997 350.4,-100.62830199416757 350.8,-101.25650477216686 351.2,-101.88450913349668 351.6,-102.51221590898847 352.0,-103.13952597646562 352.4,-103.76634027639665 352.8,-104.39255982753711 353.20000000000005,-105.01808574256079 353.6,-105.64281924367407 353.99999999999994,-106.26666167821514 354.4,-106.88951453423189 354.8,-107.5112794560378 355.2,-108.13185825974418 355.6,-108.75115294876376 356.0,-109.36906572928623 356.4,-109.98549902572033 356.80000000000007,-110.60035549610276 357.2,-111.21353804746906 357.59999999999997,-111.82494985118619 358.0,-112.43449435824273 358.40000000000003,-113.04207531449481 358.8,-113.64759677586626 359.2,-114.25096312349878 359.6,-114.85207907885176 360.0,-115.45084971874735 360.40000000000003,-116.0471804903605 360.8,-116.64097722614933 361.2,-117.23214615872581 361.6,-117.82059393566253 362.0,-118.40622763423386 362.40000000000003,-118.98895477609005 362.8,-119.56868334186011 363.2,-120.14532178568315 363.6,-120.71877904966419 364.0,-121.28896457825367 364.40000000000003,-121.85578833254664 364.80000000000007,-122.41916080450166 365.2,-122.9789930310744 365.59999999999997,-123.5351966082666 366.0,-124.08768370508578 366.40000000000003,-124.63636707741456 366.8,-125.18116008178805 367.2,-125.72197668907532 367.6,-126.2587314980648 368.0,-126.79133974894982 368.40000000000003,-127.31971733671351 368.8,-127.84378082440941 369.2,-128.3634474563378 369.6,-128.87863517111342 370.0,-129.38926261462365 370.40000000000003,-129.89524915287598 370.8,-130.39651488473027 371.20000000000005,-130.89298065451675 371.6,-131.38456806453502 372.00000000000006,-131.87119948743452 372.40000000000003,-132.3527980784722 372.79999999999995,-132.8292877876478 373.20000000000005,-133.30059337171258 373.6,-133.7666404060512 374.0,-134.22735529643447 374.40000000000003,-134.68266529064022 374.8,-135.1324984899425 375.2,-135.57678386046422 375.59999999999997,-136.0154512443953 376.0,-136.44843137107054 376.4,-136.87565586790868 376.79999999999995,-137.29705727120907 377.20000000000005,-137.71256903680518 377.59999999999997,-138.12212555057235 377.99999999999994,-138.52566213878941 378.4,-138.92311507835115 378.79999999999995,-139.3144216068309 379.2,-139.69951993239172 379.59999999999997,-140.07834924354378 380.0,-140.45084971874735 380.4,-140.81696253585915 380.8,-141.17662988142138 381.2,-141.5297949597906 381.59999999999997,-141.87640200210706 382.0,-142.21639627510072 382.4,-142.54972408973458 382.8,-142.8763328096826 383.2,-143.19617085964174 383.59999999999997,-143.50918773347627 384.0,-143.81533400219314 384.40000000000003,-144.11456132174763 384.8,-144.4068224406772 385.19999999999993,-144.69207120756317 385.59999999999997,-144.97026257831854 386.0,-145.24135262330097 386.4,-145.50529853424976 386.8,-145.76205863104585 387.2,-146.01159236829352 387.59999999999997,-146.25386034172288 388.0,-146.48882429441258 388.4,-146.71644712283057 388.8,-146.9366928826937 389.2,-147.1495267946432 389.59999999999997,-147.3549152497372 390.0,-147.55282581475768 390.4,-147.74322723733215 390.8,-147.9260894508688 391.2,-148.10138357930427 391.59999999999997,-148.2690819416637 392.0,-148.42915805643156 392.40000000000003,-148.5815866457337 392.8,-148.72634363932886 393.19999999999993,-148.86340617840966 393.6,-148.99275261921235 394.0,-149.1143625364344 394.4,-149.22821672646026 394.8,-149.3342972103934 395.2,-149.4325872368957 395.6,-149.52307128483255 396.00000000000006,-149.6057350657239 396.4,-149.6805655260004 396.79999999999995,-149.74755084906502 397.2,-149.80668045715862 397.6,-149.8579450130307 398.0,-149.9013364214136 398.4,-149.93684783030088 398.8,-149.96447363202944 399.2,-149.984209464165 399.6,-149.9960522101908 400.0,-150.0" stroke="red" stroke-width="2.0"/><g><g><line fill="none" stroke="black" x1="-8.0" x2="408.0" y1="0.0" y2="0.0"/><polyline fill="black" points="408.0,-5.0 408.0,5.0 424.0,0.0" stroke="none"/><line fill="none" stroke="black" x1="31.83098861837907" x2="31.83098861837907" y1="-3.0" y2="3.0"/><line fill="none" stroke="black" x1="63.66197723675814" x2="63.66197723675814" y1="-3.0" y2="3.0"/><line fill="none" stroke="black" x1="95.4929658551372" x2="95.4929658551372" y1="-3.0" y2="3.0"/><line fill="none" stroke="black" x1="127.32395447351628" x2="127.32395447351628" y1="-3.0" y2="3.0"/><line fill="none" stroke="black" x1="159.15494309189535" x2="159.15494309189535" y1="-3.0" y2="3.0"/><line fill="none" stroke="black" x1="190.9859317102744" x2="190.9859317102744" y1="-3.0" y2="3.0"/><line fill="none" stroke="black" x1="222.8169203286535" x2="222.8169203286535" y1="-3.0" y2="3.0"/><line fill="none" stroke="black" x1="254.64790894703256" x2="254.64790894703256" y1="-3.0" y2="3.0"/><line fill="none" stroke="black" x1="286.4788975654116" x2="286.4788975654116" y1="-3.0" y2="3.0"/><line fill="none" stroke="black" x1="318.3098861837907" x2="318.3098861837907" y1="-3.0" y2="3.0"/><line fill="none" stroke="black" x1="350.1408748021698" x2="350.1408748021698" y1="-3.0" y2="3.0"/><line fill="none" stroke="black" x1="381.9718634205488" x2="381.9718634205488" y1="-3.0" y2="3.0"/><text dominant-baseline="middle" fill="black" stroke="none" text-anchor="middle" x="31.83098861837907" y="14.0">1</text><text dominant-baseline="middle" fill="black" stroke="none" text-anchor="middle" x="63.66197723675814" y="14.0">2</text><text dominant-baseline="middle" fill="black" stroke="none" text-anchor="middle" x="95.4929658551372" y="14.0">3</text><text dominant-baseline="middle" fill="black" stroke="none" text-anchor="middle" x="127.32395447351628" y="14.0">4</text><text dominant-baseline="middle" fill="black" stroke="none" text-anchor="middle" x="159.15494309189535" y="14.0">5</text><text dominant-baseline="middle" fill="black" stroke="none" text-anchor="middle" x="190.9859317102744" y="14.0">6</text><text dominant-baseline="middle" fill="black" stroke="none" text-anchor="middle" x="222.8169203286535" y="14.0">7</text><text dominant-baseline="middle" fill="black" stroke="none" text-anchor="middle" x="254.64790894703256" y="14.0">8</text><text dominant-baseline="middle" fill="black" stroke="none" text-anchor="middle" x="286.4788975654116" y="14.0">9</text><text dominant-baseline="middle" fill="black" stroke="none" text-anchor="middle" x="318.3098861837907" y="14.0">10</text><text dominant-baseline="middle" fill="black" stroke="none" text-anchor="middle" x="350.1408748021698" y="14.0">11</text><text dominant-baseline="middle" fill="black" stroke="none" text-anchor="middle" x="381.9718634205488" y="14.0">12</text></g><g><line fill="none" stroke="black" x1="0.0" x2="0.0" y1="8.0" y2="-308.0"/><polyline fill="black" points="-5.0,-308.0 5.0,-308.0 0.0,-324.0" stroke="none"/><line fill="none" stroke="black" x1="-3.0" x2="3.0" y1="-50.0" y2="-50.0"/><line fill="none" stroke="black" x1="-3.0" x2="3.0" y1="-100.0" y2="-100.0"/><line fill="none" stroke="black" x1="-3.0" x2="3.0" y1="-150.0" y2="-150.0"/><line fill="none" stroke="black" x1="-3.0" x2="3.0" y1="-200.0" y2="-200.0"/><line fill="none" stroke="black" x1="-3.0" x2="3.0" y1="-250.0" y2="-250.0"/><line fill="none" stroke="black" x1="-3.0" x2="3.0" y1="-300.0" y2="-300.0"/><text dominant-baseline="middle" fill="black" stroke="none" text-anchor="middle" x="-10.0" y="-50.0">1</text><text dominant-baseline="middle" fill="black" stroke="none" text-anchor="middle" x="-10.0" y="-100.0">2</text><text dominant-baseline="middle" fill="black" stroke="none" text-anchor="middle" x="-10.0" y="-150.0">3</text><text dominant-baseline="middle" fill="black" stroke="none" text-anchor="middle" x="-10.0" y="-200.0">4</text><text dominant-baseline="middle" fill="black" stroke="none" text-anchor="middle" x="-10.0" y="-250.0">5</text><text dominant-baseline="middle" fill="black" stroke="none" text-anchor="middle" x="-10.0" y="-300.0">6</text></g><text dominant-baseline="middle" fill="black" stroke="none" text-anchor="middle" x="-10.0" y="14.0">0</text></g></g></svg>