<svg xmlns="http://www.w3.org/2000/svg" height="380.0" width="480.0"><g transform="translate(40.0, 340.0)"><polyline fill="none" points="0.0,-100.0 0.4,-100.62830199416763 0.8,-101.25650477216688 1.2,-101.88450913349675 1.6,-102.51221590898847 2.0,-103.13952597646568 2.4,-103.76634027639665 2.8000000000000003,-104.39255982753717 3.2,-105.01808574256074 3.5999999999999996,-105.64281924367408 4.0,-106.26666167821521 4.3999999999999995,-106.88951453423189 4.8,-107.51127945603785 5.2,-108.13185825974418 5.6000000000000005,-108.7511529487638 6.0,-109.36906572928623 6.4,-109.98549902572034 6.800000000000001,-110.60035549610271 7.199999999999999,-111.21353804746906 7.6,-111.82494985118622 8.0,-112.43449435824273 8.4,-113.04207531449484 8.799999999999999,-113.64759677586626 9.2,-114.2509631234988 9.6,-114.85207907885176 10.0,-115.45084971874738 10.4,-116.04718049036046 10.8,-116.64097722614933 11.200000000000001,-117.23214615872587 11.600000000000001,-117.82059393566253 12.0,-118.4062276342339 12.399999999999999,-118.98895477609005 12.8,-119.56868334186012 13.200000000000001,-120.14532178568314 13.600000000000001,-120.7187790496642 14.000000000000002,-121.28896457825364 14.399999999999999,-121.85578833254664 14.799999999999999,-122.41916080450162 15.2,-122.97899303107438 15.6,-123.53519660826662 16.0,-124.08768370508577 16.400000000000002,-124.63636707741456 16.8,-125.18116008178804 17.2,-125.72197668907532 17.599999999999998,-126.25873149806478 18.0,-126.79133974894982 18.4,-127.31971733671345 18.8,-127.8437808244094 19.2,-128.36344745633784 19.6,-128.87863517111336 20.0,-129.38926261462368 20.4,-129.89524915287592 20.8,-130.39651488473027 21.2,-130.89298065451672 21.6,-131.38456806453502 22.0,-131.8711994874345 22.400000000000002,-132.3527980784722 22.800000000000004,-132.82928778764781 23.200000000000003,-133.30059337171258 23.599999999999998,-133.7666404060512 24.0,-134.22735529643444 24.4,-134.68266529064022 24.799999999999997,-135.13249848994246 25.2,-135.57678386046427 25.6,-136.01545124439536 26.0,-136.4484313710706 26.400000000000002,-136.87565586790868 26.8,-137.2970572712091 27.200000000000003,-137.7125690368052 27.6,-138.1221255505724 28.000000000000004,-138.52566213878944 28.4,-138.92311507835115 28.799999999999997,-139.31442160683093 29.2,-139.69951993239175 29.599999999999998,-140.07834924354384 30.0,-140.45084971874738 30.4,-140.8169625358592 30.8,-141.17662988142138 31.2,-141.52979495979065 31.6,-141.87640200210708 32.0,-142.21639627510078 32.4,-142.54972408973458 32.800000000000004,-142.87633280968262 33.199999999999996,-143.19617085964177 33.6,-143.5091877334763 34.00000000000001,-143.81533400219317 34.4,-144.11456132174763 34.8,-144.40682244067722 35.199999999999996,-144.69207120756317 35.6,-144.97026257831857 36.0,-145.24135262330097 36.4,-145.5052985342498 36.8,-145.76205863104587 37.2,-146.01159236829352 37.6,-146.25386034172288 37.99999999999999,-146.48882429441258 38.4,-146.7164471228306 38.800000000000004,-146.9366928826937 39.2,-147.1495267946432 39.6,-147.35491524973725 40.0,-147.55282581475768 40.400000000000006,-147.74322723733215 40.8,-147.9260894508688 41.199999999999996,-148.1013835793043 41.6,-148.2690819416637 42.0,-148.42915805643156 42.4,-148.5815866457337 42.800000000000004,-148.72634363932886 43.2,-148.86340617840966 43.6,-148.99275261921235 44.0,-149.11436253643444 44.4,-149.22821672646026 44.800000000000004,-149.3342972103934 45.2,-149.4325872368957 45.60000000000001,-149.52307128483255 46.0,-149.6057350657239 46.400000000000006,-149.6805655260004 46.800000000000004,-149.74755084906502 47.199999999999996,-149.80668045715862 47.6,-149.8579450130307 48.0,-149.9013364214136 48.4,-149.93684783030088 48.8,-149.96447363202944 49.2,-149.984209464165 49.599999999999994,-149.9960522101908 50.0,-150.0 50.4,-149.9960522101908 50.8,-149.984209464165 51.2,-149.96447363202944 51.6,-149.93684783030088 52.0,-149.9013364214136 52.400000000000006,-149.8579450130307 52.800000000000004,-149.80668045715862 53.2,-149.74755084906502 53.6,-149.6805655260004 54.0,-149.60573506572388 54.400000000000006,-149.52307128483255 54.800000000000004,-149.4325872368957 55.2,-149.3342972103934 55.60000000000001,-149.22821672646026 56.00000000000001,-149.11436253643444 56.39999999999999,-148.99275261921235 56.8,-148.86340617840966 57.199999999999996,-148.72634363932886 57.599999999999994,-148.5815866457337 57.99999999999999,-148.42915805643156 58.4,-148.2690819416637 58.8,-148.1013835793043 59.199999999999996,-147.9260894508688 59.599999999999994,-147.74322723733215 60.0,-147.55282581475768 60.4,-147.35491524973725 60.8,-147.1495267946432 61.199999999999996,-146.9366928826937 61.6,-146.7164471228306 62.0,-146.48882429441258 62.4,-146.25386034172288 62.8,-146.01159236829352 63.2,-145.76205863104587 63.6,-145.5052985342498 64.0,-145.24135262330097 64.39999999999999,-144.97026257831857 64.8,-144.6920712075632 65.2,-144.40682244067725 65.60000000000001,-144.1145613217477 66.0,-143.81533400219317 66.39999999999999,-143.5091877334763 66.8,-143.19617085964177 67.2,-142.87633280968262 67.60000000000001,-142.54972408973458 68.00000000000001,-142.21639627510075 68.4,-141.87640200210708 68.8,-141.52979495979065 69.19999999999999,-141.17662988142138 69.6,-140.8169625358592 70.0,-140.45084971874738 70.39999999999999,-140.07834924354384 70.8,-139.69951993239178 71.2,-139.31442160683093 71.6,-138.92311507835117 72.0,-138.52566213878944 72.39999999999999,-138.1221255505724 72.8,-137.7125690368052 73.2,-137.2970572712091 73.6,-136.87565586790868 74.00000000000001,-136.44843137107057 74.4,-136.01545124439536 74.8,-135.57678386046427 75.2,-135.13249848994246 75.6,-134.68266529064022 75.99999999999999,-134.22735529643444 76.4,-133.7666404060512 76.8,-133.30059337171258 77.2,-132.82928778764781 77.60000000000001,-132.3527980784722 78.0,-131.8711994874345 78.4,-131.38456806453502 78.8,-130.89298065451672 79.2,-130.39651488473027 79.60000000000001,-129.89524915287592 80.0,-129.38926261462368 80.4,-128.87863517111336 80.80000000000001,-128.3634474563378 81.2,-127.8437808244094 81.6,-127.31971733671345 81.99999999999999,-126.79133974894985 82.39999999999999,-126.2587314980648 82.8,-125.72197668907532 83.2,-125.18116008178804 83.60000000000001,-124.63636707741459 84.0,-124.08768370508578 84.39999999999999,-123.53519660826663 84.8,-122.9789930310744 85.2,-122.41916080450162 85.60000000000001,-121.85578833254664 86.0,-121.28896457825364 86.4,-120.7187790496642 86.8,-120.14532178568314 87.2,-119.56868334186012 87.6,-118.98895477609005 88.0,-118.40622763423391 88.4,-117.82059393566253 88.8,-117.23214615872587 89.20000000000002,-116.64097722614933 89.60000000000001,-116.0471804903605 90.0,-115.45084971874738 90.4,-114.85207907885176 90.8,-114.2509631234988 91.20000000000002,-113.64759677586625 91.60000000000001,-113.04207531449487 92.0,-112.43449435824273 92.4,-111.82494985118622 92.80000000000001,-111.21353804746906 93.19999999999999,-110.60035549610275 93.60000000000001,-109.98549902572034 94.0,-109.36906572928623 94.39999999999999,-108.7511529487638 94.8,-108.13185825974418 95.2,-107.51127945603787 95.6,-106.88951453423192 96.0,-106.26666167821523 96.39999999999999,-105.64281924367408 96.8,-105.01808574256074 97.2,-104.39255982753717 97.6,-103.76634027639666 98.0,-103.13952597646568 98.4,-102.51221590898848 98.8,-101.88450913349675 99.19999999999999,-101.25650477216689 99.6,-100.62830199416763 100.0,-100.0 100.4,-99.37169800583237 100.8,-98.74349522783312 101.2,-98.11549086650328 101.6,-97.48778409101153 102.0,-96.86047402353434 102.4,-96.23365972360335 102.8,-95.60744017246286 103.2,-94.98191425743926 103.60000000000001,-94.35718075632592 104.0,-93.7333383217848 104.4,-93.1104854657681 104.80000000000001,-92.48872054396216 105.2,-91.86814174025582 105.60000000000001,-91.2488470512362 106.0,-90.63093427071375 106.4,-90.01450097427963 106.80000000000001,-89.39964450389728 107.2,-88.78646195253093 107.60000000000001,-88.17505014881377 108.0,-87.56550564175724 108.4,-86.95792468550516 108.80000000000001,-86.35240322413372 109.2,-85.7490368765012 109.60000000000001,-85.14792092114826 110.00000000000001,-84.54915028125262 110.4,-83.95281950963953 110.80000000000001,-83.35902277385065 111.20000000000002,-82.76785384127415 111.60000000000001,-82.17940606433744 112.00000000000001,-81.59377236576609 112.4,-81.01104522390995 112.79999999999998,-80.4313166581399 113.19999999999999,-79.8546782143169 113.6,-79.28122095033581 113.99999999999999,-78.71103542174639 114.39999999999999,-78.14421166745336 114.8,-77.58083919549843 115.19999999999999,-77.02100696892563 115.6,-76.46480339173338 115.99999999999999,-75.91231629491426 116.39999999999999,-75.36363292258544 116.8,-74.81883991821199 117.19999999999999,-74.2780233109247 117.6,-73.74126850193522 118.0,-73.20866025105018 118.39999999999999,-72.68028266328655 118.8,-72.15621917559062 119.19999999999999,-71.63655254366219 119.6,-71.12136482888663 120.0,-70.61073738537635 120.39999999999999,-70.10475084712408 120.8,-69.60348511526975 121.2,-69.10701934548328 121.6,-68.61543193546497 122.0,-68.12880051256552 122.39999999999999,-67.6472019215278 122.8,-67.17071221235219 123.2,-66.69940662828742 123.6,-66.23335959394878 124.0,-65.77264470356556 124.4,-65.31733470935977 124.8,-64.86750151005755 125.2,-64.42321613953573 125.6,-63.984548755604656 126.0,-63.55156862892944 126.4,-63.124344132091316 126.8,-62.702942728790894 127.2,-62.287430963194815 127.60000000000001,-61.8778744494276 128.0,-61.47433786121053 128.40000000000003,-61.076884921648826 128.79999999999998,-60.685578393169074 129.20000000000002,-60.30048006760825 129.6,-59.92165075645618 130.0,-59.54915028125263 130.4,-59.183037464140796 130.8,-58.82337011857863 131.20000000000002,-58.470205040209365 131.6,-58.12359799789291 132.0,-57.78360372489923 132.40000000000003,-57.4502759102654 132.79999999999998,-57.12366719031739 133.20000000000002,-56.80382914035824 133.6,-56.490812266523726 134.0,-56.18466599780683 134.4,-55.88543867825233 134.8,-55.59317755932277 135.20000000000002,-55.307928792436805 135.60000000000002,-55.029737421681446 136.00000000000003,-54.75864737669901 136.39999999999998,-54.49470146575021 136.8,-54.237941368954125 137.20000000000002,-53.98840763170649 137.6,-53.746139658277116 138.0,-53.51117570558745 138.39999999999998,-53.28355287716942 138.79999999999998,-53.0633071173063 139.2,-52.850473205356785 139.6,-52.6450847502628 140.0,-52.44717418524232 140.4,-52.25677276266784 140.79999999999998,-52.07391054913121 141.2,-51.89861642069571 141.6,-51.730918058336314 142.0,-51.570841943568446 142.4,-51.418413354266306 142.79999999999998,-51.27365636067114 143.2,-51.13659382159033 143.6,-51.00724738078765 144.0,-50.88563746356556 144.4,-50.77178327353973 144.79999999999998,-50.6657027896066 145.2,-50.5674127631043 145.6,-50.476928715167446 146.0,-50.394264934276116 146.4,-50.319434473999586 146.8,-50.252449150934986 147.2,-50.19331954284137 147.6,-50.142054986969306 148.00000000000003,-50.09866357858642 148.39999999999998,-50.063152169699116 148.8,-50.03552636797054 149.2,-50.01579053583501 149.6,-50.00394778980919 150.0,-50.0 150.4,-50.00394778980919 150.8,-50.01579053583501 151.2,-50.03552636797054 151.60000000000002,-50.063152169699116 151.99999999999997,-50.09866357858642 152.4,-50.142054986969306 152.8,-50.19331954284137 153.2,-50.252449150934986 153.6,-50.319434473999586 154.0,-50.394264934276094 154.4,-50.476928715167446 154.8,-50.5674127631043 155.20000000000002,-50.6657027896066 155.6,-50.77178327353973 156.0,-50.88563746356556 156.4,-51.00724738078765 156.8,-51.13659382159033 157.20000000000002,-51.27365636067114 157.6,-51.4184133542663 158.0,-51.570841943568446 158.4,-51.730918058336314 158.8,-51.89861642069571 159.20000000000002,-52.07391054913121 159.6,-52.25677276266784 160.0,-52.44717418524232 160.4,-52.64508475026278 160.8,-52.850473205356785 161.20000000000002,-53.063307117306294 161.60000000000002,-53.2835528771694 162.0,-53.511175705587426 162.4,-53.7461396582771 162.79999999999998,-53.988407631706465 163.2,-54.237941368954125 163.60000000000002,-54.49470146575021 163.99999999999997,-54.758647376699 164.39999999999998,-55.02973742168142 164.79999999999998,-55.307928792436805 165.2,-55.59317755932276 165.6,-55.88543867825233 166.0,-56.1846659978068 166.4,-56.490812266523704 166.79999999999998,-56.80382914035823 167.20000000000002,-57.123667190317384 167.59999999999997,-57.4502759102654 168.0,-57.78360372489922 168.4,-58.123597997892894 168.79999999999998,-58.47020504020936 169.2,-58.823370118578616 169.6,-59.183037464140796 170.0,-59.54915028125263 170.4,-59.92165075645617 170.79999999999998,-60.30048006760823 171.20000000000002,-60.68557839316906 171.59999999999997,-61.076884921648805 172.0,-61.47433786121053 172.4,-61.877874449427594 172.8,-62.2874309631948 173.2,-62.702942728790894 173.6,-63.124344132091295 174.0,-63.55156862892942 174.4,-63.98454875560466 174.8,-64.42321613953575 175.2,-64.86750151005751 175.6,-65.31733470935973 176.0,-65.77264470356556 176.4,-66.23335959394876 176.8,-66.69940662828742 177.2,-67.17071221235219 177.6,-67.64720192152778 178.0,-68.12880051256552 178.40000000000003,-68.615431935465 178.79999999999998,-69.10701934548327 179.20000000000002,-69.6034851152697 179.6,-70.10475084712404 180.0,-70.61073738537634 180.4,-71.12136482888661 180.8,-71.63655254366216 181.20000000000002,-72.1562191755906 181.6,-72.68028266328656 182.0,-73.20866025105019 182.40000000000003,-73.74126850193522 182.79999999999998,-74.27802331092465 183.20000000000002,-74.81883991821195 183.6,-75.36363292258541 184.0,-75.91231629491423 184.4,-76.46480339173337 184.8,-77.02100696892562 185.20000000000002,-77.58083919549838 185.60000000000002,-78.14421166745338 186.00000000000003,-78.71103542174639 186.39999999999998,-79.28122095033578 186.8,-79.85467821431685 187.20000000000002,-80.43131665813986 187.6,-81.01104522390992 188.0,-81.59377236576606 188.39999999999998,-82.17940606433744 188.79999999999998,-82.76785384127413 189.2,-83.35902277385064 189.6,-83.95281950963951 190.0,-84.54915028125262 190.4,-85.14792092114826 190.79999999999998,-85.74903687650115 191.2,-86.3524032241337 191.6,-86.9579246855051 192.0,-87.56550564175723 192.4,-88.17505014881374 192.79999999999998,-88.78646195253093 193.2,-89.39964450389726 193.6,-90.01450097427964 194.0,-90.63093427071377 194.4,-91.2488470512362 194.79999999999998,-91.86814174025578 195.2,-92.4887205439621 195.6,-93.11048546576808 196.0,-93.73333832178476 196.4,-94.3571807563259 196.8,-94.98191425743924 197.2,-95.60744017246284 197.6,-96.23365972360335 198.00000000000003,-96.86047402353434 198.39999999999998,-97.48778409101149 198.8,-98.11549086650325 199.2,-98.7434952278331 199.6,-99.37169800583236 200.0,-100.0 200.4,-100.62830199416761 200.8,-101.25650477216688 201.2,-101.88450913349675 201.6,-102.51221590898848 202.0,-103.13952597646562 202.4,-103.76634027639662 202.8,-104.39255982753716 203.2,-105.01808574256073 203.6,-105.64281924367407 204.0,-106.26666167821521 204.4,-106.88951453423189 204.8,-107.51127945603787 205.20000000000002,-108.13185825974418 205.6,-108.75115294876379 206.0,-109.36906572928622 206.4,-109.98549902572034 206.8,-110.60035549610271 207.20000000000002,-111.21353804746906 207.6,-111.82494985118622 208.0,-112.43449435824276 208.4,-113.04207531449487 208.8,-113.64759677586629 209.20000000000002,-114.25096312349882 209.60000000000002,-114.85207907885174 210.0,-115.45084971874735 210.4,-116.04718049036046 210.8,-116.64097722614933 211.20000000000002,-117.23214615872587 211.60000000000002,-117.82059393566254 212.0,-118.40622763423391 212.4,-118.98895477609005 212.8,-119.56868334186015 213.20000000000002,-120.14532178568311 213.60000000000002,-120.71877904966419 214.0,-121.28896457825363 214.4,-121.85578833254664 214.8,-122.41916080450162 215.20000000000002,-122.9789930310744 215.60000000000002,-123.53519660826663 216.0,-124.08768370508578 216.4,-124.63636707741462 216.8,-125.18116008178804 217.20000000000002,-125.72197668907532 217.60000000000002,-126.25873149806479 218.00000000000003,-126.79133974894982 218.4,-127.31971733671345 218.8,-127.84378082440941 219.20000000000002,-128.36344745633787 219.60000000000002,-128.87863517111342 220.00000000000003,-129.38926261462368 220.4,-129.89524915287598 220.8,-130.39651488473027 221.20000000000002,-130.89298065451672 221.60000000000002,-131.38456806453502 222.00000000000003,-131.87119948743452 222.40000000000003,-132.3527980784722 222.8,-132.82928778764784 223.20000000000002,-133.3005933717126 223.60000000000002,-133.76664040605124 224.00000000000003,-134.22735529643447 224.40000000000003,-134.68266529064022 224.8,-135.13249848994246 225.2,-135.57678386046425 225.59999999999997,-136.0154512443953 225.99999999999997,-136.44843137107054 226.39999999999998,-136.87565586790865 226.79999999999998,-137.29705727120907 227.2,-137.71256903680515 227.59999999999997,-138.12212555057238 227.99999999999997,-138.52566213878944 228.39999999999998,-138.92311507835115 228.79999999999998,-139.3144216068309 229.2,-139.69951993239175 229.6,-140.07834924354378 229.99999999999997,-140.45084971874732 230.39999999999998,-140.81696253585915 230.79999999999998,-141.17662988142135 231.2,-141.5297949597906 231.6,-141.87640200210708 231.99999999999997,-142.21639627510075 232.39999999999998,-142.54972408973458 232.79999999999998,-142.87633280968262 233.2,-143.19617085964177 233.6,-143.50918773347627 234.0,-143.81533400219314 234.39999999999998,-144.11456132174763 234.79999999999998,-144.4068224406772 235.2,-144.69207120756317 235.6,-144.97026257831854 236.0,-145.24135262330097 236.39999999999998,-145.5052985342498 236.79999999999998,-145.76205863104587 237.2,-146.01159236829352 237.6,-146.25386034172288 238.0,-146.48882429441255 238.39999999999998,-146.71644712283057 238.79999999999998,-146.93669288269368 239.2,-147.1495267946432 239.6,-147.3549152497372 240.0,-147.55282581475768 240.39999999999998,-147.74322723733215 240.79999999999998,-147.92608945086877 241.2,-148.10138357930427 241.6,-148.2690819416637 242.0,-148.42915805643156 242.4,-148.5815866457337 242.79999999999998,-148.72634363932886 243.2,-148.86340617840966 243.6,-148.99275261921235 244.0,-149.11436253643444 244.4,-149.22821672646026 244.79999999999998,-149.3342972103934 245.2,-149.4325872368957 245.6,-149.52307128483255 246.0,-149.60573506572388 246.4,-149.6805655260004 246.8,-149.74755084906502 247.2,-149.80668045715862 247.6,-149.8579450130307 248.0,-149.9013364214136 248.4,-149.93684783030088 248.8,-149.96447363202944 249.2,-149.984209464165 249.6,-149.9960522101908 250.0,-150.0 250.4,-149.9960522101908 250.8,-149.984209464165 251.2,-149.96447363202944 251.6,-149.93684783030088 252.0,-149.9013364214136 252.4,-149.8579450130307 252.8,-149.80668045715862 253.2,-149.74755084906502 253.6,-149.6805655260004 254.0,-149.6057350657239 254.4,-149.52307128483255 254.8,-149.4325872368957 255.20000000000002,-149.3342972103934 255.6,-149.22821672646026 256.0,-149.11436253643444 256.4,-148.99275261921235 256.80000000000007,-148.86340617840966 257.2,-148.72634363932886 257.59999999999997,-148.5815866457337 258.0,-148.42915805643156 258.40000000000003,-148.2690819416637 258.8,-148.1013835793043 259.2,-147.9260894508688 259.6,-147.74322723733215 260.0,-147.55282581475768 260.40000000000003,-147.3549152497372 260.8,-147.1495267946432 261.2,-146.9366928826937 261.6,-146.7164471228306 262.0,-146.48882429441258 262.40000000000003,-146.25386034172288 262.8,-146.01159236829352 263.2,-145.76205863104587 263.6,-145.5052985342498 264.0,-145.24135262330097 264.40000000000003,-144.97026257831857 264.80000000000007,-144.69207120756317 265.2,-144.40682244067722 265.59999999999997,-144.1145613217477 266.0,-143.81533400219317 266.40000000000003,-143.5091877334763 266.8,-143.19617085964177 267.2,-142.87633280968262 267.6,-142.54972408973458 268.0,-142.21639627510078 268.40000000000003,-141.87640200210706 268.8,-141.52979495979065 269.2,-141.17662988142138 269.6,-140.81696253585918 270.0,-140.45084971874738 270.40000000000003,-140.0783492435438 270.8,-139.69951993239178 271.20000000000005,-139.3144216068309 271.6,-138.92311507835115 272.00000000000006,-138.52566213878944 272.40000000000003,-138.12212555057238 272.79999999999995,-137.7125690368052 273.20000000000005,-137.2970572712091 273.6,-136.8756558679087 274.0,-136.44843137107054 274.40000000000003,-136.01545124439536 274.8,-135.57678386046425 275.2,-135.13249848994252 275.59999999999997,-134.68266529064027 276.0,-134.22735529643447 276.4,-133.76664040605124 276.79999999999995,-133.3005933717126 277.20000000000005,-132.82928778764784 277.59999999999997,-132.35279807847226 277.99999999999994,-131.87119948743455 278.4,-131.38456806453505 278.79999999999995,-130.89298065451678 279.2,-130.3965148847303 279.59999999999997,-129.895249152876 280.0,-129.38926261462368 280.4,-128.87863517111342 280.8,-128.36344745633784 281.2,-127.84378082440944 281.59999999999997,-127.31971733671352 282.0,-126.79133974894987 282.4,-126.25873149806486 282.8,-125.72197668907535 283.2,-125.18116008178811 283.59999999999997,-124.63636707741459 284.0,-124.0876837050858 284.40000000000003,-123.53519660826663 284.8,-122.97899303107442 285.19999999999993,-122.41916080450169 285.59999999999997,-121.85578833254667 286.0,-121.28896457825368 286.4,-120.7187790496642 286.8,-120.14532178568318 287.2,-119.56868334186012 287.59999999999997,-118.98895477609011 288.0,-118.4062276342339 288.4,-117.82059393566259 288.8,-117.23214615872583 289.2,-116.64097722614936 289.59999999999997,-116.04718049036053 290.0,-115.45084971874739 290.4,-114.8520790788518 290.8,-114.2509631234988 291.2,-113.6475967758663 291.59999999999997,-113.04207531449484 292.0,-112.43449435824277 292.40000000000003,-111.82494985118622 292.8,-111.21353804746907 293.19999999999993,-110.60035549610278 293.6,-109.98549902572037 294.0,-109.36906572928629 294.4,-108.7511529487638 294.8,-108.13185825974423 295.2,-107.51127945603785 295.6,-106.88951453423195 296.00000000000006,-106.2666616782152 296.4,-105.64281924367413 296.79999999999995,-105.0180857425608 297.2,-104.39255982753717 297.6,-103.76634027639668 298.0,-103.13952597646568 298.4,-102.51221590898852 298.8,-101.8845091334967 299.2,-101.25650477216689 299.6,-100.62830199416761 300.0,-100.00000000000003 300.4,-99.37169800583244 300.8,-98.74349522783312 301.2,-98.11549086650331 301.6,-97.48778409101152 302.0,-96.86047402353437 302.4,-96.23365972360334 302.8,-95.60744017246287 303.20000000000005,-94.98191425743923 303.6,-94.35718075632593 303.99999999999994,-93.73333832178484 304.4,-93.11048546576811 304.8,-92.48872054396219 305.2,-91.86814174025581 305.6,-91.24884705123623 306.0,-90.63093427071375 306.4,-90.01450097427968 306.80000000000007,-89.39964450389724 307.2,-88.78646195253094 307.59999999999997,-88.17505014881381 308.0,-87.56550564175727 308.40000000000003,-86.95792468550519 308.8,-86.35240322413372 309.2,-85.74903687650121 309.6,-85.14792092114824 310.0,-84.54915028125265 310.40000000000003,-83.9528195096395 310.8,-83.35902277385068 311.2,-82.76785384127419 311.6,-82.17940606433747 312.0,-81.59377236576614 312.40000000000003,-81.01104522390995 312.8,-80.4313166581399 313.2,-79.85467821431685 313.6,-79.28122095033581 314.0,-78.71103542174633 314.40000000000003,-78.14421166745336 314.80000000000007,-77.58083919549834 315.2,-77.0210069689256 315.59999999999997,-76.4648033917334 316.0,-75.91231629491422 316.40000000000003,-75.36363292258544 316.8,-74.81883991821194 317.2,-74.2780233109247 317.6,-73.7412685019352 318.0,-73.20866025105018 318.40000000000003,-72.6802826632865 318.8,-72.15621917559059 319.2,-71.6365525436622 319.6,-71.1213648288866 320.0,-70.61073738537635 320.40000000000003,-70.10475084712404 320.8,-69.60348511526973 321.20000000000005,-69.10701934548325 321.6,-68.61543193546497 322.00000000000006,-68.12880051256548 322.40000000000003,-67.64720192152778 322.79999999999995,-67.1707122123522 323.20000000000005,-66.69940662828739 323.6,-66.23335959394879 324.0,-65.77264470356553 324.40000000000003,-65.31733470935976 324.8,-64.86750151005751 325.2,-64.42321613953578 325.59999999999997,-63.98454875560467 326.0,-63.55156862892948 326.4,-63.124344132091316 326.79999999999995,-62.70294272879093 327.20000000000005,-62.28743096319482 327.59999999999997,-61.87787444942764 327.99999999999994,-61.47433786121059 328.4,-61.076884921648855 328.79999999999995,-60.6855783931691 329.2,-60.300480067608255 329.59999999999997,-59.921650756456216 330.0,-59.549150281252636 330.4,-59.183037464140845 330.8,-58.82337011857863 331.2,-58.47020504020939 331.59999999999997,-58.12359799789296 332.0,-57.783603724899265 332.4,-57.45027591026545 332.8,-57.12366719031741 333.2,-56.80382914035826 333.59999999999997,-56.490812266523726 334.0,-56.184665997806846 334.40000000000003,-55.88543867825234 334.8,-55.5931775593228 335.19999999999993,-55.30792879243685 335.59999999999997,-55.029737421681475 336.0,-54.75864737669906 336.4,-54.49470146575023 336.8,-54.23794136895415 337.2,-53.988407631706494 337.59999999999997,-53.74613965827712 338.0,-53.511175705587426 338.4,-53.28355287716942 338.8,-53.063307117306294 339.2,-52.850473205356785 339.59999999999997,-52.64508475026281 340.0,-52.44717418524233 340.4,-52.25677276266787 340.8,-52.073910549131206 341.2,-51.89861642069572 341.59999999999997,-51.73091805833631 342.0,-51.570841943568446 342.40000000000003,-51.4184133542663 342.8,-51.27365636067115 343.19999999999993,-51.136593821590345 343.6,-51.00724738078765 344.0,-50.88563746356559 344.4,-50.77178327353973 344.8,-50.6657027896066 345.2,-50.5674127631043 345.6,-50.476928715167446 346.00000000000006,-50.394264934276094 346.4,-50.319434473999586 346.79999999999995,-50.25244915093499 347.2,-50.19331954284138 347.6,-50.142054986969306 348.0,-50.09866357858642 348.4,-50.063152169699116 348.8,-50.03552636797054 349.2,-50.01579053583501 349.6,-50.00394778980919 350.0,-50.0 350.4,-50.00394778980919 350.8,-50.01579053583501 351.2,-50.035526367970526 351.6,-50.063152169699116 352.0,-50.09866357858642 352.4,-50.142054986969306 352.8,-50.19331954284137 353.20000000000005,-50.25244915093499 353.6,-50.319434473999586 353.99999999999994,-50.394264934276094 354.4,-50.476928715167446 354.8,-50.567412763104294 355.2,-50.6657027896066 355.6,-50.77178327353973 356.0,-50.885637463565565 356.4,-51.00724738078765 356.80000000000007,-51.13659382159033 357.2,-51.27365636067114 357.59999999999997,-51.41841335426629 358.0,-51.570841943568446 358.40000000000003,-51.73091805833629 358.8,-51.89861642069571 359.2,-52.0739105491312 359.6,-52.25677276266786 360.0,-52.44717418524232 360.40000000000003,-52.6450847502628 360.8,-52.85047320535677 361.2,-53.06330711730628 361.6,-53.28355287716939 362.0,-53.51117570558741 362.40000000000003,-53.7461396582771 362.8,-53.988407631706465 363.2,-54.237941368954125 363.6,-54.494701465750204 364.0,-54.75864737669904 364.40000000000003,-55.029737421681446 364.80000000000007,-55.30792879243682 365.2,-55.593177559322775 365.59999999999997,-55.88543867825232 366.0,-56.18466599780683 366.40000000000003,-56.490812266523704 366.8,-56.80382914035824 367.2,-57.123667190317384 367.6,-57.450275910265425 368.0,-57.78360372489923 368.40000000000003,-58.123597997892944 368.8,-58.470205040209365 369.2,-58.823370118578616 369.6,-59.18303746414082 370.0,-59.549150281252615 370.40000000000003,-59.92165075645619 370.8,-60.30048006760822 371.20000000000005,-60.68557839316908 371.6,-61.076884921648826 372.00000000000006,-61.474337861210564 372.40000000000003,-61.8778744494276 372.79999999999995,-62.28743096319479 373.20000000000005,-62.70294272879091 373.6,-63.124344132091295 374.0,-63.551568628929445 374.40000000000003,-63.98454875560464 374.8,-64.42321613953577 375.2,-64.86750151005748 375.59999999999997,-65.31733470935971 376.0,-65.7726447035655 376.4,-66.23335959394876 376.79999999999995,-66.69940662828738 377.20000000000005,-67.17071221235217 377.59999999999997,-67.64720192152775 377.99999999999994,-68.12880051256545 378.4,-68.61543193546494 378.79999999999995,-69.10701934548322 379.2,-69.6034851152697 379.59999999999997,-70.104750847124 380.0,-70.61073738537634 380.4,-71.12136482888657 380.8,-71.63655254366216 381.2,-72.15621917559056 381.59999999999997,-72.68028266328648 382.0,-73.20866025105012 382.4,-73.74126850193514 382.8,-74.27802331092465 383.2,-74.81883991821189 383.59999999999997,-75.36363292258541 384.0,-75.91231629491419 384.40000000000003,-76.46480339173335 384.8,-77.02100696892558 385.19999999999993,-77.58083919549831 385.59999999999997,-78.14421166745333 386.0,-78.7110354217463 386.4,-79.28122095033576 386.8,-79.85467821431682 387.2,-80.43131665813986 387.59999999999997,-81.01104522390989 388.0,-81.59377236576609 388.4,-82.17940606433743 388.8,-82.76785384127416 389.2,-83.35902277385063 389.59999999999997,-83.95281950963945 390.0,-84.5491502812526 390.4,-85.14792092114818 390.8,-85.74903687650118 391.2,-86.3524032241337 391.59999999999997,-86.95792468550515 392.0,-87.56550564175723 392.40000000000003,-88.17505014881377 392.8,-88.78646195253091 393.19999999999993,-89.3996445038972 393.6,-90.01450097427963 394.0,-90.63093427071372 394.4,-91.2488470512362 394.8,-91.86814174025578 395.2,-92.48872054396215 395.6,-93.11048546576805 396.00000000000006,-93.7333383217848 396.4,-94.35718075632589 396.79999999999995,-94.98191425743919 397.2,-95.60744017246282 397.6,-96.23365972360331 398.0,-96.86047402353434 398.4,-97.48778409101148 398.8,-98.11549086650328 399.2,-98.7434952278331 399.6,-99.37169800583239 400.0,-99.99999999999997" stroke="red" stroke-width="2.0"/><g><g><line fill="none" stroke="black" x1="-8.0" x2="408.0" y1="0.0" y2="0.0"/><polyline fill="black" points="408.0,-5.0 408.0,5.0 424.0,0.0" stroke="none"/><line fill="none" stroke="black" x1="31.83098861837907" x2="31.83098861837907" y1="-3.0" y2="3.0"/><line fill="none" stroke="black" x1="63.66197723675814" x2="63.66197723675814" y1="-3.0" y2="3.0"/><line fill="none" stroke="black" x1="95.4929658551372" x2="95.4929658551372" y1="-3.0" y2="3.0"/><line fill="none" stroke="black" x1="127.32395447351628" x2="127.32395447351628" y1="-3.0" y2="3.0"/><line fill="none" stroke="black" x1="159.15494309189535" x2="159.15494309189535" y1="-3.0" y2="3.0"/><line fill="none" stroke="black" x1="190.9859317102744" x2="190.9859317102744" y1="-3.0" y2="3.0"/><line fill="none" stroke="black" x1="222.8169203286535" x2="222.8169203286535" y1="-3.0" y2="3.0"/><line fill="none" stroke="black" x1="254.64790894703256" x2="254.64790894703256" y1="-3.0" y2="3.0"/><line fill="none" stroke="black" x1="286.4788975654116" x2="286.4788975654116" y1="-3.0" y2="3.0"/><line fill="none" stroke="black" x1="318.3098861837907" x2="318.3098861837907" y1="-3.0" y2="3.0"/><line fill="none" stroke="black" x1="350.1408748021698" x2="350.1408748021698" y1="-3.0" y2="3.0"/><line fill="none" stroke="black" x1="381.9718634205488" x2="381.9718634205488" y1="-3.0" y2="3.0"/><text dominant-baseline="middle" fill="black" stroke="none" text-anchor="middle" x="31.83098861837907" y="14.0">1</text><text dominant-baseline="middle" fill="black" stroke="none" text-anchor="middle" x="63.66197723675814" y="14.0">2</text><text dominant-baseline="middle" fill="black" stroke="none" text-anchor="middle" x="95.4929658551372" y="14.0">3</text><text dominant-baseline="middle" fill="black" stroke="none" text-anchor="middle" x="127.32395447351628" y="14.0">4</text><text dominant-baseline="middle" fill="black" stroke="none" text-anchor="middle" x="159.15494309189535" y="14.0">5</text><text dominant-baseline="middle" fill="black" stroke="none" text-anchor="middle" x="190.9859317102744" y="14.0">6</text><text dominant-baseline="middle" fill="black" stroke="none" text-anchor="middle" x="222.8169203286535" y="14.0">7</text><text dominant-baseline="middle" fill="black" stroke="none" text-anchor="middle" x="254.64790894703256" y="14.0">8</text><text dominant-baseline="middle" fill="black" stroke="none" text-anchor="middle" x="286.4788975654116" y="14.0">9</text><text dominant-baseline="middle" fill="black" stroke="none" text-anchor="middle" x="318.3098861837907" y="14.0">10</text><text dominant-baseline="middle" fill="black" stroke="none" text-anchor="middle" x="350.1408748021698" y="14.0">11</text><text dominant-baseline="middle" fill="black" stroke="none" text-anchor="middle" x="381.9718634205488" y="14.0">12</text></g><g><line fill="none" stroke="black" x1="0.0" x2="0.0" y1="8.0" y2="-308.0"/><polyline fill="black" points="-5.0,-308.0 5.0,-308.0 0.0,-324.0" stroke="none"/><line fill="none" stroke="black" x1="-3.0" x2="3.0" y1="-50.0" y2="-50.0"/><line fill="none" stroke="black" x1="-3.0" x2="3.0" y1="-100.0" y2="-100.0"/><line fill="none" stroke="black" x1="-3.0" x2="3.0" y1="-150.0" y2="-150.0"/><line fill="none" stroke="black" x1="-3.0" x2="3.0" y1="-200.0" y2="-200.0"/><line fill="none" stroke="black" x1="-3.0" x2="3.0" y1="-250.0" y2="-250.0"/><line fill="none" stroke="black" x1="-3.0" x2="3.0" y1="-300.0" y2="-300.0"/><text dominant-baseline="middle" fill="black" stroke="none" text-anchor="middle" x="-10.0" y="-50.0">1</text><text dominant-baseline="middle" fill="black" stroke="none" text-anchor="middle" x="-10.0" y="-100.0">2</text><text dominant-baseline="middle" fill="black" stroke="none" text-anchor="middle" x="-10.0" y="-150.0">3</text><text dominant-baseline="middle" fill="black" stroke="none" text-anchor="middle" x="-10.0" y="-200.0">4</text><text dominant-baseline="middle" fill="black" stroke="none" text-anchor="middle" x="-10.0" y="-250.0">5</text><text dominant-baseline="middle" fill="black" stroke="none" text-anchor="middle" x="-10.0" y="-300.0">6</text></g><text dominant-baseline="middle" fill="black" stroke="none" text-anchor="middle" x="-10.0" y="14.0">0</text></g></g></svg>