<svg xmlns="http://www.w3.org/2000/svg" height="380.0" width="480.0"><g transform="translate(40.0, 340.0)"><polyline fill="none" points="0.0,-250.0 0.4,-250.62435420435847 0.8,-251.24071423633188 1.2,-251.8489827655262 1.6,-252.4490637392893 2.0,-253.04086239787924 2.4,-253.62428528942732 2.8000000000000003,-254.1992402846958 3.2,-254.76563659162576 3.5999999999999996,-255.32338476967453 4.0,-255.87239674393913 4.3999999999999995,-256.4125858190644 4.8,-256.94386669293357 5.2,-257.4661554701376 5.6000000000000005,-257.97936967522406 6.0,-258.4834282657207 6.4,-258.9782516449327 6.800000000000001,-259.4637616745124 7.199999999999999,-259.93988168679795 7.6,-260.40653649691995 8.0,-260.8636524146743 8.4,-261.3111572561586 8.799999999999999,-261.74898035517054 9.2,-262.17705257436756 9.6,-262.59530631618395 10.0,-263.0036755335051 10.4,-263.40209574009765 10.8,-263.7905040207925 11.200000000000001,-264.1688390414196 11.600000000000001,-264.5370410584931 12.0,-264.89505192864647 12.399999999999999,-265.24281511781294 12.8,-265.58027571015367 13.200000000000001,-265.90738041672904 13.600000000000001,-266.224077583914 14.000000000000002,-266.5303172015546 14.399999999999999,-266.8260509108652 14.799999999999999,-267.1112320120648 15.2,-267.38581547175164 15.6,-267.6497579300143 16.0,-267.90301770727893 16.400000000000002,-268.14555481089087 16.8,-268.3773309414298 17.2,-268.59830949875794 17.599999999999998,-268.80845558779936 18.0,-269.0077360240506 18.4,-269.19611933882055 18.8,-269.3735757842 19.2,-269.5400773377592 19.6,-269.69559770697253 20.0,-269.84011233337105 20.4,-269.9735983964198 20.8,-270.0960348171221 21.2,-270.2074022613477 21.6,-270.3076831428862 22.0,-270.3968616262239 22.400000000000002,-270.4749236290446 22.800000000000004,-270.541856824453 23.200000000000003,-270.5976506429217 23.599999999999998,-270.6422962739599 24.0,-270.675786667505 24.4,-270.6981165350356 24.799999999999997,-270.70928235040674 25.2,-270.70928235040674 25.6,-270.6981165350356 26.0,-270.675786667505 26.400000000000002,-270.6422962739599 26.8,-270.5976506429217 27.200000000000003,-270.541856824453 27.6,-270.4749236290446 28.000000000000004,-270.3968616262239 28.4,-270.3076831428862 28.799999999999997,-270.2074022613477 29.2,-270.096034817122 29.599999999999998,-269.9735983964198 30.0,-269.84011233337105 30.4,-269.69559770697253 30.8,-269.5400773377592 31.2,-269.37357578420006 31.6,-269.19611933882055 32.0,-269.0077360240506 32.4,-268.80845558779936 32.800000000000004,-268.59830949875794 33.199999999999996,-268.3773309414298 33.6,-268.14555481089087 34.00000000000001,-267.90301770727893 34.4,-267.6497579300143 34.8,-267.38581547175164 35.199999999999996,-267.1112320120648 35.6,-266.8260509108652 36.0,-266.5303172015546 36.4,-266.224077583914 36.8,-265.90738041672904 37.2,-265.58027571015367 37.6,-265.24281511781294 37.99999999999999,-264.89505192864647 38.4,-264.5370410584931 38.800000000000004,-264.1688390414196 39.2,-263.7905040207925 39.6,-263.40209574009765 40.0,-263.0036755335051 40.400000000000006,-262.5953063161839 40.8,-262.17705257436756 41.199999999999996,-261.74898035517054 41.6,-261.3111572561586 42.0,-260.86365241467433 42.4,-260.40653649691995 42.800000000000004,-259.93988168679795 43.2,-259.4637616745124 43.6,-258.9782516449327 44.0,-258.4834282657207 44.4,-257.97936967522406 44.800000000000004,-257.4661554701376 45.2,-256.94386669293357 45.60000000000001,-256.4125858190644 46.0,-255.87239674393913 46.400000000000006,-255.3233847696745 46.800000000000004,-254.76563659162576 47.199999999999996,-254.1992402846958 47.6,-253.62428528942732 48.0,-253.04086239787924 48.4,-252.4490637392894 48.8,-251.8489827655262 49.2,-251.24071423633188 49.599999999999994,-250.62435420435847 50.0,-250.0 50.4,-249.36775021602315 50.8,-248.72770469199816 51.2,-248.07996449853272 51.6,-247.42463192131243 52.0,-246.76181044494794 52.400000000000006,-246.09160473663408 52.800000000000004,-245.41412062962146 53.2,-244.72946510650425 53.6,-244.03774628232634 54.0,-243.33907338750868 54.400000000000006,-242.63355675060066 54.800000000000004,-241.92130778085783 55.2,-241.20243895064922 55.60000000000001,-240.47706377769646 56.00000000000001,-239.7452968071482 56.39999999999999,-239.007253593492 56.8,-238.26305068230695 57.199999999999996,-237.51280559185977 57.599999999999994,-236.7566367945475 57.99999999999999,-235.99466369818884 58.4,-235.22700662716883 58.8,-234.45378680343802 59.199999999999996,-233.67512632737 59.599999999999994,-232.89114815848043 60.0,-232.1019760960103 60.4,-231.30773475937679 60.8,-230.5085495684939 61.199999999999996,-229.70454672396787 61.6,-228.8958531871681 62.0,-228.08259666017867 62.4,-227.26490556563283 62.8,-226.44290902643334 63.2,-225.61673684536274 63.6,-224.78651948458557 64.0,-223.95238804504737 64.39999999999999,-223.11447424577193 64.8,-222.2729104030616 65.2,-221.42782940960288 65.60000000000001,-220.57936471348106 66.0,-219.72765029710743 66.39999999999999,-218.87282065606172 66.8,-218.01501077785375 67.2,-217.1543561206073 67.60000000000001,-216.29099259166978 68.00000000000001,-215.42505652615088 68.4,-214.55668466539365 68.8,-213.68601413538124 69.19999999999999,-212.81318242508357 69.6,-211.93832736474585 70.0,-211.06158710412376 70.39999999999999,-210.18310009066792 70.8,-209.30300504766154 71.2,-208.42144095231424 71.6,-207.53854701381616 72.0,-206.65446265135498 72.39999999999999,-205.76932747210017 72.8,-204.88328124915736 73.2,-203.99646389949655 73.6,-203.10901546185747 74.00000000000001,-202.22107607463613 74.4,-201.33278595375512 74.8,-200.4442853705218 75.2,-199.5557146294782 75.6,-198.66721404624488 75.99999999999999,-197.77892392536387 76.4,-196.89098453814253 76.8,-196.00353610050348 77.2,-195.1167187508426 77.60000000000001,-194.23067252789983 78.0,-193.34553734864502 78.4,-192.46145298618384 78.8,-191.5785590476858 79.2,-190.6969949523385 79.60000000000001,-189.8168999093321 80.0,-188.9384128958763 80.4,-188.06167263525418 80.80000000000001,-187.18681757491643 81.2,-186.31398586461876 81.6,-185.44331533460638 81.99999999999999,-184.5749434738491 82.39999999999999,-183.70900740833022 82.8,-182.84564387939272 83.2,-181.98498922214625 83.60000000000001,-181.1271793439383 84.0,-180.27234970289263 84.39999999999999,-179.42063528651897 84.8,-178.57217059039718 85.2,-177.7270895969384 85.60000000000001,-176.8855257542281 86.0,-176.04761195495269 86.4,-175.21348051541443 86.8,-174.38326315463723 87.2,-173.5570909735666 87.6,-172.73509443436714 88.0,-171.91740333982133 88.4,-171.1041468128319 88.8,-170.29545327603213 89.20000000000002,-169.4914504315061 89.60000000000001,-168.69226524062327 90.0,-167.8980239039897 90.4,-167.1088518415196 90.8,-166.32487367263 91.20000000000002,-165.54621319656195 91.60000000000001,-164.77299337283114 92.0,-164.00533630181118 92.4,-163.24336320545254 92.80000000000001,-162.4871944081402 93.19999999999999,-161.73694931769307 93.60000000000001,-160.992746406508 94.0,-160.25470319285182 94.39999999999999,-159.52293622230354 94.8,-158.79756104935078 95.2,-158.07869221914217 95.6,-157.36644324939937 96.0,-156.66092661249132 96.39999999999999,-155.96225371767366 96.8,-155.27053489349575 97.2,-154.58587937037854 97.6,-153.90839526336595 98.0,-153.2381895550521 98.4,-152.5753680786876 98.8,-151.92003550146728 99.19999999999999,-151.2722953080019 99.6,-150.63224978397682 100.0,-150.0 100.4,-149.37564579564156 100.8,-148.75928576366812 101.2,-148.1510172344738 101.6,-147.55093626071064 102.0,-146.95913760212076 102.4,-146.37571471057268 102.8,-145.80075971530425 103.2,-145.23436340837424 103.60000000000001,-144.67661523032552 104.0,-144.1276032560609 104.4,-143.58741418093555 104.80000000000001,-143.05613330706646 105.2,-142.53384452986242 105.60000000000001,-142.0206303247759 106.0,-141.51657173427932 106.4,-141.0217483550673 106.80000000000001,-140.5362383254876 107.2,-140.06011831320205 107.60000000000001,-139.59346350308007 108.0,-139.1363475853257 108.4,-138.6888427438415 108.80000000000001,-138.25101964482946 109.2,-137.8229474256324 109.60000000000001,-137.40469368381608 110.00000000000001,-136.99632446649494 110.4,-136.59790425990232 110.80000000000001,-136.20949597920747 111.20000000000002,-135.83116095858043 111.60000000000001,-135.46295894150683 112.00000000000001,-135.1049480713535 112.4,-134.75718488218703 112.79999999999998,-134.41972428984636 113.19999999999999,-134.09261958327102 113.6,-133.77592241608602 113.99999999999999,-133.4696827984454 114.39999999999999,-133.17394908913482 114.8,-132.88876798793524 115.19999999999999,-132.6141845282484 115.6,-132.3502420699857 115.99999999999999,-132.09698229272107 116.39999999999999,-131.85444518910913 116.8,-131.6226690585702 117.19999999999999,-131.4016905012421 117.6,-131.1915444122006 118.0,-130.9922639759494 118.39999999999999,-130.80388066117945 118.8,-130.62642421579997 119.19999999999999,-130.4599226622408 119.6,-130.3044022930274 120.0,-130.15988766662898 120.39999999999999,-130.02640160358024 120.8,-129.90396518287798 121.2,-129.79259773865235 121.6,-129.6923168571138 122.0,-129.60313837377603 122.39999999999999,-129.5250763709554 122.8,-129.458143175547 123.2,-129.4023493570783 123.6,-129.35770372604009 124.0,-129.324213332495 124.4,-129.30188346496442 124.8,-129.29071764959326 125.2,-129.29071764959326 125.6,-129.30188346496442 126.0,-129.324213332495 126.4,-129.35770372604009 126.8,-129.4023493570783 127.2,-129.458143175547 127.60000000000001,-129.5250763709554 128.0,-129.60313837377603 128.40000000000003,-129.6923168571138 128.79999999999998,-129.79259773865235 129.20000000000002,-129.90396518287793 129.6,-130.02640160358024 130.0,-130.15988766662898 130.4,-130.3044022930274 130.8,-130.4599226622408 131.20000000000002,-130.62642421579997 131.6,-130.80388066117945 132.0,-130.9922639759494 132.40000000000003,-131.1915444122006 132.79999999999998,-131.40169050124206 133.20000000000002,-131.62266905857018 133.6,-131.85444518910913 134.0,-132.09698229272107 134.4,-132.3502420699857 134.8,-132.6141845282484 135.20000000000002,-132.8887679879352 135.60000000000002,-133.17394908913482 136.00000000000003,-133.4696827984454 136.39999999999998,-133.775922416086 136.8,-134.092619583271 137.20000000000002,-134.41972428984633 137.6,-134.75718488218703 138.0,-135.1049480713535 138.39999999999998,-135.46295894150683 138.79999999999998,-135.83116095858043 139.2,-136.20949597920745 139.6,-136.5979042599023 140.0,-136.99632446649494 140.4,-137.40469368381608 140.79999999999998,-137.82294742563238 141.2,-138.2510196448294 141.6,-138.68884274384143 142.0,-139.1363475853257 142.4,-139.59346350308007 142.79999999999998,-140.06011831320205 143.2,-140.53623832548757 143.6,-141.0217483550673 144.0,-141.51657173427932 144.4,-142.0206303247759 144.79999999999998,-142.53384452986236 145.2,-143.05613330706643 145.6,-143.58741418093553 146.0,-144.12760325606087 146.4,-144.6766152303255 146.8,-145.23436340837424 147.2,-145.80075971530422 147.6,-146.37571471057268 148.00000000000003,-146.95913760212076 148.39999999999998,-147.5509362607106 148.8,-148.15101723447378 149.2,-148.75928576366812 149.6,-149.37564579564153 150.0,-150.0 150.4,-150.63224978397682 150.8,-151.2722953080019 151.2,-151.92003550146728 151.60000000000002,-152.5753680786876 151.99999999999997,-153.2381895550521 152.4,-153.90839526336592 152.8,-154.58587937037854 153.2,-155.27053489349572 153.6,-155.96225371767366 154.0,-156.6609266124913 154.4,-157.36644324939934 154.8,-158.07869221914217 155.20000000000002,-158.79756104935078 155.6,-159.5229362223035 156.0,-160.25470319285176 156.4,-160.992746406508 156.8,-161.73694931769305 157.20000000000002,-162.4871944081402 157.6,-163.24336320545254 158.0,-164.00533630181118 158.4,-164.77299337283117 158.8,-165.546213196562 159.20000000000002,-166.32487367263005 159.6,-167.1088518415196 160.0,-167.8980239039897 160.4,-168.69226524062324 160.8,-169.4914504315061 161.20000000000002,-170.29545327603213 161.60000000000002,-171.10414681283197 162.0,-171.91740333982133 162.4,-172.7350944343672 162.79999999999998,-173.55709097356657 163.2,-174.38326315463723 163.60000000000002,-175.2134805154144 163.99999999999997,-176.0476119549526 164.39999999999998,-176.885525754228 164.79999999999998,-177.72708959693838 165.2,-178.5721705903971 165.6,-179.42063528651892 166.0,-180.27234970289254 166.4,-181.12717934393828 166.79999999999998,-181.98498922214625 167.20000000000002,-182.84564387939272 167.59999999999997,-183.70900740833014 168.0,-184.57494347384903 168.4,-185.4433153346063 168.79999999999998,-186.31398586461873 169.2,-187.1868175749164 169.6,-188.06167263525413 170.0,-188.9384128958763 170.4,-189.8168999093321 170.79999999999998,-190.6969949523385 171.20000000000002,-191.5785590476858 171.59999999999997,-192.4614529861838 172.0,-193.345537348645 172.4,-194.2306725278998 172.8,-195.1167187508426 173.2,-196.00353610050348 173.6,-196.8909845381425 174.0,-197.77892392536387 174.4,-198.6672140462449 174.8,-199.5557146294782 175.2,-200.44428537052178 175.6,-201.33278595375506 176.0,-202.22107607463613 176.4,-203.10901546185747 176.8,-203.99646389949655 177.2,-204.88328124915736 177.6,-205.76932747210017 178.0,-206.65446265135498 178.40000000000003,-207.53854701381616 178.79999999999998,-208.42144095231419 179.20000000000002,-209.3030050476615 179.6,-210.18310009066792 180.0,-211.0615871041237 180.4,-211.93832736474582 180.8,-212.81318242508354 181.20000000000002,-213.68601413538124 181.6,-214.55668466539365 182.0,-215.42505652615094 182.40000000000003,-216.29099259166986 182.79999999999998,-217.15435612060728 183.20000000000002,-218.01501077785372 183.6,-218.8728206560617 184.0,-219.72765029710743 184.4,-220.57936471348106 184.8,-221.42782940960288 185.20000000000002,-222.2729104030616 185.60000000000002,-223.11447424577193 186.00000000000003,-223.95238804504737 186.39999999999998,-224.78651948458557 186.8,-225.61673684536274 187.20000000000002,-226.44290902643334 187.6,-227.2649055656328 188.0,-228.08259666017864 188.39999999999998,-228.89585318716803 188.79999999999998,-229.70454672396778 189.2,-230.50854956849386 189.6,-231.3077347593767 190.0,-232.1019760960103 190.4,-232.89114815848038 190.79999999999998,-233.67512632736995 191.2,-234.453786803438 191.6,-235.2270066271688 192.0,-235.9946636981888 192.4,-236.7566367945474 192.79999999999998,-237.51280559185977 193.2,-238.26305068230695 193.6,-239.007253593492 194.0,-239.7452968071482 194.4,-240.47706377769646 194.79999999999998,-241.20243895064917 195.2,-241.92130778085783 195.6,-242.6335567506006 196.0,-243.33907338750862 196.4,-244.0377462823263 196.8,-244.72946510650425 197.2,-245.41412062962146 197.6,-246.09160473663403 198.00000000000003,-246.76181044494794 198.39999999999998,-247.42463192131234 198.8,-248.07996449853266 199.2,-248.7277046919981 199.6,-249.36775021602315 200.0,-250.0 200.4,-250.6243542043584 200.8,-251.24071423633188 201.2,-251.8489827655262 201.6,-252.4490637392894 202.0,-253.0408623978792 202.4,-253.62428528942732 202.8,-254.1992402846958 203.2,-254.76563659162574 203.6,-255.3233847696745 204.0,-255.87239674393913 204.4,-256.4125858190644 204.8,-256.94386669293357 205.20000000000002,-257.4661554701376 205.6,-257.979369675224 206.0,-258.4834282657207 206.4,-258.9782516449327 206.8,-259.4637616745124 207.20000000000002,-259.93988168679795 207.6,-260.40653649691995 208.0,-260.86365241467433 208.4,-261.3111572561586 208.8,-261.7489803551706 209.20000000000002,-262.17705257436756 209.60000000000002,-262.5953063161839 210.0,-263.003675533505 210.4,-263.40209574009765 210.8,-263.7905040207925 211.20000000000002,-264.1688390414196 211.60000000000002,-264.5370410584932 212.0,-264.89505192864647 212.4,-265.24281511781294 212.8,-265.58027571015367 213.20000000000002,-265.907380416729 213.60000000000002,-266.224077583914 214.0,-266.5303172015546 214.4,-266.8260509108652 214.8,-267.1112320120648 215.20000000000002,-267.38581547175164 215.60000000000002,-267.6497579300143 216.0,-267.90301770727893 216.4,-268.1455548108909 216.8,-268.3773309414298 217.20000000000002,-268.59830949875794 217.60000000000002,-268.80845558779936 218.00000000000003,-269.0077360240506 218.4,-269.19611933882055 218.8,-269.37357578420006 219.20000000000002,-269.54007733775927 219.60000000000002,-269.69559770697253 220.00000000000003,-269.840112333371 220.4,-269.9735983964198 220.8,-270.0960348171221 221.20000000000002,-270.2074022613477 221.60000000000002,-270.3076831428862 222.00000000000003,-270.396861626224 222.40000000000003,-270.4749236290446 222.8,-270.541856824453 223.20000000000002,-270.5976506429217 223.60000000000002,-270.6422962739599 224.00000000000003,-270.675786667505 224.40000000000003,-270.6981165350356 224.8,-270.70928235040674 225.2,-270.70928235040674 225.59999999999997,-270.6981165350356 225.99999999999997,-270.675786667505 226.39999999999998,-270.6422962739599 226.79999999999998,-270.5976506429217 227.2,-270.541856824453 227.59999999999997,-270.4749236290446 227.99999999999997,-270.3968616262239 228.39999999999998,-270.3076831428862 228.79999999999998,-270.2074022613477 229.2,-270.0960348171221 229.6,-269.9735983964198 229.99999999999997,-269.84011233337105 230.39999999999998,-269.69559770697253 230.79999999999998,-269.5400773377592 231.2,-269.37357578420006 231.6,-269.19611933882055 231.99999999999997,-269.00773602405064 232.39999999999998,-268.8084555877994 232.79999999999998,-268.59830949875794 233.2,-268.3773309414298 233.6,-268.1455548108909 234.0,-267.90301770727893 234.39999999999998,-267.64975793001435 234.79999999999998,-267.38581547175164 235.2,-267.1112320120648 235.6,-266.8260509108652 236.0,-266.5303172015546 236.39999999999998,-266.224077583914 236.79999999999998,-265.90738041672904 237.2,-265.58027571015367 237.6,-265.242815117813 238.0,-264.89505192864647 238.39999999999998,-264.5370410584932 238.79999999999998,-264.1688390414196 239.2,-263.7905040207926 239.6,-263.40209574009765 240.0,-263.0036755335051 240.39999999999998,-262.59530631618395 240.79999999999998,-262.1770525743676 241.2,-261.7489803551706 241.6,-261.3111572561586 242.0,-260.86365241467433 242.4,-260.40653649691995 242.79999999999998,-259.93988168679795 243.2,-259.4637616745124 243.6,-258.97825164493275 244.0,-258.4834282657207 244.4,-257.97936967522406 244.79999999999998,-257.4661554701376 245.2,-256.94386669293357 245.6,-256.4125858190644 246.0,-255.87239674393913 246.4,-255.32338476967453 246.8,-254.76563659162576 247.2,-254.1992402846958 247.6,-253.62428528942732 248.0,-253.04086239787924 248.4,-252.44906373928941 248.8,-251.84898276552622 249.2,-251.24071423633188 249.6,-250.62435420435847 250.0,-250.0 250.4,-249.3677502160232 250.8,-248.72770469199816 251.2,-248.07996449853272 251.6,-247.4246319213124 252.0,-246.76181044494797 252.4,-246.09160473663408 252.8,-245.4141206296215 253.2,-244.7294651065043 253.6,-244.03774628232634 254.0,-243.3390733875087 254.4,-242.63355675060066 254.8,-241.9213077808579 255.20000000000002,-241.20243895064922 255.6,-240.4770637776965 256.0,-239.7452968071482 256.4,-239.007253593492 256.80000000000007,-238.2630506823069 257.2,-237.51280559185977 257.59999999999997,-236.7566367945475 258.0,-235.9946636981888 258.40000000000003,-235.2270066271689 258.8,-234.45378680343802 259.2,-233.67512632737 259.6,-232.89114815848038 260.0,-232.10197609601033 260.40000000000003,-231.3077347593767 260.8,-230.5085495684939 261.2,-229.70454672396787 261.6,-228.89585318716806 262.0,-228.0825966601787 262.40000000000003,-227.26490556563283 262.8,-226.44290902643345 263.2,-225.61673684536274 263.6,-224.78651948458557 264.0,-223.95238804504726 264.40000000000003,-223.11447424577187 264.80000000000007,-222.27291040306156 265.2,-221.4278294096028 265.59999999999997,-220.57936471348108 266.0,-219.72765029710743 266.40000000000003,-218.87282065606172 266.8,-218.01501077785372 267.2,-217.1543561206073 267.6,-216.29099259166975 268.0,-215.42505652615094 268.40000000000003,-214.55668466539353 268.8,-213.6860141353812 269.2,-212.81318242508357 269.6,-211.93832736474576 270.0,-211.06158710412376 270.40000000000003,-210.18310009066784 270.8,-209.30300504766151 271.20000000000005,-208.42144095231419 271.6,-207.53854701381613 272.00000000000006,-206.65446265135492 272.40000000000003,-205.76932747210014 272.79999999999995,-204.8832812491574 273.20000000000005,-203.99646389949646 273.6,-203.10901546185747 274.0,-202.22107607463607 274.40000000000003,-201.33278595375512 274.8,-200.44428537052178 275.2,-199.5557146294783 275.59999999999997,-198.66721404624496 276.0,-197.77892392536398 276.4,-196.89098453814253 276.79999999999995,-196.00353610050357 277.20000000000005,-195.11671875084267 277.59999999999997,-194.23067252789988 277.99999999999994,-193.34553734864514 278.4,-192.4614529861839 278.79999999999995,-191.57855904768587 279.2,-190.69699495233854 279.59999999999997,-189.8168999093322 280.0,-188.9384128958763 280.4,-188.06167263525427 280.8,-187.1868175749165 281.2,-186.31398586461881 281.59999999999997,-185.4433153346065 282.0,-184.57494347384912 282.4,-183.7090074083303 282.8,-182.84564387939275 283.2,-181.98498922214637 283.59999999999997,-181.1271793439383 284.0,-180.27234970289265 284.40000000000003,-179.42063528651897 284.8,-178.57217059039723 285.19999999999993,-177.72708959693853 285.59999999999997,-176.88552575422813 286.0,-176.0476119549527 286.4,-175.21348051541443 286.8,-174.38326315463732 287.2,-173.55709097356663 287.59999999999997,-172.73509443436723 288.0,-171.91740333982133 288.4,-171.104146812832 288.8,-170.29545327603213 289.2,-169.49145043150617 289.59999999999997,-168.69226524062336 290.0,-167.89802390398972 290.4,-167.10885184151965 290.8,-166.32487367263005 291.2,-165.54621319656204 291.59999999999997,-164.77299337283114 292.0,-164.0053363018112 292.40000000000003,-163.24336320545254 292.8,-162.48719440814023 293.19999999999993,-161.73694931769313 293.6,-160.99274640650805 294.0,-160.25470319285188 294.4,-159.52293622230354 294.8,-158.79756104935083 295.2,-158.07869221914214 295.6,-157.36644324939937 296.00000000000006,-156.6609266124913 296.4,-155.9622537176737 296.79999999999995,-155.27053489349578 297.2,-154.58587937037854 297.6,-153.908395263366 298.0,-153.2381895550521 298.4,-152.57536807868763 298.8,-151.92003550146725 299.2,-151.2722953080019 299.6,-150.63224978397682 300.0,-150.00000000000003 300.4,-149.37564579564162 300.8,-148.75928576366815 301.2,-148.15101723447387 301.6,-147.55093626071064 302.0,-146.95913760212076 302.4,-146.37571471057265 302.8,-145.80075971530425 303.20000000000005,-145.23436340837424 303.6,-144.67661523032552 303.99999999999994,-144.12760325606095 304.4,-143.58741418093555 304.8,-143.05613330706646 305.2,-142.53384452986242 305.6,-142.02063032477596 306.0,-141.51657173427932 306.4,-141.02174835506733 306.80000000000007,-140.53623832548757 307.2,-140.06011831320208 307.59999999999997,-139.5934635030801 308.0,-139.1363475853257 308.40000000000003,-138.6888427438415 308.8,-138.25101964482946 309.2,-137.8229474256324 309.6,-137.40469368381608 310.0,-136.99632446649497 310.40000000000003,-136.5979042599023 310.8,-136.20949597920747 311.2,-135.83116095858045 311.6,-135.46295894150686 312.0,-135.10494807135353 312.40000000000003,-134.75718488218703 312.8,-134.41972428984639 313.2,-134.09261958327096 313.6,-133.77592241608602 314.0,-133.46968279844538 314.40000000000003,-133.1739490891348 314.80000000000007,-132.88876798793518 315.2,-132.6141845282484 315.59999999999997,-132.3502420699857 316.0,-132.09698229272104 316.40000000000003,-131.85444518910913 316.8,-131.62266905857018 317.2,-131.40169050124206 317.6,-131.1915444122006 318.0,-130.9922639759494 318.40000000000003,-130.80388066117945 318.8,-130.62642421579994 319.2,-130.4599226622408 319.6,-130.3044022930274 320.0,-130.15988766662898 320.40000000000003,-130.02640160358024 320.8,-129.90396518287798 321.20000000000005,-129.79259773865232 321.6,-129.6923168571138 322.00000000000006,-129.60313837377603 322.40000000000003,-129.5250763709554 322.79999999999995,-129.458143175547 323.20000000000005,-129.4023493570783 323.6,-129.35770372604009 324.0,-129.324213332495 324.40000000000003,-129.30188346496442 324.8,-129.2907176495933 325.2,-129.29071764959326 325.59999999999997,-129.30188346496442 326.0,-129.324213332495 326.4,-129.35770372604009 326.79999999999995,-129.4023493570783 327.20000000000005,-129.458143175547 327.59999999999997,-129.5250763709554 327.99999999999994,-129.60313837377603 328.4,-129.6923168571138 328.79999999999995,-129.79259773865232 329.2,-129.90396518287793 329.59999999999997,-130.0264016035802 330.0,-130.15988766662898 330.4,-130.3044022930274 330.8,-130.4599226622408 331.2,-130.62642421579994 331.59999999999997,-130.80388066117945 332.0,-130.9922639759494 332.4,-131.19154441220059 332.8,-131.40169050124206 333.2,-131.62266905857018 333.59999999999997,-131.85444518910913 334.0,-132.09698229272104 334.40000000000003,-132.3502420699857 334.8,-132.61418452824836 335.19999999999993,-132.88876798793513 335.59999999999997,-133.17394908913477 336.0,-133.46968279844535 336.4,-133.775922416086 336.8,-134.09261958327096 337.2,-134.41972428984636 337.59999999999997,-134.75718488218703 338.0,-135.10494807135353 338.4,-135.46295894150683 338.8,-135.83116095858045 339.2,-136.20949597920742 339.59999999999997,-136.5979042599023 340.0,-136.99632446649494 340.4,-137.40469368381608 340.8,-137.82294742563238 341.2,-138.2510196448294 341.59999999999997,-138.68884274384146 342.0,-139.13634758532567 342.40000000000003,-139.59346350308007 342.8,-140.06011831320205 343.19999999999993,-140.53623832548757 343.6,-141.0217483550673 344.0,-141.5165717342793 344.4,-142.0206303247759 344.8,-142.53384452986236 345.2,-143.05613330706646 345.6,-143.5874141809355 346.00000000000006,-144.12760325606092 346.4,-144.67661523032547 346.79999999999995,-145.2343634083742 347.2,-145.80075971530422 347.6,-146.37571471057262 348.0,-146.95913760212073 348.4,-147.55093626071059 348.8,-148.1510172344738 349.2,-148.75928576366812 349.6,-149.3756457956416 350.0,-149.99999999999997 350.4,-150.63224978397673 350.8,-151.27229530800184 351.2,-151.9200355014672 351.6,-152.57536807868757 352.0,-153.23818955505206 352.4,-153.90839526336595 352.8,-154.58587937037848 353.20000000000005,-155.27053489349578 353.6,-155.96225371767366 353.99999999999994,-156.66092661249124 354.4,-157.36644324939934 354.8,-158.07869221914206 355.2,-158.79756104935078 355.6,-159.52293622230349 356.0,-160.25470319285182 356.4,-160.99274640650796 356.80000000000007,-161.7369493176931 357.2,-162.4871944081402 357.59999999999997,-163.24336320545248 358.0,-164.00533630181118 358.40000000000003,-164.7729933728311 358.8,-165.54621319656195 359.2,-166.32487367262996 359.6,-167.10885184151962 360.0,-167.89802390398967 360.40000000000003,-168.69226524062327 360.8,-169.4914504315061 361.2,-170.29545327603208 361.6,-171.1041468128319 362.0,-171.91740333982128 362.40000000000003,-172.73509443436714 362.8,-173.55709097356657 363.2,-174.3832631546373 363.6,-175.2134805154144 364.0,-176.0476119549527 364.40000000000003,-176.8855257542281 364.80000000000007,-177.7270895969385 365.2,-178.57217059039718 365.59999999999997,-179.42063528651892 366.0,-180.27234970289263 366.40000000000003,-181.12717934393828 366.8,-181.9849892221463 367.2,-182.84564387939272 367.6,-183.70900740833025 368.0,-184.57494347384906 368.40000000000003,-185.44331533460644 368.8,-186.3139858646188 369.2,-187.1868175749164 369.6,-188.0616726352542 370.0,-188.93841289587624 370.40000000000003,-189.81689990933214 370.8,-190.69699495233849 371.20000000000005,-191.57855904768584 371.6,-192.46145298618384 372.00000000000006,-193.34553734864508 372.40000000000003,-194.23067252789983 372.79999999999995,-195.1167187508426 373.20000000000005,-196.0035361005035 373.6,-196.8909845381425 374.0,-197.7789239253639 374.40000000000003,-198.66721404624488 374.8,-199.55571462947827 375.2,-200.44428537052167 375.59999999999997,-201.33278595375504 376.0,-202.22107607463604 376.4,-203.10901546185747 376.79999999999995,-203.99646389949643 377.20000000000005,-204.88328124915736 377.59999999999997,-205.76932747210012 377.99999999999994,-206.65446265135483 378.4,-207.53854701381613 378.79999999999995,-208.4214409523141 379.2,-209.3030050476615 379.59999999999997,-210.1831000906678 380.0,-211.06158710412365 380.4,-211.9383273647457 380.8,-212.81318242508354 381.2,-213.68601413538119 381.59999999999997,-214.5566846653935 382.0,-215.42505652615085 382.4,-216.29099259166972 382.8,-217.15435612060728 383.2,-218.01501077785363 383.59999999999997,-218.8728206560617 384.0,-219.72765029710732 384.40000000000003,-220.579364713481 384.8,-221.42782940960277 385.19999999999993,-222.27291040306145 385.59999999999997,-223.11447424577185 386.0,-223.95238804504726 386.4,-224.7865194845855 386.8,-225.61673684536265 387.2,-226.44290902643334 387.59999999999997,-227.2649055656328 388.0,-228.08259666017867 388.4,-228.89585318716803 388.8,-229.70454672396787 389.2,-230.50854956849386 389.59999999999997,-231.30773475937667 390.0,-232.10197609601028 390.4,-232.89114815848032 390.8,-233.67512632736998 391.2,-234.45378680343794 391.59999999999997,-235.22700662716883 392.0,-235.99466369818876 392.40000000000003,-236.7566367945475 392.8,-237.51280559185977 393.19999999999993,-238.26305068230687 393.6,-239.00725359349195 394.0,-239.7452968071481 394.4,-240.47706377769646 394.8,-241.20243895064917 395.2,-241.92130778085783 395.6,-242.6335567506006 396.00000000000006,-243.3390733875087 396.4,-244.0377462823263 396.79999999999995,-244.72946510650422 397.2,-245.41412062962144 397.6,-246.091604736634 398.0,-246.76181044494794 398.4,-247.42463192131234 398.8,-248.07996449853272 399.2,-248.7277046919981 399.6,-249.3677502160232 400.0,-250.0" stroke="red" stroke-width="2.0"/><g><g><line fill="none" stroke="black" x1="-8.0" x2="408.0" y1="0.0" y2="0.0"/><polyline fill="black" points="408.0,-5.0 408.0,5.0 424.0,0.0" stroke="none"/><line fill="none" stroke="black" x1="31.83098861837907" x2="31.83098861837907" y1="-3.0" y2="3.0"/><line fill="none" stroke="black" x1="63.66197723675814" x2="63.66197723675814" y1="-3.0" y2="3.0"/><line fill="none" stroke="black" x1="95.4929658551372" x2="95.4929658551372" y1="-3.0" y2="3.0"/><line fill="none" stroke="black" x1="127.32395447351628" x2="127.32395447351628" y1="-3.0" y2="3.0"/><line fill="none" stroke="black" x1="159.15494309189535" x2="159.15494309189535" y1="-3.0" y2="3.0"/><line fill="none" stroke="black" x1="190.9859317102744" x2="190.9859317102744" y1="-3.0" y2="3.0"/><line fill="none" stroke="black" x1="222.8169203286535" x2="222.8169203286535" y1="-3.0" y2="3.0"/><line fill="none" stroke="black" x1="254.64790894703256" x2="254.64790894703256" y1="-3.0" y2="3.0"/><line fill="none" stroke="black" x1="286.4788975654116" x2="286.4788975654116" y1="-3.0" y2="3.0"/><line fill="none" stroke="black" x1="318.3098861837907" x2="318.3098861837907" y1="-3.0" y2="3.0"/><line fill="none" stroke="black" x1="350.1408748021698" x2="350.1408748021698" y1="-3.0" y2="3.0"/><line fill="none" stroke="black" x1="381.9718634205488" x2="381.9718634205488" y1="-3.0" y2="3.0"/><text dominant-baseline="middle" fill="black" stroke="none" text-anchor="middle" x="31.83098861837907" y="14.0">1</text><text dominant-baseline="middle" fill="black" stroke="none" text-anchor="middle" x="63.66197723675814" y="14.0">2</text><text dominant-baseline="middle" fill="black" stroke="none" text-anchor="middle" x="95.4929658551372" y="14.0">3</text><text dominant-baseline="middle" fill="black" stroke="none" text-anchor="middle" x="127.32395447351628" y="14.0">4</text><text dominant-baseline="middle" fill="black" stroke="none" text-anchor="middle" x="159.15494309189535" y="14.0">5</text><text dominant-baseline="middle" fill="black" stroke="none" text-anchor="middle" x="190.9859317102744" y="14.0">6</text><text dominant-baseline="middle" fill="black" stroke="none" text-anchor="middle" x="222.8169203286535" y="14.0">7</text><text dominant-baseline="middle" fill="black" stroke="none" text-anchor="middle" x="254.64790894703256" y="14.0">8</text><text dominant-baseline="middle" fill="black" stroke="none" text-anchor="middle" x="286.4788975654116" y="14.0">9</text><text dominant-baseline="middle" fill="black" stroke="none" text-anchor="middle" x="318.3098861837907" y="14.0">10</text><text dominant-baseline="middle" fill="black" stroke="none" text-anchor="middle" x="350.1408748021698" y="14.0">11</text><text dominant-baseline="middle" fill="black" stroke="none" text-anchor="middle" x="381.9718634205488" y="14.0">12</text></g><g><line fill="none" stroke="black" x1="0.0" x2="0.0" y1="8.0" y2="-308.0"/><polyline fill="black" points="-5.0,-308.0 5.0,-308.0 0.0,-324.0" stroke="none"/><line fill="none" stroke="black" x1="-3.0" x2="3.0" y1="-50.0" y2="-50.0"/><line fill="none" stroke="black" x1="-3.0" x2="3.0" y1="-100.0" y2="-100.0"/><line fill="none" stroke="black" x1="-3.0" x2="3.0" y1="-150.0" y2="-150.0"/><line fill="none" stroke="black" x1="-3.0" x2="3.0" y1="-200.0" y2="-200.0"/><line fill="none" stroke="black" x1="-3.0" x2="3.0" y1="-250.0" y2="-250.0"/><line fill="none" stroke="black" x1="-3.0" x2="3.0" y1="-300.0" y2="-300.0"/><text dominant-baseline="middle" fill="black" stroke="none" text-anchor="middle" x="-10.0" y="-50.0">1</text><text dominant-baseline="middle" fill="black" stroke="none" text-anchor="middle" x="-10.0" y="-100.0">2</text><text dominant-baseline="middle" fill="black" stroke="none" text-anchor="middle" x="-10.0" y="-150.0">3</text><text dominant-baseline="middle" fill="black" stroke="none" text-anchor="middle" x="-10.0" y="-200.0">4</text><text dominant-baseline="middle" fill="black" stroke="none" text-anchor="middle" x="-10.0" y="-250.0">5</text><text dominant-baseline="middle" fill="black" stroke="none" text-anchor="middle" x="-10.0" y="-300.0">6</text></g><text dominant-baseline="middle" fill="black" stroke="none" text-anchor="middle" x="-10.0" y="14.0">0</text></g></g></svg>